<svg version="1.1" xmlns="http://www.w3.org/2000/svg" viewBox="0 0 2131.552543872545 1316.5304814439046" width="2131.552543872545" height="1316.5304814439046">
  <!-- svg-source:excalidraw -->
  
  <defs>
    <style class="style-fonts">
      @font-face {
        font-family: "Virgil";
        src: url("https://unpkg.com/@excalidraw/excalidraw@undefined/dist/excalidraw-assets/Virgil.woff2");
      }
      @font-face {
        font-family: "Cascadia";
        src: url("https://unpkg.com/@excalidraw/excalidraw@undefined/dist/excalidraw-assets/Cascadia.woff2");
      }
      @font-face {
        font-family: "Assistant";
        src: url("https://unpkg.com/@excalidraw/excalidraw@undefined/dist/excalidraw-assets/Assistant-Regular.woff2");
      }
    </style>
    
  </defs>
  <rect x="0" y="0" width="2131.552543872545" height="1316.5304814439046" fill="#ffffff"></rect><g transform="translate(1137.552543872545 501.5117697146035) rotate(0 -4 41.5)" stroke="none"><path fill="#1e1e1e" d="M 2.60,0.34 Q 2.60,0.34 2.02,4.65 1.45,8.97 1.21,15.28 0.98,21.59 0.88,29.17 0.77,36.76 1.02,45.41 1.26,54.06 1.65,62.62 2.04,71.18 2.49,79.13 2.95,87.08 3.14,92.80 3.33,98.52 2.66,101.74 1.99,104.96 -0.65,106.76 -3.30,108.57 -6.12,107.67 -8.94,106.78 -11.62,104.43 -14.30,102.08 -16.93,98.37 -19.55,94.66 -22.07,90.52 -24.59,86.38 -27.09,82.03 -29.59,77.69 -32.09,73.26 -34.59,68.82 -36.82,64.61 -39.05,60.40 -40.62,56.48 -42.20,52.57 -43.17,49.09 -44.15,45.61 -44.26,41.44 -44.37,37.27 -41.35,32.47 -38.33,27.66 -33.15,23.32 -27.97,18.99 -21.45,14.59 -14.94,10.20 -7.62,5.21 -0.30,0.21 5.91,-4.45 12.14,-9.13 17.42,-12.88 22.71,-16.63 25.69,-19.27 28.68,-21.92 28.35,-21.13 28.01,-20.34 27.59,-20.30 27.17,-20.26 26.76,-20.36 26.34,-20.45 25.98,-20.68 25.62,-20.90 25.35,-21.23 25.08,-21.55 24.92,-21.95 24.77,-22.35 24.75,-22.77 24.73,-23.20 24.85,-23.61 24.97,-24.01 25.21,-24.36 25.46,-24.71 25.80,-24.96 26.14,-25.22 26.54,-25.35 26.95,-25.48 27.37,-25.47 27.80,-25.47 28.20,-25.33 28.60,-25.19 28.93,-24.93 29.27,-24.67 29.50,-24.31 29.74,-23.96 29.85,-23.55 29.96,-23.14 29.93,-22.71 29.90,-22.29 29.74,-21.90 29.58,-21.50 29.30,-21.18 29.02,-20.86 28.65,-20.65 28.28,-20.43 27.87,-20.35 27.45,-20.26 27.03,-20.31 26.61,-20.36 26.23,-20.54 25.84,-20.73 25.54,-21.02 25.23,-21.32 25.04,-21.70 24.84,-22.07 24.78,-22.49 24.71,-22.91 24.79,-23.33 24.86,-23.75 25.07,-24.12 25.27,-24.50 25.58,-24.79 25.89,-25.07 26.28,-25.25 26.67,-25.42 26.67,-25.42 26.67,-25.42 30.81,-24.92 34.95,-24.42 33.55,-21.20 32.16,-17.99 28.95,-15.16 25.75,-12.34 20.52,-8.64 15.29,-4.93 8.97,-0.18 2.65,4.55 -4.67,9.55 -12.01,14.56 -18.32,18.80 -24.63,23.04 -29.33,26.85 -34.02,30.65 -36.66,34.18 -39.30,37.71 -39.19,40.97 -39.09,44.24 -38.20,47.43 -37.32,50.62 -35.86,54.28 -34.40,57.95 -32.21,62.09 -30.02,66.24 -27.53,70.65 -25.04,75.07 -22.57,79.36 -20.10,83.65 -17.67,87.65 -15.24,91.66 -13.00,94.93 -10.75,98.21 -8.74,100.11 -6.73,102.02 -4.64,102.53 -2.54,103.04 -2.22,100.85 -1.90,98.67 -2.10,93.02 -2.29,87.38 -2.74,79.40 -3.20,71.42 -3.59,62.81 -3.98,54.21 -4.22,45.45 -4.47,36.69 -4.36,29.04 -4.26,21.39 -4.00,14.83 -3.75,8.27 -3.17,3.96 -2.60,-0.34 -2.52,-0.65 -2.44,-0.96 -2.29,-1.23 -2.14,-1.51 -1.93,-1.75 -1.71,-1.98 -1.45,-2.16 -1.19,-2.33 -0.89,-2.44 -0.59,-2.55 -0.28,-2.59 0.03,-2.62 0.34,-2.58 0.65,-2.54 0.95,-2.42 1.24,-2.31 1.50,-2.12 1.76,-1.94 1.97,-1.70 2.17,-1.46 2.32,-1.18 2.46,-0.90 2.53,-0.59 2.61,-0.28 2.60,0.03 2.60,0.34 2.60,0.34 L 2.60,0.34 Z"></path></g><g transform="translate(942.5525438725449 493.5117697146035) rotate(0 29 -35)" stroke="none"><path fill="#1e1e1e" d="M -1.85,-1.85 Q -1.85,-1.85 3.60,-7.31 9.06,-12.78 14.52,-18.52 19.98,-24.27 25.14,-30.40 30.29,-36.53 35.06,-42.58 39.84,-48.63 43.28,-53.47 46.71,-58.30 48.80,-60.99 50.88,-63.68 52.26,-65.86 53.64,-68.04 53.92,-68.36 54.20,-68.67 54.57,-68.88 54.94,-69.09 55.36,-69.17 55.78,-69.26 56.20,-69.20 56.62,-69.14 57.00,-68.95 57.38,-68.77 57.68,-68.47 57.98,-68.17 58.17,-67.79 58.36,-67.41 58.42,-66.99 58.48,-66.56 58.40,-66.15 58.32,-65.73 58.11,-65.36 57.91,-64.99 57.59,-64.70 57.27,-64.42 56.88,-64.25 56.49,-64.08 56.07,-64.05 55.65,-64.01 55.24,-64.11 54.82,-64.21 54.46,-64.44 54.11,-64.67 53.84,-65.00 53.57,-65.33 53.42,-65.73 53.28,-66.13 53.26,-66.55 53.25,-66.98 53.38,-67.38 53.50,-67.79 53.75,-68.14 53.99,-68.48 54.34,-68.73 54.68,-68.98 55.09,-69.11 55.49,-69.23 55.92,-69.22 56.34,-69.21 56.74,-69.06 57.14,-68.92 57.47,-68.65 57.81,-68.39 58.04,-68.03 58.27,-67.67 58.37,-67.26 58.47,-66.85 58.44,-66.42 58.41,-66.00 58.24,-65.61 58.07,-65.22 58.07,-65.22 58.07,-65.22 56.55,-62.84 55.04,-60.47 53.02,-57.86 50.99,-55.25 47.48,-50.31 43.96,-45.38 39.14,-39.27 34.31,-33.15 29.05,-26.90 23.79,-20.65 18.28,-14.86 12.78,-9.06 7.31,-3.60 1.85,1.85 1.60,2.05 1.35,2.24 1.07,2.37 0.78,2.50 0.46,2.56 0.15,2.62 -0.15,2.60 -0.47,2.58 -0.77,2.48 -1.07,2.39 -1.34,2.23 -1.61,2.06 -1.84,1.84 -2.06,1.61 -2.23,1.34 -2.39,1.07 -2.48,0.77 -2.58,0.47 -2.60,0.15 -2.62,-0.15 -2.56,-0.47 -2.50,-0.78 -2.37,-1.07 -2.24,-1.35 -2.05,-1.60 -1.85,-1.85 -1.85,-1.85 L -1.85,-1.85 Z"></path></g><g transform="translate(1172.552543872545 531.5117697146035) rotate(0 2.5 26.5)" stroke="none"><path fill="#1e1e1e" d="M 2.58,0.48 Q 2.58,0.48 1.71,5.08 0.85,9.68 0.51,16.35 0.16,23.02 0.58,30.09 1.00,37.17 2.03,44.15 3.06,51.13 4.35,57.22 5.64,63.32 6.75,67.30 7.85,71.28 6.00,65.87 4.15,60.46 3.64,54.34 3.13,48.22 2.91,41.25 2.69,34.28 2.60,27.01 2.50,19.74 2.46,12.34 2.43,4.94 2.41,-1.94 2.39,-8.82 2.39,-13.47 2.38,-18.12 2.38,-19.81 2.37,-21.50 2.41,-21.81 2.45,-22.12 2.56,-22.42 2.67,-22.72 2.85,-22.98 3.03,-23.24 3.27,-23.45 3.50,-23.66 3.78,-23.81 4.06,-23.95 4.37,-24.03 4.68,-24.11 5.00,-24.11 5.31,-24.11 5.62,-24.03 5.93,-23.96 6.21,-23.81 6.49,-23.66 6.73,-23.45 6.96,-23.24 7.14,-22.98 7.32,-22.72 7.44,-22.43 7.55,-22.13 7.59,-21.82 7.63,-21.50 7.33,-15.70 7.04,-9.91 6.92,-3.33 6.80,3.23 6.75,10.92 6.70,18.62 6.68,25.91 6.65,33.21 6.93,39.41 7.21,45.62 7.61,50.53 8.01,55.44 7.89,59.27 7.77,63.09 7.56,63.46 7.34,63.82 7.02,64.11 6.70,64.39 6.31,64.55 5.92,64.71 5.50,64.74 5.07,64.77 4.66,64.67 4.25,64.56 3.89,64.33 3.54,64.10 3.28,63.76 3.01,63.43 2.87,63.03 2.73,62.63 2.72,62.20 2.71,61.78 2.84,61.37 2.97,60.97 3.22,60.63 3.47,60.28 3.82,60.04 4.17,59.79 4.58,59.67 4.98,59.55 5.41,59.57 5.83,59.58 6.23,59.73 6.63,59.89 6.96,60.15 7.28,60.42 7.51,60.78 7.73,61.14 7.83,61.56 7.93,61.97 7.89,62.39 7.85,62.82 7.68,63.21 7.51,63.60 7.22,63.91 6.94,64.22 6.56,64.43 6.19,64.63 5.77,64.71 5.36,64.78 4.94,64.72 4.52,64.66 4.14,64.47 3.76,64.28 3.46,63.97 3.16,63.67 2.98,63.29 2.79,62.90 2.74,62.48 2.69,62.06 2.77,61.64 2.86,61.23 2.86,61.23 2.86,61.23 2.82,58.55 2.78,55.87 2.37,50.86 1.96,45.85 1.68,39.52 1.40,33.19 1.42,25.89 1.45,18.58 1.50,10.86 1.55,3.13 1.68,-3.57 1.80,-10.27 2.09,-15.88 2.37,-21.50 2.41,-21.81 2.45,-22.12 2.56,-22.42 2.67,-22.72 2.85,-22.98 3.03,-23.24 3.27,-23.45 3.50,-23.66 3.78,-23.81 4.06,-23.95 4.37,-24.03 4.68,-24.11 5.00,-24.11 5.31,-24.11 5.62,-24.03 5.93,-23.96 6.21,-23.81 6.49,-23.66 6.73,-23.45 6.96,-23.24 7.14,-22.98 7.32,-22.72 7.44,-22.43 7.55,-22.13 7.59,-21.82 7.63,-21.50 7.63,-19.82 7.63,-18.13 7.64,-13.48 7.65,-8.83 7.66,-1.96 7.68,4.91 7.72,12.29 7.76,19.67 7.85,26.89 7.94,34.11 8.15,40.95 8.36,47.78 8.87,53.84 9.37,59.90 9.89,64.97 10.41,70.03 9.05,73.93 7.68,77.83 5.24,75.26 2.80,72.70 1.65,68.55 0.50,64.41 -0.81,58.15 -2.13,51.89 -3.18,44.68 -4.24,37.47 -4.66,30.11 -5.08,22.74 -4.69,15.73 -4.30,8.71 -3.44,4.11 -2.58,-0.48 -2.48,-0.78 -2.39,-1.08 -2.22,-1.35 -2.06,-1.62 -1.83,-1.85 -1.61,-2.07 -1.33,-2.23 -1.06,-2.39 -0.76,-2.49 -0.46,-2.58 -0.14,-2.60 0.16,-2.62 0.48,-2.56 0.79,-2.50 1.08,-2.37 1.36,-2.24 1.61,-2.04 1.86,-1.84 2.05,-1.59 2.25,-1.34 2.38,-1.06 2.51,-0.77 2.56,-0.45 2.62,-0.14 2.60,0.16 2.58,0.48 2.58,0.48 L 2.58,0.48 Z"></path></g><g transform="translate(1200.552543872545 512.5117697146035) rotate(0 -2.5 44)" stroke="none"><path fill="#1e1e1e" d="M 2.58,0.45 Q 2.58,0.45 1.72,5.34 0.86,10.22 0.51,16.75 0.16,23.27 0.01,30.09 -0.14,36.91 0.36,43.72 0.86,50.54 1.37,57.23 1.87,63.91 2.65,69.55 3.43,75.18 3.77,78.76 4.10,82.34 4.11,82.66 4.11,82.98 4.04,83.29 3.97,83.59 3.83,83.88 3.68,84.16 3.48,84.40 3.27,84.64 3.02,84.82 2.76,85.01 2.46,85.13 2.17,85.24 1.86,85.29 1.54,85.33 1.23,85.30 0.91,85.26 0.61,85.16 0.32,85.05 0.05,84.87 -0.20,84.70 -0.41,84.46 -0.63,84.23 -0.78,83.95 -0.93,83.67 -1.01,83.37 -1.09,83.06 -3.80,79.56 -6.50,76.07 -6.70,75.69 -6.89,75.31 -6.96,74.89 -7.02,74.47 -6.95,74.05 -6.87,73.63 -6.67,73.26 -6.47,72.89 -6.15,72.60 -5.84,72.31 -5.45,72.14 -5.07,71.96 -4.64,71.92 -4.22,71.88 -3.81,71.98 -3.39,72.07 -3.03,72.30 -2.67,72.52 -2.40,72.85 -2.13,73.18 -1.97,73.57 -1.82,73.97 -1.80,74.39 -1.79,74.82 -1.90,75.23 -2.02,75.63 -2.27,75.98 -2.51,76.33 -2.85,76.58 -3.19,76.84 -3.60,76.97 -4.00,77.10 -4.42,77.09 -4.85,77.09 -5.25,76.95 -5.65,76.81 -5.99,76.55 -6.32,76.29 -6.56,75.93 -6.79,75.58 -6.90,75.17 -7.01,74.76 -6.98,74.33 -6.95,73.91 -6.79,73.51 -6.63,73.12 -6.35,72.80 -6.07,72.48 -5.70,72.27 -5.34,72.05 -4.92,71.96 -4.50,71.88 -4.08,71.93 -3.66,71.98 -3.28,72.16 -2.89,72.35 -2.59,72.64 -2.28,72.94 -2.28,72.94 -2.28,72.94 -0.40,75.50 1.46,78.07 2.78,80.21 4.10,82.34 4.11,82.66 4.11,82.98 4.04,83.29 3.97,83.59 3.83,83.88 3.69,84.16 3.48,84.40 3.27,84.64 3.02,84.82 2.76,85.01 2.46,85.13 2.17,85.24 1.86,85.29 1.54,85.33 1.23,85.30 0.91,85.26 0.61,85.16 0.32,85.05 0.05,84.87 -0.20,84.70 -0.41,84.46 -0.63,84.23 -0.78,83.95 -0.93,83.67 -1.01,83.37 -1.09,83.06 -1.43,79.48 -1.76,75.90 -2.56,70.10 -3.36,64.31 -3.86,57.62 -4.37,50.93 -4.88,43.86 -5.39,36.79 -5.23,29.89 -5.08,22.98 -4.69,16.15 -4.31,9.32 -3.44,4.43 -2.58,-0.45 -2.49,-0.75 -2.40,-1.06 -2.24,-1.33 -2.07,-1.60 -1.85,-1.83 -1.63,-2.05 -1.36,-2.22 -1.09,-2.38 -0.79,-2.48 -0.49,-2.58 -0.17,-2.60 0.14,-2.62 0.45,-2.56 0.76,-2.51 1.05,-2.38 1.34,-2.25 1.59,-2.06 1.84,-1.86 2.04,-1.62 2.23,-1.37 2.37,-1.08 2.50,-0.79 2.56,-0.48 2.62,-0.17 2.60,0.14 2.58,0.45 2.58,0.45 L 2.58,0.45 Z"></path></g><g transform="translate(1174.552543872545 559.5117697146035) rotate(0 34 2)" stroke="none"><path fill="#1e1e1e" d="M -0.70,-2.53 Q -0.70,-2.53 4.47,-3.96 9.65,-5.40 14.32,-6.05 18.99,-6.69 23.30,-6.96 27.61,-7.23 31.28,-6.67 34.95,-6.10 37.03,-2.49 39.11,1.12 39.87,6.01 40.63,10.91 41.20,15.45 41.76,19.99 42.80,23.37 43.83,26.76 45.49,28.56 47.15,30.37 48.57,27.91 49.99,25.45 51.19,20.70 52.39,15.94 52.95,9.09 53.50,2.24 53.46,-4.65 53.42,-11.56 52.05,-16.17 50.67,-20.78 49.10,-22.62 47.53,-24.47 45.81,-21.60 44.09,-18.74 42.84,-12.77 41.60,-6.79 41.04,-0.52 40.48,5.73 40.51,11.15 40.54,16.58 42.06,19.49 43.58,22.40 45.76,23.41 47.94,24.42 52.01,22.95 56.08,21.48 57.95,20.41 59.82,19.34 62.63,18.21 65.43,17.07 65.74,16.98 66.04,16.89 66.36,16.87 66.67,16.85 66.98,16.91 67.29,16.96 67.58,17.09 67.87,17.22 68.12,17.42 68.37,17.62 68.56,17.87 68.76,18.12 68.89,18.40 69.02,18.69 69.07,19.00 69.13,19.32 69.11,19.63 69.09,19.95 69.00,20.25 68.90,20.55 68.74,20.82 68.57,21.09 68.35,21.32 68.13,21.54 67.85,21.70 67.58,21.87 64.81,19.35 62.03,16.84 61.90,16.44 61.77,16.03 61.77,15.61 61.77,15.18 61.91,14.78 62.05,14.38 62.31,14.04 62.57,13.71 62.93,13.47 63.28,13.24 63.69,13.13 64.10,13.02 64.53,13.04 64.95,13.07 65.34,13.23 65.74,13.39 66.06,13.67 66.38,13.95 66.60,14.31 66.81,14.68 66.90,15.10 66.99,15.51 66.94,15.93 66.89,16.36 66.71,16.74 66.52,17.12 66.23,17.43 65.93,17.74 65.56,17.93 65.18,18.13 64.76,18.19 64.34,18.26 63.92,18.18 63.50,18.11 63.13,17.91 62.75,17.71 62.47,17.40 62.18,17.09 62.00,16.70 61.83,16.31 61.78,15.89 61.74,15.46 61.84,15.05 61.93,14.64 62.15,14.27 62.38,13.91 62.70,13.64 63.03,13.37 63.43,13.21 63.82,13.06 64.25,13.04 64.67,13.02 65.08,13.14 65.49,13.26 65.84,13.50 66.19,13.74 66.44,14.08 66.69,14.42 66.69,14.42 66.69,14.42 66.06,15.75 65.43,17.07 65.74,16.98 66.04,16.89 66.36,16.87 66.67,16.85 66.98,16.91 67.29,16.96 67.58,17.09 67.87,17.22 68.12,17.42 68.37,17.62 68.56,17.87 68.76,18.12 68.89,18.40 69.02,18.69 69.07,19.00 69.13,19.32 69.11,19.63 69.09,19.95 69.00,20.25 68.90,20.55 68.74,20.82 68.57,21.09 68.35,21.32 68.13,21.54 67.85,21.70 67.58,21.87 65.00,22.89 62.42,23.91 60.40,25.05 58.39,26.20 55.41,27.56 52.43,28.93 49.17,29.03 45.91,29.13 42.59,27.14 39.27,25.14 37.30,20.99 35.34,16.84 35.29,11.05 35.24,5.26 35.85,-1.32 36.46,-7.90 37.97,-14.57 39.48,-21.24 41.89,-24.91 44.29,-28.57 47.41,-28.48 50.54,-28.39 53.08,-25.40 55.62,-22.42 57.14,-17.03 58.67,-11.64 58.70,-4.47 58.74,2.68 58.10,9.99 57.47,17.30 55.88,22.86 54.29,28.42 51.85,31.29 49.40,34.16 46.13,33.66 42.85,33.15 40.87,30.80 38.90,28.46 37.73,24.55 36.55,20.65 35.99,16.16 35.43,11.66 34.88,7.48 34.34,3.30 33.34,0.44 32.34,-2.41 30.14,-2.20 27.93,-1.99 23.81,-1.74 19.70,-1.49 15.37,-0.91 11.04,-0.34 5.87,1.09 0.70,2.53 0.38,2.57 0.07,2.62 -0.23,2.59 -0.55,2.56 -0.85,2.46 -1.15,2.36 -1.41,2.18 -1.68,2.01 -1.90,1.78 -2.11,1.55 -2.27,1.27 -2.42,1.00 -2.51,0.69 -2.59,0.39 -2.60,0.07 -2.61,-0.24 -2.54,-0.54 -2.48,-0.85 -2.34,-1.14 -2.20,-1.42 -2.00,-1.67 -1.79,-1.91 -1.54,-2.10 -1.28,-2.28 -0.99,-2.41 -0.70,-2.53 -0.70,-2.53 L -0.70,-2.53 Z"></path></g><g transform="translate(1211.552543872545 527.5117697146035) rotate(0 19.5 -16.5)" stroke="none"><path fill="#1e1e1e" d="M -1.93,-1.77 Q -1.93,-1.77 1.22,-5.22 4.39,-8.67 8.46,-11.99 12.53,-15.32 17.12,-18.72 21.71,-22.13 24.79,-24.42 27.87,-26.71 30.54,-29.06 33.20,-31.40 33.56,-31.63 33.92,-31.85 34.33,-31.95 34.75,-32.05 35.17,-32.01 35.59,-31.97 35.98,-31.80 36.37,-31.63 36.69,-31.34 37.00,-31.05 37.20,-30.68 37.41,-30.31 37.48,-29.89 37.56,-29.47 37.50,-29.05 37.44,-28.63 37.24,-28.25 37.05,-27.87 36.75,-27.58 36.44,-27.28 36.06,-27.09 35.68,-26.91 35.26,-26.86 34.83,-26.80 34.42,-26.89 34.00,-26.97 33.63,-27.19 33.27,-27.40 32.99,-27.72 32.71,-28.04 32.54,-28.43 32.38,-28.82 32.35,-29.25 32.32,-29.67 32.43,-30.08 32.53,-30.49 32.76,-30.85 33.00,-31.20 33.33,-31.47 33.67,-31.73 34.07,-31.87 34.47,-32.01 34.89,-32.02 35.32,-32.03 35.72,-31.90 36.13,-31.77 36.47,-31.52 36.81,-31.27 37.06,-30.92 37.30,-30.57 37.42,-30.16 37.54,-29.75 37.52,-29.33 37.51,-28.91 37.36,-28.51 37.21,-28.11 36.94,-27.78 36.67,-27.45 36.67,-27.45 36.67,-27.45 33.84,-24.98 31.01,-22.50 27.92,-20.20 24.84,-17.90 20.34,-14.57 15.84,-11.24 12.05,-8.18 8.25,-5.12 5.09,-1.67 1.93,1.77 1.69,1.98 1.45,2.18 1.17,2.32 0.88,2.47 0.58,2.54 0.27,2.61 -0.04,2.60 -0.36,2.60 -0.66,2.52 -0.97,2.43 -1.25,2.28 -1.52,2.13 -1.76,1.92 -1.99,1.70 -2.17,1.44 -2.34,1.18 -2.45,0.88 -2.56,0.58 -2.59,0.27 -2.62,-0.04 -2.58,-0.35 -2.53,-0.67 -2.42,-0.96 -2.30,-1.26 -2.12,-1.51 -1.93,-1.77 -1.93,-1.77 L -1.93,-1.77 Z"></path></g><g transform="translate(1244.552543872545 527.5117697146035) rotate(0 9 29)" stroke="none"><path fill="#1e1e1e" d="M 2.47,0.88 Q 2.47,0.88 1.03,4.90 -0.39,8.92 -0.94,13.51 -1.49,18.11 -1.16,23.69 -0.84,29.27 -0.14,34.51 0.55,39.75 1.41,43.94 2.27,48.14 2.58,50.45 2.89,52.76 3.12,53.06 3.36,53.36 3.37,53.68 3.38,53.99 3.31,54.30 3.25,54.61 3.11,54.90 2.97,55.18 2.77,55.43 2.57,55.67 2.31,55.86 2.06,56.05 1.77,56.17 1.47,56.29 1.16,56.34 0.85,56.39 0.53,56.36 0.22,56.33 -0.07,56.23 -0.37,56.13 -0.64,55.96 -0.90,55.79 -1.12,55.56 -1.34,55.33 -1.50,55.05 -1.65,54.78 -1.74,54.47 -1.82,54.17 -1.77,51.69 -1.72,49.22 -1.69,45.42 -1.66,41.63 -1.65,36.27 -1.64,30.92 -1.63,25.48 -1.63,20.04 -1.34,14.78 -1.05,9.52 -0.63,5.52 -0.21,1.53 1.36,-1.58 2.94,-4.71 4.67,0.02 6.39,4.76 6.74,9.94 7.09,15.12 7.81,21.29 8.53,27.47 9.41,33.24 10.29,39.01 10.95,43.79 11.62,48.58 12.43,51.27 13.24,53.97 13.90,55.20 14.55,56.43 14.60,56.74 14.66,57.06 14.63,57.37 14.61,57.69 14.51,57.99 14.41,58.29 14.24,58.56 14.08,58.83 13.85,59.05 13.62,59.27 13.35,59.43 13.08,59.59 12.77,59.68 12.47,59.77 12.15,59.78 11.84,59.80 11.53,59.74 11.22,59.68 10.93,59.54 10.64,59.41 10.40,59.21 10.15,59.01 9.96,58.76 9.77,58.51 9.64,58.22 9.51,57.93 10.27,53.28 11.02,48.63 11.41,43.22 11.80,37.81 11.96,32.11 12.12,26.42 12.19,21.41 12.26,16.40 12.29,13.40 12.32,10.39 12.37,10.08 12.41,9.77 12.53,9.47 12.64,9.18 12.83,8.92 13.01,8.66 13.25,8.46 13.49,8.25 13.77,8.11 14.05,7.96 14.36,7.89 14.67,7.82 14.99,7.82 15.30,7.83 15.61,7.91 15.92,7.99 16.19,8.14 16.47,8.29 16.71,8.50 16.94,8.72 17.12,8.98 17.29,9.24 17.40,9.54 17.51,9.84 17.54,10.15 17.58,10.47 17.60,14.42 17.61,18.36 17.90,24.23 18.19,30.10 18.88,35.69 19.57,41.27 20.43,46.21 21.29,51.15 21.94,54.39 22.60,57.63 22.45,57.99 22.30,58.34 22.71,58.43 23.13,58.51 23.50,58.72 23.87,58.93 24.15,59.25 24.43,59.57 24.60,59.96 24.77,60.35 24.80,60.77 24.83,61.20 24.73,61.61 24.62,62.02 24.39,62.38 24.16,62.73 23.83,63.00 23.50,63.26 23.10,63.41 22.70,63.55 22.27,63.56 21.85,63.57 21.44,63.44 21.04,63.32 20.69,63.07 20.35,62.82 20.10,62.47 19.86,62.13 19.73,61.72 19.61,61.31 19.62,60.89 19.64,60.46 19.78,60.06 19.93,59.67 20.20,59.34 20.47,59.01 20.83,58.78 21.19,58.55 21.60,58.45 22.01,58.35 22.44,58.39 22.86,58.42 23.25,58.59 23.64,58.76 23.95,59.05 24.27,59.33 24.48,59.71 24.68,60.08 24.76,60.49 24.84,60.91 24.78,61.33 24.72,61.75 24.53,62.13 24.34,62.51 24.04,62.81 23.74,63.11 23.35,63.30 22.97,63.48 22.55,63.54 22.13,63.60 22.13,63.60 22.13,63.60 19.79,61.14 17.45,58.68 16.78,55.36 16.12,52.05 15.24,46.98 14.36,41.91 13.65,36.14 12.94,30.36 12.65,24.36 12.36,18.37 12.34,14.38 12.32,10.39 12.37,10.08 12.41,9.77 12.53,9.47 12.64,9.18 12.83,8.92 13.01,8.66 13.25,8.46 13.49,8.25 13.77,8.11 14.05,7.96 14.36,7.89 14.67,7.82 14.99,7.82 15.30,7.83 15.61,7.91 15.92,7.99 16.19,8.14 16.47,8.29 16.71,8.50 16.94,8.72 17.12,8.98 17.29,9.24 17.40,9.54 17.51,9.84 17.54,10.15 17.58,10.47 17.55,13.47 17.52,16.47 17.45,21.52 17.38,26.57 17.21,32.38 17.04,38.18 16.65,43.60 16.26,49.01 15.41,52.72 14.55,56.43 14.60,56.74 14.66,57.06 14.63,57.37 14.61,57.69 14.51,57.99 14.41,58.29 14.24,58.56 14.08,58.83 13.85,59.05 13.62,59.27 13.35,59.43 13.08,59.59 12.77,59.68 12.47,59.77 12.15,59.78 11.84,59.80 11.53,59.74 11.22,59.68 10.93,59.54 10.64,59.41 10.40,59.21 10.15,59.01 9.96,58.76 9.77,58.51 9.64,58.22 9.51,57.93 8.86,56.70 8.21,55.48 7.31,52.39 6.41,49.31 5.75,44.55 5.09,39.79 4.20,33.94 3.31,28.08 2.58,21.77 1.85,15.47 1.50,10.23 1.14,4.99 1.14,1.69 1.14,-1.60 3.07,0.23 5.00,2.08 4.59,5.94 4.19,9.81 3.90,14.93 3.61,20.04 3.61,25.49 3.60,30.93 3.59,36.30 3.58,41.67 3.47,47.51 3.36,53.36 3.37,53.68 3.38,53.99 3.31,54.30 3.25,54.61 3.11,54.90 2.97,55.18 2.77,55.43 2.57,55.67 2.31,55.86 2.06,56.05 1.77,56.17 1.47,56.29 1.16,56.34 0.85,56.39 0.53,56.36 0.22,56.33 -0.07,56.23 -0.37,56.13 -0.64,55.96 -0.90,55.79 -1.12,55.56 -1.34,55.33 -1.50,55.05 -1.65,54.78 -1.74,54.47 -1.82,54.17 -1.91,54.16 -1.99,54.15 -2.43,51.67 -2.86,49.19 -3.76,44.82 -4.65,40.44 -5.37,35.00 -6.08,29.55 -6.39,23.51 -6.70,17.47 -6.02,12.32 -5.35,7.17 -3.91,3.14 -2.47,-0.88 -2.33,-1.16 -2.19,-1.44 -1.98,-1.69 -1.77,-1.93 -1.52,-2.11 -1.26,-2.30 -0.97,-2.41 -0.67,-2.53 -0.36,-2.58 -0.05,-2.62 0.26,-2.59 0.57,-2.56 0.87,-2.45 1.17,-2.34 1.43,-2.17 1.70,-1.99 1.91,-1.76 2.13,-1.53 2.28,-1.25 2.43,-0.97 2.51,-0.67 2.60,-0.36 2.60,-0.05 2.61,0.26 2.54,0.57 2.47,0.88 2.47,0.88 L 2.47,0.88 Z"></path></g><g transform="translate(1266.552543872545 535.5117697146035) rotate(0 18 21)" stroke="none"><path fill="#1e1e1e" d="M 2.57,-0.51 Q 2.57,-0.51 3.43,3.79 4.30,8.10 5.52,13.65 6.74,19.19 8.12,24.38 9.49,29.57 10.38,33.88 11.27,38.19 11.92,40.80 12.56,43.41 13.13,44.55 13.71,45.69 13.74,46.00 13.78,46.32 13.74,46.63 13.71,46.95 13.59,47.24 13.48,47.54 13.30,47.80 13.12,48.06 12.89,48.27 12.65,48.48 12.37,48.63 12.09,48.78 11.78,48.85 11.47,48.93 11.16,48.93 10.84,48.93 10.53,48.85 10.23,48.78 9.95,48.63 9.67,48.48 9.43,48.27 9.19,48.06 9.01,47.80 8.83,47.54 8.72,47.25 8.61,46.95 8.91,41.95 9.22,36.95 9.26,31.50 9.30,26.06 9.32,19.72 9.34,13.37 9.35,7.23 9.36,1.08 9.36,-3.25 9.36,-7.58 9.36,-7.99 9.37,-8.40 9.40,-8.71 9.44,-9.03 9.56,-9.32 9.67,-9.62 9.85,-9.88 10.03,-10.14 10.27,-10.35 10.50,-10.56 10.78,-10.70 11.06,-10.85 11.37,-10.93 11.68,-11.00 12.00,-11.00 12.31,-11.00 12.62,-10.93 12.93,-10.85 13.21,-10.70 13.49,-10.55 13.72,-10.34 13.96,-10.13 14.14,-9.87 14.32,-9.61 14.43,-9.32 14.54,-9.02 14.58,-8.71 14.62,-8.39 14.62,-4.54 14.62,-0.69 14.91,5.77 15.19,12.23 16.45,19.14 17.70,26.06 18.81,31.93 19.93,37.80 20.95,41.65 21.98,45.49 22.71,47.17 23.45,48.84 23.49,49.16 23.54,49.47 23.50,49.79 23.47,50.10 23.37,50.40 23.26,50.70 23.08,50.96 22.91,51.23 22.68,51.44 22.44,51.65 22.17,51.81 21.89,51.96 21.58,52.04 21.28,52.12 20.96,52.13 20.64,52.13 20.33,52.06 20.03,51.99 19.74,51.85 19.46,51.71 19.22,51.50 18.98,51.30 18.79,51.04 18.61,50.78 18.49,50.49 18.37,50.20 19.19,46.25 20.00,42.30 20.10,37.06 20.21,31.81 20.25,25.83 20.30,19.85 20.32,14.71 20.34,9.58 20.35,6.82 20.36,4.06 20.40,3.75 20.43,3.43 20.55,3.14 20.66,2.84 20.84,2.58 21.02,2.32 21.26,2.11 21.50,1.91 21.78,1.76 22.06,1.61 22.37,1.54 22.68,1.46 22.99,1.47 23.31,1.47 23.62,1.54 23.92,1.62 24.20,1.77 24.48,1.92 24.72,2.13 24.96,2.34 25.13,2.60 25.31,2.86 25.42,3.16 25.54,3.45 25.57,3.77 25.61,4.08 26.18,8.83 26.74,13.58 27.84,19.58 28.94,25.57 30.26,31.25 31.58,36.92 32.72,41.34 33.85,45.76 34.59,47.83 35.32,49.89 36.12,51.15 36.91,52.42 37.07,52.82 37.22,53.21 37.25,53.64 37.27,54.06 37.16,54.47 37.04,54.88 36.81,55.23 36.57,55.58 36.23,55.84 35.89,56.10 35.49,56.23 35.08,56.37 34.66,56.37 34.23,56.37 33.83,56.23 33.43,56.10 33.09,55.84 32.75,55.58 32.51,55.23 32.28,54.88 32.16,54.47 32.05,54.06 32.07,53.64 32.09,53.21 32.25,52.82 32.41,52.42 32.68,52.10 32.96,51.77 33.32,51.56 33.69,51.34 34.10,51.24 34.52,51.15 34.94,51.20 35.36,51.25 35.75,51.42 36.13,51.60 36.44,51.89 36.75,52.19 36.95,52.56 37.15,52.94 37.22,53.36 37.29,53.78 37.22,54.20 37.15,54.62 36.95,54.99 36.75,55.37 36.44,55.66 36.13,55.95 35.75,56.13 35.36,56.31 34.94,56.35 34.52,56.40 34.10,56.31 33.69,56.22 33.32,56.00 32.96,55.78 32.68,55.45 32.41,55.13 32.41,55.13 32.41,55.13 31.40,53.40 30.38,51.66 29.57,49.37 28.76,47.07 27.61,42.59 26.47,38.11 25.12,32.32 23.77,26.52 22.66,20.41 21.54,14.31 20.95,9.19 20.36,4.06 20.40,3.75 20.43,3.43 20.55,3.14 20.66,2.84 20.84,2.58 21.02,2.32 21.26,2.11 21.50,1.91 21.78,1.76 22.06,1.61 22.37,1.54 22.68,1.46 22.99,1.47 23.31,1.47 23.62,1.54 23.92,1.62 24.20,1.77 24.48,1.92 24.72,2.13 24.96,2.34 25.13,2.60 25.31,2.86 25.42,3.16 25.54,3.45 25.57,3.77 25.61,4.08 25.60,6.84 25.59,9.60 25.57,14.74 25.55,19.89 25.51,25.90 25.46,31.92 25.35,37.33 25.24,42.74 24.34,45.79 23.45,48.84 23.49,49.16 23.54,49.47 23.50,49.79 23.47,50.10 23.37,50.40 23.26,50.70 23.08,50.96 22.91,51.22 22.68,51.44 22.44,51.65 22.17,51.81 21.89,51.96 21.58,52.04 21.28,52.12 20.96,52.13 20.64,52.13 20.33,52.06 20.03,51.99 19.74,51.85 19.46,51.71 19.22,51.50 18.98,51.30 18.79,51.04 18.61,50.78 18.49,50.49 18.37,50.20 17.64,48.52 16.91,46.85 15.84,42.82 14.77,38.78 13.65,32.88 12.53,26.98 11.24,19.73 9.95,12.47 9.66,5.88 9.37,-0.69 9.37,-4.54 9.37,-8.40 9.40,-8.71 9.44,-9.02 9.56,-9.32 9.67,-9.62 9.85,-9.88 10.03,-10.14 10.27,-10.35 10.50,-10.56 10.78,-10.70 11.06,-10.85 11.37,-10.93 11.68,-11.00 11.99,-11.00 12.31,-11.00 12.62,-10.93 12.93,-10.85 13.21,-10.70 13.49,-10.56 13.72,-10.34 13.96,-10.13 14.14,-9.87 14.32,-9.61 14.43,-9.32 14.54,-9.02 14.58,-8.71 14.62,-8.39 14.62,-7.99 14.62,-7.58 14.61,-3.24 14.61,1.09 14.60,7.24 14.59,13.39 14.58,19.75 14.56,26.10 14.51,31.60 14.47,37.11 14.09,41.40 13.71,45.69 13.74,46.00 13.78,46.32 13.74,46.63 13.71,46.95 13.59,47.24 13.48,47.54 13.30,47.80 13.12,48.06 12.89,48.27 12.65,48.48 12.37,48.63 12.09,48.78 11.78,48.85 11.47,48.93 11.16,48.93 10.84,48.93 10.53,48.85 10.23,48.78 9.95,48.63 9.67,48.48 9.43,48.27 9.19,48.06 9.01,47.80 8.83,47.54 8.72,47.25 8.61,46.95 8.04,45.83 7.47,44.70 6.80,41.98 6.13,39.26 5.27,35.09 4.41,30.92 3.01,25.62 1.61,20.33 0.38,14.73 -0.85,9.14 -1.71,4.82 -2.57,0.51 -2.59,0.19 -2.62,-0.11 -2.57,-0.42 -2.51,-0.74 -2.39,-1.03 -2.26,-1.32 -2.07,-1.57 -1.88,-1.82 -1.64,-2.02 -1.39,-2.22 -1.10,-2.36 -0.82,-2.49 -0.51,-2.55 -0.20,-2.61 0.11,-2.60 0.43,-2.59 0.73,-2.50 1.03,-2.41 1.31,-2.25 1.58,-2.09 1.81,-1.87 2.04,-1.65 2.20,-1.38 2.37,-1.11 2.47,-0.81 2.57,-0.51 2.57,-0.51 L 2.57,-0.51 Z"></path></g><g transform="translate(1303.552543872545 553.5117697146035) rotate(0 39.5 2)" stroke="none"><path fill="#1e1e1e" d="M 1.17,-2.34 Q 1.17,-2.34 5.19,-0.33 9.22,1.67 11.59,1.55 13.96,1.42 14.25,-1.66 14.54,-4.75 13.40,-8.09 12.27,-11.42 10.58,-13.51 8.89,-15.59 6.73,-9.43 4.57,-3.28 5.16,3.23 5.75,9.74 7.37,15.23 9.00,20.71 9.60,23.01 10.20,25.31 11.32,20.33 12.45,15.36 12.42,8.43 12.40,1.49 12.10,-4.91 11.81,-11.32 11.68,-16.39 11.55,-21.47 11.93,-24.89 12.31,-28.30 13.71,-29.31 15.10,-30.31 15.17,-30.62 15.23,-30.93 15.36,-31.22 15.50,-31.50 15.70,-31.75 15.90,-31.99 16.15,-32.19 16.40,-32.38 16.69,-32.50 16.98,-32.63 17.30,-32.68 17.61,-32.73 17.93,-32.70 18.24,-32.68 18.54,-32.58 18.84,-32.48 19.11,-32.31 19.38,-32.14 19.60,-31.92 19.82,-31.69 19.98,-31.42 20.14,-31.14 20.23,-30.84 20.31,-30.53 20.33,-30.22 20.34,-29.90 22.22,-27.52 24.11,-25.14 26.27,-19.51 28.44,-13.88 29.65,-8.24 30.86,-2.60 31.65,2.96 32.45,8.53 32.78,13.56 33.12,18.59 32.08,23.08 31.03,27.57 29.64,30.44 28.25,33.32 27.42,34.42 26.58,35.52 26.41,35.79 26.24,36.05 26.01,36.27 25.77,36.48 25.50,36.64 25.22,36.79 24.91,36.87 24.61,36.96 24.29,36.96 23.98,36.97 23.67,36.90 23.36,36.83 23.07,36.69 22.79,36.55 22.55,36.35 22.31,36.14 22.12,35.89 21.93,35.63 21.82,35.34 21.70,35.05 21.65,34.73 21.61,34.42 21.64,34.10 21.67,33.79 21.77,33.49 21.88,33.19 22.73,28.41 23.58,23.62 25.86,16.85 28.15,10.09 30.89,3.95 33.63,-2.18 36.93,-6.71 40.24,-11.25 44.16,-14.20 48.07,-17.15 52.48,-19.02 56.89,-20.89 60.91,-21.69 64.92,-22.50 67.47,-22.82 70.02,-23.14 72.45,-23.55 74.88,-23.97 75.31,-23.97 75.73,-23.97 76.14,-23.84 76.54,-23.70 76.88,-23.45 77.22,-23.19 77.46,-22.84 77.70,-22.49 77.82,-22.08 77.93,-21.67 77.91,-21.25 77.89,-20.82 77.73,-20.43 77.58,-20.03 77.30,-19.71 77.03,-19.38 76.67,-19.16 76.30,-18.94 75.89,-18.85 75.48,-18.75 75.05,-18.80 74.63,-18.84 74.24,-19.02 73.86,-19.19 73.55,-19.49 73.24,-19.78 73.04,-20.15 72.84,-20.53 72.77,-20.94 72.69,-21.36 72.76,-21.78 72.83,-22.20 73.03,-22.58 73.22,-22.96 73.53,-23.25 73.84,-23.54 74.22,-23.72 74.61,-23.90 75.03,-23.95 75.45,-24.00 75.87,-23.91 76.28,-23.82 76.65,-23.60 77.01,-23.38 77.29,-23.06 77.57,-22.74 77.73,-22.35 77.88,-21.95 77.91,-21.53 77.93,-21.10 77.82,-20.69 77.71,-20.28 77.47,-19.93 77.24,-19.58 76.90,-19.32 76.56,-19.06 76.16,-18.92 75.76,-18.79 75.76,-18.79 75.76,-18.79 73.22,-18.36 70.68,-17.93 68.30,-17.63 65.92,-17.34 62.40,-16.68 58.88,-16.03 55.02,-14.47 51.15,-12.91 47.79,-10.49 44.42,-8.08 41.41,-4.05 38.41,-0.01 35.77,5.87 33.12,11.77 30.87,18.45 28.61,25.12 27.60,30.32 26.58,35.52 26.41,35.79 26.24,36.05 26.01,36.27 25.77,36.48 25.50,36.64 25.22,36.79 24.91,36.87 24.61,36.96 24.29,36.96 23.98,36.97 23.67,36.90 23.36,36.83 23.07,36.69 22.79,36.55 22.55,36.35 22.31,36.14 22.12,35.89 21.93,35.63 21.82,35.34 21.70,35.05 21.65,34.73 21.61,34.42 21.64,34.10 21.67,33.79 21.77,33.49 21.88,33.19 22.72,32.08 23.56,30.97 24.75,28.63 25.94,26.29 26.92,22.58 27.89,18.87 27.57,14.07 27.24,9.26 26.48,3.87 25.72,-1.51 24.62,-6.77 23.52,-12.03 21.61,-17.16 19.70,-22.29 17.40,-26.30 15.10,-30.31 15.17,-30.62 15.23,-30.93 15.36,-31.22 15.50,-31.50 15.70,-31.75 15.90,-31.99 16.15,-32.19 16.40,-32.38 16.69,-32.50 16.98,-32.63 17.30,-32.68 17.61,-32.73 17.93,-32.70 18.24,-32.68 18.54,-32.58 18.84,-32.48 19.11,-32.31 19.38,-32.14 19.60,-31.92 19.82,-31.69 19.98,-31.42 20.14,-31.14 20.23,-30.84 20.31,-30.53 20.33,-30.22 20.34,-29.90 18.66,-28.35 16.98,-26.79 16.89,-24.20 16.81,-21.60 16.93,-16.58 17.06,-11.56 17.35,-5.03 17.65,1.48 17.66,8.74 17.67,15.99 16.64,21.75 15.61,27.50 13.52,28.63 11.42,29.75 7.71,26.01 4.00,22.27 2.26,16.24 0.52,10.22 -0.06,3.18 -0.64,-3.84 0.21,-10.18 1.07,-16.52 2.94,-18.81 4.80,-21.10 8.82,-20.03 12.84,-18.97 15.04,-16.02 17.24,-13.07 18.47,-8.62 19.71,-4.18 18.83,0.20 17.94,4.59 15.88,6.24 13.82,7.88 10.35,7.13 6.87,6.37 2.85,4.36 -1.17,2.34 -1.43,2.17 -1.70,1.99 -1.91,1.76 -2.13,1.53 -2.28,1.25 -2.43,0.97 -2.51,0.67 -2.60,0.36 -2.60,0.05 -2.61,-0.26 -2.54,-0.57 -2.47,-0.88 -2.33,-1.16 -2.19,-1.44 -1.98,-1.69 -1.78,-1.93 -1.52,-2.11 -1.26,-2.30 -0.97,-2.41 -0.67,-2.53 -0.36,-2.58 -0.05,-2.62 0.26,-2.59 0.57,-2.56 0.87,-2.45 1.17,-2.34 1.17,-2.34 L 1.17,-2.34 Z"></path></g><g stroke-linecap="round"><g transform="translate(1131.3148281230278 403.16871465372503) rotate(0 -119.50959481498857 -49.71322980436154)"><path d="M0.42 -0.52 C-39.37 -16.74, -199.35 -81.99, -239.4 -98.52 M-0.82 1.83 C-40.75 -14.62, -201.11 -83.45, -240.55 -100.16" stroke="#1e1e1e" stroke-width="2" fill="none"></path></g><g transform="translate(1131.3148281230278 403.16871465372503) rotate(0 -119.50959481498857 -49.71322980436154)"><path d="M-210.6 -98.54 C-218.87 -99.48, -223.93 -100.73, -240.55 -100.16 M-210.6 -98.54 C-219.27 -99.21, -227.84 -98.58, -240.55 -100.16" stroke="#1e1e1e" stroke-width="2" fill="none"></path></g><g transform="translate(1131.3148281230278 403.16871465372503) rotate(0 -119.50959481498857 -49.71322980436154)"><path d="M-218.65 -79.66 C-224.74 -85.31, -227.8 -91.24, -240.55 -100.16 M-218.65 -79.66 C-225.25 -85.67, -231.56 -90.34, -240.55 -100.16" stroke="#1e1e1e" stroke-width="2" fill="none"></path></g></g><mask></mask><g stroke-linecap="round"><g transform="translate(1161.552543872545 769.5117697146035) rotate(0 47 -59)"><path d="M0.4 -0.7 C15.93 -20.14, 78.51 -98, 94.3 -117.69 M-0.84 1.55 C14.45 -18.18, 77.54 -99.73, 93.51 -119.65" stroke="#1e1e1e" stroke-width="2" fill="none"></path></g><g transform="translate(1161.552543872545 769.5117697146035) rotate(0 47 -59)"><path d="M84.17 -91.15 C86.95 -101.93, 92.31 -111.81, 93.51 -119.65 M84.17 -91.15 C85.9 -98.14, 88.23 -105.19, 93.51 -119.65" stroke="#1e1e1e" stroke-width="2" fill="none"></path></g><g transform="translate(1161.552543872545 769.5117697146035) rotate(0 47 -59)"><path d="M68.03 -103.82 C77.07 -109.66, 88.8 -114.53, 93.51 -119.65 M68.03 -103.82 C73.51 -108, 79.56 -112.14, 93.51 -119.65" stroke="#1e1e1e" stroke-width="2" fill="none"></path></g></g><mask></mask><g transform="translate(1400.552543872545 172.5304814439046) rotate(0 103 206.5)" stroke="none"><path fill="#1e1e1e" d="M -0.88,2.99 Q -0.88,2.99 -5.74,1.49 -10.61,-0.00 -17.89,-2.40 -25.16,-4.79 -34.75,-7.23 -44.35,-9.67 -54.62,-10.98 -64.90,-12.30 -77.18,-12.01 -89.46,-11.71 -95.59,-11.45 -101.72,-11.19 -107.50,17.87 -113.28,46.94 -110.43,67.93 -107.57,88.92 -100.46,103.96 -93.35,118.99 -81.96,129.47 -70.57,139.94 -51.08,146.89 -31.58,153.85 -11.43,154.83 8.72,155.81 22.46,152.02 36.21,148.23 45.11,140.14 54.02,132.05 55.45,119.98 56.89,107.92 49.73,95.11 42.57,82.30 17.69,64.60 -7.19,46.90 -38.91,34.47 -70.64,22.04 -95.20,17.34 -119.77,12.63 -132.58,13.98 -145.40,15.33 -149.36,24.08 -153.33,32.84 -134.60,54.54 -115.88,76.25 -69.98,101.56 -24.09,126.86 22.39,143.69 68.88,160.52 115.85,169.96 162.81,179.39 189.69,183.41 216.56,187.44 228.27,189.15 239.97,190.86 243.57,190.02 247.16,189.18 247.50,189.28 247.84,189.37 248.14,189.54 248.44,189.71 248.70,189.94 248.95,190.18 249.15,190.47 249.34,190.76 249.45,191.09 249.57,191.42 249.60,191.77 249.64,192.11 249.58,192.46 249.53,192.80 249.40,193.13 249.27,193.45 249.07,193.73 248.86,194.01 248.60,194.24 248.33,194.46 248.02,194.61 247.71,194.77 247.37,194.84 247.02,194.92 246.68,194.91 246.33,194.90 241.93,192.30 237.54,189.69 234.31,188.79 231.09,187.89 229.09,189.95 227.09,192.02 225.68,195.30 224.26,198.58 223.57,203.40 222.87,208.23 226.43,215.57 229.99,222.91 237.29,229.67 244.58,236.42 257.84,242.99 271.11,249.56 292.99,254.93 314.88,260.31 331.70,263.49 348.52,266.67 352.54,267.41 356.56,268.16 356.88,268.26 357.19,268.36 357.47,268.53 357.75,268.70 357.98,268.94 358.21,269.17 358.38,269.45 358.55,269.74 358.65,270.05 358.74,270.37 358.76,270.69 358.78,271.02 358.72,271.35 358.66,271.67 358.52,271.97 358.39,272.27 358.18,272.53 357.98,272.78 357.72,272.99 357.46,273.19 357.16,273.32 356.86,273.45 356.53,273.51 356.21,273.57 355.88,273.55 355.55,273.53 347.51,272.10 339.47,270.67 315.71,268.07 291.95,265.48 272.11,264.37 252.28,263.27 240.35,263.90 228.43,264.53 224.55,267.45 220.68,270.37 220.36,270.35 220.05,270.33 219.74,270.24 219.44,270.14 219.17,269.97 218.90,269.81 218.68,269.58 218.45,269.36 218.29,269.09 218.13,268.81 218.03,268.51 217.94,268.21 217.92,267.89 217.90,267.57 217.96,267.26 218.02,266.95 218.15,266.66 218.29,266.37 218.48,266.12 218.68,265.87 218.93,265.68 219.18,265.48 219.47,265.35 219.76,265.22 220.07,265.17 220.39,265.11 227.37,272.86 234.34,280.60 239.63,285.89 244.91,291.17 257.77,302.31 270.62,313.45 281.42,325.83 292.23,338.21 296.98,349.14 301.73,360.06 298.96,369.36 296.18,378.67 279.38,389.41 262.57,400.16 236.35,408.65 210.14,417.14 192.13,421.58 174.12,426.02 167.65,427.90 161.18,429.77 160.87,429.81 160.55,429.85 160.24,429.81 159.93,429.77 159.63,429.66 159.33,429.55 159.07,429.37 158.81,429.19 158.60,428.95 158.39,428.71 158.25,428.43 158.10,428.15 158.02,427.84 157.95,427.54 157.95,427.22 157.95,426.90 158.02,426.60 158.10,426.29 158.25,426.01 158.39,425.73 158.60,425.49 158.81,425.25 159.07,425.07 159.33,424.89 159.63,424.78 159.93,424.67 163.00,424.33 166.08,423.99 171.00,423.16 175.92,422.33 180.71,421.54 185.49,420.75 186.06,420.77 186.63,420.80 187.16,421.00 187.70,421.21 188.13,421.57 188.57,421.93 188.87,422.42 189.17,422.90 189.30,423.46 189.43,424.01 189.38,424.58 189.32,425.15 189.09,425.67 188.86,426.19 188.47,426.61 188.08,427.03 187.58,427.30 187.08,427.57 186.52,427.67 185.96,427.77 185.40,427.68 184.83,427.60 184.33,427.34 183.82,427.08 183.42,426.67 183.03,426.26 182.78,425.75 182.53,425.23 182.47,424.67 182.40,424.10 182.51,423.54 182.63,422.98 182.92,422.49 183.20,422.00 183.63,421.63 184.06,421.25 184.59,421.03 185.12,420.82 185.69,420.78 186.25,420.74 186.81,420.89 187.36,421.03 187.83,421.35 188.31,421.66 188.66,422.11 189.01,422.56 189.20,423.10 189.39,423.63 189.39,424.20 189.40,424.77 189.22,425.32 189.05,425.86 188.71,426.32 188.37,426.78 187.90,427.10 187.43,427.43 186.89,427.59 186.34,427.74 186.34,427.74 186.34,427.74 181.70,428.10 177.06,428.45 171.83,429.51 166.59,430.57 163.89,430.17 161.18,429.77 160.87,429.81 160.55,429.85 160.24,429.81 159.93,429.77 159.63,429.66 159.33,429.55 159.07,429.37 158.81,429.19 158.60,428.95 158.39,428.71 158.25,428.43 158.10,428.15 158.02,427.85 157.95,427.54 157.95,427.22 157.95,426.90 158.02,426.60 158.10,426.29 158.25,426.01 158.39,425.73 158.60,425.49 158.81,425.25 159.07,425.07 159.33,424.89 159.63,424.78 159.93,424.67 166.39,422.79 172.86,420.92 190.69,416.53 208.53,412.14 234.18,403.91 259.83,395.68 275.77,386.04 291.71,376.39 294.28,368.82 296.86,361.25 292.54,351.43 288.22,341.60 277.70,329.51 267.17,317.42 254.18,306.16 241.19,294.89 235.72,289.41 230.25,283.92 225.47,277.15 220.68,270.37 220.36,270.35 220.05,270.33 219.74,270.24 219.44,270.14 219.17,269.97 218.90,269.81 218.68,269.58 218.45,269.36 218.29,269.09 218.13,268.81 218.03,268.51 217.94,268.21 217.92,267.89 217.90,267.57 217.96,267.26 218.02,266.95 218.15,266.66 218.29,266.37 218.48,266.12 218.68,265.87 218.93,265.68 219.18,265.48 219.47,265.35 219.76,265.22 220.07,265.17 220.39,265.11 224.01,262.28 227.63,259.45 240.10,258.72 252.57,257.99 272.55,259.10 292.53,260.21 316.45,262.83 340.37,265.44 348.47,266.80 356.56,268.16 356.88,268.26 357.19,268.36 357.47,268.53 357.75,268.70 357.98,268.94 358.21,269.17 358.38,269.45 358.55,269.74 358.65,270.05 358.74,270.36 358.76,270.69 358.78,271.02 358.72,271.35 358.66,271.67 358.52,271.97 358.39,272.27 358.18,272.53 357.98,272.78 357.72,272.99 357.46,273.19 357.16,273.32 356.86,273.45 356.53,273.51 356.21,273.57 355.88,273.55 355.55,273.53 351.54,272.72 347.53,271.91 330.56,268.71 313.59,265.52 291.16,259.96 268.72,254.40 254.81,247.42 240.90,240.44 232.98,232.90 225.05,225.36 221.21,216.65 217.36,207.94 218.18,202.06 219.00,196.19 221.15,191.87 223.30,187.56 226.99,185.28 230.67,183.01 235.40,184.07 240.14,185.14 243.65,187.16 247.16,189.18 247.50,189.28 247.84,189.37 248.14,189.54 248.44,189.71 248.70,189.94 248.95,190.18 249.15,190.47 249.34,190.76 249.45,191.09 249.57,191.42 249.60,191.77 249.64,192.11 249.58,192.46 249.53,192.80 249.40,193.12 249.27,193.45 249.07,193.73 248.86,194.01 248.60,194.24 248.33,194.46 248.02,194.61 247.71,194.77 247.37,194.84 247.03,194.92 246.68,194.91 246.33,194.90 242.82,195.48 239.32,196.06 227.55,194.35 215.78,192.63 188.78,188.59 161.78,184.54 114.44,175.00 67.10,165.46 20.24,148.46 -26.62,131.47 -73.21,105.59 -119.80,79.72 -138.74,56.76 -157.69,33.81 -152.88,22.71 -148.06,11.61 -133.46,9.54 -118.86,7.47 -93.79,12.31 -68.73,17.14 -36.45,29.88 -4.16,42.61 21.44,61.11 47.04,79.61 54.52,93.81 61.99,108.01 59.96,121.60 57.94,135.20 47.88,144.19 37.82,153.19 23.18,157.13 8.53,161.07 -12.39,159.95 -33.31,158.83 -53.67,151.37 -74.03,143.91 -86.05,132.64 -98.07,121.37 -105.45,105.53 -112.84,89.70 -115.68,67.83 -118.53,45.95 -112.00,16.11 -105.47,-13.73 -97.54,-15.45 -89.60,-17.17 -76.91,-17.48 -64.21,-17.79 -53.60,-16.46 -42.98,-15.14 -33.18,-12.71 -23.39,-10.29 -16.16,-8.01 -8.93,-5.74 -4.02,-4.36 0.88,-2.99 1.22,-2.84 1.57,-2.69 1.87,-2.47 2.17,-2.24 2.41,-1.95 2.64,-1.65 2.80,-1.31 2.96,-0.97 3.04,-0.60 3.11,-0.23 3.09,0.13 3.08,0.51 2.97,0.87 2.86,1.23 2.67,1.56 2.48,1.88 2.22,2.15 1.96,2.42 1.64,2.62 1.32,2.82 0.96,2.94 0.61,3.06 0.23,3.09 -0.13,3.12 -0.51,3.05 -0.88,2.99 -0.88,2.99 L -0.88,2.99 Z"></path></g><g transform="translate(562.5525438725449 831.5304814439046) rotate(0 -7 131.5)" stroke="none"><path fill="#1e1e1e" d="M 2.94,1.03 Q 2.94,1.03 0.87,6.76 -1.20,12.49 -5.92,21.43 -10.65,30.37 -20.76,45.43 -30.87,60.48 -52.15,88.44 -73.43,116.41 -97.69,149.51 -121.94,182.62 -133.03,201.12 -144.12,219.63 -145.21,229.05 -146.29,238.47 -133.09,244.05 -119.90,249.63 -84.10,252.67 -48.29,255.71 -9.69,257.04 28.91,258.38 63.43,258.66 97.94,258.94 112.63,259.06 127.31,259.18 127.73,259.25 128.15,259.33 128.53,259.53 128.90,259.73 129.19,260.05 129.48,260.36 129.66,260.75 129.84,261.13 129.88,261.56 129.92,261.98 129.83,262.40 129.73,262.82 129.51,263.18 129.28,263.54 128.96,263.82 128.63,264.09 128.23,264.24 127.83,264.40 127.41,264.42 126.98,264.44 126.57,264.32 126.16,264.20 125.81,263.96 125.46,263.72 125.20,263.38 124.95,263.04 124.82,262.63 124.68,262.22 124.69,261.80 124.69,261.37 124.83,260.97 124.97,260.56 125.23,260.23 125.49,259.89 125.85,259.65 126.20,259.42 126.61,259.31 127.03,259.20 127.45,259.22 127.88,259.25 128.27,259.41 128.67,259.57 128.99,259.85 129.31,260.13 129.53,260.50 129.75,260.86 129.83,261.28 129.92,261.70 129.87,262.12 129.82,262.55 129.64,262.93 129.46,263.32 129.16,263.62 128.87,263.93 128.49,264.13 128.11,264.33 127.69,264.39 127.27,264.46 127.27,264.46 127.27,264.46 112.58,264.34 97.90,264.22 63.31,263.95 28.73,263.67 -10.01,262.33 -48.75,261.00 -85.37,257.76 -121.98,254.52 -135.78,248.03 -149.57,241.54 -149.20,229.33 -148.84,217.12 -137.59,198.26 -126.34,179.40 -102.09,146.23 -77.84,113.06 -56.69,85.20 -35.55,57.34 -25.66,42.52 -15.76,27.69 -11.30,19.10 -6.84,10.50 -4.89,4.73 -2.94,-1.03 -2.78,-1.37 -2.61,-1.70 -2.37,-1.99 -2.13,-2.28 -1.82,-2.50 -1.52,-2.72 -1.17,-2.87 -0.82,-3.01 -0.45,-3.06 -0.08,-3.12 0.29,-3.08 0.66,-3.05 1.02,-2.92 1.38,-2.80 1.69,-2.59 2.01,-2.39 2.26,-2.11 2.52,-1.84 2.70,-1.51 2.89,-1.18 2.99,-0.81 3.09,-0.45 3.10,-0.07 3.11,0.29 3.02,0.66 2.94,1.03 2.94,1.03 L 2.94,1.03 Z"></path></g><g transform="translate(178.55254387254502 1276.5304814439046) rotate(0 108.5 15)" stroke="none"><path fill="#1e1e1e" d="M 0,-3.48 Q 0,-3.48 5.46,-3.36 10.92,-3.24 21.22,-1.71 31.52,-0.17 55.37,3.66 79.22,7.50 107.73,11.73 136.24,15.96 155.25,18.64 174.26,21.31 185.48,22.75 196.71,24.18 202.67,25.09 208.63,26.00 211.19,26.13 213.74,26.27 214.24,26.43 214.73,26.59 215.14,26.90 215.56,27.21 215.86,27.63 216.15,28.05 216.30,28.55 216.44,29.05 216.42,29.56 216.40,30.08 216.22,30.57 216.03,31.05 215.70,31.45 215.37,31.85 214.93,32.12 214.49,32.39 213.99,32.51 213.49,32.63 212.97,32.58 212.46,32.53 211.98,32.32 211.51,32.11 211.13,31.76 210.75,31.41 210.50,30.95 210.25,30.50 210.16,29.99 210.07,29.48 210.15,28.97 210.22,28.46 210.46,28.00 210.70,27.54 211.07,27.18 211.44,26.81 211.90,26.59 212.37,26.37 212.88,26.30 213.40,26.24 213.91,26.35 214.41,26.45 214.86,26.71 215.31,26.97 215.65,27.36 215.99,27.75 216.19,28.23 216.38,28.71 216.42,29.22 216.45,29.74 216.32,30.24 216.19,30.74 215.91,31.17 215.62,31.61 215.21,31.92 214.81,32.24 214.32,32.42 213.83,32.59 213.31,32.59 212.79,32.60 212.80,32.60 212.80,32.60 210.31,31.99 207.83,31.37 201.93,30.51 196.02,29.64 184.75,28.25 173.49,26.86 154.44,24.25 135.40,21.64 106.85,17.49 78.30,13.34 54.48,9.63 30.65,5.92 20.78,4.58 10.92,3.24 5.46,3.36 0,3.48 -0.41,3.43 -0.83,3.38 -1.22,3.23 -1.61,3.08 -1.96,2.84 -2.30,2.60 -2.58,2.29 -2.86,1.97 -3.06,1.60 -3.25,1.23 -3.35,0.82 -3.45,0.41 -3.45,-0.00 -3.45,-0.41 -3.35,-0.82 -3.25,-1.23 -3.06,-1.60 -2.86,-1.97 -2.58,-2.29 -2.30,-2.60 -1.96,-2.84 -1.61,-3.08 -1.22,-3.23 -0.83,-3.38 -0.41,-3.43 0.00,-3.48 0.00,-3.48 L 0,-3.48 Z"></path></g><g transform="translate(591.5525438725449 1004.5304814439046) rotate(0 147.5 25.5)" stroke="none"><path fill="#1e1e1e" d="M 0,-3.12 Q 0,-3.12 8.33,-3.05 16.67,-2.98 33.13,-3.22 49.58,-3.46 70.92,-4.41 92.26,-5.35 128.02,-8.62 163.78,-11.88 193.31,-16.13 222.84,-20.37 243.14,-27.82 263.44,-35.26 269.88,-42.12 276.32,-48.98 274.49,-54.27 272.66,-59.57 262.87,-64.23 253.08,-68.89 226.19,-70.98 199.30,-73.08 171.13,-65.73 142.96,-58.38 121.68,-45.34 100.40,-32.30 86.39,-14.69 72.37,2.91 69.05,24.76 65.72,46.61 75.82,63.23 85.92,79.86 107.68,92.00 129.45,104.14 155.53,110.79 181.62,117.43 210.12,118.84 238.62,120.24 250.84,120.85 263.06,121.47 263.48,121.55 263.89,121.64 264.26,121.86 264.62,122.08 264.90,122.40 265.17,122.73 265.33,123.12 265.49,123.51 265.52,123.94 265.54,124.36 265.43,124.77 265.32,125.18 265.08,125.54 264.84,125.89 264.51,126.15 264.17,126.41 263.77,126.54 263.36,126.68 262.94,126.68 262.51,126.68 262.11,126.55 261.71,126.42 261.37,126.16 261.03,125.90 260.79,125.55 260.55,125.20 260.43,124.79 260.32,124.38 260.34,123.96 260.36,123.53 260.52,123.14 260.67,122.74 260.95,122.42 261.22,122.09 261.58,121.87 261.95,121.65 262.36,121.56 262.78,121.47 263.20,121.51 263.62,121.55 264.01,121.73 264.39,121.91 264.70,122.20 265.01,122.49 265.21,122.87 265.42,123.24 265.49,123.66 265.56,124.08 265.49,124.50 265.42,124.92 265.22,125.30 265.03,125.67 264.72,125.97 264.41,126.26 264.03,126.44 263.64,126.62 263.22,126.67 262.80,126.71 262.80,126.71 262.80,126.71 250.58,126.10 238.35,125.49 209.34,124.01 180.33,122.53 153.62,115.63 126.91,108.73 104.28,95.76 81.65,82.80 71.16,64.70 60.68,46.60 64.39,23.27 68.11,-0.05 82.84,-18.39 97.57,-36.73 119.57,-50.10 141.58,-63.47 170.60,-70.91 199.63,-78.35 227.48,-76.01 255.34,-73.66 266.13,-67.88 276.93,-62.10 278.89,-55.00 280.85,-47.90 273.20,-39.13 265.55,-30.36 244.60,-22.67 223.64,-14.98 193.97,-10.68 164.29,-6.37 128.41,-3.05 92.52,0.27 71.10,1.29 49.68,2.31 33.18,2.65 16.67,2.98 8.33,3.05 0,3.12 -0.37,3.07 -0.74,3.03 -1.09,2.90 -1.45,2.76 -1.76,2.55 -2.07,2.33 -2.32,2.05 -2.57,1.77 -2.74,1.44 -2.92,1.10 -3.01,0.74 -3.10,0.37 -3.10,-0.00 -3.10,-0.37 -3.01,-0.74 -2.92,-1.10 -2.74,-1.44 -2.57,-1.77 -2.32,-2.05 -2.07,-2.33 -1.76,-2.55 -1.45,-2.76 -1.09,-2.90 -0.74,-3.03 -0.37,-3.07 0.00,-3.12 0.00,-3.12 L 0,-3.12 Z"></path></g><g transform="translate(1088.552543872545 936.5304814439046) rotate(0 -58 105)" stroke="none"><path fill="#1e1e1e" d="M -3.24,-0.64 Q -3.24,-0.64 -2.74,-3.15 -2.23,-5.66 -3.86,-7.29 -5.49,-8.92 -8.32,-11.16 -11.15,-13.41 -21.88,-17.53 -32.60,-21.66 -48.04,-25.21 -63.49,-28.76 -86.07,-31.16 -108.65,-33.55 -124.74,-33.45 -140.83,-33.35 -150.81,-30.08 -160.78,-26.80 -161.76,-12.42 -162.73,1.95 -129.30,36.20 -95.87,70.44 -34.91,110.71 26.03,150.97 69.79,176.46 113.55,201.95 135.34,214.54 157.14,227.12 162.93,233.03 168.73,238.95 168.99,239.14 169.24,239.33 169.44,239.58 169.65,239.83 169.78,240.12 169.92,240.41 169.99,240.72 170.05,241.03 170.04,241.35 170.02,241.67 169.93,241.98 169.85,242.29 169.69,242.56 169.53,242.84 169.30,243.07 169.08,243.30 168.81,243.47 168.54,243.64 168.24,243.74 167.94,243.84 167.62,243.87 167.30,243.90 166.98,243.85 166.67,243.79 166.37,243.67 166.08,243.54 153.84,245.36 141.60,247.18 62.95,234.36 -15.69,221.54 -80.30,210.92 -144.91,200.30 -190.76,193.20 -236.61,186.10 -256.12,182.79 -275.62,179.48 -283.12,177.77 -290.61,176.06 -293.81,175.53 -297.00,174.99 -297.45,174.81 -297.90,174.62 -298.27,174.31 -298.64,173.99 -298.89,173.57 -299.14,173.15 -299.24,172.67 -299.34,172.20 -299.28,171.71 -299.23,171.23 -299.02,170.79 -298.81,170.35 -298.47,170.00 -298.14,169.65 -297.70,169.42 -297.27,169.20 -296.79,169.12 -296.31,169.05 -295.83,169.13 -295.35,169.21 -294.92,169.45 -294.49,169.68 -294.16,170.03 -293.83,170.39 -293.63,170.83 -293.43,171.28 -293.38,171.76 -293.33,172.24 -293.44,172.72 -293.55,173.19 -293.80,173.61 -294.05,174.02 -294.43,174.34 -294.80,174.65 -295.26,174.82 -295.71,175.00 -296.20,175.02 -296.68,175.05 -297.15,174.91 -297.62,174.78 -298.02,174.50 -298.42,174.23 -298.71,173.84 -299.00,173.45 -299.15,172.98 -299.31,172.52 -299.30,172.04 -299.30,171.55 -299.14,171.09 -298.98,170.63 -298.68,170.24 -298.38,169.86 -297.98,169.59 -297.57,169.32 -297.10,169.19 -296.63,169.06 -296.15,169.09 -295.66,169.13 -295.66,169.13 -295.66,169.12 -292.55,170.03 -289.44,170.93 -282.09,172.61 -274.74,174.28 -255.27,177.59 -235.80,180.89 -189.93,187.99 -144.06,195.09 -79.45,205.70 -14.84,216.32 63.07,229.12 140.99,241.92 154.86,240.43 168.73,238.95 168.99,239.14 169.24,239.33 169.44,239.58 169.65,239.83 169.78,240.12 169.92,240.41 169.99,240.72 170.05,241.03 170.04,241.35 170.02,241.67 169.93,241.98 169.85,242.28 169.69,242.56 169.53,242.84 169.30,243.07 169.08,243.30 168.81,243.47 168.54,243.64 168.24,243.74 167.94,243.84 167.62,243.87 167.30,243.90 166.98,243.85 166.67,243.79 166.37,243.67 166.08,243.54 160.26,237.62 154.43,231.70 132.65,219.14 110.86,206.58 66.96,181.02 23.06,155.46 -38.34,114.85 -99.76,74.24 -133.73,38.60 -167.71,2.95 -166.27,-13.15 -164.84,-29.27 -152.92,-34.17 -141.00,-39.07 -124.52,-39.26 -108.04,-39.45 -85.09,-37.12 -62.14,-34.79 -46.21,-31.27 -30.29,-27.76 -18.63,-23.37 -6.97,-18.99 -3.12,-16.10 0.72,-13.21 2.63,-9.52 4.53,-5.83 3.89,-2.59 3.24,0.64 3.12,1.02 2.99,1.40 2.78,1.74 2.57,2.08 2.28,2.36 1.99,2.63 1.65,2.83 1.30,3.04 0.92,3.15 0.54,3.26 0.14,3.28 -0.25,3.30 -0.64,3.22 -1.03,3.14 -1.39,2.97 -1.75,2.80 -2.06,2.55 -2.37,2.30 -2.61,1.98 -2.86,1.66 -3.01,1.30 -3.17,0.93 -3.24,0.53 -3.30,0.14 -3.27,-0.25 -3.24,-0.64 -3.24,-0.64 L -3.24,-0.64 Z"></path></g><g transform="translate(1007.5525438725449 876.5304814439046) rotate(0 -80.5 196)" stroke="none"><path fill="#1e1e1e" d="M 3.46,0.61 Q 3.46,0.61 1.62,10.36 -0.22,20.11 -4.51,37.57 -8.80,55.03 -17.28,81.48 -25.76,107.93 -48.97,162.08 -72.18,216.24 -97.01,267.14 -121.85,318.05 -122.11,318.42 -122.37,318.79 -122.74,319.06 -123.11,319.32 -123.54,319.46 -123.97,319.60 -124.43,319.59 -124.88,319.58 -125.31,319.43 -125.74,319.27 -126.09,318.99 -126.45,318.71 -126.70,318.33 -126.94,317.95 -127.06,317.51 -127.17,317.07 -127.14,316.61 -127.10,316.16 -126.93,315.74 -126.75,315.32 -126.45,314.98 -126.15,314.64 -125.75,314.42 -125.36,314.19 -124.91,314.10 -124.47,314.01 -124.02,314.07 -123.57,314.13 -123.16,314.33 -122.75,314.53 -122.43,314.85 -122.10,315.16 -121.90,315.57 -121.69,315.98 -121.63,316.43 -121.56,316.87 -121.65,317.32 -121.73,317.77 -121.95,318.17 -122.17,318.56 -122.51,318.87 -122.84,319.17 -123.26,319.36 -123.68,319.54 -124.13,319.58 -124.58,319.62 -125.02,319.51 -125.46,319.41 -125.85,319.16 -126.23,318.92 -126.52,318.57 -126.81,318.22 -126.97,317.79 -127.13,317.37 -127.14,316.91 -127.16,316.46 -127.03,316.02 -126.90,315.59 -126.90,315.59 -126.90,315.59 -102.18,264.78 -77.47,213.98 -54.45,160.05 -31.42,106.12 -23.12,79.85 -14.82,53.58 -10.75,36.28 -6.67,18.98 -5.07,9.18 -3.46,-0.61 -3.34,-1.01 -3.21,-1.42 -2.99,-1.78 -2.78,-2.15 -2.48,-2.45 -2.18,-2.75 -1.82,-2.97 -1.46,-3.19 -1.06,-3.32 -0.65,-3.45 -0.23,-3.48 0.18,-3.51 0.60,-3.43 1.02,-3.36 1.41,-3.19 1.79,-3.02 2.13,-2.76 2.47,-2.50 2.73,-2.17 2.99,-1.83 3.17,-1.45 3.35,-1.06 3.43,-0.65 3.50,-0.23 3.48,0.18 3.46,0.61 3.46,0.61 L 3.46,0.61 Z"></path></g><g transform="translate(1072.552543872545 850.5304814439046) rotate(0 -48 155)" stroke="none"><path fill="#1e1e1e" d="M 3.15,0.24 Q 3.15,0.24 2.91,3.98 2.66,7.72 0.69,15.86 -1.26,24.00 -5.86,40.62 -10.46,57.25 -15.87,76.66 -21.29,96.06 -30.81,126.77 -40.32,157.48 -50.99,188.94 -61.66,220.41 -69.37,241.27 -77.09,262.13 -81.80,275.29 -86.51,288.44 -88.50,294.84 -90.48,301.24 -91.05,305.06 -91.62,308.89 -91.79,309.36 -91.97,309.82 -92.29,310.21 -92.61,310.60 -93.03,310.86 -93.46,311.12 -93.94,311.24 -94.43,311.35 -94.93,311.31 -95.42,311.26 -95.88,311.06 -96.34,310.85 -96.71,310.51 -97.07,310.18 -97.31,309.74 -97.55,309.30 -97.64,308.81 -97.73,308.32 -97.66,307.82 -97.58,307.33 -97.36,306.88 -97.13,306.44 -96.77,306.09 -96.41,305.74 -95.96,305.52 -95.51,305.31 -95.02,305.25 -94.52,305.18 -94.03,305.28 -93.54,305.38 -93.11,305.64 -92.68,305.89 -92.35,306.26 -92.02,306.64 -91.83,307.10 -91.64,307.56 -91.60,308.06 -91.57,308.56 -91.69,309.04 -91.82,309.53 -92.09,309.94 -92.37,310.36 -92.76,310.67 -93.16,310.98 -93.63,311.14 -94.10,311.31 -94.60,311.32 -95.10,311.33 -95.57,311.17 -96.05,311.02 -96.45,310.72 -96.85,310.43 -97.14,310.02 -97.43,309.61 -97.57,309.13 -97.71,308.65 -97.69,308.15 -97.67,307.65 -97.67,307.65 -97.67,307.65 -96.63,303.65 -95.60,299.66 -93.59,293.14 -91.58,286.62 -86.88,273.44 -82.19,260.25 -74.53,239.45 -66.88,218.64 -56.27,187.23 -45.67,155.82 -36.24,125.18 -26.82,94.53 -21.49,75.11 -16.16,55.70 -11.71,39.15 -7.26,22.60 -5.54,14.91 -3.81,7.22 -3.48,3.48 -3.15,-0.24 -3.08,-0.61 -3.00,-0.99 -2.84,-1.33 -2.68,-1.68 -2.44,-1.97 -2.20,-2.27 -1.89,-2.50 -1.59,-2.73 -1.24,-2.88 -0.89,-3.03 -0.51,-3.10 -0.13,-3.16 0.24,-3.13 0.62,-3.10 0.98,-2.98 1.34,-2.86 1.67,-2.66 1.99,-2.45 2.25,-2.18 2.52,-1.91 2.71,-1.58 2.90,-1.25 3.01,-0.88 3.12,-0.51 3.14,-0.13 3.15,0.24 3.15,0.24 L 3.15,0.24 Z"></path></g><g transform="translate(1343.552543872545 819.5304814439046) rotate(0 -27 142.5)" stroke="none"><path fill="#1e1e1e" d="M 3.08,0.48 Q 3.08,0.48 2.15,5.94 1.22,11.39 -1.82,20.82 -4.88,30.25 -11.09,45.47 -17.30,60.69 -34.35,96.22 -51.39,131.76 -65.51,164.31 -79.62,196.87 -87.03,218.67 -94.44,240.47 -96.52,251.48 -98.60,262.49 -93.52,268.06 -88.44,273.63 -70.34,276.29 -52.24,278.95 -30.10,279.34 -7.96,279.74 8.47,277.06 24.92,274.38 32.97,271.84 41.03,269.30 44.49,268.09 47.96,266.87 48.42,266.81 48.88,266.74 49.34,266.82 49.80,266.91 50.20,267.14 50.61,267.36 50.92,267.71 51.24,268.05 51.42,268.48 51.61,268.91 51.65,269.37 51.69,269.84 51.58,270.29 51.47,270.74 51.22,271.14 50.98,271.53 50.61,271.82 50.25,272.12 49.82,272.28 49.38,272.44 48.91,272.46 48.45,272.48 48.00,272.34 47.56,272.21 47.18,271.94 46.80,271.67 46.52,271.29 46.25,270.91 46.11,270.47 45.97,270.03 45.98,269.56 45.99,269.09 46.15,268.65 46.30,268.22 46.59,267.85 46.88,267.49 47.27,267.23 47.67,266.98 48.12,266.86 48.57,266.75 49.03,266.78 49.50,266.82 49.93,267.00 50.36,267.18 50.71,267.49 51.05,267.80 51.29,268.21 51.52,268.61 51.61,269.07 51.70,269.52 51.64,269.99 51.58,270.45 51.37,270.87 51.17,271.29 50.84,271.62 50.51,271.95 50.10,272.16 49.68,272.37 49.68,272.37 49.68,272.37 46.14,273.35 42.61,274.33 34.19,276.96 25.77,279.59 8.86,282.31 -8.04,285.03 -30.56,284.61 -53.07,284.19 -72.40,280.86 -91.72,277.52 -97.58,270.35 -103.44,263.17 -101.50,250.96 -99.56,238.74 -92.09,216.72 -84.63,194.70 -70.50,162.04 -56.38,129.37 -39.45,93.97 -22.52,58.57 -16.45,43.52 -10.38,28.48 -7.53,19.46 -4.67,10.45 -3.88,4.98 -3.08,-0.48 -2.98,-0.84 -2.87,-1.21 -2.69,-1.53 -2.50,-1.86 -2.24,-2.13 -1.98,-2.41 -1.66,-2.61 -1.35,-2.81 -0.99,-2.93 -0.63,-3.05 -0.26,-3.09 0.11,-3.12 0.48,-3.06 0.85,-3.00 1.20,-2.85 1.55,-2.71 1.85,-2.48 2.15,-2.26 2.39,-1.97 2.63,-1.68 2.79,-1.34 2.95,-1.00 3.03,-0.63 3.11,-0.26 3.09,0.11 3.08,0.48 3.08,0.48 L 3.08,0.48 Z"></path></g><g transform="translate(1181.552543872545 985.5304814439046) rotate(0 119.5 -14.5)" stroke="none"><path fill="#1e1e1e" d="M -0.33,-3.55 Q -0.33,-3.55 5.71,-4.00 11.76,-4.45 23.75,-6.03 35.74,-7.61 61.01,-10.85 86.28,-14.08 115.15,-17.45 144.02,-20.82 166.06,-23.38 188.09,-25.95 200.89,-27.60 213.69,-29.25 220.32,-29.95 226.95,-30.65 231.77,-31.31 236.59,-31.97 237.10,-31.94 237.61,-31.90 238.09,-31.70 238.56,-31.50 238.95,-31.16 239.34,-30.82 239.59,-30.37 239.85,-29.93 239.95,-29.42 240.05,-28.92 239.99,-28.41 239.92,-27.90 239.70,-27.43 239.47,-26.97 239.11,-26.60 238.75,-26.24 238.29,-26.00 237.83,-25.77 237.32,-25.70 236.81,-25.62 236.31,-25.72 235.80,-25.81 235.35,-26.06 234.90,-26.31 234.55,-26.69 234.21,-27.07 234.00,-27.54 233.79,-28.01 233.74,-28.52 233.70,-29.04 233.82,-29.54 233.94,-30.04 234.21,-30.47 234.49,-30.91 234.89,-31.24 235.28,-31.56 235.77,-31.74 236.25,-31.92 236.76,-31.94 237.28,-31.96 237.77,-31.81 238.26,-31.67 238.68,-31.37 239.10,-31.07 239.41,-30.66 239.71,-30.24 239.87,-29.75 240.02,-29.26 240.01,-28.74 240.00,-28.23 239.83,-27.75 239.66,-27.26 239.34,-26.86 239.02,-26.45 238.59,-26.17 238.15,-25.89 237.65,-25.76 237.16,-25.63 237.16,-25.63 237.16,-25.63 232.35,-25.43 227.54,-25.23 220.98,-24.50 214.41,-23.77 201.58,-22.06 188.75,-20.35 166.73,-17.71 144.70,-15.07 115.88,-11.61 87.06,-8.15 61.84,-4.78 36.61,-1.41 24.50,0.37 12.38,2.15 6.36,2.85 0.33,3.55 -0.09,3.54 -0.52,3.53 -0.93,3.42 -1.35,3.30 -1.73,3.09 -2.10,2.88 -2.42,2.59 -2.73,2.30 -2.97,1.93 -3.20,1.57 -3.35,1.17 -3.49,0.76 -3.53,0.33 -3.57,-0.09 -3.51,-0.51 -3.44,-0.94 -3.28,-1.34 -3.12,-1.74 -2.86,-2.09 -2.61,-2.43 -2.28,-2.71 -1.95,-2.99 -1.56,-3.18 -1.18,-3.37 -0.75,-3.46 -0.33,-3.55 -0.33,-3.55 L -0.33,-3.55 Z"></path></g><g transform="translate(1531.552543872545 855.5304814439046) rotate(0 -42 140.5)" stroke="none"><path fill="#1e1e1e" d="M 3.03,1.46 Q 3.03,1.46 -1.08,9.75 -5.19,18.05 -11.54,32.71 -17.89,47.37 -25.77,67.94 -33.66,88.51 -43.32,122.17 -52.98,155.83 -60.84,187.67 -68.70,219.51 -72.33,236.47 -75.97,253.43 -77.51,261.48 -79.06,269.54 -79.58,273.01 -80.09,276.47 -80.26,276.93 -80.42,277.38 -80.73,277.76 -81.03,278.13 -81.44,278.40 -81.84,278.66 -82.31,278.77 -82.78,278.89 -83.26,278.85 -83.75,278.81 -84.19,278.62 -84.63,278.43 -84.99,278.11 -85.36,277.79 -85.59,277.37 -85.83,276.95 -85.92,276.47 -86.02,276.00 -85.95,275.52 -85.89,275.04 -85.67,274.61 -85.46,274.17 -85.12,273.83 -84.78,273.49 -84.34,273.27 -83.91,273.06 -83.43,272.99 -82.95,272.92 -82.48,273.01 -82.00,273.10 -81.58,273.34 -81.16,273.58 -80.83,273.94 -80.51,274.30 -80.32,274.74 -80.13,275.19 -80.09,275.67 -80.05,276.15 -80.16,276.62 -80.28,277.09 -80.54,277.50 -80.80,277.91 -81.18,278.21 -81.55,278.51 -82.01,278.68 -82.46,278.85 -82.94,278.86 -83.43,278.88 -83.89,278.73 -84.35,278.59 -84.75,278.31 -85.14,278.03 -85.42,277.64 -85.70,277.24 -85.85,276.78 -85.99,276.32 -85.98,275.84 -85.96,275.35 -85.96,275.35 -85.96,275.35 -85.17,271.94 -84.38,268.53 -82.85,260.41 -81.32,252.29 -77.71,235.23 -74.09,218.18 -66.26,186.22 -58.43,154.27 -48.77,120.35 -39.10,86.44 -31.27,65.72 -23.44,45.00 -17.17,30.14 -10.90,15.29 -6.96,6.91 -3.03,-1.46 -2.81,-1.80 -2.59,-2.14 -2.29,-2.42 -2.00,-2.70 -1.65,-2.90 -1.29,-3.10 -0.90,-3.21 -0.51,-3.32 -0.11,-3.33 0.29,-3.35 0.69,-3.26 1.08,-3.18 1.45,-3.00 1.81,-2.83 2.13,-2.57 2.44,-2.31 2.68,-1.98 2.92,-1.66 3.08,-1.28 3.23,-0.91 3.30,-0.51 3.36,-0.11 3.32,0.29 3.29,0.69 3.16,1.07 3.03,1.46 3.03,1.46 L 3.03,1.46 Z"></path></g><g transform="translate(1512.552543872545 827.5304814439046) rotate(0 1 -1)" stroke="none"><path fill="#1e1e1e" d="M 4.24,-1.32 Q 4.24,-1.32 4.30,-0.26 4.36,0.80 3.93,1.76 3.49,2.73 2.65,3.39 1.82,4.05 0.77,4.24 -0.26,4.43 -1.28,4.11 -2.29,3.80 -3.04,3.04 -3.80,2.29 -4.11,1.28 -4.43,0.26 -4.24,-0.77 -4.04,-1.82 -3.39,-2.65 -2.73,-3.49 -1.76,-3.93 -0.79,-4.36 0.26,-4.30 1.32,-4.23 2.23,-3.68 3.14,-3.13 3.69,-2.23 L 4.24,-1.32 Z"></path></g><g transform="translate(1651.552543872545 856.5304814439046) rotate(0 -28.5 109)" stroke="none"><path fill="#1e1e1e" d="M 3.47,1.01 Q 3.47,1.01 1.33,7.87 -0.80,14.73 -3.19,22.53 -5.58,30.32 -10.08,44.85 -14.57,59.38 -20.80,82.46 -27.03,105.54 -34.01,131.75 -40.99,157.96 -44.82,175.08 -48.65,192.20 -50.29,199.77 -51.92,207.34 -51.85,211.31 -51.77,215.27 -51.87,215.77 -51.98,216.27 -52.23,216.71 -52.49,217.15 -52.87,217.49 -53.26,217.83 -53.73,218.02 -54.20,218.22 -54.71,218.25 -55.22,218.29 -55.71,218.16 -56.20,218.03 -56.63,217.75 -57.06,217.47 -57.37,217.07 -57.69,216.67 -57.86,216.19 -58.03,215.71 -58.04,215.20 -58.04,214.69 -57.89,214.20 -57.73,213.71 -57.43,213.30 -57.13,212.89 -56.71,212.60 -56.29,212.31 -55.80,212.16 -55.31,212.02 -54.80,212.04 -54.29,212.06 -53.82,212.24 -53.34,212.42 -52.94,212.75 -52.55,213.07 -52.28,213.50 -52.01,213.94 -51.89,214.43 -51.78,214.93 -51.82,215.44 -51.87,215.95 -52.08,216.41 -52.29,216.88 -52.63,217.25 -52.98,217.63 -53.42,217.88 -53.87,218.12 -54.37,218.21 -54.88,218.30 -55.38,218.23 -55.89,218.15 -56.34,217.92 -56.79,217.69 -57.15,217.32 -57.51,216.96 -57.73,216.50 -57.95,216.04 -58.01,215.53 -58.08,215.03 -58.08,215.03 -58.08,215.03 -57.67,210.62 -57.27,206.21 -55.67,198.60 -54.07,190.99 -50.27,173.75 -46.46,156.51 -39.56,130.27 -32.65,104.04 -26.49,80.83 -20.34,57.63 -15.99,43.09 -11.63,28.55 -9.44,20.70 -7.24,12.86 -5.36,5.92 -3.47,-1.01 -3.30,-1.41 -3.13,-1.81 -2.87,-2.16 -2.60,-2.51 -2.26,-2.78 -1.93,-3.06 -1.53,-3.25 -1.14,-3.43 -0.71,-3.52 -0.28,-3.61 0.15,-3.59 0.58,-3.57 1.00,-3.45 1.42,-3.32 1.80,-3.11 2.18,-2.89 2.49,-2.58 2.81,-2.28 3.04,-1.91 3.27,-1.54 3.41,-1.13 3.55,-0.71 3.58,-0.28 3.61,0.15 3.54,0.58 3.47,1.01 3.47,1.01 L 3.47,1.01 Z"></path></g><g transform="translate(1523.552543872545 823.5304814439046) rotate(0 9 -42.5)" stroke="none"><path fill="#1e1e1e" d="M 0,-4.96 Q 0,-4.96 2.29,-5.02 4.58,-5.08 7.77,-5.48 10.96,-5.87 13.18,-6.44 15.41,-7.01 18.70,-8.15 22.00,-9.29 24.13,-10.25 26.26,-11.22 28.15,-12.40 30.04,-13.58 32.46,-14.64 34.87,-15.71 36.77,-16.97 38.66,-18.23 40.74,-19.35 42.82,-20.47 45.38,-22.03 47.93,-23.59 50.62,-25.27 53.32,-26.95 51.87,-31.31 50.42,-35.67 49.35,-38.89 48.28,-42.10 45.58,-47.06 42.89,-52.02 38.80,-56.94 34.71,-61.85 29.46,-65.89 24.22,-69.93 17.80,-73.40 11.38,-76.86 7.60,-78.36 3.82,-79.85 1.21,-80.25 -1.39,-80.66 -6.31,-78.45 -11.22,-76.23 -15.44,-71.68 -19.66,-67.13 -22.44,-63.48 -25.23,-59.83 -27.80,-54.72 -30.36,-49.62 -32.30,-42.76 -34.23,-35.90 -33.36,-29.07 -32.48,-22.25 -30.90,-18.45 -29.32,-14.65 -24.42,-11.91 -19.53,-9.16 -13.79,-7.31 -8.06,-5.47 -2.84,-4.68 2.37,-3.88 5.78,-3.68 9.18,-3.49 12.07,-3.43 14.95,-3.38 15.47,-3.25 15.99,-3.13 16.44,-2.84 16.89,-2.56 17.23,-2.15 17.57,-1.73 17.75,-1.24 17.94,-0.74 17.96,-0.20 17.98,0.32 17.83,0.83 17.67,1.34 17.37,1.78 17.06,2.21 16.63,2.53 16.20,2.84 15.69,3.00 15.18,3.16 14.65,3.15 14.11,3.14 13.61,2.96 13.11,2.78 12.69,2.45 12.27,2.12 11.98,1.67 11.69,1.23 11.56,0.71 11.43,0.19 11.47,-0.33 11.50,-0.86 11.71,-1.35 11.92,-1.84 12.27,-2.24 12.63,-2.64 13.09,-2.91 13.55,-3.18 14.07,-3.28 14.60,-3.38 15.12,-3.32 15.65,-3.25 16.13,-3.01 16.61,-2.78 16.99,-2.41 17.37,-2.03 17.61,-1.56 17.85,-1.08 17.93,-0.55 18.01,-0.03 17.91,0.49 17.81,1.01 17.55,1.48 17.30,1.95 16.90,2.31 16.51,2.66 16.02,2.88 15.53,3.09 15.00,3.14 14.47,3.19 14.47,3.19 14.47,3.19 11.52,2.81 8.58,2.44 5.07,1.93 1.56,1.42 -4.08,0.55 -9.73,-0.31 -16.03,-2.38 -22.34,-4.46 -28.18,-8.22 -34.03,-11.99 -36.07,-16.75 -38.12,-21.51 -39.00,-29.40 -39.89,-37.30 -37.86,-44.79 -35.83,-52.28 -33.12,-57.93 -30.40,-63.59 -27.54,-67.66 -24.68,-71.73 -19.66,-77.24 -14.64,-82.75 -10.79,-84.66 -6.93,-86.57 -3.55,-87.02 -0.17,-87.46 2.91,-86.60 6.00,-85.75 10.23,-84.27 14.46,-82.79 21.47,-79.26 28.48,-75.73 34.54,-71.43 40.60,-67.13 45.52,-61.89 50.44,-56.65 54.06,-51.25 57.68,-45.84 59.29,-42.26 60.90,-38.68 62.51,-33.94 64.12,-29.20 63.65,-25.38 63.19,-21.57 59.98,-18.79 56.77,-16.01 53.63,-14.01 50.49,-12.00 47.48,-10.65 44.47,-9.30 39.98,-6.90 35.50,-4.51 33.02,-3.05 30.54,-1.59 27.81,-0.40 25.09,0.78 21.32,1.68 17.55,2.58 15.02,3.08 12.49,3.57 8.55,4.33 4.61,5.08 2.30,5.02 0,4.96 -0.59,4.88 -1.18,4.81 -1.74,4.60 -2.30,4.39 -2.79,4.05 -3.29,3.71 -3.68,3.26 -4.08,2.81 -4.36,2.28 -4.63,1.75 -4.78,1.17 -4.92,0.59 -4.92,-0.00 -4.92,-0.59 -4.78,-1.17 -4.63,-1.75 -4.36,-2.28 -4.08,-2.81 -3.68,-3.26 -3.29,-3.71 -2.79,-4.05 -2.30,-4.39 -1.74,-4.60 -1.18,-4.81 -0.59,-4.88 0.00,-4.96 0.00,-4.96 L 0,-4.96 Z"></path></g><g transform="translate(1653.552543872545 872.5304814439046) rotate(0 59 64.5)" stroke="none"><path fill="#1e1e1e" d="M -1.20,-3.10 Q -1.20,-3.10 4.00,-5.02 9.21,-6.95 16.61,-9.75 24.01,-12.55 38.38,-18.04 52.74,-23.52 65.81,-27.87 78.88,-32.22 89.62,-35.50 100.36,-38.78 105.78,-40.05 111.19,-41.32 114.21,-39.45 117.23,-37.58 118.46,-32.68 119.68,-27.78 120.03,-18.86 120.37,-9.94 119.34,10.26 118.30,30.46 114.10,59.53 109.90,88.60 104.93,112.20 99.97,135.80 97.86,145.79 95.74,155.78 95.59,156.19 95.43,156.60 95.15,156.93 94.87,157.27 94.49,157.50 94.12,157.73 93.69,157.83 93.27,157.93 92.83,157.88 92.39,157.84 91.99,157.66 91.59,157.48 91.27,157.18 90.95,156.88 90.74,156.50 90.53,156.11 90.46,155.68 90.38,155.25 90.45,154.82 90.52,154.38 90.72,153.99 90.92,153.60 91.23,153.30 91.55,152.99 91.95,152.81 92.34,152.62 92.78,152.57 93.21,152.51 93.64,152.60 94.07,152.69 94.45,152.92 94.83,153.14 95.11,153.47 95.40,153.80 95.57,154.21 95.73,154.61 95.76,155.05 95.79,155.49 95.68,155.91 95.56,156.34 95.32,156.70 95.08,157.07 94.73,157.34 94.39,157.60 93.97,157.75 93.56,157.89 93.12,157.90 92.68,157.90 92.26,157.76 91.85,157.63 91.49,157.37 91.14,157.10 90.89,156.74 90.64,156.38 90.52,155.96 90.40,155.54 90.42,155.10 90.44,154.67 90.44,154.67 90.44,154.67 92.52,144.67 94.60,134.67 99.49,111.24 104.39,87.81 108.50,59.00 112.62,30.18 113.57,10.24 114.52,-9.69 114.12,-18.12 113.73,-26.55 112.12,-31.54 110.51,-36.53 106.25,-35.01 101.99,-33.48 91.34,-30.18 80.68,-26.87 67.75,-22.49 54.83,-18.11 40.51,-12.54 26.18,-6.96 18.83,-4.03 11.48,-1.09 6.34,1.00 1.20,3.10 0.81,3.20 0.42,3.30 0.02,3.30 -0.37,3.30 -0.76,3.21 -1.15,3.12 -1.51,2.94 -1.86,2.75 -2.17,2.49 -2.47,2.22 -2.70,1.90 -2.93,1.57 -3.08,1.19 -3.22,0.82 -3.27,0.42 -3.33,0.02 -3.28,-0.37 -3.24,-0.77 -3.10,-1.14 -2.96,-1.52 -2.73,-1.85 -2.51,-2.18 -2.21,-2.45 -1.91,-2.72 -1.56,-2.91 -1.20,-3.10 -1.20,-3.10 L -1.20,-3.10 Z"></path></g><g transform="translate(1869.552543872545 843.5304814439046) rotate(0 -311 152)" stroke="none"><path fill="#1e1e1e" d="M 2.70,1.56 Q 2.70,1.56 -0.51,6.99 -3.73,12.42 -7.09,18.95 -10.45,25.49 -15.01,37.91 -19.56,50.34 -23.50,67.02 -27.44,83.70 -27.72,99.92 -27.99,116.14 -19.92,127.88 -11.86,139.61 6.03,142.83 23.92,146.04 44.70,140.18 65.47,134.31 85.51,113.21 105.54,92.10 112.00,65.16 118.46,38.21 113.00,15.58 107.54,-7.03 95.92,-24.24 84.29,-41.44 71.79,-51.23 59.29,-61.01 49.87,-64.83 40.45,-68.64 36.76,-68.94 33.08,-69.25 30.84,-66.97 28.59,-64.70 28.23,-64.77 27.86,-64.83 27.51,-64.99 27.17,-65.14 26.88,-65.37 26.58,-65.60 26.35,-65.90 26.12,-66.19 25.96,-66.53 25.81,-66.88 25.74,-67.24 25.67,-67.61 25.69,-67.99 25.71,-68.36 25.83,-68.72 25.94,-69.08 26.13,-69.40 26.32,-69.72 26.59,-69.99 26.85,-70.25 27.17,-70.45 27.50,-70.64 27.85,-70.76 28.21,-70.87 28.59,-70.89 28.96,-70.91 34.12,-67.99 39.28,-65.07 49.71,-64.14 60.15,-63.20 71.24,-63.33 82.34,-63.45 91.81,-65.48 101.29,-67.51 106.49,-66.15 111.70,-64.79 115.57,-58.10 119.44,-51.41 124.13,-29.75 128.81,-8.09 139.08,35.16 149.36,78.41 172.66,143.53 195.96,208.64 212.78,258.23 229.60,307.81 229.67,308.12 229.74,308.43 229.74,308.75 229.73,309.06 229.65,309.37 229.57,309.67 229.41,309.95 229.26,310.23 229.05,310.46 228.83,310.70 228.57,310.87 228.31,311.05 228.01,311.15 227.71,311.26 227.39,311.29 227.08,311.32 226.77,311.28 226.45,311.23 226.16,311.12 225.86,311.00 225.61,310.81 225.35,310.63 225.14,310.39 224.94,310.15 224.80,309.86 224.66,309.58 -90.61,326.64 -405.88,343.69 -462.22,341.08 -518.57,338.47 -518.88,338.45 -519.20,338.43 -519.50,338.33 -519.80,338.24 -520.07,338.07 -520.34,337.90 -520.56,337.68 -520.79,337.45 -520.95,337.18 -521.11,336.91 -521.20,336.60 -521.29,336.30 -521.31,335.98 -521.32,335.67 -521.26,335.36 -521.20,335.05 -521.07,334.76 -520.94,334.47 -520.74,334.22 -520.54,333.98 -520.29,333.78 -520.04,333.59 -519.75,333.46 -519.46,333.34 -519.15,333.28 -518.84,333.23 -461.92,320.65 -405.01,308.07 -268.60,278.56 -132.19,249.05 -66.14,227.72 -0.08,206.39 9.67,192.77 19.42,179.15 18.20,173.20 16.97,167.24 17.05,162.58 17.13,157.92 17.31,157.50 17.48,157.08 17.78,156.74 18.08,156.40 18.47,156.17 18.87,155.95 19.31,155.86 19.76,155.77 20.21,155.82 20.66,155.88 21.06,156.08 21.47,156.28 21.80,156.59 22.12,156.91 22.33,157.32 22.53,157.72 22.60,158.17 22.66,158.62 22.58,159.07 22.50,159.51 22.28,159.91 22.06,160.31 21.73,160.61 21.39,160.92 20.98,161.10 20.56,161.28 20.11,161.32 19.66,161.37 19.22,161.26 18.77,161.16 18.39,160.91 18.00,160.67 17.72,160.32 17.43,159.97 17.27,159.55 17.11,159.12 17.09,158.67 17.08,158.22 17.21,157.78 17.33,157.35 17.60,156.98 17.86,156.60 18.22,156.34 18.59,156.07 19.02,155.93 19.45,155.79 19.91,155.80 20.36,155.81 20.79,155.96 21.22,156.12 21.57,156.40 21.93,156.68 22.18,157.06 22.42,157.44 22.54,157.88 22.65,158.32 22.62,158.77 22.59,159.22 22.59,159.22 22.59,159.22 22.37,162.82 22.16,166.41 23.05,173.75 23.95,181.09 12.99,196.06 2.03,211.02 -64.52,232.60 -131.08,254.18 -267.48,283.69 -403.88,313.20 -461.22,325.84 -518.57,338.47 -518.88,338.45 -519.20,338.43 -519.50,338.33 -519.80,338.24 -520.07,338.07 -520.34,337.90 -520.56,337.68 -520.79,337.45 -520.95,337.18 -521.11,336.91 -521.20,336.60 -521.29,336.30 -521.31,335.98 -521.32,335.67 -521.26,335.36 -521.20,335.05 -521.07,334.76 -520.94,334.47 -520.74,334.22 -520.54,333.98 -520.29,333.78 -520.04,333.59 -519.75,333.46 -519.46,333.34 -519.15,333.28 -518.84,333.23 -462.49,335.84 -406.15,338.44 -88.27,323.13 229.60,307.81 229.67,308.12 229.74,308.43 229.74,308.75 229.73,309.06 229.65,309.37 229.57,309.67 229.41,309.95 229.26,310.23 229.05,310.46 228.83,310.70 228.57,310.87 228.31,311.05 228.01,311.15 227.71,311.26 227.39,311.29 227.08,311.32 226.77,311.28 226.45,311.23 226.16,311.12 225.86,311.00 225.61,310.81 225.35,310.63 225.14,310.39 224.94,310.15 224.80,309.86 224.66,309.58 207.83,260.00 191.01,210.41 167.63,145.02 144.25,79.62 133.96,36.31 123.67,-6.99 119.23,-27.99 114.78,-49.00 112.04,-54.78 109.30,-60.56 105.71,-61.47 102.13,-62.38 92.27,-60.29 82.41,-58.19 71.02,-58.08 59.63,-57.97 48.28,-59.19 36.93,-60.41 32.76,-62.55 28.60,-64.70 28.23,-64.77 27.86,-64.83 27.51,-64.99 27.17,-65.14 26.88,-65.37 26.58,-65.60 26.35,-65.90 26.12,-66.19 25.96,-66.53 25.81,-66.87 25.74,-67.24 25.67,-67.61 25.69,-67.99 25.71,-68.36 25.83,-68.72 25.94,-69.08 26.13,-69.40 26.32,-69.72 26.59,-69.99 26.85,-70.25 27.17,-70.45 27.50,-70.64 27.85,-70.76 28.21,-70.87 28.59,-70.89 28.96,-70.91 30.49,-72.44 32.01,-73.97 37.18,-73.75 42.35,-73.53 52.43,-69.36 62.50,-65.18 75.56,-54.81 88.62,-44.44 100.63,-26.40 112.63,-8.36 118.12,15.42 123.60,39.20 116.58,67.33 109.55,95.45 88.39,117.35 67.24,139.25 45.20,145.27 23.16,151.29 3.91,147.30 -15.32,143.31 -24.30,129.97 -33.27,116.63 -33.05,99.55 -32.83,82.46 -28.84,65.44 -24.86,48.41 -20.24,35.65 -15.61,22.89 -12.26,16.15 -8.91,9.42 -5.80,3.93 -2.70,-1.56 -2.47,-1.86 -2.25,-2.16 -1.95,-2.40 -1.66,-2.64 -1.32,-2.80 -0.98,-2.96 -0.61,-3.03 -0.24,-3.11 0.12,-3.09 0.50,-3.08 0.86,-2.97 1.22,-2.87 1.55,-2.68 1.88,-2.49 2.15,-2.23 2.42,-1.97 2.62,-1.65 2.82,-1.33 2.94,-0.97 3.06,-0.62 3.09,-0.24 3.12,0.12 3.06,0.50 2.99,0.87 2.85,1.21 2.70,1.56 2.70,1.56 L 2.70,1.56 Z"></path></g><g transform="translate(32.5 633.7500000000002) rotate(0 61.25 58.74999999999994)" stroke="none"><path fill="#1e1e1e" d="M 3.52,-0.50 Q 3.52,-0.50 4.11,4.54 4.71,9.59 4.94,16.20 5.16,22.81 5.23,33.51 5.29,44.22 6.01,60.91 6.74,77.61 7.03,87.62 7.32,97.63 7.43,103.28 7.53,108.94 8.57,110.67 9.60,112.41 9.56,112.80 9.52,113.19 9.39,113.56 9.26,113.93 9.05,114.26 8.83,114.59 8.55,114.85 8.26,115.12 7.92,115.31 7.57,115.50 7.19,115.60 6.82,115.71 6.42,115.72 6.03,115.73 5.65,115.64 5.27,115.56 4.91,115.38 4.56,115.21 4.26,114.96 3.96,114.70 3.73,114.39 3.50,114.07 3.35,113.71 3.20,113.34 3.15,112.95 3.09,112.57 4.28,109.11 5.48,105.66 7.38,98.15 9.29,90.65 11.59,82.32 13.89,73.99 17.87,66.59 21.85,59.18 24.22,54.73 26.59,50.29 28.64,47.80 30.69,45.32 33.65,45.00 36.61,44.69 39.53,47.91 42.46,51.13 48.10,57.28 53.75,63.43 56.87,66.85 59.99,70.26 63.78,72.18 67.58,74.10 69.68,75.05 71.77,76.00 75.34,71.63 78.91,67.26 83.55,61.14 88.18,55.02 90.79,49.72 93.40,44.43 95.99,38.55 98.59,32.67 100.39,27.39 102.19,22.11 102.84,18.51 103.49,14.92 103.66,14.02 103.82,13.12 103.95,12.75 104.07,12.38 104.28,12.05 104.50,11.71 104.78,11.44 105.06,11.17 105.40,10.98 105.74,10.78 106.12,10.67 106.50,10.57 106.89,10.55 107.28,10.54 107.66,10.62 108.05,10.70 108.40,10.87 108.76,11.03 109.06,11.28 109.36,11.53 109.60,11.85 109.83,12.16 109.98,12.52 110.14,12.88 110.20,13.27 110.26,13.66 110.23,14.05 110.19,14.44 111.09,21.47 111.99,28.51 113.64,34.35 115.29,40.19 116.67,44.13 118.06,48.06 119.46,50.14 120.86,52.22 122.36,53.19 123.85,54.16 124.02,54.58 124.19,55.00 124.26,55.44 124.32,55.89 124.28,56.33 124.23,56.78 124.08,57.21 123.93,57.63 123.69,58.01 123.44,58.38 123.11,58.69 122.78,59.00 122.39,59.22 121.99,59.43 121.56,59.55 121.12,59.67 120.67,59.68 120.22,59.69 119.78,59.59 119.34,59.49 118.94,59.29 118.54,59.09 118.19,58.80 117.85,58.51 117.59,58.15 117.32,57.78 118.20,54.61 119.07,51.43 119.42,50.99 119.77,50.54 120.24,50.23 120.72,49.91 121.27,49.77 121.82,49.62 122.39,49.66 122.95,49.70 123.48,49.92 124.00,50.14 124.43,50.51 124.86,50.89 125.15,51.38 125.43,51.87 125.55,52.43 125.66,52.98 125.59,53.55 125.52,54.11 125.28,54.62 125.03,55.14 124.63,55.54 124.24,55.95 123.73,56.21 123.23,56.47 122.66,56.55 122.10,56.64 121.54,56.54 120.98,56.44 120.48,56.16 119.98,55.89 119.60,55.47 119.21,55.05 118.98,54.53 118.75,54.02 118.70,53.45 118.64,52.88 118.77,52.33 118.90,51.78 119.20,51.29 119.50,50.81 119.94,50.45 120.38,50.09 120.91,49.88 121.44,49.68 122.01,49.66 122.58,49.64 123.13,49.80 123.67,49.96 124.14,50.28 124.60,50.61 124.94,51.06 125.28,51.52 125.45,52.06 125.63,52.60 125.62,53.17 125.61,53.74 125.42,54.28 125.23,54.81 125.23,54.81 125.23,54.81 124.54,54.49 123.85,54.16 124.02,54.58 124.19,55.00 124.26,55.44 124.32,55.89 124.28,56.33 124.23,56.78 124.08,57.21 123.93,57.63 123.69,58.01 123.44,58.38 123.11,58.69 122.78,59.00 122.39,59.21 121.99,59.43 121.56,59.55 121.12,59.67 120.67,59.68 120.22,59.69 119.78,59.59 119.34,59.49 118.94,59.29 118.54,59.09 118.19,58.80 117.85,58.51 117.59,58.15 117.32,57.78 116.24,56.69 115.16,55.60 113.87,52.84 112.58,50.08 111.03,45.98 109.47,41.89 107.58,35.63 105.69,29.36 104.80,23.49 103.91,17.62 103.87,15.37 103.82,13.12 103.95,12.75 104.07,12.38 104.28,12.05 104.50,11.71 104.78,11.44 105.06,11.17 105.40,10.98 105.74,10.78 106.12,10.67 106.50,10.57 106.89,10.55 107.28,10.54 107.66,10.62 108.05,10.70 108.40,10.87 108.76,11.03 109.06,11.28 109.36,11.53 109.60,11.85 109.83,12.16 109.98,12.52 110.14,12.88 110.20,13.27 110.26,13.66 110.23,14.05 110.19,14.44 109.70,15.28 109.21,16.11 108.32,19.99 107.42,23.86 105.59,29.39 103.75,34.91 101.16,40.94 98.58,46.96 95.77,52.76 92.97,58.56 88.23,65.01 83.50,71.46 78.57,76.37 73.63,81.29 69.24,80.41 64.85,79.54 60.16,77.15 55.46,74.76 52.12,71.44 48.79,68.12 42.62,61.80 36.46,55.47 33.97,54.19 31.47,52.90 29.15,57.38 26.83,61.86 23.16,68.70 19.49,75.54 17.31,83.81 15.13,92.08 13.27,99.95 11.41,107.82 10.50,110.11 9.60,112.41 9.56,112.80 9.52,113.19 9.39,113.56 9.26,113.93 9.05,114.26 8.83,114.58 8.55,114.85 8.26,115.12 7.92,115.31 7.57,115.50 7.20,115.60 6.82,115.71 6.42,115.72 6.03,115.73 5.65,115.64 5.27,115.56 4.91,115.38 4.56,115.21 4.26,114.96 3.96,114.70 3.73,114.39 3.50,114.07 3.35,113.71 3.20,113.34 3.15,112.95 3.09,112.57 2.57,110.91 2.04,109.25 1.87,103.53 1.69,97.82 1.33,87.85 0.96,77.88 0.14,61.08 -0.67,44.29 -0.87,33.70 -1.07,23.11 -1.45,16.82 -1.83,10.52 -2.68,5.51 -3.52,0.50 -3.53,0.07 -3.54,-0.35 -3.44,-0.77 -3.35,-1.19 -3.16,-1.57 -2.97,-1.96 -2.69,-2.28 -2.41,-2.61 -2.06,-2.86 -1.72,-3.11 -1.32,-3.27 -0.92,-3.43 -0.49,-3.50 -0.07,-3.56 0.35,-3.51 0.77,-3.47 1.18,-3.33 1.58,-3.18 1.94,-2.95 2.30,-2.71 2.59,-2.39 2.88,-2.08 3.09,-1.70 3.30,-1.33 3.41,-0.91 3.52,-0.50 3.52,-0.50 L 3.52,-0.50 Z"></path></g><g transform="translate(147.5 571.2500000000002) rotate(0 0.00004999999998744897 0.00004999999998744897)" stroke="none"><path fill="#1e1e1e" d="M 3.14,-3.14 Q 3.14,-3.14 3.55,-2.55 3.97,-1.97 4.18,-1.28 4.40,-0.59 4.38,0.11 4.36,0.83 4.11,1.51 3.86,2.18 3.41,2.74 2.96,3.30 2.36,3.69 1.75,4.07 1.05,4.25 0.36,4.42 -0.35,4.36 -1.07,4.30 -1.73,4.02 -2.39,3.74 -2.92,3.26 -3.46,2.78 -3.81,2.15 -4.16,1.53 -4.30,0.82 -4.43,0.11 -4.34,-0.59 -4.24,-1.30 -3.92,-1.94 -3.60,-2.59 -3.09,-3.09 -2.59,-3.60 -1.94,-3.92 -1.30,-4.24 -0.59,-4.34 0.12,-4.43 0.82,-4.30 1.53,-4.16 2.15,-3.81 2.78,-3.46 3.26,-2.92 3.74,-2.39 4.02,-1.73 4.31,-1.07 4.36,-0.35 4.42,0.36 4.25,1.05 4.07,1.75 3.69,2.36 3.30,2.96 2.74,3.41 2.18,3.86 1.51,4.11 0.83,4.36 0.11,4.38 -0.60,4.40 -1.28,4.18 -1.97,3.97 -2.55,3.55 -3.14,3.13 -3.14,3.14 -3.14,3.14 -3.47,2.71 -3.80,2.29 -4.02,1.80 -4.24,1.32 -4.33,0.79 -4.43,0.26 -4.40,-0.26 -4.36,-0.80 -4.20,-1.31 -4.04,-1.82 -3.77,-2.28 -3.49,-2.73 -3.11,-3.11 -2.73,-3.49 -2.28,-3.77 -1.82,-4.05 -1.31,-4.20 -0.80,-4.36 -0.26,-4.40 0.26,-4.43 0.79,-4.33 1.32,-4.24 1.80,-4.02 2.29,-3.80 2.71,-3.47 3.14,-3.14 3.14,-3.14 L 3.14,-3.14 Z"></path></g><g transform="translate(222.4999999999999 616.2500000000002) rotate(0 -11.25 30)" stroke="none"><path fill="#1e1e1e" d="M 3.38,2.41 Q 3.38,2.41 -0.37,7.33 -4.13,12.24 -7.20,16.41 -10.26,20.59 -12.88,27.06 -15.50,33.53 -16.65,39.03 -17.80,44.53 -18.32,48.99 -18.85,53.44 -18.19,55.58 -17.54,57.72 -16.63,55.35 -15.71,52.99 -13.32,49.67 -10.93,46.36 -10.21,46.01 -9.49,45.66 -8.69,45.56 -7.90,45.46 -7.11,45.62 -6.33,45.78 -5.63,46.18 -4.94,46.58 -4.41,47.19 -3.88,47.79 -3.58,48.53 -3.27,49.27 -3.21,50.07 -3.16,50.87 -3.36,51.64 -3.56,52.42 -4.00,53.09 -4.44,53.76 -5.07,54.25 -5.70,54.75 -6.45,55.01 -7.21,55.28 -8.01,55.30 -8.81,55.31 -9.57,55.06 -10.34,54.82 -10.98,54.35 -11.63,53.87 -12.09,53.22 -12.55,52.56 -12.77,51.79 -13.00,51.02 -12.97,50.22 -12.94,49.42 -12.65,48.67 -12.37,47.92 -11.86,47.31 -11.35,46.69 -10.67,46.26 -9.99,45.84 -9.21,45.65 -8.43,45.47 -7.63,45.54 -6.84,45.62 -6.10,45.94 -5.37,46.27 -4.78,46.81 -4.19,47.35 -3.81,48.05 -3.42,48.75 -3.28,49.54 -3.13,50.33 -3.25,51.12 -3.37,51.92 -3.73,52.63 -4.10,53.34 -4.67,53.90 -5.24,54.46 -5.24,54.46 -5.24,54.46 -6.57,56.13 -7.90,57.80 -9.51,60.07 -11.11,62.34 -13.22,63.63 -15.33,64.92 -18.47,64.11 -21.62,63.30 -22.79,61.32 -23.96,59.35 -24.33,56.12 -24.70,52.90 -24.25,48.12 -23.80,43.34 -22.66,37.27 -21.51,31.19 -18.74,23.95 -15.96,16.71 -13.10,12.29 -10.24,7.88 -6.81,2.73 -3.38,-2.41 -3.04,-2.78 -2.70,-3.15 -2.29,-3.43 -1.87,-3.71 -1.40,-3.88 -0.93,-4.05 -0.43,-4.10 0.06,-4.15 0.56,-4.09 1.06,-4.02 1.52,-3.83 1.99,-3.65 2.40,-3.35 2.80,-3.06 3.13,-2.68 3.46,-2.30 3.68,-1.85 3.91,-1.41 4.02,-0.92 4.13,-0.43 4.12,0.06 4.12,0.56 3.99,1.05 3.86,1.53 3.62,1.97 3.38,2.41 3.38,2.41 L 3.38,2.41 Z"></path></g><g transform="translate(242.4999999999999 646.2500000000002) rotate(0 72.49999999999994 25)" stroke="none"><path fill="#1e1e1e" d="M -1.09,-4.36 Q -1.09,-4.36 1.77,-5.11 4.64,-5.86 8.80,-6.64 12.95,-7.43 16.80,-8.42 20.66,-9.41 25.05,-11.13 29.43,-12.84 31.83,-14.38 34.22,-15.93 35.90,-18.10 37.59,-20.27 35.36,-22.36 33.13,-24.45 29.50,-20.10 25.87,-15.75 23.10,-10.28 20.32,-4.81 18.38,11.50 16.44,27.81 18.33,38.81 20.23,49.80 24.86,57.61 29.50,65.41 42.49,68.58 55.48,71.75 65.94,71.85 76.40,71.96 89.16,67.10 101.91,62.23 113.00,54.54 124.09,46.85 129.48,41.52 134.86,36.19 137.04,33.22 139.23,30.25 140.05,28.81 140.87,27.37 141.26,27.01 141.66,26.64 142.15,26.41 142.64,26.19 143.18,26.14 143.72,26.08 144.24,26.20 144.77,26.32 145.23,26.60 145.69,26.89 146.04,27.30 146.39,27.72 146.58,28.22 146.78,28.72 146.80,29.26 146.83,29.80 146.68,30.32 146.53,30.84 146.23,31.29 145.92,31.73 145.49,32.05 145.05,32.38 144.54,32.55 144.03,32.71 143.49,32.71 142.95,32.71 142.44,32.53 141.93,32.35 141.50,32.02 141.07,31.69 140.77,31.24 140.47,30.79 140.33,30.27 140.19,29.75 140.22,29.21 140.26,28.67 140.46,28.17 140.66,27.67 141.02,27.26 141.37,26.85 141.84,26.58 142.30,26.30 142.83,26.19 143.36,26.08 143.89,26.14 144.43,26.21 144.92,26.44 145.41,26.67 145.80,27.04 146.19,27.42 146.44,27.89 146.68,28.37 146.77,28.91 146.85,29.44 146.76,29.97 146.67,30.51 146.41,30.98 146.15,31.46 146.15,31.46 146.16,31.46 144.97,32.62 143.79,33.77 141.25,36.92 138.71,40.07 132.99,45.74 127.26,51.41 115.60,59.46 103.94,67.51 90.22,72.63 76.49,77.75 65.24,77.66 53.99,77.58 39.58,73.53 25.16,69.49 19.42,60.31 13.68,51.14 11.46,39.11 9.24,27.08 11.15,9.50 13.06,-8.07 15.97,-14.69 18.88,-21.32 22.80,-26.28 26.73,-31.23 30.92,-32.45 35.11,-33.66 37.86,-32.30 40.61,-30.93 42.01,-29.06 43.41,-27.20 44.84,-23.93 46.27,-20.66 45.68,-18.27 45.09,-15.87 43.68,-14.09 42.26,-12.31 40.11,-10.91 37.95,-9.51 35.06,-7.98 32.16,-6.45 27.48,-4.31 22.81,-2.16 18.87,-0.85 14.93,0.45 10.89,1.72 6.85,2.98 3.97,3.67 1.09,4.36 0.55,4.43 0.01,4.50 -0.52,4.43 -1.06,4.37 -1.57,4.18 -2.07,3.99 -2.52,3.68 -2.97,3.37 -3.33,2.97 -3.69,2.56 -3.95,2.08 -4.20,1.61 -4.33,1.08 -4.46,0.55 -4.46,0.01 -4.47,-0.52 -4.34,-1.05 -4.21,-1.58 -3.96,-2.06 -3.71,-2.54 -3.35,-2.95 -2.99,-3.35 -2.55,-3.66 -2.10,-3.97 -1.59,-4.17 -1.09,-4.36 -1.09,-4.36 L -1.09,-4.36 Z"></path></g><g transform="translate(10 668.7500000000002) rotate(0 52.5 16.25)" stroke="none"><path fill="#1e1e1e" d="M -3.72,-2.48 Q -3.72,-2.48 -0.65,-6.66 2.42,-10.84 5.99,-15.49 9.55,-20.15 12.61,-23.61 15.67,-27.07 17.52,-29.37 19.38,-31.67 20.82,-33.65 22.27,-35.62 24.94,-35.76 27.61,-35.90 31.82,-32.35 36.03,-28.81 37.19,-26.69 38.35,-24.57 39.91,-21.89 41.47,-19.22 43.63,-11.64 45.79,-4.07 47.27,2.65 48.74,9.38 49.33,16.77 49.93,24.16 50.11,30.14 50.30,36.12 50.35,40.82 50.39,45.52 50.55,48.96 50.72,52.39 50.90,55.29 51.08,58.19 51.21,61.18 51.34,64.17 52.40,65.34 53.47,66.51 53.40,67.05 53.34,67.60 53.14,68.11 52.95,68.62 52.64,69.07 52.33,69.52 51.92,69.89 51.52,70.25 51.03,70.51 50.55,70.76 50.02,70.89 49.49,71.03 48.94,71.03 48.39,71.03 47.86,70.90 47.33,70.77 46.85,70.52 46.36,70.26 45.95,69.90 45.54,69.54 45.23,69.09 44.92,68.64 44.72,68.13 44.53,67.62 44.46,67.08 44.39,66.54 44.71,63.29 45.02,60.04 44.88,56.54 44.74,53.03 44.71,50.72 44.67,48.41 44.53,45.27 44.39,42.13 45.21,36.91 46.04,31.69 47.40,29.27 48.77,26.84 50.77,25.20 52.76,23.57 55.22,22.91 57.67,22.26 60.48,22.96 63.28,23.66 65.40,24.76 67.51,25.85 69.35,27.77 71.19,29.69 73.27,32.21 75.35,34.74 78.54,40.00 81.73,45.27 83.53,46.92 85.32,48.58 87.27,52.18 89.22,55.78 91.50,58.06 93.77,60.34 96.28,55.97 98.79,51.61 99.24,49.46 99.70,47.30 100.09,41.48 100.49,35.65 100.44,32.27 100.39,28.90 100.53,28.17 100.66,27.44 101.02,26.80 101.38,26.15 101.93,25.65 102.48,25.15 103.15,24.86 103.83,24.56 104.57,24.49 105.30,24.43 106.02,24.60 106.74,24.78 107.37,25.17 108.00,25.57 108.46,26.14 108.93,26.71 109.19,27.41 109.45,28.10 109.48,28.84 109.50,29.58 109.29,30.29 109.08,31.00 108.65,31.60 108.22,32.20 107.62,32.64 107.02,33.07 106.32,33.30 105.61,33.52 104.87,33.50 104.13,33.49 103.44,33.24 102.74,32.99 102.16,32.53 101.58,32.07 101.18,31.45 100.78,30.83 100.59,30.11 100.41,29.39 100.46,28.65 100.52,27.92 100.81,27.23 101.09,26.55 101.59,26.00 102.08,25.44 102.72,25.08 103.36,24.71 104.08,24.56 104.81,24.42 105.54,24.51 106.28,24.61 106.94,24.93 107.61,25.26 108.14,25.78 108.66,26.30 109.00,26.96 109.33,27.62 109.43,28.35 109.54,29.08 109.54,29.08 109.54,29.08 109.35,32.49 109.16,35.90 109.22,40.00 109.27,44.11 108.85,46.87 108.44,49.63 107.64,52.17 106.83,54.71 105.24,59.23 103.65,63.75 100.84,66.68 98.03,69.61 95.73,69.73 93.42,69.86 90.62,68.24 87.82,66.63 84.42,63.47 81.02,60.32 79.76,57.90 78.49,55.49 76.11,53.14 73.73,50.79 70.47,46.62 67.22,42.46 64.45,39.36 61.68,36.27 59.25,35.70 56.83,35.13 56.21,38.63 55.60,42.13 55.45,45.28 55.31,48.43 55.26,50.76 55.22,53.08 55.01,56.71 54.80,60.34 54.14,63.42 53.47,66.51 53.40,67.05 53.34,67.60 53.14,68.11 52.95,68.62 52.64,69.07 52.33,69.52 51.93,69.89 51.52,70.25 51.03,70.51 50.55,70.76 50.02,70.89 49.49,71.03 48.94,71.03 48.40,71.03 47.86,70.90 47.33,70.77 46.85,70.52 46.36,70.26 45.95,69.90 45.54,69.54 45.23,69.09 44.92,68.64 44.72,68.13 44.53,67.62 44.46,67.08 44.39,66.54 44.02,66.39 43.64,66.25 43.74,62.25 43.84,58.25 43.98,55.37 44.11,52.49 44.17,49.09 44.23,45.69 44.02,41.07 43.81,36.45 43.40,30.65 42.99,24.84 42.18,18.03 41.37,11.22 39.55,4.84 37.73,-1.54 35.51,-7.90 33.29,-14.27 30.93,-18.61 28.57,-22.94 26.72,-24.91 24.88,-26.87 22.85,-24.81 20.82,-22.76 18.14,-19.34 15.45,-15.92 12.26,-11.16 9.07,-6.40 6.40,-1.96 3.72,2.48 3.37,2.89 3.02,3.30 2.58,3.62 2.14,3.93 1.64,4.13 1.14,4.33 0.60,4.40 0.07,4.48 -0.46,4.42 -1.00,4.36 -1.51,4.18 -2.01,4.00 -2.46,3.70 -2.91,3.40 -3.28,3.00 -3.64,2.60 -3.90,2.13 -4.16,1.65 -4.30,1.13 -4.44,0.61 -4.44,0.07 -4.45,-0.46 -4.33,-0.99 -4.21,-1.52 -3.97,-2.00 -3.72,-2.48 -3.72,-2.48 L -3.72,-2.48 Z"></path></g><g transform="translate(45 781.2500000000001) rotate(0 142.49999999999994 -26.249999999999943)" stroke="none"><path fill="#1e1e1e" d="M -0.60,-3.44 Q -0.60,-3.44 11.63,-5.48 23.87,-7.52 43.37,-11.93 62.88,-16.34 85.65,-20.36 108.43,-24.39 146.83,-31.11 185.24,-37.82 212.37,-42.11 239.50,-46.39 252.41,-48.91 265.32,-51.43 271.00,-51.80 276.68,-52.17 279.00,-52.57 281.32,-52.97 281.84,-52.92 282.36,-52.87 282.83,-52.66 283.31,-52.45 283.69,-52.10 284.07,-51.74 284.32,-51.29 284.57,-50.83 284.66,-50.32 284.75,-49.80 284.67,-49.29 284.60,-48.78 284.36,-48.31 284.12,-47.85 283.75,-47.49 283.37,-47.13 282.90,-46.90 282.43,-46.68 281.92,-46.61 281.40,-46.55 280.89,-46.66 280.38,-46.76 279.93,-47.03 279.48,-47.29 279.14,-47.68 278.80,-48.07 278.60,-48.56 278.40,-49.04 278.37,-49.56 278.33,-50.07 278.47,-50.58 278.60,-51.08 278.89,-51.51 279.17,-51.95 279.59,-52.27 280.00,-52.59 280.49,-52.76 280.98,-52.93 281.50,-52.94 282.02,-52.95 282.51,-52.78 283.01,-52.62 283.43,-52.31 283.84,-52.00 284.14,-51.58 284.44,-51.15 284.58,-50.65 284.73,-50.15 284.71,-49.63 284.68,-49.11 284.50,-48.63 284.31,-48.14 283.98,-47.74 283.65,-47.34 283.20,-47.07 282.76,-46.79 282.25,-46.67 281.75,-46.56 281.75,-46.56 281.75,-46.56 279.39,-46.65 277.04,-46.74 271.71,-46.38 266.37,-46.02 253.38,-43.44 240.38,-40.85 213.31,-36.51 186.24,-32.17 147.86,-25.37 109.47,-18.56 86.87,-14.44 64.26,-10.32 44.63,-5.71 25.00,-1.10 12.80,1.16 0.60,3.44 0.18,3.46 -0.23,3.48 -0.64,3.40 -1.06,3.32 -1.44,3.15 -1.82,2.97 -2.15,2.71 -2.48,2.45 -2.74,2.12 -3.00,1.78 -3.17,1.40 -3.34,1.01 -3.41,0.60 -3.48,0.18 -3.46,-0.23 -3.43,-0.65 -3.30,-1.05 -3.17,-1.45 -2.95,-1.81 -2.73,-2.17 -2.43,-2.46 -2.13,-2.76 -1.77,-2.97 -1.41,-3.19 -1.00,-3.31 -0.60,-3.44 -0.60,-3.44 L -0.60,-3.44 Z"></path></g><g transform="translate(32.5 793.7500000000001) rotate(0 164.99999999999994 -11.25)" stroke="none"><path fill="#1e1e1e" d="M -0.27,-3.40 Q -0.27,-3.40 17.70,-4.73 35.68,-6.06 67.82,-7.32 99.95,-8.57 142.31,-11.23 184.66,-13.90 218.47,-16.45 252.28,-19.00 274.55,-20.79 296.83,-22.58 305.57,-23.33 314.32,-24.08 318.03,-24.51 321.74,-24.93 322.21,-24.90 322.69,-24.86 323.12,-24.68 323.56,-24.49 323.92,-24.18 324.27,-23.86 324.51,-23.45 324.75,-23.04 324.84,-22.57 324.93,-22.11 324.87,-21.64 324.81,-21.17 324.60,-20.74 324.39,-20.31 324.06,-19.97 323.73,-19.64 323.30,-19.42 322.88,-19.21 322.41,-19.14 321.94,-19.07 321.47,-19.16 321.00,-19.25 320.59,-19.48 320.17,-19.71 319.85,-20.06 319.53,-20.41 319.34,-20.85 319.15,-21.28 319.11,-21.75 319.07,-22.23 319.18,-22.69 319.29,-23.15 319.54,-23.55 319.80,-23.95 320.17,-24.25 320.53,-24.56 320.98,-24.72 321.42,-24.89 321.90,-24.90 322.37,-24.92 322.83,-24.78 323.28,-24.65 323.67,-24.37 324.06,-24.10 324.34,-23.72 324.62,-23.33 324.76,-22.88 324.90,-22.42 324.89,-21.95 324.88,-21.47 324.72,-21.03 324.56,-20.58 324.27,-20.21 323.97,-19.84 323.57,-19.58 323.18,-19.32 322.72,-19.20 322.25,-19.08 322.26,-19.08 322.26,-19.08 318.53,-18.85 314.80,-18.62 306.04,-17.82 297.28,-17.03 275.00,-15.17 252.71,-13.32 218.87,-10.68 185.03,-8.05 142.62,-5.27 100.21,-2.49 68.20,-1.08 36.19,0.31 18.23,1.85 0.27,3.40 -0.13,3.38 -0.55,3.36 -0.94,3.25 -1.34,3.13 -1.69,2.93 -2.05,2.72 -2.34,2.44 -2.64,2.15 -2.86,1.80 -3.08,1.46 -3.21,1.07 -3.34,0.68 -3.37,0.27 -3.41,-0.14 -3.34,-0.54 -3.27,-0.95 -3.11,-1.33 -2.95,-1.70 -2.70,-2.03 -2.46,-2.36 -2.14,-2.62 -1.82,-2.88 -1.45,-3.06 -1.07,-3.23 -0.67,-3.32 -0.27,-3.40 -0.27,-3.40 L -0.27,-3.40 Z"></path></g><g transform="translate(711.7499999999997 74) rotate(0 3.5 96)" stroke="none"><path fill="#1e1e1e" d="M 3.58,0 Q 3.58,0 3.45,12.07 3.32,24.15 3.23,38.76 3.13,53.38 3.06,68.22 2.99,83.06 2.94,96.55 2.89,110.05 2.85,120.38 2.82,130.72 2.79,136.26 2.76,141.80 2.99,144.45 3.22,147.09 3.18,147.47 3.13,147.86 2.99,148.22 2.85,148.59 2.63,148.91 2.41,149.23 2.12,149.49 1.83,149.75 1.48,149.93 1.14,150.11 0.76,150.20 0.38,150.29 -0.00,150.29 -0.38,150.29 -0.76,150.20 -1.14,150.11 -1.48,149.93 -1.83,149.75 -2.12,149.49 -2.41,149.23 -2.63,148.91 -2.85,148.59 -2.99,148.22 -3.13,147.86 -3.18,147.47 -3.22,147.09 -1.37,136.23 0.47,125.36 3.85,107.29 7.22,89.21 8.65,71.89 10.08,54.58 10.71,40.03 11.33,25.48 11.61,15.27 11.88,5.05 12.88,-2.59 13.88,-10.25 15.80,-16.00 17.73,-21.75 19.77,-25.12 21.82,-28.48 24.82,-30.35 27.83,-32.22 33.50,-32.79 39.16,-33.37 45.57,-32.03 51.97,-30.70 59.89,-25.00 67.81,-19.30 73.27,-11.73 78.72,-4.15 81.11,9.23 83.49,22.62 81.50,34.33 79.50,46.04 72.64,55.10 65.78,64.16 56.81,68.96 47.85,73.77 38.40,75.78 28.96,77.80 20.05,77.16 11.14,76.51 4.62,72.24 -1.88,67.97 -6.21,59.50 -10.54,51.02 -13.43,41.97 -16.33,32.91 -17.57,26.98 -18.80,21.05 -18.59,17.02 -18.38,12.99 -17.00,9.97 -15.62,6.95 -10.60,5.60 -5.57,4.24 0.65,6.29 6.89,8.33 12.77,12.86 18.65,17.39 22.31,21.45 25.98,25.51 27.70,30.20 29.43,34.89 29.47,40.17 29.52,45.45 26.08,50.15 22.65,54.85 17.12,57.47 11.59,60.09 6.94,61.40 2.30,62.71 -0.83,63.47 -3.97,64.23 -6.50,65.22 -9.04,66.20 -9.50,66.21 -9.96,66.22 -10.40,66.12 -10.85,66.02 -11.26,65.82 -11.67,65.61 -12.02,65.31 -12.38,65.02 -12.64,64.64 -12.91,64.27 -13.09,63.84 -13.26,63.42 -13.32,62.96 -13.39,62.51 -13.34,62.05 -13.30,61.59 -13.14,61.16 -12.99,60.73 -12.74,60.35 -12.48,59.96 -12.15,59.65 -11.81,59.34 -11.41,59.12 -11.00,58.89 -10.56,58.77 -10.12,58.65 -7.18,61.09 -4.25,63.52 -2.16,66.84 -0.07,70.16 1.22,74.96 2.51,79.77 2.97,84.45 3.42,89.13 2.81,93.98 2.19,98.83 -3.35,103.33 -8.90,107.82 -18.22,109.63 -27.54,111.44 -36.00,112.11 -44.47,112.78 -51.01,112.76 -57.56,112.74 -61.69,111.53 -65.82,110.32 -68.11,108.13 -70.40,105.94 -71.18,104.95 -71.97,103.95 -72.21,103.57 -72.44,103.18 -72.58,102.75 -72.72,102.32 -72.75,101.87 -72.78,101.42 -72.70,100.98 -72.62,100.53 -72.43,100.12 -72.25,99.71 -71.97,99.35 -71.70,99.00 -71.34,98.72 -70.99,98.44 -70.58,98.25 -70.17,98.06 -69.73,97.98 -69.28,97.89 -68.83,97.92 -68.38,97.94 -67.95,98.08 -67.52,98.21 -67.13,98.44 -66.74,98.67 -66.42,98.99 -66.10,99.31 -58.34,98.42 -50.57,97.53 -42.22,100.31 -33.87,103.09 -26.73,107.01 -19.59,110.93 -14.51,117.87 -9.44,124.80 -7.29,133.21 -5.14,141.62 -5.15,150.21 -5.17,158.81 -6.37,165.43 -7.58,172.05 -8.67,176.83 -9.77,181.61 -10.06,184.95 -10.35,188.29 -10.35,191.06 -10.35,193.84 -9.29,196.46 -8.23,199.08 -6.70,201.52 -5.17,203.97 -2.60,206.57 -0.03,209.17 3.89,211.07 7.83,212.96 13.54,215.02 19.26,217.07 24.05,217.94 28.85,218.81 32.15,218.07 35.46,217.33 37.23,213.08 39.01,208.82 41.35,197.64 43.70,186.45 45.31,172.20 46.92,157.95 47.60,141.59 48.29,125.22 47.18,109.81 46.06,94.39 42.15,86.92 38.24,79.45 23.13,80.97 8.01,82.49 -15.61,106.03 -39.23,129.57 -49.28,150.98 -59.32,172.39 -56.62,185.96 -53.92,199.53 -45.73,204.78 -37.54,210.03 -28.52,205.02 -19.51,200.02 -15.39,197.90 -11.28,195.78 -10.87,195.65 -10.47,195.52 -10.04,195.53 -9.62,195.53 -9.22,195.67 -8.81,195.81 -8.48,196.08 -8.14,196.34 -7.91,196.69 -7.67,197.05 -7.57,197.46 -7.46,197.87 -7.49,198.30 -7.51,198.72 -7.68,199.11 -7.84,199.51 -8.12,199.83 -8.40,200.15 -8.76,200.36 -9.13,200.58 -9.55,200.66 -9.97,200.75 -10.39,200.70 -10.81,200.65 -11.19,200.47 -11.58,200.28 -11.88,199.99 -12.19,199.69 -12.38,199.31 -12.58,198.93 -12.64,198.51 -12.71,198.09 -12.63,197.67 -12.56,197.25 -12.35,196.88 -12.15,196.51 -11.84,196.22 -11.52,195.93 -11.14,195.75 -10.75,195.58 -10.32,195.54 -9.90,195.50 -9.49,195.60 -9.07,195.69 -8.71,195.92 -8.35,196.14 -8.08,196.47 -7.80,196.80 -7.65,197.19 -7.50,197.59 -7.48,198.02 -7.46,198.44 -7.58,198.85 -7.70,199.26 -7.95,199.61 -8.19,199.96 -8.53,200.21 -8.87,200.46 -8.87,200.46 -8.87,200.46 -12.98,202.58 -17.10,204.70 -27.44,209.65 -37.77,214.60 -48.07,208.10 -58.36,201.61 -61.27,186.19 -64.17,170.77 -53.59,148.33 -43.01,125.89 -18.09,101.72 6.81,77.56 23.37,76.41 39.94,75.27 45.63,84.52 51.32,93.78 52.50,109.61 53.67,125.44 52.99,142.00 52.31,158.56 50.70,173.07 49.08,187.58 46.56,199.42 44.03,211.26 41.10,216.54 38.17,221.82 33.12,223.21 28.07,224.61 22.67,223.74 17.27,222.87 11.16,220.84 5.06,218.80 0.14,216.49 -4.77,214.18 -8.17,210.94 -11.56,207.70 -13.24,204.50 -14.92,201.31 -15.99,197.44 -17.07,193.57 -16.68,190.54 -16.30,187.51 -15.68,183.96 -15.06,180.41 -14.02,175.74 -12.98,171.07 -11.87,164.92 -10.75,158.78 -10.72,150.87 -10.69,142.96 -12.48,135.53 -14.28,128.10 -18.49,122.12 -22.70,116.14 -29.29,112.68 -35.88,109.21 -43.60,106.79 -51.32,104.37 -57.23,103.68 -63.14,102.99 -67.55,103.47 -71.97,103.95 -72.21,103.57 -72.44,103.18 -72.58,102.75 -72.72,102.32 -72.75,101.87 -72.78,101.42 -72.70,100.98 -72.62,100.53 -72.43,100.12 -72.25,99.71 -71.97,99.35 -71.70,99.00 -71.34,98.72 -70.99,98.44 -70.58,98.25 -70.17,98.06 -69.73,97.98 -69.28,97.89 -68.83,97.92 -68.38,97.94 -67.95,98.08 -67.52,98.21 -67.13,98.44 -66.74,98.67 -66.42,98.99 -66.10,99.31 -64.83,102.19 -63.56,105.07 -60.52,106.15 -57.48,107.24 -51.20,107.22 -44.92,107.19 -36.75,106.49 -28.57,105.80 -20.38,104.39 -12.19,102.98 -7.66,99.91 -3.13,96.83 -3.04,93.34 -2.94,89.85 -3.51,85.73 -4.08,81.62 -5.20,77.89 -6.32,74.17 -7.68,70.18 -9.04,66.20 -9.50,66.21 -9.95,66.22 -10.40,66.12 -10.85,66.02 -11.26,65.82 -11.67,65.61 -12.02,65.31 -12.38,65.02 -12.64,64.64 -12.91,64.27 -13.09,63.85 -13.26,63.42 -13.32,62.96 -13.39,62.51 -13.34,62.05 -13.30,61.60 -13.14,61.16 -12.99,60.73 -12.74,60.35 -12.48,59.96 -12.15,59.65 -11.81,59.34 -11.41,59.12 -11.00,58.89 -10.56,58.77 -10.12,58.65 -7.57,58.42 -5.03,58.18 -2.08,57.88 0.86,57.57 5.13,56.38 9.40,55.18 14.01,53.26 18.63,51.33 21.47,48.04 24.31,44.75 24.24,40.70 24.18,36.64 22.94,32.91 21.70,29.17 18.39,25.58 15.07,21.98 9.94,17.98 4.81,13.98 0.03,12.19 -4.74,10.40 -8.70,12.03 -12.65,13.67 -13.14,16.86 -13.64,20.05 -12.47,25.68 -11.30,31.31 -8.55,40.01 -5.79,48.70 -2.23,56.28 1.32,63.86 6.60,67.60 11.88,71.34 19.90,71.95 27.92,72.57 36.66,70.78 45.41,68.99 53.53,64.85 61.66,60.71 67.95,52.77 74.23,44.83 76.13,34.14 78.02,23.44 76.02,11.18 74.02,-1.08 69.16,-7.87 64.31,-14.66 57.43,-19.77 50.55,-24.88 45.14,-25.98 39.72,-27.07 35.18,-26.60 30.63,-26.12 28.54,-25.51 26.45,-24.90 24.62,-22.45 22.79,-20.00 21.02,-14.77 19.24,-9.53 18.30,-2.17 17.35,5.19 17.12,15.45 16.88,25.70 16.31,40.37 15.74,55.04 14.34,72.65 12.95,90.26 9.69,108.36 6.42,126.45 4.82,136.77 3.22,147.09 3.18,147.47 3.13,147.86 2.99,148.22 2.85,148.59 2.63,148.91 2.41,149.23 2.12,149.49 1.83,149.75 1.48,149.93 1.14,150.11 0.76,150.20 0.38,150.29 0.00,150.29 -0.38,150.29 -0.76,150.20 -1.14,150.11 -1.48,149.93 -1.83,149.75 -2.12,149.49 -2.41,149.23 -2.63,148.91 -2.85,148.59 -2.99,148.22 -3.13,147.86 -3.18,147.47 -3.22,147.09 -2.99,144.45 -2.76,141.80 -2.79,136.26 -2.82,130.72 -2.85,120.38 -2.89,110.05 -2.94,96.55 -2.99,83.06 -3.06,68.22 -3.13,53.38 -3.23,38.76 -3.32,24.15 -3.45,12.07 -3.58,0 -3.53,-0.42 -3.48,-0.85 -3.32,-1.26 -3.17,-1.66 -2.92,-2.02 -2.68,-2.37 -2.36,-2.66 -2.03,-2.95 -1.65,-3.15 -1.27,-3.35 -0.85,-3.45 -0.43,-3.55 0.00,-3.55 0.43,-3.55 0.85,-3.45 1.27,-3.35 1.65,-3.15 2.03,-2.95 2.36,-2.66 2.68,-2.37 2.92,-2.02 3.17,-1.66 3.32,-1.26 3.48,-0.85 3.53,-0.42 3.58,0.00 3.58,0.00 L 3.58,0 Z"></path></g><g transform="translate(797.7499999999997 159) rotate(0 -110 -14.5)" stroke="none"><path fill="#1971c2" d="M -0.25,3.53 Q -0.25,3.53 -12.31,2.55 -24.38,1.56 -43.60,-0.04 -62.83,-1.65 -86.03,-4.96 -109.23,-8.26 -130.88,-11.99 -152.53,-15.72 -170.88,-18.46 -189.23,-21.20 -197.88,-22.38 -206.53,-23.55 -210.60,-24.32 -214.66,-25.08 -216.40,-25.18 -218.13,-25.27 -218.63,-25.46 -219.13,-25.64 -219.54,-25.98 -219.96,-26.32 -220.24,-26.77 -220.53,-27.22 -220.66,-27.73 -220.78,-28.25 -220.74,-28.78 -220.69,-29.31 -220.48,-29.80 -220.27,-30.29 -219.91,-30.69 -219.55,-31.08 -219.09,-31.34 -218.62,-31.60 -218.10,-31.70 -217.58,-31.80 -217.05,-31.73 -216.52,-31.65 -216.04,-31.41 -215.57,-31.18 -215.19,-30.80 -214.81,-30.42 -214.58,-29.94 -214.34,-29.46 -214.27,-28.93 -214.20,-28.41 -214.31,-27.88 -214.41,-27.36 -214.67,-26.90 -214.94,-26.43 -215.34,-26.08 -215.73,-25.72 -216.22,-25.52 -216.71,-25.31 -217.25,-25.27 -217.78,-25.22 -218.29,-25.35 -218.81,-25.49 -219.26,-25.77 -219.71,-26.06 -220.04,-26.48 -220.37,-26.90 -220.55,-27.40 -220.74,-27.90 -220.75,-28.43 -220.76,-28.96 -220.60,-29.47 -220.44,-29.98 -220.13,-30.41 -219.82,-30.85 -219.38,-31.15 -218.95,-31.46 -218.44,-31.62 -217.93,-31.77 -217.40,-31.76 -216.86,-31.74 -216.87,-31.74 -216.87,-31.74 -215.22,-31.18 -213.58,-30.61 -209.69,-29.82 -205.81,-29.03 -197.11,-27.90 -188.41,-26.77 -169.98,-24.09 -151.56,-21.41 -129.98,-17.79 -108.41,-14.17 -85.37,-11.01 -62.34,-7.86 -43.12,-6.43 -23.91,-5.01 -11.83,-4.27 0.25,-3.53 0.67,-3.45 1.09,-3.37 1.48,-3.19 1.86,-3.01 2.20,-2.74 2.53,-2.48 2.79,-2.14 3.05,-1.80 3.22,-1.40 3.39,-1.01 3.47,-0.59 3.54,-0.17 3.51,0.25 3.48,0.67 3.35,1.08 3.21,1.49 2.99,1.85 2.76,2.21 2.46,2.51 2.15,2.81 1.78,3.03 1.42,3.25 1.01,3.37 0.60,3.49 0.17,3.51 -0.25,3.53 -0.25,3.53 L -0.25,3.53 Z"></path></g><g transform="translate(621.7499999999997 154) rotate(0 104 -54.5)" stroke="none"><path fill="#f08c00" d="M -2.70,-1.56 Q -2.70,-1.56 1.66,-9.00 6.03,-16.44 13.42,-27.43 20.81,-38.43 28.21,-50.76 35.62,-63.09 42.56,-73.58 49.50,-84.07 55.32,-92.82 61.15,-101.56 66.59,-107.99 72.04,-114.42 79.08,-120.41 86.11,-126.40 93.54,-130.74 100.97,-135.08 107.97,-137.81 114.96,-140.55 121.15,-142.29 127.33,-144.03 132.96,-144.79 138.59,-145.54 143.00,-145.86 147.42,-146.17 151.81,-145.74 156.21,-145.30 160.70,-143.24 165.19,-141.19 171.04,-134.91 176.88,-128.63 181.92,-121.03 186.95,-113.44 190.28,-106.07 193.62,-98.70 198.47,-86.08 203.32,-73.47 205.44,-61.58 207.56,-49.68 208.44,-38.85 209.33,-28.03 209.70,-19.12 210.08,-10.20 209.37,-2.23 208.65,5.72 207.16,11.27 205.67,16.82 204.82,20.76 203.97,24.70 203.15,27.98 202.33,31.27 201.34,33.48 200.35,35.69 200.03,36.11 199.71,36.54 199.27,36.84 198.84,37.14 198.32,37.29 197.81,37.43 197.28,37.41 196.74,37.38 196.25,37.19 195.75,36.99 195.34,36.65 194.93,36.31 194.65,35.85 194.38,35.40 194.26,34.88 194.14,34.36 194.19,33.83 194.25,33.30 194.47,32.81 194.69,32.32 195.06,31.94 195.42,31.55 195.89,31.29 196.36,31.04 196.89,30.95 197.41,30.86 197.94,30.94 198.47,31.03 198.94,31.27 199.41,31.52 199.78,31.91 200.15,32.29 200.38,32.77 200.60,33.26 200.66,33.79 200.73,34.32 200.61,34.84 200.50,35.36 200.23,35.82 199.96,36.28 199.55,36.63 199.15,36.97 198.65,37.17 198.16,37.37 197.63,37.41 197.09,37.44 196.58,37.30 196.07,37.16 195.62,36.86 195.18,36.57 194.85,36.14 194.53,35.72 194.35,35.22 194.18,34.71 194.18,34.18 194.17,33.64 194.34,33.14 194.51,32.63 194.51,32.63 194.51,32.63 195.50,31.05 196.50,29.46 197.59,26.48 198.69,23.50 199.65,19.47 200.60,15.43 202.01,10.33 203.42,5.23 204.12,-2.37 204.82,-9.99 204.45,-18.80 204.08,-27.60 203.23,-38.19 202.37,-48.77 200.38,-60.18 198.40,-71.60 193.60,-84.06 188.80,-96.53 185.67,-103.53 182.53,-110.53 177.74,-117.80 172.96,-125.06 167.88,-130.76 162.80,-136.46 159.17,-138.23 155.54,-140.00 151.66,-140.46 147.78,-140.91 143.53,-140.61 139.29,-140.31 134.02,-139.62 128.75,-138.93 122.82,-137.27 116.89,-135.60 110.26,-133.04 103.64,-130.47 96.60,-126.39 89.57,-122.31 82.86,-116.62 76.16,-110.92 70.92,-104.73 65.69,-98.55 59.91,-89.79 54.12,-81.03 47.29,-70.61 40.46,-60.20 33.04,-47.71 25.61,-35.22 18.41,-24.34 11.21,-13.45 6.95,-5.94 2.70,1.56 2.48,1.86 2.25,2.16 1.96,2.40 1.67,2.64 1.33,2.80 0.99,2.96 0.62,3.03 0.25,3.11 -0.12,3.09 -0.50,3.08 -0.86,2.97 -1.22,2.87 -1.55,2.68 -1.87,2.49 -2.14,2.23 -2.41,1.97 -2.62,1.65 -2.82,1.34 -2.94,0.98 -3.06,0.62 -3.09,0.25 -3.12,-0.12 -3.06,-0.49 -3.00,-0.86 -2.85,-1.21 -2.70,-1.56 -2.70,-1.56 L -2.70,-1.56 Z"></path></g></svg>