<svg version="1.1" xmlns="http://www.w3.org/2000/svg" viewBox="0 0 337.76244592398405 467.11917881518593" width="337.76244592398405" height="467.11917881518593">
  <!-- svg-source:excalidraw -->
  
  <defs>
    <style class="style-fonts">
      @font-face {
        font-family: "Virgil";
        src: url("https://unpkg.com/@excalidraw/excalidraw@undefined/dist/excalidraw-assets/Virgil.woff2");
      }
      @font-face {
        font-family: "Cascadia";
        src: url("https://unpkg.com/@excalidraw/excalidraw@undefined/dist/excalidraw-assets/Cascadia.woff2");
      }
      @font-face {
        font-family: "Assistant";
        src: url("https://unpkg.com/@excalidraw/excalidraw@undefined/dist/excalidraw-assets/Assistant-Regular.woff2");
      }
    </style>
    
  </defs>
  <rect x="0" y="0" width="337.76244592398405" height="467.11917881518593" fill="#fdf8f6"></rect><g stroke-linecap="round"><g transform="translate(112.83532986274918 130.21416469067344) rotate(0 -0.666656494140625 137.3333282470703)"><path d="M0.74 0.97 C0.49 46.88, -0.98 229.67, -1.31 275.48 M-0.34 0.44 C-0.75 46, -1.97 228.17, -2.25 273.78" stroke="#1e1e1e" stroke-width="2" fill="none"></path></g></g><mask></mask><g stroke-linecap="round"><g transform="translate(183.50201687446793 136.21416469067344) rotate(0 0 131.6666717529297)"><path d="M0.77 -0.67 C0.63 43.47, -0.24 220.42, -0.23 264.37 M-0.28 1.6 C-0.65 45.46, -1.43 219.03, -1.3 262.8" stroke="#1e1e1e" stroke-width="2" fill="none"></path></g></g><mask></mask><g stroke-linecap="round"><g transform="translate(10.168642851030427 218.21416469067344) rotate(0 158 -0.6666717529296875)"><path d="M0.85 0.21 C53.48 -0.16, 262.59 -1.27, 315.27 -1.51 M-0.17 -0.72 C52.89 -0.98, 264.8 -0.21, 317.59 -0.07" stroke="#1e1e1e" stroke-width="2" fill="none"></path></g></g><mask></mask><g stroke-linecap="round"><g transform="translate(22.835329862749177 299.5475081965328) rotate(0 151.66665649414062 1)"><path d="M1.04 -0.25 C51.63 0.19, 253.99 1.88, 304.19 2.38 M0.12 -1.43 C50.58 -1.33, 252.95 0.09, 303.7 0.46" stroke="#1e1e1e" stroke-width="2" fill="none"></path></g></g><mask></mask><g transform="translate(61.50201687446793 53.54750819653282) rotate(0 86.41939544677734 23.5)"><text x="0" y="0" font-family="Virgil, Segoe UI Emoji" font-size="37.60000000000001px" fill="#1e1e1e" text-anchor="start" style="white-space: pre;" direction="ltr" dominant-baseline="text-before-edge">Your turn</text></g><g stroke-linecap="round" transform="translate(39.50195583931168 144.21419520825157) rotate(0 28.666656494140625 29.666656494140625)"><path d="M29.14 0.46 C34.81 0.26, 42.14 3.81, 46.61 8 C51.09 12.19, 54.98 19.66, 55.98 25.59 C56.99 31.53, 55.44 38.2, 52.63 43.63 C49.81 49.05, 44.73 55.97, 39.09 58.15 C33.46 60.34, 24.78 58.97, 18.84 56.76 C12.89 54.55, 6.44 50.13, 3.42 44.9 C0.4 39.68, -0.4 31.71, 0.73 25.41 C1.86 19.1, 5.08 11.32, 10.19 7.09 C15.3 2.86, 27.48 1.11, 31.38 0.04 C35.28 -1.02, 33.56 0.21, 33.59 0.69 M21.39 0.68 C27.01 -1.38, 35.81 -1.19, 41.13 1.56 C46.45 4.31, 50.74 11.28, 53.31 17.17 C55.88 23.05, 57.69 30.9, 56.54 36.89 C55.39 42.89, 51.28 49.22, 46.41 53.14 C41.53 57.06, 33.47 60.8, 27.27 60.43 C21.07 60.06, 13.72 55.24, 9.2 50.92 C4.68 46.6, 0.98 40.68, 0.15 34.49 C-0.68 28.3, 1.09 19.19, 4.22 13.77 C7.35 8.35, 16.47 4.11, 18.94 1.98 C21.41 -0.16, 18.85 0.6, 19.02 0.96" stroke="#1971c2" stroke-width="2" fill="none"></path></g><g stroke-linecap="round"><g transform="translate(119.5576707774178 223.94579831649298) rotate(0 27.053469123928892 34.93728406228661)"><path d="M0.28 -1 C9.06 10.66, 44.45 58.76, 53.34 70.77 M-1.04 1.1 C8.08 12.34, 46.71 57.74, 55.65 69.11" stroke="#e03131" stroke-width="2" fill="none"></path></g></g><mask></mask><g stroke-linecap="round"><g transform="translate(108.90904573914975 284.6560398942793) rotate(0 39.885959565646374 -26.644374560190727)"><path d="M0.78 -0.88 C14.25 -9.62, 67.09 -44.36, 80.34 -52.93 M-0.26 1.28 C13.13 -7.79, 66.35 -45.63, 79.68 -54.87" stroke="#e03131" stroke-width="2" fill="none"></path></g></g><mask></mask><g stroke-linecap="round" transform="translate(197.54790997371083 142.9525223210453) rotate(0 34 30)"><path d="M37.91 0.98 C44.28 1.05, 51.9 3.65, 56.91 7.5 C61.91 11.35, 66.71 18.14, 67.94 24.08 C69.18 30.02, 67.28 37.76, 64.31 43.13 C61.34 48.5, 56.05 53.7, 50.12 56.31 C44.19 58.92, 35.32 59.54, 28.72 58.8 C22.12 58.05, 15.17 55.84, 10.54 51.85 C5.91 47.86, 2.13 40.71, 0.92 34.85 C-0.29 28.99, 0.34 22, 3.3 16.7 C6.26 11.41, 11.4 5.43, 18.67 3.07 C25.94 0.71, 40.97 1.74, 46.95 2.54 C52.93 3.34, 54.69 7.54, 54.53 7.86 M21.96 0.59 C27.55 -1.72, 36.47 -1.7, 42.64 0.23 C48.81 2.17, 54.91 7.33, 58.97 12.19 C63.03 17.05, 66.4 23.8, 67.02 29.4 C67.63 35.01, 66.31 40.93, 62.66 45.82 C59.01 50.71, 51.22 56.74, 45.12 58.74 C39.01 60.74, 32.14 59.67, 26.04 57.82 C19.95 55.97, 12.89 52.07, 8.55 47.62 C4.22 43.17, 0.46 36.71, 0.03 31.14 C-0.4 25.56, 2.52 19.16, 5.97 14.17 C9.42 9.18, 18.06 3.02, 20.74 1.18 C23.41 -0.66, 21.75 2.5, 22.02 3.12" stroke="#1971c2" stroke-width="2" fill="none"></path></g><g transform="translate(122.88122296199208 149.11917881518593) rotate(0 25 33.5)" stroke="none"><path fill="#e03131" d="M 3.91,-3.04 Q 3.91,-3.04 5.87,-0.41 7.83,2.21 9.99,5.07 12.15,7.94 14.03,10.31 15.91,12.68 17.61,14.82 19.31,16.96 20.78,19.17 22.24,21.39 24.94,24.28 27.64,27.16 30.18,29.87 32.71,32.59 34.58,35.22 36.46,37.85 37.97,40.75 39.49,43.65 41.03,46.02 42.57,48.39 44.17,50.96 45.77,53.53 46.85,55.50 47.93,57.47 49.99,58.98 52.04,60.49 52.97,61.03 53.89,61.57 54.61,62.38 55.32,63.19 55.74,64.18 56.15,65.18 56.23,66.26 56.30,67.33 56.03,68.38 55.76,69.42 55.17,70.32 54.58,71.23 53.73,71.89 52.88,72.56 51.87,72.92 50.85,73.28 49.77,73.30 48.69,73.32 47.66,72.99 46.63,72.67 45.76,72.03 44.89,71.39 44.27,70.50 43.65,69.62 43.35,68.59 43.04,67.55 43.08,66.47 43.12,65.39 43.51,64.39 43.89,63.38 44.57,62.54 45.26,61.71 46.17,61.14 47.09,60.57 48.14,60.32 49.19,60.07 50.27,60.17 51.34,60.26 52.33,60.70 53.31,61.14 54.11,61.87 54.90,62.60 55.43,63.54 55.95,64.49 56.14,65.55 56.33,66.61 56.17,67.68 56.02,68.75 55.53,69.71 55.04,70.67 54.27,71.43 53.49,72.18 52.52,72.65 51.55,73.12 50.48,73.25 49.41,73.39 48.35,73.17 47.29,72.96 46.36,72.42 45.43,71.87 45.43,71.88 45.43,71.88 42.45,69.36 39.48,66.84 38.03,65.23 36.58,63.62 35.30,61.00 34.03,58.39 32.79,56.04 31.55,53.69 30.18,51.26 28.81,48.83 27.85,46.48 26.89,44.12 25.49,41.70 24.08,39.27 22.06,36.68 20.03,34.09 18.53,32.33 17.02,30.57 15.50,28.53 13.98,26.50 12.90,24.59 11.82,22.68 10.24,20.52 8.65,18.36 6.85,16.03 5.06,13.70 2.64,10.91 0.21,8.13 -1.84,5.59 -3.91,3.04 -4.22,2.53 -4.53,2.02 -4.70,1.44 -4.88,0.87 -4.91,0.27 -4.95,-0.31 -4.84,-0.90 -4.73,-1.49 -4.48,-2.03 -4.23,-2.58 -3.86,-3.05 -3.49,-3.52 -3.02,-3.88 -2.55,-4.25 -2.00,-4.49 -1.45,-4.74 -0.87,-4.84 -0.28,-4.95 0.31,-4.91 0.91,-4.87 1.48,-4.69 2.05,-4.51 2.56,-4.20 3.07,-3.89 3.49,-3.47 3.91,-3.04 3.91,-3.04 L 3.91,-3.04 Z"></path></g><g transform="translate(119.88122296199208 209.11917881518593) rotate(0 31.5 -31)" stroke="none"><path fill="#e03131" d="M -4.00,-3.33 Q -4.00,-3.33 -2.60,-5.09 -1.20,-6.84 0.88,-9.56 2.97,-12.27 4.26,-14.03 5.56,-15.80 7.58,-17.75 9.59,-19.71 12.09,-23.01 14.59,-26.30 16.31,-27.89 18.04,-29.47 20.80,-32.56 23.56,-35.65 25.08,-37.22 26.61,-38.80 30.03,-42.33 33.46,-45.86 35.34,-47.62 37.22,-49.37 39.34,-51.13 41.46,-52.89 43.06,-54.37 44.65,-55.86 46.39,-57.27 48.12,-58.68 50.76,-60.45 53.40,-62.22 56.09,-64.39 58.78,-66.55 59.66,-67.04 60.53,-67.54 61.51,-67.72 62.50,-67.91 63.49,-67.77 64.48,-67.64 65.38,-67.19 66.27,-66.74 66.98,-66.03 67.69,-65.32 68.13,-64.43 68.57,-63.53 68.71,-62.54 68.84,-61.54 68.65,-60.56 68.46,-59.58 67.97,-58.71 67.47,-57.84 66.73,-57.17 65.98,-56.50 65.06,-56.11 64.14,-55.71 63.14,-55.63 62.14,-55.55 61.17,-55.80 60.20,-56.04 59.36,-56.58 58.51,-57.12 57.89,-57.90 57.26,-58.69 56.92,-59.63 56.57,-60.57 56.55,-61.57 56.52,-62.57 56.82,-63.53 57.11,-64.48 57.70,-65.29 58.29,-66.11 59.10,-66.69 59.91,-67.27 60.87,-67.56 61.83,-67.86 62.83,-67.83 63.83,-67.80 64.77,-67.45 65.71,-67.10 66.49,-66.48 67.27,-65.85 67.81,-65.00 68.35,-64.16 68.58,-63.19 68.82,-62.21 68.74,-61.22 68.66,-60.22 68.26,-59.30 67.86,-58.38 67.19,-57.63 66.52,-56.89 66.52,-56.89 66.52,-56.89 63.96,-54.90 61.40,-52.91 59.37,-51.90 57.34,-50.90 54.83,-49.21 52.33,-47.52 50.53,-45.88 48.73,-44.23 46.93,-42.70 45.13,-41.17 41.69,-37.89 38.25,-34.61 36.60,-32.63 34.96,-30.65 32.05,-27.67 29.15,-24.68 27.39,-22.72 25.63,-20.76 23.16,-18.38 20.69,-16.00 17.60,-12.51 14.52,-9.01 13.18,-7.27 11.83,-5.52 9.39,-2.79 6.95,-0.05 5.47,1.64 4.00,3.33 3.54,3.76 3.08,4.19 2.54,4.50 1.99,4.81 1.38,4.98 0.78,5.14 0.15,5.16 -0.47,5.18 -1.08,5.05 -1.69,4.92 -2.26,4.64 -2.82,4.37 -3.31,3.97 -3.79,3.57 -4.16,3.06 -4.53,2.55 -4.77,1.97 -5.01,1.39 -5.11,0.77 -5.20,0.15 -5.14,-0.46 -5.09,-1.09 -4.88,-1.68 -4.68,-2.28 -4.34,-2.80 -4.00,-3.33 -4.00,-3.33 L -4.00,-3.33 Z"></path></g><g transform="translate(119.88122296199208 320.11917881518593) rotate(0 25.5 40)" stroke="none"><path fill="#e03131" d="M 4.90,-1.63 Q 4.90,-1.63 5.75,0.93 6.61,3.50 9.08,6.58 11.55,9.66 13.55,11.89 15.55,14.11 16.97,15.79 18.39,17.47 20.65,20.04 22.92,22.62 24.68,25.63 26.43,28.64 27.88,31.02 29.34,33.40 30.66,36.56 31.98,39.72 33.42,41.60 34.86,43.49 35.95,45.44 37.04,47.39 38.85,50.73 40.67,54.07 42.06,56.04 43.46,58.00 44.98,60.10 46.50,62.19 48.20,64.43 49.90,66.66 51.12,68.56 52.35,70.46 54.83,73.75 57.31,77.05 57.58,78.14 57.84,79.24 57.74,80.36 57.64,81.48 57.19,82.52 56.74,83.55 55.98,84.38 55.22,85.22 54.24,85.76 53.25,86.31 52.14,86.52 51.03,86.72 49.92,86.56 48.80,86.40 47.80,85.89 46.79,85.39 46.00,84.58 45.21,83.78 44.71,82.77 44.22,81.75 44.08,80.64 43.93,79.52 44.15,78.41 44.37,77.31 44.93,76.33 45.49,75.35 46.34,74.61 47.18,73.86 48.22,73.42 49.26,72.98 50.38,72.90 51.51,72.82 52.60,73.10 53.69,73.38 54.64,73.99 55.58,74.60 56.28,75.49 56.98,76.37 57.36,77.43 57.75,78.49 57.77,79.62 57.79,80.75 57.45,81.82 57.11,82.90 56.45,83.81 55.79,84.72 54.86,85.37 53.94,86.02 52.86,86.34 51.78,86.67 50.66,86.63 49.53,86.59 48.48,86.19 47.42,85.80 46.55,85.08 45.67,84.37 45.07,83.42 44.47,82.46 44.47,82.46 44.48,82.46 43.09,80.76 41.70,79.05 40.35,76.67 39.00,74.29 37.42,71.97 35.85,69.65 34.22,67.19 32.58,64.74 30.91,62.05 29.23,59.36 27.67,56.42 26.10,53.48 24.37,50.59 22.65,47.71 21.09,44.49 19.53,41.28 18.59,39.05 17.65,36.81 16.37,34.05 15.08,31.29 13.70,29.03 12.31,26.77 10.20,23.95 8.09,21.14 5.79,18.80 3.49,16.46 1.61,14.18 -0.26,11.89 -1.71,9.36 -3.16,6.84 -4.03,4.23 -4.90,1.63 -5.02,1.02 -5.15,0.41 -5.12,-0.20 -5.10,-0.83 -4.92,-1.43 -4.75,-2.02 -4.44,-2.56 -4.13,-3.10 -3.69,-3.55 -3.26,-4.00 -2.74,-4.33 -2.21,-4.67 -1.62,-4.86 -1.03,-5.06 -0.41,-5.11 0.21,-5.16 0.82,-5.06 1.44,-4.96 2.01,-4.72 2.58,-4.47 3.08,-4.10 3.58,-3.72 3.97,-3.24 4.37,-2.76 4.63,-2.19 4.90,-1.63 4.90,-1.63 L 4.90,-1.63 Z"></path></g><g transform="translate(118.88122296199208 390.11917881518593) rotate(0 29 -32)" stroke="none"><path fill="#e03131" d="M -4.14,-2.59 Q -4.14,-2.59 -2.73,-4.90 -1.31,-7.22 0.55,-9.77 2.43,-12.32 3.97,-14.67 5.52,-17.03 7.52,-19.46 9.52,-21.89 11.53,-24.07 13.53,-26.26 15.10,-28.21 16.67,-30.16 18.28,-32.02 19.90,-33.88 21.75,-35.83 23.61,-37.78 25.23,-39.49 26.85,-41.20 28.38,-42.82 29.91,-44.43 31.88,-46.14 33.85,-47.85 37.32,-50.93 40.80,-54.02 43.08,-56.28 45.36,-58.54 47.25,-60.12 49.13,-61.70 50.59,-63.81 52.05,-65.91 52.56,-66.78 53.07,-67.65 53.83,-68.32 54.59,-68.98 55.52,-69.37 56.45,-69.75 57.46,-69.82 58.47,-69.89 59.44,-69.63 60.42,-69.37 61.26,-68.82 62.10,-68.26 62.72,-67.47 63.34,-66.67 63.68,-65.72 64.01,-64.77 64.03,-63.76 64.04,-62.75 63.73,-61.79 63.42,-60.83 62.82,-60.02 62.22,-59.21 61.39,-58.63 60.57,-58.06 59.60,-57.77 58.63,-57.49 57.62,-57.53 56.61,-57.58 55.67,-57.94 54.73,-58.30 53.95,-58.94 53.18,-59.58 52.64,-60.44 52.11,-61.30 51.88,-62.28 51.65,-63.26 51.75,-64.27 51.85,-65.27 52.26,-66.19 52.67,-67.11 53.35,-67.85 54.04,-68.59 54.92,-69.08 55.81,-69.56 56.80,-69.74 57.79,-69.91 58.79,-69.76 59.79,-69.61 60.69,-69.15 61.58,-68.69 62.29,-67.97 62.99,-67.25 63.42,-66.34 63.86,-65.43 63.98,-64.42 64.10,-63.42 63.90,-62.44 63.70,-61.45 63.70,-61.45 63.70,-61.45 62.49,-59.55 61.28,-57.65 59.72,-55.68 58.16,-53.71 55.69,-51.97 53.22,-50.22 50.48,-47.87 47.74,-45.52 46.01,-44.14 44.29,-42.76 42.54,-41.19 40.79,-39.62 39.13,-38.27 37.47,-36.92 35.89,-35.40 34.30,-33.87 32.65,-32.26 31.00,-30.64 29.21,-28.82 27.43,-27.00 25.89,-25.41 24.35,-23.81 22.55,-21.69 20.75,-19.57 18.90,-17.59 17.05,-15.60 15.38,-13.64 13.71,-11.67 12.03,-9.10 10.36,-6.53 8.71,-4.25 7.06,-1.97 5.60,0.30 4.14,2.59 3.77,3.05 3.40,3.51 2.93,3.86 2.46,4.22 1.92,4.45 1.38,4.69 0.80,4.78 0.22,4.88 -0.36,4.84 -0.95,4.79 -1.51,4.61 -2.07,4.43 -2.57,4.11 -3.07,3.80 -3.48,3.38 -3.89,2.95 -4.19,2.45 -4.49,1.94 -4.65,1.37 -4.82,0.80 -4.85,0.22 -4.87,-0.36 -4.76,-0.94 -4.64,-1.52 -4.39,-2.05 -4.14,-2.59 -4.14,-2.59 L -4.14,-2.59 Z"></path></g><g transform="translate(136.88122296199208 105.11917881518593) rotate(0 6 173)" stroke="none"><path fill="#2f9e44" d="M -1.95,4.88 Q -1.95,4.88 -4.80,3.67 -7.64,2.46 -11.26,1.69 -14.87,0.92 -18.12,0.83 -21.37,0.73 -23.68,0.41 -25.99,0.09 -28.93,0.03 -31.87,-0.03 -34.83,0.02 -37.80,0.07 -40.98,0.74 -44.17,1.41 -46.60,3.34 -49.03,5.26 -50.99,7.21 -52.94,9.15 -55.03,12.25 -57.12,15.36 -58.48,18.61 -59.83,21.86 -61.32,25.51 -62.82,29.17 -64.00,33.47 -65.19,37.78 -65.75,40.18 -66.32,42.59 -66.57,44.98 -66.82,47.36 -67.27,50.16 -67.72,52.96 -67.89,55.27 -68.06,57.59 -68.46,60.32 -68.86,63.06 -69.04,65.61 -69.22,68.16 -69.31,70.71 -69.39,73.25 -69.71,75.83 -70.03,78.41 -70.13,80.58 -70.24,82.76 -70.29,85.12 -70.35,87.49 -70.38,89.94 -70.40,92.38 -70.42,94.85 -70.43,97.33 -70.00,101.76 -69.58,106.20 -68.83,110.35 -68.08,114.50 -67.62,116.90 -67.17,119.31 -65.63,123.80 -64.09,128.28 -63.01,130.96 -61.93,133.64 -60.88,137.11 -59.82,140.58 -58.71,144.28 -57.60,147.98 -56.39,151.91 -55.18,155.83 -53.89,159.84 -52.61,163.84 -51.02,167.77 -49.44,171.70 -47.84,175.08 -46.24,178.46 -44.47,181.87 -42.70,185.28 -41.03,188.84 -39.36,192.40 -37.82,196.28 -36.29,200.16 -34.56,204.36 -32.84,208.57 -31.20,212.03 -29.56,215.48 -27.95,218.64 -26.33,221.79 -24.34,224.29 -22.34,226.79 -20.66,229.17 -18.97,231.56 -17.99,233.85 -17.01,236.14 -17.11,239.22 -17.20,242.31 -17.90,245.26 -18.59,248.20 -19.85,251.54 -21.11,254.88 -22.57,258.26 -24.03,261.65 -25.19,264.94 -26.36,268.23 -27.46,271.64 -28.55,275.04 -29.33,278.60 -30.10,282.16 -30.67,285.46 -31.24,288.77 -31.77,292.16 -32.30,295.55 -33.11,298.91 -33.91,302.28 -34.47,305.27 -35.03,308.27 -35.50,311.03 -35.97,313.78 -36.08,316.17 -36.19,318.55 -36.10,322.35 -36.01,326.15 -35.09,328.34 -34.17,330.54 -32.35,332.90 -30.52,335.25 -27.91,336.82 -25.30,338.39 -23.33,339.40 -21.36,340.41 -19.22,341.36 -17.09,342.32 -14.75,343.33 -12.40,344.34 -8.59,345.15 -4.77,345.96 -2.27,346.11 0.22,346.26 2.47,346.30 4.71,346.33 9.15,345.52 13.60,344.70 15.61,343.92 17.63,343.15 21.49,340.94 25.35,338.74 27.83,337.63 30.30,336.51 32.38,335.17 34.45,333.84 37.19,332.46 39.92,331.08 43.15,328.65 46.37,326.21 49.12,323.61 51.86,321.01 54.51,317.53 57.16,314.05 58.35,312.27 59.53,310.48 60.87,308.38 62.21,306.28 63.26,304.17 64.30,302.06 65.34,299.74 66.38,297.41 67.41,294.99 68.44,292.57 69.47,290.10 70.49,287.64 71.53,285.32 72.56,283.01 73.62,280.99 74.68,278.97 76.27,275.71 77.86,272.44 78.75,269.80 79.64,267.16 80.56,264.22 81.48,261.28 81.57,259.05 81.66,256.83 81.63,254.69 81.61,252.55 80.17,250.01 78.73,247.47 76.59,244.74 74.44,242.01 73.16,240.22 71.87,238.42 70.58,236.23 69.29,234.04 68.01,231.75 66.73,229.47 65.55,227.23 64.37,224.99 63.42,222.16 62.47,219.33 61.83,216.68 61.19,214.04 59.95,209.55 58.71,205.06 57.82,201.60 56.93,198.13 55.92,195.14 54.90,192.14 54.05,187.82 53.19,183.50 53.08,181.34 52.97,179.18 52.89,175.37 52.81,171.56 53.12,169.38 53.43,167.21 54.33,164.94 55.23,162.67 57.40,159.29 59.57,155.90 60.79,154.02 62.00,152.15 63.34,149.83 64.67,147.52 64.16,145.01 63.65,142.50 63.35,139.71 63.04,136.92 62.82,133.40 62.61,129.87 62.61,126.16 62.61,122.44 62.43,119.08 62.26,115.71 61.87,112.90 61.49,110.10 61.11,106.82 60.72,103.53 60.29,100.44 59.86,97.35 59.61,94.40 59.36,91.45 59.27,88.44 59.18,85.43 59.09,83.01 58.99,80.60 58.79,77.73 58.59,74.87 58.40,72.10 58.20,69.32 59.00,66.15 59.80,62.98 61.70,60.19 63.60,57.40 65.08,54.98 66.57,52.56 67.66,49.67 68.75,46.79 69.35,44.10 69.95,41.40 70.46,38.98 70.96,36.55 71.55,33.81 72.13,31.06 72.74,28.18 73.35,25.30 73.92,22.59 74.49,19.88 74.68,16.80 74.87,13.72 72.73,12.18 70.58,10.64 67.96,9.87 65.34,9.11 60.96,8.46 56.57,7.81 54.40,7.62 52.23,7.44 47.83,7.29 43.42,7.14 41.29,7.12 39.15,7.10 35.76,7.14 32.38,7.18 29.30,7.23 26.22,7.29 23.19,6.92 20.15,6.55 18.00,6.54 15.85,6.54 12.37,6.21 8.89,5.87 6.43,5.78 3.97,5.68 1.43,5.71 -1.11,5.75 -3.77,5.26 -6.42,4.77 -4.21,5.48 -1.99,6.19 -2.81,6.09 -3.63,5.99 -4.40,5.69 -5.18,5.40 -5.86,4.93 -6.54,4.46 -7.08,3.84 -7.63,3.22 -8.02,2.49 -8.40,1.75 -8.60,0.95 -8.79,0.15 -8.79,-0.67 -8.79,-1.50 -8.59,-2.30 -8.40,-3.10 -8.01,-3.83 -7.63,-4.56 -7.08,-5.18 -6.53,-5.80 -5.85,-6.27 -5.17,-6.74 -4.39,-7.03 -3.62,-7.33 -2.80,-7.43 -1.98,-7.52 0.08,-6.83 2.16,-6.13 2.92,-5.32 3.68,-4.52 4.15,-3.51 4.62,-2.50 4.74,-1.40 4.86,-0.30 4.62,0.78 4.38,1.86 3.81,2.81 3.24,3.77 2.39,4.48 1.54,5.20 0.51,5.61 -0.51,6.02 -1.62,6.09 -2.72,6.15 -3.79,5.85 -4.86,5.55 -5.78,4.93 -6.70,4.31 -7.37,3.42 -8.04,2.54 -8.40,1.49 -8.75,0.44 -8.75,-0.66 -8.75,-1.77 -8.40,-2.82 -8.05,-3.88 -7.37,-4.76 -6.70,-5.64 -5.78,-6.27 -4.87,-6.89 -3.80,-7.19 -2.73,-7.48 -1.62,-7.42 -0.51,-7.36 0.51,-6.95 1.54,-6.54 2.39,-5.82 3.23,-5.11 3.81,-4.16 4.38,-3.20 4.62,-2.12 4.86,-1.04 4.74,0.06 4.62,1.16 4.15,2.17 3.68,3.17 2.92,3.98 2.16,4.79 1.18,5.31 0.20,5.83 -0.89,6.01 -1.98,6.19 -3.08,6.01 -4.17,5.83 -3.08,6.01 -1.99,6.19 -2.81,6.09 -3.63,5.99 -4.40,5.69 -5.18,5.40 -5.86,4.93 -6.54,4.46 -7.08,3.84 -7.63,3.22 -8.02,2.49 -8.40,1.75 -8.60,0.95 -8.79,0.15 -8.79,-0.67 -8.79,-1.49 -8.59,-2.30 -8.40,-3.10 -8.01,-3.83 -7.63,-4.56 -7.08,-5.18 -6.53,-5.80 -5.85,-6.27 -5.17,-6.74 -4.39,-7.03 -3.62,-7.33 -2.80,-7.43 -1.98,-7.52 -1.50,-7.63 -1.02,-7.73 1.70,-7.63 4.44,-7.53 7.94,-7.27 11.44,-7.01 13.75,-6.74 16.06,-6.48 18.75,-6.33 21.43,-6.19 23.85,-5.74 26.27,-5.29 29.33,-5.23 32.40,-5.18 35.81,-5.12 39.22,-5.06 41.40,-5.06 43.57,-5.05 46.00,-5.06 48.43,-5.07 50.73,-5.02 53.03,-4.96 55.78,-4.83 58.53,-4.70 60.74,-4.41 62.95,-4.13 65.72,-3.89 68.49,-3.65 70.85,-3.08 73.21,-2.50 76.06,-1.21 78.92,0.08 80.98,1.28 83.04,2.48 84.52,4.77 86.01,7.06 86.52,9.82 87.03,12.57 86.80,15.07 86.56,17.57 86.30,19.79 86.04,22.01 85.62,24.64 85.20,27.28 84.84,30.21 84.48,33.13 84.13,35.94 83.78,38.74 83.19,42.70 82.59,46.67 81.31,49.66 80.04,52.65 78.70,55.78 77.36,58.92 75.51,61.69 73.66,64.47 71.73,66.90 69.79,69.32 69.61,72.07 69.42,74.81 69.26,77.62 69.11,80.44 69.09,82.78 69.07,85.13 69.16,87.91 69.24,90.70 69.41,93.26 69.58,95.82 70.13,98.95 70.67,102.08 71.24,105.30 71.81,108.52 72.32,111.56 72.83,114.59 73.40,118.19 73.96,121.80 74.36,125.02 74.75,128.24 75.45,131.57 76.16,134.90 76.67,137.41 77.18,139.91 77.53,142.06 77.88,144.21 77.77,146.49 77.66,148.77 76.86,151.38 76.06,153.99 73.73,157.51 71.41,161.04 69.79,163.21 68.18,165.39 66.71,168.43 65.23,171.48 65.26,175.05 65.29,178.62 65.47,181.83 65.66,185.04 66.58,188.31 67.50,191.58 68.47,195.17 69.43,198.75 70.08,202.44 70.72,206.14 71.67,208.63 72.62,211.13 73.82,215.18 75.01,219.23 76.13,221.20 77.24,223.17 79.65,227.01 82.05,230.84 84.41,233.97 86.77,237.09 89.29,240.68 91.82,244.28 92.74,246.43 93.67,248.58 93.95,251.79 94.22,254.99 93.99,258.04 93.76,261.08 92.83,264.62 91.90,268.16 90.71,271.25 89.52,274.33 87.99,277.38 86.47,280.42 84.46,283.96 82.46,287.51 81.48,289.61 80.51,291.71 79.51,294.23 78.50,296.75 77.48,299.28 76.45,301.81 75.35,304.37 74.26,306.94 72.98,309.58 71.70,312.22 70.29,314.51 68.87,316.81 67.62,318.61 66.38,320.40 64.71,322.84 63.05,325.28 61.33,327.26 59.60,329.23 57.96,330.73 56.31,332.23 52.83,334.82 49.35,337.42 47.07,339.01 44.78,340.61 42.58,341.74 40.38,342.86 37.62,344.71 34.85,346.56 32.70,347.53 30.56,348.50 28.57,349.54 26.58,350.57 24.04,351.99 21.50,353.41 18.88,354.37 16.26,355.32 13.14,356.13 10.03,356.93 7.24,357.21 4.45,357.49 2.08,357.42 -0.29,357.35 -3.25,357.24 -6.20,357.13 -9.08,356.71 -11.95,356.29 -14.33,355.48 -16.72,354.67 -19.20,353.67 -21.68,352.66 -24.13,351.59 -26.58,350.51 -28.63,349.44 -30.68,348.36 -33.21,346.91 -35.75,345.45 -37.43,343.85 -39.11,342.26 -41.48,338.51 -43.86,334.76 -44.65,332.53 -45.44,330.31 -45.64,328.14 -45.85,325.97 -45.48,321.85 -45.10,317.74 -44.74,314.92 -44.38,312.09 -43.74,309.35 -43.10,306.62 -42.40,303.46 -41.69,300.31 -40.89,297.31 -40.08,294.31 -39.52,290.84 -38.97,287.37 -38.33,284.02 -37.70,280.67 -36.99,276.67 -36.29,272.68 -35.26,269.14 -34.22,265.60 -33.09,262.02 -31.95,258.44 -30.69,255.12 -29.44,251.80 -28.37,248.85 -27.31,245.89 -26.59,243.49 -25.87,241.10 -25.61,238.30 -25.36,235.50 -26.61,233.21 -27.85,230.91 -30.06,227.80 -32.26,224.69 -33.76,221.41 -35.26,218.14 -36.89,214.58 -38.51,211.02 -40.42,206.84 -42.32,202.65 -43.90,198.97 -45.49,195.29 -47.11,191.88 -48.72,188.47 -50.63,184.95 -52.53,181.44 -54.16,177.99 -55.80,174.54 -57.76,170.52 -59.73,166.50 -61.38,162.62 -63.04,158.74 -64.68,154.95 -66.33,151.15 -67.88,147.51 -69.44,143.88 -70.59,140.90 -71.74,137.92 -73.16,134.89 -74.57,131.86 -75.52,129.25 -76.46,126.65 -77.34,124.06 -78.21,121.47 -78.70,119.00 -79.19,116.53 -79.63,114.10 -80.08,111.68 -80.42,109.22 -80.77,106.77 -80.87,104.60 -80.96,102.44 -81.24,99.87 -81.53,97.29 -81.52,94.78 -81.51,92.27 -81.49,89.75 -81.47,87.23 -81.41,84.68 -81.35,82.14 -80.88,77.56 -80.41,72.97 -80.36,70.27 -80.32,67.56 -80.20,64.52 -80.07,61.48 -79.76,59.17 -79.45,56.86 -79.29,54.08 -79.14,51.29 -78.82,48.86 -78.51,46.42 -78.31,43.25 -78.11,40.09 -77.62,37.55 -77.14,35.01 -76.60,32.43 -76.06,29.86 -75.36,27.17 -74.66,24.48 -73.86,22.33 -73.06,20.18 -71.59,16.64 -70.13,13.10 -68.39,9.50 -66.66,5.90 -65.40,3.92 -64.13,1.94 -62.00,-0.11 -59.86,-2.16 -57.39,-4.37 -54.91,-6.58 -51.33,-8.60 -47.74,-10.62 -44.27,-11.37 -40.79,-12.12 -37.71,-12.03 -34.63,-11.93 -31.32,-11.75 -28.01,-11.56 -24.43,-11.01 -20.84,-10.47 -18.72,-10.32 -16.59,-10.17 -12.65,-9.28 -8.71,-8.39 -6.28,-7.72 -3.85,-7.06 -0.94,-5.97 1.95,-4.88 2.50,-4.57 3.06,-4.27 3.53,-3.84 3.99,-3.41 4.35,-2.88 4.70,-2.36 4.91,-1.76 5.12,-1.16 5.19,-0.53 5.25,0.09 5.17,0.72 5.08,1.35 4.84,1.93 4.61,2.52 4.24,3.04 3.87,3.55 3.39,3.97 2.90,4.38 2.34,4.66 1.77,4.95 1.15,5.09 0.53,5.23 -0.09,5.22 -0.72,5.20 -1.34,5.04 -1.95,4.88 -1.95,4.88 L -1.95,4.88 Z"></path></g><g transform="translate(98.88116192683583 10) rotate(0 53.06996154785156 12.5)"><text x="0" y="0" font-family="Virgil, Segoe UI Emoji" font-size="20px" fill="#1e1e1e" text-anchor="start" style="white-space: pre;" direction="ltr" dominant-baseline="text-before-edge">Not fair :/</text></g></svg>