<svg version="1.1" xmlns="http://www.w3.org/2000/svg" viewBox="0 0 1794.3247935034758 1263.7979694527116" width="1794.3247935034758" height="1263.7979694527116">
  <!-- svg-source:excalidraw -->
  
  <defs>
    <style class="style-fonts">
      @font-face {
        font-family: "Virgil";
        src: url("https://unpkg.com/@excalidraw/excalidraw@undefined/dist/excalidraw-assets/Virgil.woff2");
      }
      @font-face {
        font-family: "Cascadia";
        src: url("https://unpkg.com/@excalidraw/excalidraw@undefined/dist/excalidraw-assets/Cascadia.woff2");
      }
      @font-face {
        font-family: "Assistant";
        src: url("https://unpkg.com/@excalidraw/excalidraw@undefined/dist/excalidraw-assets/Assistant-Regular.woff2");
      }
    </style>
    
  </defs>
  <rect x="0" y="0" width="1794.3247935034758" height="1263.7979694527116" fill="#ffffff"></rect><g stroke-linecap="round" transform="translate(670.5588808294408 69.07421875) rotate(0 141.259765625 95.44921875)"><path d="M32 0 C103.85 -0.52, 177.26 0.48, 250.52 0 M32 0 C105.94 1.08, 178.93 1.27, 250.52 0 M250.52 0 C271.3 0.02, 283.37 12.46, 282.52 32 M250.52 0 C269.74 0.66, 284.59 8.72, 282.52 32 M282.52 32 C284.49 66.03, 281.4 100.01, 282.52 158.9 M282.52 32 C281.59 74.25, 282.25 115.44, 282.52 158.9 M282.52 158.9 C280.99 178.51, 272.93 191.87, 250.52 190.9 M282.52 158.9 C283.44 181.95, 271.09 192.44, 250.52 190.9 M250.52 190.9 C196.67 191.71, 141.14 191.9, 32 190.9 M250.52 190.9 C202.53 188.31, 156.56 188.39, 32 190.9 M32 190.9 C9.52 189.49, 0.75 179.44, 0 158.9 M32 190.9 C9.03 193, -1.82 180.63, 0 158.9 M0 158.9 C-2.2 131.41, -1.41 101.22, 0 32 M0 158.9 C-0.12 132.84, 0.35 106.43, 0 32 M0 32 C0.74 11.11, 10.06 0.93, 32 0 M0 32 C-1.44 11.31, 8.84 -1.71, 32 0" stroke="#1e1e1e" stroke-width="2" fill="none"></path></g><g transform="translate(666.3635683294408 10) rotate(0 135.34988403320312 12.5)"><text x="0" y="0" font-family="Virgil, Segoe UI Emoji" font-size="20px" fill="#1e1e1e" text-anchor="start" style="white-space: pre;" direction="ltr" dominant-baseline="text-before-edge">Serveur contenant les home</text></g><g stroke-linecap="round" transform="translate(769.3026443225338 130.32701430913863) rotate(0 43.66796875 33.42578125)"><path d="M34.69 0.85 C42.5 -1.02, 54.2 -0.22, 62.1 2.45 C70 5.12, 77.94 10.97, 82.1 16.87 C86.25 22.77, 87.95 31.45, 87.03 37.84 C86.11 44.24, 82.35 50.36, 76.57 55.24 C70.8 60.12, 61.08 65.75, 52.39 67.12 C43.71 68.5, 32.27 66.54, 24.47 63.5 C16.66 60.46, 9.43 54.64, 5.56 48.9 C1.7 43.15, 0.36 35.55, 1.28 29.04 C2.2 22.54, 4.59 14.86, 11.08 9.88 C17.56 4.91, 34.66 0.67, 40.2 -0.82 C45.74 -2.31, 44.14 0.08, 44.32 0.94 M63.5 4.07 C71.37 6.78, 78.94 12.95, 82.77 18.77 C86.59 24.59, 87.81 32.72, 86.43 38.99 C85.04 45.26, 80.16 51.63, 74.45 56.38 C68.75 61.13, 60.56 66.16, 52.22 67.49 C43.88 68.83, 32.26 67.64, 24.41 64.38 C16.56 61.12, 9.09 54.11, 5.11 47.94 C1.12 41.77, -0.42 33.86, 0.51 27.38 C1.45 20.9, 4.71 13.72, 10.71 9.06 C16.71 4.41, 27.99 0.58, 36.51 -0.54 C45.03 -1.67, 57.44 1.64, 61.84 2.29 C66.23 2.94, 63.23 2.45, 62.88 3.35" stroke="#e03131" stroke-width="2" fill="none"></path></g><g transform="translate(790.8127203576532 151.11719897080548) rotate(0 22.27997589111328 12.5)"><text x="22.27997589111328" y="0" font-family="Virgil, Segoe UI Emoji" font-size="20px" fill="#1e1e1e" text-anchor="middle" style="white-space: pre;" direction="ltr" dominant-baseline="text-before-edge">home</text></g><g stroke-linecap="round" transform="translate(58.57101701242232 504.99743548127054) rotate(0 141.259765625 95.44921875)"><path d="M32 0 C75.8 -1.52, 120.27 0.2, 250.52 0 M32 0 C100.23 -0.91, 170.17 -0.67, 250.52 0 M250.52 0 C270.23 1.19, 283.92 11.27, 282.52 32 M250.52 0 C273.09 -0.92, 283.87 9.18, 282.52 32 M282.52 32 C284.74 83.17, 284.4 133.5, 282.52 158.9 M282.52 32 C283.61 61.66, 283.26 89.77, 282.52 158.9 M282.52 158.9 C281.08 181.5, 270.02 191.59, 250.52 190.9 M282.52 158.9 C281.4 180.17, 271.35 188.91, 250.52 190.9 M250.52 190.9 C170.35 193.51, 89.77 190.39, 32 190.9 M250.52 190.9 C188.94 191.93, 128.37 191.22, 32 190.9 M32 190.9 C11.07 192.44, -0.98 180.78, 0 158.9 M32 190.9 C12.04 189.04, 1.06 181.28, 0 158.9 M0 158.9 C-0.79 107.36, -2.22 59.99, 0 32 M0 158.9 C0.08 131.58, 0.94 103.39, 0 32 M0 32 C1.68 10.34, 11.45 1.45, 32 0 M0 32 C1.3 10.38, 11.94 0.26, 32 0" stroke="#1e1e1e" stroke-width="2" fill="none"></path></g><g stroke-linecap="round" transform="translate(167.69211076242232 575.0755604812705) rotate(0 43.66796875 33.42578125)"><path d="M64.72 3.11 C72.21 5.55, 79.44 13.27, 83.2 19.14 C86.96 25.02, 88.71 31.86, 87.28 38.35 C85.86 44.85, 80.85 53.34, 74.66 58.13 C68.47 62.91, 58.77 66.15, 50.13 67.06 C41.49 67.96, 30.56 66.55, 22.84 63.56 C15.12 60.57, 7.44 55.09, 3.81 49.12 C0.18 43.16, -0.63 34.32, 1.09 27.75 C2.8 21.18, 7.92 14.25, 14.1 9.71 C20.28 5.16, 29.04 0.98, 38.17 0.48 C47.3 -0.02, 62.86 4.94, 68.86 6.7 C74.86 8.47, 74.38 10.58, 74.18 11.08 M39.71 0.57 C47.84 -0.41, 59.08 2, 66.46 5.23 C73.85 8.45, 80.59 14.04, 84 19.94 C87.41 25.83, 88.93 34, 86.95 40.6 C84.97 47.19, 78.67 55.12, 72.13 59.51 C65.59 63.89, 56.56 66.64, 47.69 66.94 C38.81 67.23, 26.44 64.82, 18.88 61.3 C11.32 57.77, 5.28 51.63, 2.3 45.81 C-0.67 39.99, -1.42 32.7, 1.01 26.36 C3.44 20.01, 10.17 11.92, 16.89 7.73 C23.62 3.54, 37.47 2.32, 41.39 1.22 C45.3 0.12, 40.25 0.98, 40.4 1.14" stroke="#e03131" stroke-width="2" fill="none"></path></g><g stroke-linecap="round" transform="translate(709.8159862738896 486.58148429138015) rotate(0 141.259765625 95.44921875)"><path d="M32 0 C80.31 -0.02, 129.95 -0.42, 250.52 0 M32 0 C116.51 -0.26, 199.65 -0.27, 250.52 0 M250.52 0 C272.08 -0.5, 281.22 10.02, 282.52 32 M250.52 0 C271.06 -0.22, 283.23 10.72, 282.52 32 M282.52 32 C281.78 80.73, 282.55 130.75, 282.52 158.9 M282.52 32 C284.13 65.52, 284.53 100.13, 282.52 158.9 M282.52 158.9 C281.1 180.82, 271.05 191.09, 250.52 190.9 M282.52 158.9 C281.99 180.2, 273.23 189.63, 250.52 190.9 M250.52 190.9 C164.92 193.02, 82.91 190.74, 32 190.9 M250.52 190.9 C204.69 191.24, 159.87 190.53, 32 190.9 M32 190.9 C11.12 189.9, -0.24 179.51, 0 158.9 M32 190.9 C9.79 192.5, 0.71 181.35, 0 158.9 M0 158.9 C1.33 114.71, 1.74 70.99, 0 32 M0 158.9 C-0.3 124.2, 0.16 91.32, 0 32 M0 32 C1.81 11.19, 12.15 1.58, 32 0 M0 32 C1.13 12.81, 9.88 -1.69, 32 0" stroke="#1e1e1e" stroke-width="2" fill="none"></path></g><g stroke-linecap="round" transform="translate(786.6649300919069 565.2853168715146) rotate(0 43.66796875 33.42578125)"><path d="M53.1 1.45 C61.13 2.3, 70.9 6.15, 76.66 10.91 C82.42 15.67, 86.88 23.59, 87.65 30.02 C88.41 36.44, 85.68 43.87, 81.26 49.46 C76.84 55.06, 68.93 60.78, 61.14 63.6 C53.35 66.43, 42.85 67.59, 34.53 66.44 C26.22 65.28, 17.06 61.56, 11.27 56.69 C5.48 51.82, 0.73 43.91, -0.2 37.21 C-1.12 30.52, 1.35 22.2, 5.74 16.52 C10.13 10.83, 16.51 5.08, 26.16 3.1 C35.81 1.12, 55.68 3.47, 63.62 4.65 C71.55 5.83, 74.11 9.68, 73.77 10.19 M51.97 0.85 C60.17 1.6, 69.66 6.26, 75.66 10.94 C81.66 15.63, 86.78 22.66, 87.98 28.97 C89.18 35.29, 87.17 43.21, 82.85 48.83 C78.53 54.45, 69.86 59.7, 62.06 62.69 C54.26 65.69, 44.63 68.18, 36.07 66.81 C27.5 65.45, 16.73 59.42, 10.67 54.51 C4.61 49.61, 0.62 43.68, -0.3 37.38 C-1.21 31.08, 0.75 22.66, 5.19 16.7 C9.62 10.73, 18.37 4.37, 26.33 1.58 C34.28 -1.21, 48.6 0.08, 52.92 -0.05 C57.23 -0.17, 52.52 -0.03, 52.22 0.82" stroke="#e03131" stroke-width="2" fill="none"></path></g><g stroke-linecap="round" transform="translate(1360.0968354723093 469.5984212211559) rotate(0 141.259765625 95.44921875)"><path d="M32 0 C80.88 1.78, 127.18 1.71, 250.52 0 M32 0 C90.93 -0.82, 149.39 -1.45, 250.52 0 M250.52 0 C271.46 -1.67, 282.84 11.04, 282.52 32 M250.52 0 C272.79 -1.67, 282.98 8.53, 282.52 32 M282.52 32 C283.43 64.69, 282.77 98.79, 282.52 158.9 M282.52 32 C283.56 77.73, 282.36 122.98, 282.52 158.9 M282.52 158.9 C280.76 178.39, 273.15 189.55, 250.52 190.9 M282.52 158.9 C282.11 180.85, 269.98 188.79, 250.52 190.9 M250.52 190.9 C199.73 190.43, 148.65 192.67, 32 190.9 M250.52 190.9 C172.43 191.03, 92.93 190.61, 32 190.9 M32 190.9 C12.34 192.06, -0.06 180.81, 0 158.9 M32 190.9 C8.48 189.18, 0.15 179.33, 0 158.9 M0 158.9 C-1.61 110.18, 1.17 62.43, 0 32 M0 158.9 C0.44 125.51, 0 93.17, 0 32 M0 32 C0.98 11.31, 11.84 1.91, 32 0 M0 32 C-0.76 10.99, 10.06 -1.35, 32 0" stroke="#1e1e1e" stroke-width="2" fill="none"></path></g><g stroke-linecap="round" transform="translate(1381.8507417223093 554.2585774711558) rotate(0 43.66796875 33.42578125)"><path d="M50.51 0.97 C58.34 1.63, 67.93 6.21, 74.15 10.72 C80.38 15.23, 86.48 21.62, 87.87 28.02 C89.26 34.42, 86.68 43.09, 82.51 49.1 C78.34 55.11, 70.61 61.28, 62.88 64.06 C55.15 66.85, 44.61 67.15, 36.12 65.81 C27.64 64.48, 18.01 60.75, 11.97 56.06 C5.94 51.38, 1.11 44.17, -0.11 37.72 C-1.33 31.27, 0.68 23.23, 4.66 17.38 C8.63 11.52, 15.33 5.23, 23.71 2.58 C32.1 -0.08, 49.21 1.26, 54.96 1.45 C60.71 1.64, 58.27 3.33, 58.24 3.71 M29.39 2.23 C36.99 -0.12, 48.41 -0.98, 56.56 1.09 C64.7 3.17, 72.95 9.53, 78.25 14.69 C83.55 19.85, 88.16 25.55, 88.37 32.04 C88.57 38.54, 84.38 48, 79.48 53.67 C74.58 59.33, 67.25 64.31, 58.96 66.03 C50.66 67.75, 38.22 65.96, 29.71 63.99 C21.21 62.03, 12.71 59.43, 7.92 54.23 C3.13 49.04, 1.1 39.34, 0.99 32.82 C0.89 26.29, 2.5 20.33, 7.29 15.09 C12.09 9.84, 26.09 3.3, 29.77 1.36 C33.44 -0.58, 28.98 2.88, 29.36 3.46" stroke="#e03131" stroke-width="2" fill="none"></path></g><g mask="url(#mask-LmhQzkbtt1uTro0OpB9R4)" stroke-linecap="round"><g transform="translate(241.51497786797222 570.6399644461749) rotate(0 268.6470387819579 -189.68046007402594)"><path d="M-1.07 0.92 C88.48 -62.23, 448.08 -315.33, 537.65 -378.7 M0.57 0.36 C89.97 -63.17, 447.19 -317.43, 536.89 -380.47" stroke="#e03131" stroke-width="2" fill="none"></path></g><g transform="translate(241.51497786797222 570.6399644461749) rotate(0 268.6470387819579 -189.68046007402594)"><path d="M16.07 -23.7 C12.07 -15.23, 6.04 -9.36, -1.07 0.92 M16.07 -23.7 C10.58 -16.3, 5.77 -9.13, -1.07 0.92" stroke="#e03131" stroke-width="2" fill="none"></path></g><g transform="translate(241.51497786797222 570.6399644461749) rotate(0 268.6470387819579 -189.68046007402594)"><path d="M27.88 -6.92 C19.99 -4.03, 10.11 -3.64, -1.07 0.92 M27.88 -6.92 C18.82 -4.6, 10.36 -2.6, -1.07 0.92" stroke="#e03131" stroke-width="2" fill="none"></path></g><g transform="translate(241.51497786797222 570.6399644461749) rotate(0 268.6470387819579 -189.68046007402594)"><path d="M519.81 -355.81 C526.87 -363.11, 532.01 -373.33, 536.89 -380.47 M519.81 -355.81 C525.02 -363.82, 530.74 -371.83, 536.89 -380.47" stroke="#e03131" stroke-width="2" fill="none"></path></g><g transform="translate(241.51497786797222 570.6399644461749) rotate(0 268.6470387819579 -189.68046007402594)"><path d="M507.95 -372.56 C518.92 -374.29, 527.92 -379.04, 536.89 -380.47 M507.95 -372.56 C516.76 -375.5, 526.13 -378.35, 536.89 -380.47" stroke="#e03131" stroke-width="2" fill="none"></path></g></g><mask id="mask-LmhQzkbtt1uTro0OpB9R4"><rect x="0" y="0" fill="#fff" width="878.809055431888" height="1050.0008845942268"></rect><rect x="491.90202977248873" y="368.4595043721489" fill="#000" width="36.51997375488281" height="25" opacity="1"></rect></mask><g transform="translate(491.90202977248873 368.4595043721489) rotate(0 17.901825537532545 12.406838526544192)"><text x="18.259986877441406" y="0" font-family="Virgil, Segoe UI Emoji" font-size="20px" fill="#1e1e1e" text-anchor="middle" style="white-space: pre;" direction="ltr" dominant-baseline="text-before-edge">NFS</text></g><g mask="url(#mask-jg4vCR9rRDW5lVKdCj0S6)" stroke-linecap="round"><g transform="translate(815.6324017288027 206.59838755262962) rotate(0 10.489497460717757 176.54947460168268)"><path d="M0.69 -0.34 C4.04 58.44, 17.81 293.93, 21.19 352.82 M-0.41 -1.56 C2.71 57.38, 16.91 294.9, 20.36 354.21" stroke="#e03131" stroke-width="2" fill="none"></path></g><g transform="translate(815.6324017288027 206.59838755262962) rotate(0 10.489497460717757 176.54947460168268)"><path d="M12.57 27.21 C7.33 16.88, 2.79 5.83, 0.69 -0.34 M12.57 27.21 C9.77 18.4, 5.92 10.73, 0.69 -0.34" stroke="#e03131" stroke-width="2" fill="none"></path></g><g transform="translate(815.6324017288027 206.59838755262962) rotate(0 10.489497460717757 176.54947460168268)"><path d="M-7.92 28.4 C-5.16 17.49, -1.71 5.97, 0.69 -0.34 M-7.92 28.4 C-4.7 19.34, -2.53 11.32, 0.69 -0.34" stroke="#e03131" stroke-width="2" fill="none"></path></g><g transform="translate(815.6324017288027 206.59838755262962) rotate(0 10.489497460717757 176.54947460168268)"><path d="M8.46 326.67 C12.57 337.71, 17.32 348.16, 20.36 354.21 M8.46 326.67 C12.65 334.16, 15.79 342.68, 20.36 354.21" stroke="#e03131" stroke-width="2" fill="none"></path></g><g transform="translate(815.6324017288027 206.59838755262962) rotate(0 10.489497460717757 176.54947460168268)"><path d="M28.94 325.46 C25.07 337.09, 21.81 348.01, 20.36 354.21 M28.94 325.46 C27.12 333.21, 24.24 342.08, 20.36 354.21" stroke="#e03131" stroke-width="2" fill="none"></path></g></g><mask id="mask-jg4vCR9rRDW5lVKdCj0S6"><rect x="0" y="0" fill="#fff" width="936.6113966502382" height="659.6973367559949"></rect><rect x="807.8619123120789" y="370.6478621543123" fill="#000" width="36.51997375488281" height="25" opacity="1"></rect></mask><g transform="translate(807.8619123120789 370.6478621543123) rotate(0 18.162122097141037 12.274567594127689)"><text x="18.259986877441406" y="0" font-family="Virgil, Segoe UI Emoji" font-size="20px" fill="#1e1e1e" text-anchor="middle" style="white-space: pre;" direction="ltr" dominant-baseline="text-before-edge">NFS</text></g><g transform="translate(905.8615898529508 441.52546344692024) rotate(0 42.96996307373047 12.5)"><text x="0" y="0" font-family="Virgil, Segoe UI Emoji" font-size="20px" fill="#1e1e1e" text-anchor="start" style="white-space: pre;" direction="ltr" dominant-baseline="text-before-edge">Server 2</text></g><g transform="translate(1412.5538667223093 415.3015462211559) rotate(0 42.65996551513672 12.5)"><text x="0" y="0" font-family="Virgil, Segoe UI Emoji" font-size="20px" fill="#1e1e1e" text-anchor="start" style="white-space: pre;" direction="ltr" dominant-baseline="text-before-edge">Server 3</text></g><g mask="url(#mask-r7rXFcblvc2J2iyt5EsHR)" stroke-linecap="round"><g transform="translate(855.7789851514087 187.09961310787708) rotate(0 270.4087437998494 184.34093014692704)"><path d="M-0.79 0.33 C89.11 61.52, 449.72 306.79, 539.81 368.17 M1 -0.55 C91.22 61.33, 451.81 307.71, 542 369.44" stroke="#e03131" stroke-width="2" fill="none"></path></g><g transform="translate(855.7789851514087 187.09961310787708) rotate(0 270.4087437998494 184.34093014692704)"><path d="M28.29 7.7 C19.02 3.36, 7.87 0.84, -0.79 0.33 M28.29 7.7 C18.91 5.71, 10.43 3.61, -0.79 0.33" stroke="#e03131" stroke-width="2" fill="none"></path></g><g transform="translate(855.7789851514087 187.09961310787708) rotate(0 270.4087437998494 184.34093014692704)"><path d="M16.75 24.67 C11.21 14.72, 3.93 6.5, -0.79 0.33 M16.75 24.67 C10.79 17.78, 5.67 10.75, -0.79 0.33" stroke="#e03131" stroke-width="2" fill="none"></path></g><g transform="translate(855.7789851514087 187.09961310787708) rotate(0 270.4087437998494 184.34093014692704)"><path d="M512.94 361.99 C523.28 363, 531.63 365.45, 542 369.44 M512.94 361.99 C520.41 364.52, 528.84 366.73, 542 369.44" stroke="#e03131" stroke-width="2" fill="none"></path></g><g transform="translate(855.7789851514087 187.09961310787708) rotate(0 270.4087437998494 184.34093014692704)"><path d="M524.52 345.05 C531.13 351.67, 535.59 359.79, 542 369.44 M524.52 345.05 C528.56 352.46, 533.62 359.6, 542 369.44" stroke="#e03131" stroke-width="2" fill="none"></path></g></g><mask id="mask-r7rXFcblvc2J2iyt5EsHR"><rect x="0" y="0" fill="#fff" width="1496.5964727511075" height="655.7814734017311"></rect><rect x="1107.9277420738167" y="358.94054325480414" fill="#000" width="36.51997375488281" height="25" opacity="1"></rect></mask><g transform="translate(1107.9277420738165 358.94054325480414) rotate(0 18.455571383214647 12.602461260752733)"><text x="18.259986877441406" y="0" font-family="Virgil, Segoe UI Emoji" font-size="20px" fill="#1e1e1e" text-anchor="middle" style="white-space: pre;" direction="ltr" dominant-baseline="text-before-edge">NFS</text></g><g transform="translate(124.70773576242232 470.47399798127054) rotate(0 38.559967041015625 12.5)"><text x="0" y="0" font-family="Virgil, Segoe UI Emoji" font-size="20px" fill="#1e1e1e" text-anchor="start" style="white-space: pre;" direction="ltr" dominant-baseline="text-before-edge">Server 1</text></g><g stroke-linecap="round" transform="translate(174.4658178509792 1065.4865898133808) rotate(0 130.4441198333933 94.15568981966544)"><path d="M32 0 C77.22 -3.34, 123.75 -0.29, 228.89 0 M32 0 C91.37 1.44, 153.46 1.82, 228.89 0 M228.89 0 C249.04 -1.34, 258.93 11.44, 260.89 32 M228.89 0 C248.32 -1.24, 262.56 10.52, 260.89 32 M260.89 32 C262.87 68.19, 260.07 102.5, 260.89 156.31 M260.89 32 C259.61 67.62, 260.2 105.26, 260.89 156.31 M260.89 156.31 C261.88 175.74, 248.41 190.23, 228.89 188.31 M260.89 156.31 C261.33 177.77, 252.47 187.11, 228.89 188.31 M228.89 188.31 C186.53 185.51, 142.62 185.09, 32 188.31 M228.89 188.31 C153.52 186.22, 80.59 186.11, 32 188.31 M32 188.31 C11.03 187.52, 0.4 178.52, 0 156.31 M32 188.31 C11.89 187.84, -1.97 175.66, 0 156.31 M0 156.31 C1.07 120.74, 0.01 84.99, 0 32 M0 156.31 C-2.03 116.25, -0.79 76.4, 0 32 M0 32 C-0.47 10.51, 11 1.11, 32 0 M0 32 C-1.43 9.29, 11.95 1.88, 32 0" stroke="#1e1e1e" stroke-width="2" fill="none"></path></g><g transform="translate(317.93222714889794 1021.6540059261645) rotate(0 72.27994537353516 12.5)"><text x="0" y="0" font-family="Virgil, Segoe UI Emoji" font-size="20px" fill="#1e1e1e" text-anchor="start" style="white-space: pre;" direction="ltr" dominant-baseline="text-before-edge">Laptop Arnaud</text></g><g mask="url(#mask-MUS3ngx2027YuZ_Fv1N7n)" stroke-linecap="round"><g transform="translate(257.2790298041921 1053.5779254484708) rotate(0 -24.687231164536456 -169.6234756107691)"><path d="M-0.61 0.09 C-8.85 -56.18, -41.75 -282.12, -49.97 -338.8 M1.27 -0.91 C-6.53 -57.45, -38.86 -284.33, -47.57 -340.68" stroke="#1e1e1e" stroke-width="2" fill="none"></path></g><g transform="translate(257.2790298041921 1053.5779254484708) rotate(0 -24.687231164536456 -169.6234756107691)"><path d="M-33.3 -314.29 C-36.56 -322.13, -39.62 -328.83, -47.57 -340.68 M-33.3 -314.29 C-37.49 -321.61, -40.78 -327.2, -47.57 -340.68" stroke="#1e1e1e" stroke-width="2" fill="none"></path></g><g transform="translate(257.2790298041921 1053.5779254484708) rotate(0 -24.687231164536456 -169.6234756107691)"><path d="M-53.6 -311.29 C-51.62 -319.8, -49.46 -327.27, -47.57 -340.68 M-53.6 -311.29 C-52.88 -319.37, -51.27 -325.68, -47.57 -340.68" stroke="#1e1e1e" stroke-width="2" fill="none"></path></g></g><mask id="mask-MUS3ngx2027YuZ_Fv1N7n"><rect x="0" y="0" fill="#fff" width="406.653492133265" height="1492.824876670009"></rect><rect x="214.92181572949926" y="871.4544498377015" fill="#000" width="35.3399658203125" height="25" opacity="1"></rect></mask><g transform="translate(214.92181572949926 871.4544498377019) rotate(0 18.00679032278731 11.827456766315777)"><text x="17.66998291015625" y="0" font-family="Virgil, Segoe UI Emoji" font-size="20px" fill="#1e1e1e" text-anchor="middle" style="white-space: pre;" direction="ltr" dominant-baseline="text-before-edge">SSH</text></g><g stroke-linecap="round" transform="translate(10 340.6318268760453) rotate(0 864.5418108784539 241.7855752356068)"><path d="M32 0 C670.88 -3.46, 1310.23 -3.56, 1697.08 0 M32 0 C469.78 -4.53, 907.48 -4.92, 1697.08 0 M1697.08 0 C1716.59 -0.34, 1728.85 10.39, 1729.08 32 M1697.08 0 C1717.57 -0.78, 1730.27 11.24, 1729.08 32 M1729.08 32 C1726.41 137.84, 1727.61 244.71, 1729.08 451.57 M1729.08 32 C1728.98 148.52, 1728.15 264.66, 1729.08 451.57 M1729.08 451.57 C1729.31 472.65, 1716.69 482.63, 1697.08 483.57 M1729.08 451.57 C1728.14 471.18, 1716.54 482.74, 1697.08 483.57 M1697.08 483.57 C1241.33 477.43, 784.13 478.04, 32 483.57 M1697.08 483.57 C1271.88 489.65, 846.65 489.12, 32 483.57 M32 483.57 C11.04 484.61, 1.91 472.91, 0 451.57 M32 483.57 C11.97 483.46, 1.54 470.85, 0 451.57 M0 451.57 C0.16 309.66, -1 168.56, 0 32 M0 451.57 C-0.06 356.95, -0.51 261.42, 0 32 M0 32 C-1.91 11.97, 9.29 0.54, 32 0 M0 32 C-1.02 8.49, 10.28 1.03, 32 0" stroke="#1e1e1e" stroke-width="2" fill="none"></path></g><g transform="translate(1647.8249155737883 299.586036875669) rotate(0 68.24993896484375 12.5)"><text x="0" y="0" font-family="Virgil, Segoe UI Emoji" font-size="20px" fill="#1e1e1e" text-anchor="start" style="white-space: pre;" direction="ltr" dominant-baseline="text-before-edge">Cluster calcul</text></g></svg>