<svg version="1.1" xmlns="http://www.w3.org/2000/svg" viewBox="0 0 896.1749741630092 503.40550335113085" width="1792.3499483260184" height="1006.8110067022617">
  <!-- svg-source:excalidraw -->
  
  <defs>
    <style class="style-fonts">
      @font-face {
        font-family: "Virgil";
        src: url("https://unpkg.com/@excalidraw/excalidraw@undefined/dist/excalidraw-assets/Virgil.woff2");
      }
      @font-face {
        font-family: "Cascadia";
        src: url("https://unpkg.com/@excalidraw/excalidraw@undefined/dist/excalidraw-assets/Cascadia.woff2");
      }
      @font-face {
        font-family: "Assistant";
        src: url("https://unpkg.com/@excalidraw/excalidraw@undefined/dist/excalidraw-assets/Assistant-Regular.woff2");
      }
    </style>
    
  </defs>
  <rect x="0" y="0" width="896.1749741630092" height="503.40550335113085" fill="#ffffff"></rect><g stroke-linecap="round" transform="translate(10 10) rotate(0 438.0874870815046 241.70275167556542)"><path d="M32 0 C334.95 0.8, 637.27 1.21, 844.17 0 M32 0 C296.74 2.71, 561.97 2.59, 844.17 0 M844.17 0 C864.81 -0.07, 878.02 12.17, 876.17 32 M844.17 0 C867.08 -1.31, 878.1 10.08, 876.17 32 M876.17 32 C875.04 123.79, 874.65 218.09, 876.17 451.41 M876.17 32 C875.79 153.01, 875.34 273.24, 876.17 451.41 M876.17 451.41 C875.93 471.44, 863.55 484.59, 844.17 483.41 M876.17 451.41 C877.37 472.68, 867.34 483.65, 844.17 483.41 M844.17 483.41 C627.16 483.3, 411.56 482.17, 32 483.41 M844.17 483.41 C578.34 485.06, 312.72 485.03, 32 483.41 M32 483.41 C9.43 482.83, -0.58 471.39, 0 451.41 M32 483.41 C10.03 482.6, -1.1 471.65, 0 451.41 M0 451.41 C1.93 364.97, 2.04 277.78, 0 32 M0 451.41 C1.11 323.67, 0.36 195.38, 0 32 M0 32 C-0.22 10.94, 9.48 1.2, 32 0 M0 32 C-2 11.75, 12.91 -1.97, 32 0" stroke="#1e1e1e" stroke-width="2" fill="none"></path></g><g stroke-linecap="round" transform="translate(134.75367726080913 82.40751948720072) rotate(0 102.04301611826122 55.8752245601022)"><path d="M27.94 0 C81.24 0.48, 133.11 0.22, 176.15 0 M27.94 0 C78.11 -0.32, 127.57 -0.11, 176.15 0 M176.15 0 C192.97 -1.68, 203.36 11.25, 204.09 27.94 M176.15 0 C195.93 0.4, 203.01 7.82, 204.09 27.94 M204.09 27.94 C206.01 49.54, 204.93 72.87, 204.09 83.81 M204.09 27.94 C204.06 40.7, 204.29 53.24, 204.09 83.81 M204.09 83.81 C205.83 102.89, 194.35 111.94, 176.15 111.75 M204.09 83.81 C203.05 100.64, 194.77 110.69, 176.15 111.75 M176.15 111.75 C117.85 110.09, 60.15 111.31, 27.94 111.75 M176.15 111.75 C132.86 112.67, 88.52 113.07, 27.94 111.75 M27.94 111.75 C9.88 113.65, 0.89 102.44, 0 83.81 M27.94 111.75 C9.13 111.72, -0.63 101.46, 0 83.81 M0 83.81 C0.59 71.65, 0.48 60.42, 0 27.94 M0 83.81 C-0.31 63.77, -0.05 45.18, 0 27.94 M0 27.94 C-0.85 9.61, 9.37 1.13, 27.94 0 M0 27.94 C-0.1 7.51, 8.62 -0.38, 27.94 0" stroke="#1e1e1e" stroke-width="2" fill="none"></path></g><g stroke-linecap="round" transform="translate(574.1841425434059 81.1345227804577) rotate(0 102.04301611826122 55.8752245601022)"><path d="M27.94 0 C65.85 -0.59, 102.38 0.17, 176.15 0 M27.94 0 C72.58 -0.48, 116.37 0.21, 176.15 0 M176.15 0 C194.29 -0.1, 203.1 10.52, 204.09 27.94 M176.15 0 C196.33 -1.79, 204.12 8.11, 204.09 27.94 M204.09 27.94 C205.51 44.6, 206.28 63.48, 204.09 83.81 M204.09 27.94 C205.56 43.38, 203.9 60.7, 204.09 83.81 M204.09 83.81 C203.75 101.32, 193.22 112.03, 176.15 111.75 M204.09 83.81 C201.85 104.1, 196.64 111.51, 176.15 111.75 M176.15 111.75 C126.84 113.05, 79.38 112.11, 27.94 111.75 M176.15 111.75 C131.52 110.51, 87.94 112.06, 27.94 111.75 M27.94 111.75 C11.21 112.41, 1.45 100.66, 0 83.81 M27.94 111.75 C8.31 111.75, -1.91 104.52, 0 83.81 M0 83.81 C-1.24 65.26, 0.94 45.75, 0 27.94 M0 83.81 C0.03 62.33, -0.8 42.14, 0 27.94 M0 27.94 C-0.9 8.73, 8.25 -0.82, 27.94 0 M0 27.94 C1.19 11.19, 11.39 -0.74, 27.94 0" stroke="#1e1e1e" stroke-width="2" fill="none"></path></g><g stroke-linecap="round" transform="translate(173.01022750533502 303.00918439026236) rotate(0 247.90111260368576 49.31362635178584)"><path d="M24.66 0 C144.23 -1.21, 262.55 -1.29, 471.15 0 M24.66 0 C202.91 -1.14, 381.88 -1.28, 471.15 0 M471.15 0 C489.02 -0.74, 494.04 9.09, 495.8 24.66 M471.15 0 C487.06 1.12, 493.66 8.71, 495.8 24.66 M495.8 24.66 C494.43 36.46, 496.85 52.99, 495.8 73.97 M495.8 24.66 C495.59 41.88, 495.42 58.44, 495.8 73.97 M495.8 73.97 C497.48 89.73, 488.28 100.53, 471.15 98.63 M495.8 73.97 C497.37 89.08, 488.08 99.56, 471.15 98.63 M471.15 98.63 C331.48 99.69, 191.35 99.91, 24.66 98.63 M471.15 98.63 C375.37 96.7, 280.11 96.2, 24.66 98.63 M24.66 98.63 C10.07 100.49, 0.76 90.19, 0 73.97 M24.66 98.63 C7.88 97.8, -0.32 92.16, 0 73.97 M0 73.97 C-0.52 62.71, 1.94 51.53, 0 24.66 M0 73.97 C-0.49 60.27, -0.39 47.78, 0 24.66 M0 24.66 C0.16 7.01, 9.69 -0.87, 24.66 0 M0 24.66 C-0.13 9.57, 7.1 -0.83, 24.66 0" stroke="#1e1e1e" stroke-width="2" fill="none"></path></g><g stroke-linecap="round" transform="translate(373.87044609754594 302.84922668889203) rotate(0 21.874215662462575 36.43369893932095)"><path d="M10.94 0 C20.78 1.89, 29.05 0.75, 32.81 0 M10.94 0 C16.17 0.59, 21.55 -0.96, 32.81 0 M32.81 0 C38.49 1.86, 45.44 2.71, 43.75 10.94 M32.81 0 C39.87 -1.89, 45.99 3.21, 43.75 10.94 M43.75 10.94 C43.61 25.01, 43.9 36.34, 43.75 61.93 M43.75 10.94 C42.7 22.89, 44.56 36.25, 43.75 61.93 M43.75 61.93 C43.61 70.46, 41.54 73.53, 32.81 72.87 M43.75 61.93 C42.73 69.65, 41.39 71.81, 32.81 72.87 M32.81 72.87 C29.31 74.2, 24.9 71.97, 10.94 72.87 M32.81 72.87 C24.7 73.31, 16.94 72, 10.94 72.87 M10.94 72.87 C5.13 71.5, 1.73 68.64, 0 61.93 M10.94 72.87 C5.51 74.08, 0.77 71.23, 0 61.93 M0 61.93 C-0.1 48.61, -2.07 33.24, 0 10.94 M0 61.93 C1.11 51.56, 0.56 40.55, 0 10.94 M0 10.94 C-1.6 3.21, 5.18 -1.44, 10.94 0 M0 10.94 C-0.53 2.37, 5.38 1.06, 10.94 0" stroke="#1e1e1e" stroke-width="2" fill="none"></path></g><g stroke-linecap="round" transform="translate(417.3189567324007 303.362424314123) rotate(0 18.72171596461203 16.059086727210115)"><path d="M8.03 0 C16.64 -1.51, 23.41 -0.42, 29.41 0 M8.03 0 C13.1 0.01, 18 0.8, 29.41 0 M29.41 0 C35.99 -1.4, 38.14 2.41, 37.44 8.03 M29.41 0 C34.36 -2.17, 35.9 0.44, 37.44 8.03 M37.44 8.03 C38.26 13.57, 37.43 20.32, 37.44 24.09 M37.44 8.03 C38.09 12.11, 36.91 15.36, 37.44 24.09 M37.44 24.09 C36.08 28.61, 33.17 33.6, 29.41 32.12 M37.44 24.09 C38.95 28.84, 33.87 33.22, 29.41 32.12 M29.41 32.12 C22.26 31.78, 12.08 33.55, 8.03 32.12 M29.41 32.12 C21.21 32.44, 12.82 32.64, 8.03 32.12 M8.03 32.12 C2.71 32.49, 1.7 30.79, 0 24.09 M8.03 32.12 C4.78 32.51, 2.22 28.72, 0 24.09 M0 24.09 C0.86 18.32, 1.51 12.29, 0 8.03 M0 24.09 C-0.55 18.93, -0.74 13.08, 0 8.03 M0 8.03 C-1.14 3.94, 4.33 -0.75, 8.03 0 M0 8.03 C1.59 3.94, 4.33 -0.37, 8.03 0" stroke="#1e1e1e" stroke-width="2" fill="none"></path></g></svg>