<svg version="1.1" xmlns="http://www.w3.org/2000/svg" viewBox="0 0 1150 835" width="2300" height="1670">
  <!-- svg-source:excalidraw -->
  
  <defs>
    <style class="style-fonts">
      @font-face {
        font-family: "Virgil";
        src: url("https://unpkg.com/@excalidraw/excalidraw@undefined/dist/excalidraw-assets/Virgil.woff2");
      }
      @font-face {
        font-family: "Cascadia";
        src: url("https://unpkg.com/@excalidraw/excalidraw@undefined/dist/excalidraw-assets/Cascadia.woff2");
      }
      @font-face {
        font-family: "Assistant";
        src: url("https://unpkg.com/@excalidraw/excalidraw@undefined/dist/excalidraw-assets/Assistant-Regular.woff2");
      }
    </style>
    
  </defs>
  <rect x="0" y="0" width="1150" height="835" fill="#ffffff"></rect><g transform="translate(223 182) rotate(0 458.5 -14.5)" stroke="none"><path fill="#1e1e1e" d="M 0,-4.46 Q 0,-4.46 2.00,-4.58 4.01,-4.70 7.87,-5.52 11.73,-6.35 14.07,-6.62 16.42,-6.90 18.57,-7.54 20.72,-8.18 22.99,-8.96 25.26,-9.73 29.65,-10.93 34.04,-12.13 40.07,-14.75 46.10,-17.37 56.86,-24.88 67.61,-32.40 75.84,-40.85 84.06,-49.31 92.61,-67.52 101.15,-85.73 104.88,-96.08 108.61,-106.44 109.91,-112.69 111.20,-118.94 110.62,-124.15 110.04,-129.36 109.19,-133.03 108.34,-136.71 107.17,-140.51 106.00,-144.32 104.39,-147.83 102.78,-151.34 100.94,-154.84 99.11,-158.34 97.60,-160.56 96.10,-162.78 94.45,-164.24 92.80,-165.70 89.74,-165.73 86.68,-165.77 84.91,-163.56 83.13,-161.34 83.54,-159.24 83.95,-157.14 84.06,-154.69 84.17,-152.25 84.15,-148.38 84.14,-144.50 84.33,-142.08 84.51,-139.66 85.35,-132.90 86.18,-126.14 88.12,-115.45 90.05,-104.75 91.92,-95.28 93.79,-85.82 95.65,-76.89 97.52,-67.96 98.56,-60.89 99.61,-53.81 100.58,-45.62 101.56,-37.42 102.80,-27.05 104.04,-16.68 105.42,-3.91 106.79,8.84 107.93,19.44 109.07,30.03 109.54,36.01 110.02,41.98 110.22,46.86 110.41,51.74 110.49,56.13 110.57,60.51 110.84,63.23 111.11,65.94 111.39,67.71 111.68,69.47 111.63,69.92 111.58,70.36 111.43,70.78 111.28,71.20 111.03,71.56 110.78,71.93 110.45,72.23 110.12,72.53 109.73,72.74 109.33,72.95 108.90,73.07 108.47,73.18 108.03,73.18 107.58,73.19 107.15,73.09 106.71,72.98 106.32,72.78 105.92,72.58 105.58,72.29 105.25,72.00 104.99,71.63 104.73,71.27 104.57,70.85 104.41,70.44 104.35,70.00 104.29,69.56 104.42,64.08 104.55,58.60 105.44,51.42 106.32,44.24 107.34,37.70 108.36,31.15 109.99,22.58 111.62,14.01 114.99,4.43 118.36,-5.15 123.94,-14.28 129.52,-23.41 134.57,-29.35 139.62,-35.29 144.52,-39.08 149.43,-42.88 154.35,-44.87 159.27,-46.86 163.66,-47.20 168.05,-47.54 172.46,-46.42 176.88,-45.31 180.43,-43.34 183.98,-41.36 186.67,-38.51 189.36,-35.65 190.81,-27.55 192.27,-19.44 192.74,-10.67 193.20,-1.90 193.09,5.30 192.98,12.51 192.63,18.19 192.27,23.86 191.91,27.77 191.55,31.67 191.60,34.12 191.64,36.56 191.89,39.39 192.14,42.22 192.25,44.74 192.35,47.25 192.32,50.62 192.29,54.00 192.49,58.56 192.68,63.12 193.46,65.28 194.23,67.44 195.79,70.29 197.34,73.14 199.00,75.31 200.65,77.49 203.27,79.29 205.89,81.09 208.90,81.67 211.91,82.25 216.36,82.49 220.80,82.73 225.62,81.84 230.43,80.95 235.00,79.26 239.57,77.58 244.00,74.98 248.44,72.38 254.77,68.66 261.11,64.94 266.32,61.42 271.53,57.90 277.68,52.49 283.83,47.07 288.74,42.22 293.65,37.37 298.69,27.00 303.73,16.64 306.26,11.25 308.79,5.86 309.65,2.78 310.52,-0.29 310.49,-2.48 310.47,-4.68 307.39,-6.55 304.31,-8.43 300.36,-12.26 296.40,-16.09 294.17,-17.71 291.95,-19.33 288.55,-19.75 285.16,-20.17 282.70,-19.73 280.25,-19.30 277.89,-17.94 275.54,-16.59 273.53,-14.78 271.53,-12.97 270.33,-10.41 269.14,-7.84 267.51,-3.65 265.87,0.53 264.56,7.31 263.24,14.10 262.63,21.24 262.01,28.39 261.70,35.46 261.40,42.54 261.24,47.27 261.09,52.01 261.85,56.64 262.60,61.28 264.04,66.37 265.47,71.47 266.69,73.91 267.92,76.34 271.05,78.16 274.18,79.97 278.62,81.75 283.07,83.53 288.55,84.57 294.02,85.61 299.76,86.08 305.50,86.54 309.97,86.76 314.43,86.97 317.63,86.61 320.83,86.25 325.13,85.12 329.43,83.99 334.56,81.32 339.69,78.64 345.64,74.94 351.59,71.23 358.71,66.23 365.82,61.23 374.77,52.89 383.72,44.54 392.37,34.45 401.02,24.35 410.36,8.70 419.70,-6.94 425.35,-22.08 431.01,-37.22 433.72,-45.98 436.43,-54.73 437.56,-60.36 438.69,-66.00 439.16,-70.62 439.64,-75.24 439.27,-81.94 438.90,-88.65 437.89,-97.25 436.88,-105.85 435.88,-112.37 434.88,-118.88 433.64,-122.58 432.39,-126.28 430.23,-128.63 428.08,-130.98 426.14,-132.86 424.20,-134.73 421.71,-137.25 419.22,-139.77 416.42,-143.34 413.63,-146.92 411.13,-148.98 408.64,-151.04 406.15,-152.68 403.66,-154.33 400.87,-155.45 398.07,-156.57 395.69,-155.37 393.31,-154.17 390.76,-149.74 388.20,-145.31 385.31,-138.88 382.42,-132.44 380.28,-126.88 378.15,-121.31 376.68,-113.42 375.21,-105.53 374.55,-97.62 373.88,-89.70 373.58,-81.74 373.27,-73.77 373.12,-64.64 372.98,-55.51 372.90,-45.30 372.83,-35.09 373.65,-26.28 374.46,-17.47 375.38,-9.97 376.29,-2.47 378.37,5.43 380.45,13.35 383.89,22.41 387.33,31.47 390.79,39.33 394.26,47.20 397.74,54.56 401.22,61.93 404.55,67.15 407.88,72.38 418.96,77.45 430.05,82.52 438.28,85.37 446.50,88.22 451.65,89.41 456.79,90.61 459.35,90.89 461.91,91.17 464.78,91.20 467.64,91.23 470.33,90.95 473.01,90.67 474.53,89.06 476.05,87.44 480.77,85.89 485.48,84.35 490.88,82.98 496.27,81.62 501.78,79.47 507.30,77.31 512.16,74.78 517.01,72.24 522.23,66.30 527.45,60.35 532.26,51.36 537.07,42.37 540.27,33.18 543.48,23.99 545.13,14.74 546.77,5.50 547.78,-2.18 548.79,-9.87 549.51,-19.99 550.23,-30.11 552.00,-42.30 553.76,-54.50 555.08,-65.64 556.40,-76.78 557.25,-86.10 558.09,-95.41 558.75,-103.10 559.40,-110.79 558.26,-116.58 557.13,-122.37 554.19,-127.48 551.25,-132.59 548.31,-136.50 545.37,-140.42 543.11,-143.21 540.85,-146.00 538.97,-147.88 537.09,-149.75 534.16,-150.96 531.22,-152.16 529.20,-151.46 527.17,-150.76 524.31,-149.53 521.46,-148.29 519.03,-146.51 516.60,-144.72 514.60,-142.08 512.60,-139.43 511.14,-135.21 509.68,-130.98 508.36,-125.14 507.05,-119.30 505.88,-112.21 504.70,-105.13 503.30,-96.63 501.90,-88.12 500.14,-78.16 498.37,-68.20 496.17,-56.49 493.96,-44.78 492.45,-34.97 490.94,-25.16 490.29,-18.74 489.65,-12.32 489.37,-6.76 489.09,-1.19 488.97,3.74 488.84,8.69 488.79,13.09 488.73,17.49 488.70,23.39 488.68,29.28 488.95,33.42 489.23,37.56 489.34,42.00 489.46,46.44 489.51,53.50 489.56,60.57 489.87,67.54 490.17,74.51 490.30,80.10 490.43,85.70 490.64,89.22 490.84,92.74 491.58,95.35 492.33,97.96 494.24,101.57 496.15,105.18 515.23,114.80 534.30,124.42 547.00,128.37 559.70,132.32 568.21,134.02 576.72,135.72 581.84,136.76 586.96,137.79 591.93,138.51 596.90,139.24 600.77,138.95 604.64,138.67 609.51,136.91 614.38,135.16 620.22,132.43 626.05,129.69 633.82,126.48 641.58,123.26 650.05,119.89 658.52,116.51 669.49,111.10 680.46,105.69 694.24,96.83 708.01,87.98 720.15,78.50 732.28,69.03 740.19,60.24 748.10,51.45 751.66,46.60 755.22,41.74 753.80,33.67 752.37,25.59 746.01,17.48 739.64,9.37 734.37,4.10 729.10,-1.16 724.91,-4.50 720.72,-7.85 715.89,-10.64 711.07,-13.43 705.81,-14.82 700.54,-16.21 696.06,-16.82 691.58,-17.44 687.14,-16.58 682.71,-15.73 677.91,-12.65 673.11,-9.57 668.20,-5.16 663.28,-0.75 659.27,4.44 655.25,9.65 652.75,14.59 650.24,19.54 648.94,25.19 647.63,30.83 647.07,38.61 646.50,46.39 646.82,55.39 647.15,64.39 647.57,71.40 647.99,78.42 648.74,83.90 649.48,89.39 650.64,94.22 651.80,99.05 653.70,104.17 655.59,109.30 657.06,112.18 658.53,115.07 663.42,116.68 668.31,118.30 672.49,118.76 676.68,119.23 682.64,118.90 688.60,118.58 699.22,115.08 709.85,111.58 728.66,101.27 747.48,90.96 759.13,81.79 770.78,72.61 776.14,66.11 781.50,59.61 782.49,48.15 783.49,36.68 779.75,22.51 776.01,8.34 768.53,-3.26 761.05,-14.86 755.33,-21.53 749.61,-28.19 746.39,-30.84 743.17,-33.50 740.35,-32.95 737.52,-32.41 735.27,-30.99 733.01,-29.56 730.79,-25.72 728.58,-21.88 726.94,-18.44 725.31,-14.99 724.84,-12.28 724.37,-9.56 725.43,-7.52 726.49,-5.48 730.11,-4.17 733.73,-2.86 741.84,-1.55 749.95,-0.24 759.15,0.38 768.34,1.01 773.92,1.03 779.49,1.05 781.62,0.11 783.74,-0.82 783.73,-3.38 783.73,-5.95 784.09,-8.65 784.46,-11.34 791.60,-13.78 798.75,-16.23 807.43,-20.44 816.11,-24.65 826.97,-31.80 837.84,-38.94 847.13,-45.41 856.43,-51.89 864.16,-57.21 871.89,-62.54 876.92,-65.94 881.95,-69.34 886.48,-71.97 891.01,-74.60 894.29,-76.62 897.57,-78.64 900.08,-80.24 902.59,-81.84 905.01,-83.41 907.43,-84.99 909.13,-87.37 910.82,-89.75 911.44,-93.55 912.06,-97.35 912.29,-98.09 912.52,-98.83 912.98,-99.46 913.44,-100.09 914.07,-100.54 914.70,-100.99 915.45,-101.21 916.19,-101.43 916.97,-101.41 917.74,-101.38 918.47,-101.11 919.19,-100.83 919.80,-100.34 920.40,-99.85 920.81,-99.20 921.23,-98.54 921.41,-97.79 921.59,-97.03 921.52,-96.26 921.45,-95.48 921.14,-94.77 920.83,-94.06 920.31,-93.49 919.79,-92.91 919.11,-92.54 918.43,-92.16 917.67,-92.02 916.90,-91.88 916.14,-91.99 915.37,-92.10 914.67,-92.45 913.98,-92.80 913.44,-93.35 912.89,-93.90 912.55,-94.60 912.21,-95.30 912.11,-96.07 912.01,-96.84 912.16,-97.60 912.31,-98.36 912.70,-99.03 913.09,-99.70 913.67,-100.22 914.25,-100.73 914.96,-101.03 915.68,-101.34 916.45,-101.39 917.23,-101.45 917.98,-101.26 918.73,-101.07 919.38,-100.65 920.03,-100.22 920.52,-99.61 921.00,-99.01 921.26,-98.28 921.52,-97.55 921.54,-96.77 921.56,-95.99 921.56,-95.99 921.56,-95.99 919.90,-90.66 918.25,-85.33 916.63,-83.21 915.00,-81.08 913.05,-79.88 911.09,-78.68 908.46,-77.33 905.83,-75.97 903.22,-74.75 900.61,-73.52 897.27,-71.60 893.92,-69.67 889.61,-67.08 885.30,-64.48 880.35,-61.00 875.41,-57.52 867.79,-52.07 860.17,-46.62 850.93,-39.91 841.70,-33.21 830.61,-25.58 819.52,-17.95 810.36,-13.10 801.20,-8.25 796.45,-8.34 791.71,-8.43 792.00,-5.79 792.30,-3.15 791.25,-0.46 790.20,2.21 788.21,3.83 786.23,5.44 782.94,6.28 779.64,7.12 773.81,7.26 767.98,7.40 758.46,6.96 748.95,6.51 740.08,5.30 731.21,4.10 726.00,2.18 720.79,0.26 718.92,-2.64 717.04,-5.56 717.41,-8.37 717.78,-11.19 718.77,-14.40 719.76,-17.61 721.57,-21.34 723.37,-25.07 726.53,-30.00 729.70,-34.94 733.34,-36.56 736.98,-38.19 741.27,-38.06 745.55,-37.93 749.59,-34.80 753.64,-31.66 759.59,-24.70 765.55,-17.74 773.36,-5.41 781.18,6.92 785.02,22.01 788.86,37.11 787.40,49.85 785.93,62.60 780.08,69.78 774.24,76.96 762.23,86.44 750.22,95.93 730.95,106.52 711.69,117.11 700.36,120.85 689.03,124.60 682.57,125.07 676.11,125.54 671.37,125.18 666.63,124.82 662.31,123.58 657.99,122.33 655.66,120.04 653.33,117.75 651.99,114.43 650.66,111.11 648.68,105.69 646.69,100.27 645.48,95.18 644.28,90.10 643.51,84.41 642.75,78.73 642.32,71.65 641.90,64.57 641.58,55.29 641.26,46.00 641.89,37.81 642.52,29.63 644.04,23.41 645.55,17.19 648.32,11.81 651.09,6.44 655.43,0.88 659.78,-4.67 665.05,-9.34 670.33,-14.02 675.99,-17.44 681.65,-20.85 686.93,-21.75 692.21,-22.64 697.07,-21.96 701.92,-21.28 707.80,-19.63 713.67,-17.99 718.83,-14.97 723.99,-11.96 728.41,-8.41 732.82,-4.87 738.32,0.65 743.82,6.18 750.64,15.35 757.45,24.53 758.61,34.13 759.77,43.74 755.89,49.36 752.02,54.98 743.78,64.08 735.54,73.18 723.21,82.80 710.87,92.42 696.84,101.43 682.81,110.44 671.65,115.94 660.49,121.45 652.06,124.82 643.63,128.19 635.98,131.37 628.33,134.56 622.26,137.41 616.18,140.27 610.62,142.19 605.05,144.12 600.60,144.38 596.16,144.63 591.02,143.92 585.89,143.21 580.77,142.23 575.64,141.24 566.82,139.54 558.00,137.84 544.80,133.79 531.59,129.74 511.36,119.18 491.14,108.62 488.52,103.99 485.89,99.36 485.44,96.11 484.99,92.85 485.08,89.34 485.17,85.82 485.04,80.28 484.91,74.74 484.59,67.67 484.28,60.61 484.23,53.59 484.18,46.58 484.06,42.25 483.94,37.91 483.66,33.59 483.37,29.26 483.39,23.35 483.40,17.44 483.45,13.00 483.49,8.57 483.59,3.55 483.70,-1.45 483.96,-7.15 484.22,-12.86 484.85,-19.42 485.48,-25.98 486.96,-35.89 488.43,-45.80 490.56,-57.49 492.69,-69.18 494.36,-79.11 496.02,-89.04 497.29,-97.56 498.55,-106.08 499.58,-113.35 500.61,-120.62 501.79,-126.90 502.96,-133.18 504.65,-138.55 506.33,-143.92 509.03,-147.60 511.73,-151.28 514.94,-153.57 518.15,-155.85 521.79,-157.42 525.44,-159.00 529.25,-159.49 533.05,-159.99 535.90,-158.84 538.74,-157.69 540.45,-155.88 542.15,-154.08 543.83,-151.78 545.50,-149.49 547.55,-146.53 549.59,-143.57 552.72,-139.37 555.85,-135.17 559.07,-129.30 562.30,-123.43 563.49,-116.92 564.68,-110.40 564.04,-102.67 563.39,-94.93 562.55,-85.55 561.71,-76.16 560.40,-64.94 559.09,-53.73 557.37,-41.73 555.65,-29.73 554.95,-19.45 554.25,-9.17 553.26,-1.35 552.28,6.47 550.58,16.16 548.88,25.84 545.58,35.49 542.27,45.13 537.17,54.75 532.07,64.37 526.15,71.10 520.22,77.82 515.09,80.75 509.97,83.68 504.17,86.26 498.37,88.84 493.38,90.50 488.39,92.16 484.91,93.66 481.43,95.17 477.65,97.26 473.88,99.36 470.89,99.16 467.89,98.97 464.25,98.12 460.60,97.27 458.10,96.50 455.59,95.73 450.19,94.46 444.78,93.19 436.28,90.24 427.79,87.28 415.78,81.40 403.77,75.52 400.10,69.86 396.43,64.20 392.92,56.77 389.40,49.34 385.87,41.35 382.35,33.36 378.81,24.04 375.27,14.72 373.10,6.45 370.94,-1.80 369.99,-9.38 369.03,-16.96 368.17,-26.04 367.30,-35.11 367.32,-45.34 367.34,-55.57 367.42,-64.77 367.49,-73.96 367.71,-82.06 367.92,-90.16 368.49,-98.39 369.06,-106.62 370.49,-115.08 371.91,-123.54 373.88,-129.37 375.85,-135.21 378.57,-142.07 381.28,-148.94 383.79,-154.16 386.30,-159.37 389.23,-162.39 392.16,-165.41 396.62,-164.40 401.07,-163.40 404.47,-161.81 407.87,-160.21 410.49,-158.16 413.11,-156.12 415.85,-153.56 418.60,-151.00 421.39,-147.77 424.17,-144.53 426.69,-141.85 429.20,-139.16 430.92,-136.91 432.64,-134.66 435.03,-131.36 437.42,-128.06 438.75,-123.88 440.08,-119.69 441.10,-113.08 442.11,-106.46 443.14,-97.69 444.17,-88.93 444.53,-81.82 444.89,-74.71 444.38,-69.83 443.87,-64.95 442.68,-59.06 441.49,-53.16 438.74,-44.26 435.99,-35.36 430.14,-19.79 424.30,-4.21 414.70,11.81 405.11,27.84 396.27,38.17 387.42,48.51 378.21,57.11 368.99,65.72 361.78,70.84 354.56,75.96 348.45,79.83 342.34,83.70 336.66,86.68 330.99,89.66 326.11,91.00 321.23,92.35 317.72,92.40 314.20,92.44 309.64,92.27 305.07,92.09 299.02,91.64 292.98,91.19 286.96,90.08 280.95,88.97 275.95,87.03 270.94,85.10 266.72,82.23 262.49,79.36 261.29,76.19 260.09,73.02 258.52,67.62 256.95,62.23 256.07,57.07 255.18,51.91 255.21,47.13 255.25,42.34 255.39,35.14 255.53,27.93 255.96,20.42 256.39,12.91 257.54,5.50 258.69,-1.90 260.15,-6.76 261.61,-11.62 263.64,-15.47 265.67,-19.31 268.54,-21.76 271.41,-24.20 275.12,-26.09 278.83,-27.98 282.52,-28.42 286.21,-28.85 289.23,-28.27 292.26,-27.69 294.46,-26.50 296.67,-25.31 298.92,-23.32 301.18,-21.32 305.07,-17.99 308.95,-14.66 312.51,-12.07 316.06,-9.48 316.90,-5.94 317.73,-2.40 317.01,-0.37 316.30,1.66 315.01,4.91 313.73,8.16 311.20,13.62 308.68,19.07 303.18,30.17 297.68,41.27 292.67,46.32 287.66,51.37 281.29,57.09 274.92,62.80 269.62,66.53 264.32,70.26 258.09,74.12 251.87,77.99 247.04,81.05 242.22,84.12 237.17,86.30 232.13,88.48 226.51,89.91 220.89,91.34 215.66,91.64 210.43,91.93 205.57,91.29 200.70,90.65 197.42,88.68 194.14,86.70 192.72,84.92 191.31,83.13 189.72,80.36 188.12,77.58 186.67,73.89 185.21,70.21 184.26,66.72 183.31,63.24 183.52,58.61 183.72,53.98 183.70,50.59 183.68,47.20 183.81,44.61 183.94,42.02 184.41,39.05 184.88,36.08 185.28,33.55 185.69,31.02 186.17,27.28 186.65,23.55 186.93,18.00 187.21,12.46 187.23,5.45 187.25,-1.54 186.69,-9.98 186.12,-18.43 185.14,-25.12 184.15,-31.81 182.46,-34.01 180.76,-36.21 178.05,-38.02 175.35,-39.83 171.80,-40.85 168.25,-41.87 164.73,-41.81 161.21,-41.75 156.99,-40.10 152.78,-38.45 148.36,-35.03 143.94,-31.61 139.22,-25.99 134.50,-20.36 129.29,-11.75 124.07,-3.15 120.97,5.99 117.87,15.14 116.46,23.60 115.06,32.05 114.33,38.50 113.61,44.95 113.10,52.12 112.59,59.29 112.13,64.38 111.68,69.47 111.63,69.92 111.58,70.36 111.43,70.78 111.28,71.19 111.03,71.56 110.78,71.93 110.45,72.23 110.12,72.53 109.73,72.74 109.33,72.95 108.90,73.07 108.47,73.18 108.03,73.18 107.58,73.19 107.15,73.09 106.71,72.98 106.32,72.78 105.92,72.58 105.58,72.29 105.25,72.00 104.99,71.63 104.73,71.27 104.57,70.85 104.41,70.44 104.35,70.00 104.29,69.56 104.53,67.79 104.77,66.03 104.96,63.33 105.16,60.62 105.05,56.30 104.95,51.99 104.72,47.22 104.49,42.45 103.96,36.55 103.44,30.66 102.22,20.07 101.00,9.49 99.53,-3.21 98.05,-15.92 96.67,-26.26 95.28,-36.60 94.12,-44.65 92.96,-52.71 91.69,-59.52 90.42,-66.33 88.19,-75.20 85.96,-84.07 83.60,-93.47 81.24,-102.88 78.64,-113.58 76.05,-124.28 74.34,-131.34 72.63,-138.41 72.24,-141.45 71.85,-144.50 71.81,-146.87 71.77,-149.25 71.91,-152.40 72.04,-155.55 72.23,-158.24 72.41,-160.92 72.85,-163.58 73.28,-166.23 74.82,-168.21 76.36,-170.19 78.90,-172.10 81.45,-174.01 84.90,-174.98 88.35,-175.94 91.89,-175.34 95.43,-174.73 96.87,-172.74 98.30,-170.75 100.11,-168.46 101.93,-166.16 103.15,-163.62 104.37,-161.07 106.26,-157.42 108.14,-153.77 109.86,-149.91 111.59,-146.06 112.84,-142.01 114.10,-137.96 114.91,-133.96 115.72,-129.97 116.35,-123.92 116.97,-117.87 115.68,-111.14 114.39,-104.41 110.69,-93.70 107.00,-83.00 98.06,-63.82 89.12,-44.65 80.56,-35.49 72.01,-26.33 60.87,-18.10 49.73,-9.88 43.47,-6.59 37.22,-3.29 33.00,-1.40 28.78,0.47 24.93,1.60 21.08,2.73 17.29,3.14 13.49,3.56 11.11,3.92 8.73,4.28 6.38,4.49 4.03,4.70 2.01,4.58 0,4.46 -0.53,4.39 -1.06,4.33 -1.57,4.14 -2.07,3.95 -2.51,3.64 -2.95,3.33 -3.31,2.93 -3.67,2.53 -3.92,2.05 -4.17,1.58 -4.30,1.05 -4.42,0.53 -4.42,-0.00 -4.42,-0.53 -4.30,-1.06 -4.17,-1.58 -3.92,-2.05 -3.67,-2.53 -3.31,-2.93 -2.95,-3.34 -2.51,-3.64 -2.07,-3.95 -1.57,-4.14 -1.06,-4.33 -0.53,-4.39 0.00,-4.46 0.00,-4.46 L 0,-4.46 Z"></path></g><g transform="translate(10 796) rotate(0 176.5 -47.5)" stroke="none"><path fill="#1e1e1e" d="M -1.91,-3.10 Q -1.91,-3.10 1.89,-5.28 5.70,-7.47 14.99,-14.31 24.27,-21.16 37.41,-32.36 50.55,-43.55 58.32,-52.46 66.08,-61.36 69.80,-71.36 73.51,-81.37 72.83,-88.72 72.16,-96.08 71.18,-99.43 70.19,-102.78 70.21,-103.15 70.22,-103.52 70.33,-103.87 70.43,-104.23 70.61,-104.55 70.80,-104.87 71.05,-105.13 71.31,-105.40 71.62,-105.59 71.93,-105.79 72.28,-105.91 72.63,-106.02 73.00,-106.05 73.37,-106.08 73.73,-106.02 74.09,-105.96 74.43,-105.82 74.77,-105.67 75.07,-105.45 75.36,-105.23 75.59,-104.94 75.83,-104.66 75.98,-104.32 76.14,-103.99 76.21,-103.63 76.29,-103.27 73.52,-101.34 70.75,-99.40 69.99,-96.58 69.24,-93.76 68.64,-88.19 68.05,-82.62 68.01,-75.33 67.97,-68.04 69.06,-61.06 70.15,-54.09 71.73,-47.10 73.32,-40.10 74.57,-34.49 75.82,-28.88 76.65,-22.35 77.48,-15.81 77.83,-10.12 78.17,-4.43 77.76,-0.10 77.35,4.21 77.09,6.97 76.84,9.73 76.53,10.86 76.23,11.99 76.11,12.40 75.98,12.81 75.76,13.18 75.54,13.55 75.23,13.86 74.93,14.16 74.56,14.39 74.19,14.61 73.78,14.74 73.37,14.87 72.94,14.90 72.51,14.93 72.09,14.85 71.66,14.77 71.27,14.60 70.88,14.42 70.54,14.16 70.20,13.89 69.93,13.56 69.66,13.22 69.48,12.82 69.31,12.43 69.23,12.01 69.15,11.59 69.17,11.16 69.20,10.73 68.95,4.77 68.71,-1.18 69.38,-7.35 70.06,-13.52 72.55,-18.60 75.04,-23.67 78.34,-26.66 81.64,-29.64 85.44,-30.83 89.24,-32.02 91.26,-30.57 93.27,-29.12 94.08,-24.24 94.89,-19.35 95.10,-15.52 95.32,-11.69 95.57,-9.57 95.83,-7.45 96.94,-5.53 98.04,-3.61 99.44,-0.89 100.83,1.82 105.61,1.09 110.39,0.36 113.95,-0.35 117.51,-1.08 121.88,-4.57 126.26,-8.07 127.65,-10.14 129.03,-12.21 129.89,-15.99 130.74,-19.78 127.56,-20.37 124.39,-20.96 121.79,-17.71 119.19,-14.45 119.18,-11.56 119.17,-8.66 120.41,-6.45 121.65,-4.24 123.51,-2.62 125.37,-1.00 128.23,-1.20 131.09,-1.40 133.63,-1.37 136.16,-1.34 138.97,-1.30 141.78,-1.25 145.69,-2.89 149.60,-4.53 153.41,-7.19 157.23,-9.84 160.66,-12.86 164.09,-15.88 167.15,-20.32 170.22,-24.76 172.68,-31.03 175.13,-37.30 176.21,-43.82 177.29,-50.34 177.80,-57.42 178.31,-64.50 178.27,-69.45 178.23,-74.40 177.29,-77.26 176.35,-80.12 172.97,-81.60 169.60,-83.07 167.54,-80.88 165.49,-78.69 164.76,-72.43 164.03,-66.17 164.94,-58.09 165.85,-50.01 167.32,-42.18 168.79,-34.36 169.69,-28.93 170.58,-23.49 171.06,-19.67 171.54,-15.85 171.79,-12.16 172.04,-8.47 172.23,-5.19 172.41,-1.91 173.57,0.25 174.73,2.42 177.99,2.25 181.24,2.07 184.24,1.68 187.23,1.30 190.95,0.28 194.68,-0.73 198.56,-3.46 202.44,-6.19 205.45,-10.24 208.45,-14.29 210.36,-17.94 212.27,-21.60 213.97,-25.22 215.67,-28.85 216.88,-32.32 218.09,-35.79 219.56,-39.84 221.04,-43.89 221.62,-50.45 222.20,-57.01 221.92,-61.45 221.64,-65.90 220.80,-68.75 219.97,-71.61 217.84,-72.92 215.71,-74.22 213.65,-73.01 211.60,-71.81 211.18,-69.37 210.76,-66.93 210.19,-62.72 209.62,-58.50 209.84,-53.39 210.06,-48.28 210.36,-45.38 210.65,-42.47 210.50,-40.11 210.36,-37.75 209.19,-35.85 208.02,-33.95 205.99,-32.93 203.97,-31.92 201.12,-31.67 198.27,-31.42 198.28,-31.68 198.30,-31.95 197.67,-31.97 197.03,-32.00 196.43,-32.18 195.82,-32.35 195.27,-32.67 194.72,-32.99 194.27,-33.43 193.81,-33.87 193.48,-34.40 193.14,-34.94 192.94,-35.54 192.74,-36.14 192.69,-36.77 192.64,-37.40 192.74,-38.03 192.84,-38.65 193.09,-39.23 193.34,-39.81 193.72,-40.32 194.10,-40.82 194.59,-41.22 195.08,-41.62 195.66,-41.89 196.23,-42.16 196.85,-42.29 197.47,-42.42 200.17,-39.67 202.87,-36.91 204.57,-35.50 206.28,-34.09 207.89,-31.44 209.50,-28.79 210.81,-26.35 212.12,-23.92 213.40,-21.89 214.69,-19.86 215.77,-17.59 216.85,-15.32 218.24,-12.75 219.64,-10.18 221.38,-8.80 223.13,-7.43 225.35,-5.77 227.57,-4.11 230.55,-3.02 233.54,-1.94 236.20,-1.57 238.87,-1.21 241.76,-0.98 244.65,-0.75 245.89,-2.98 247.14,-5.20 247.32,-7.78 247.50,-10.35 247.45,-12.88 247.40,-15.40 247.13,-17.88 246.86,-20.35 245.34,-18.15 243.82,-15.94 243.27,-13.13 242.73,-10.31 242.56,-7.67 242.39,-5.02 243.31,-2.63 244.22,-0.24 246.28,-2.17 248.33,-4.10 249.92,-7.16 251.50,-10.21 252.13,-14.44 252.77,-18.67 255.09,-21.09 257.42,-23.50 262.91,-26.31 268.40,-29.13 275.11,-33.37 281.82,-37.62 289.41,-42.30 297.00,-46.97 303.19,-50.38 309.38,-53.78 314.08,-56.07 318.78,-58.36 324.02,-60.49 329.27,-62.62 334.04,-64.62 338.80,-66.62 342.25,-68.15 345.70,-69.67 348.24,-70.72 350.78,-71.77 351.32,-71.86 351.85,-71.96 352.38,-71.88 352.92,-71.79 353.40,-71.55 353.88,-71.30 354.26,-70.91 354.64,-70.52 354.87,-70.03 355.11,-69.54 355.17,-69.01 355.24,-68.47 355.13,-67.94 355.02,-67.41 354.74,-66.94 354.47,-66.47 354.06,-66.12 353.65,-65.76 353.15,-65.55 352.65,-65.35 352.11,-65.31 351.57,-65.27 351.05,-65.41 350.52,-65.55 350.07,-65.85 349.62,-66.15 349.28,-66.58 348.95,-67.00 348.77,-67.51 348.59,-68.03 348.59,-68.57 348.58,-69.11 348.75,-69.62 348.91,-70.14 349.24,-70.58 349.56,-71.01 350.00,-71.32 350.45,-71.63 350.97,-71.78 351.49,-71.93 352.03,-71.91 352.57,-71.89 353.08,-71.69 353.58,-71.50 354.00,-71.15 354.42,-70.81 354.70,-70.35 354.99,-69.88 355.11,-69.36 355.23,-68.83 355.18,-68.29 355.13,-67.75 354.91,-67.26 354.68,-66.76 354.32,-66.36 353.95,-65.97 353.47,-65.71 353.00,-65.45 353.00,-65.45 353.00,-65.45 350.53,-64.74 348.06,-64.03 344.59,-62.65 341.12,-61.27 336.37,-59.15 331.61,-57.03 326.64,-54.87 321.67,-52.70 317.21,-50.31 312.75,-47.92 306.86,-44.37 300.97,-40.81 293.66,-35.87 286.35,-30.93 279.64,-26.10 272.94,-21.26 267.17,-17.57 261.39,-13.88 256.42,-11.83 251.44,-9.77 247.05,-10.97 242.65,-12.17 241.27,-15.28 239.89,-18.38 241.40,-22.05 242.90,-25.71 245.64,-27.79 248.37,-29.86 252.42,-30.75 256.47,-31.64 259.57,-29.69 262.67,-27.73 263.59,-22.65 264.50,-17.57 264.27,-14.62 264.03,-11.67 263.26,-8.04 262.49,-4.42 261.11,-1.63 259.73,1.14 257.68,3.87 255.63,6.60 253.52,7.85 251.41,9.09 248.79,9.91 246.17,10.74 243.40,10.79 240.62,10.83 238.11,9.73 235.60,8.62 234.01,6.71 232.42,4.79 231.42,1.59 230.41,-1.59 230.27,-5.43 230.13,-9.27 230.95,-13.31 231.77,-17.36 232.72,-20.14 233.68,-22.91 235.43,-25.20 237.19,-27.48 239.15,-28.98 241.11,-30.49 244.13,-31.34 247.14,-32.19 251.10,-30.00 255.06,-27.81 256.51,-25.41 257.97,-23.01 258.23,-19.05 258.49,-15.08 258.21,-12.36 257.93,-9.63 257.74,-6.79 257.54,-3.95 256.47,0.94 255.40,5.84 252.98,7.52 250.56,9.19 247.42,9.79 244.28,10.38 241.03,10.36 237.79,10.33 234.15,10.11 230.50,9.88 226.98,8.95 223.45,8.01 221.39,6.72 219.33,5.42 216.91,3.35 214.50,1.28 212.15,-1.19 209.81,-3.66 208.13,-7.11 206.45,-10.56 204.85,-13.84 203.26,-17.11 202.33,-19.43 201.40,-21.74 200.14,-24.61 198.87,-27.49 195.95,-31.21 193.03,-34.93 195.66,-33.44 198.30,-31.95 197.67,-31.97 197.04,-32.00 196.43,-32.18 195.82,-32.35 195.27,-32.67 194.72,-32.99 194.27,-33.43 193.81,-33.87 193.48,-34.40 193.14,-34.94 192.94,-35.54 192.74,-36.14 192.69,-36.77 192.64,-37.40 192.74,-38.02 192.84,-38.65 193.09,-39.23 193.34,-39.81 193.72,-40.32 194.10,-40.82 194.59,-41.22 195.08,-41.62 195.66,-41.89 196.23,-42.16 196.85,-42.29 197.47,-42.42 200.14,-42.22 202.82,-42.02 202.77,-44.87 202.71,-47.72 202.11,-53.44 201.51,-59.16 201.70,-64.19 201.89,-69.23 203.27,-73.68 204.65,-78.12 207.06,-80.01 209.47,-81.89 211.87,-82.29 214.27,-82.69 216.71,-82.03 219.14,-81.37 221.35,-79.82 223.56,-78.26 224.84,-75.69 226.12,-73.12 226.71,-69.71 227.30,-66.30 227.66,-61.41 228.02,-56.52 227.39,-49.24 226.77,-41.96 225.42,-37.79 224.07,-33.62 222.69,-29.94 221.30,-26.25 219.61,-22.52 217.91,-18.78 215.89,-14.58 213.87,-10.37 210.33,-5.41 206.79,-0.44 202.04,3.14 197.29,6.74 192.88,8.42 188.47,10.11 184.51,10.68 180.55,11.25 177.32,10.90 174.09,10.54 171.45,9.22 168.80,7.90 167.58,5.83 166.37,3.75 165.86,1.02 165.36,-1.70 165.39,-4.92 165.43,-8.15 165.33,-11.65 165.23,-15.15 164.89,-18.78 164.55,-22.41 163.51,-27.75 162.47,-33.08 160.74,-41.12 159.01,-49.15 157.80,-58.09 156.58,-67.04 157.63,-75.13 158.68,-83.22 161.82,-86.60 164.96,-89.98 168.37,-90.20 171.78,-90.43 174.95,-89.01 178.12,-87.58 180.21,-84.83 182.31,-82.08 183.18,-78.32 184.05,-74.55 184.19,-69.34 184.34,-64.12 183.95,-56.74 183.55,-49.37 182.50,-42.16 181.45,-34.96 178.90,-27.88 176.35,-20.80 173.04,-15.48 169.74,-10.16 166.28,-6.46 162.83,-2.75 158.58,0.95 154.33,4.65 151.06,6.31 147.78,7.98 144.79,8.59 141.80,9.21 138.92,9.23 136.04,9.25 133.30,9.22 130.56,9.18 127.09,8.64 123.61,8.09 120.17,5.71 116.72,3.32 115.45,1.30 114.17,-0.72 112.59,-4.58 111.01,-8.43 111.12,-13.05 111.23,-17.66 113.49,-22.06 115.75,-26.46 119.60,-28.24 123.46,-30.01 128.79,-30.15 134.13,-30.28 136.61,-27.65 139.09,-25.02 139.55,-21.74 140.01,-18.46 139.35,-15.22 138.69,-11.98 137.39,-9.54 136.08,-7.10 134.18,-4.66 132.27,-2.22 128.60,1.72 124.92,5.67 122.33,6.71 119.74,7.75 116.03,8.84 112.33,9.92 107.72,10.96 103.11,12.01 99.67,10.79 96.23,9.57 94.20,7.38 92.16,5.19 91.30,2.50 90.43,-0.18 89.16,-3.54 87.89,-6.90 87.96,-9.08 88.04,-11.27 87.82,-14.85 87.61,-18.43 86.59,-21.68 85.57,-24.93 82.94,-22.89 80.30,-20.85 78.29,-16.82 76.28,-12.79 75.84,-7.01 75.39,-1.22 75.81,5.38 76.23,11.99 76.11,12.40 75.98,12.81 75.76,13.18 75.54,13.55 75.23,13.86 74.93,14.16 74.56,14.39 74.19,14.61 73.78,14.74 73.37,14.87 72.94,14.90 72.51,14.93 72.09,14.85 71.66,14.77 71.27,14.60 70.88,14.42 70.54,14.16 70.20,13.89 69.93,13.56 69.66,13.22 69.48,12.82 69.31,12.43 69.23,12.01 69.15,11.59 69.17,11.16 69.20,10.73 69.87,9.64 70.54,8.55 71.22,6.10 71.90,3.65 72.34,-0.22 72.78,-4.10 72.42,-9.61 72.06,-15.11 71.23,-21.38 70.41,-27.66 69.11,-33.24 67.81,-38.83 66.11,-46.00 64.41,-53.17 63.18,-60.59 61.95,-68.01 61.87,-75.63 61.78,-83.26 62.42,-89.78 63.07,-96.31 66.63,-99.55 70.19,-102.78 70.21,-103.15 70.22,-103.52 70.33,-103.87 70.43,-104.23 70.61,-104.55 70.80,-104.87 71.05,-105.13 71.31,-105.40 71.62,-105.59 71.93,-105.79 72.28,-105.91 72.63,-106.02 73.00,-106.05 73.37,-106.08 73.73,-106.02 74.09,-105.96 74.43,-105.82 74.77,-105.67 75.07,-105.45 75.36,-105.23 75.59,-104.94 75.82,-104.66 75.98,-104.32 76.14,-103.99 76.21,-103.63 76.29,-103.27 76.99,-99.90 77.69,-96.53 78.27,-88.07 78.85,-79.61 74.70,-68.63 70.55,-57.66 62.52,-48.32 54.49,-38.97 41.28,-27.53 28.07,-16.09 18.66,-8.91 9.24,-1.72 5.57,0.68 1.91,3.10 1.51,3.28 1.11,3.47 0.68,3.55 0.24,3.63 -0.19,3.61 -0.62,3.59 -1.04,3.46 -1.47,3.33 -1.84,3.11 -2.22,2.88 -2.53,2.58 -2.85,2.27 -3.08,1.89 -3.31,1.52 -3.44,1.10 -3.58,0.68 -3.61,0.24 -3.64,-0.19 -3.56,-0.62 -3.49,-1.05 -3.31,-1.46 -3.13,-1.86 -2.86,-2.21 -2.59,-2.55 -2.25,-2.83 -1.91,-3.10 -1.91,-3.10 L -1.91,-3.10 Z"></path></g><g transform="translate(439 776) rotate(0 0.00004999999998744897 0.00004999999998744897)" stroke="none"><path fill="#1e1e1e" d="M 3.14,-3.14 Q 3.14,-3.14 3.55,-2.55 3.97,-1.97 4.18,-1.28 4.40,-0.59 4.38,0.11 4.36,0.83 4.11,1.51 3.86,2.18 3.41,2.74 2.96,3.30 2.36,3.69 1.75,4.07 1.05,4.25 0.36,4.42 -0.35,4.36 -1.07,4.30 -1.73,4.02 -2.39,3.74 -2.92,3.26 -3.46,2.78 -3.81,2.15 -4.16,1.53 -4.30,0.82 -4.43,0.11 -4.34,-0.59 -4.24,-1.30 -3.92,-1.94 -3.60,-2.59 -3.09,-3.09 -2.59,-3.60 -1.94,-3.92 -1.30,-4.24 -0.59,-4.34 0.12,-4.43 0.82,-4.30 1.53,-4.16 2.15,-3.81 2.78,-3.46 3.26,-2.92 3.74,-2.39 4.02,-1.73 4.31,-1.07 4.36,-0.35 4.42,0.36 4.25,1.05 4.07,1.75 3.69,2.36 3.30,2.96 2.74,3.41 2.18,3.86 1.51,4.11 0.83,4.36 0.11,4.38 -0.60,4.40 -1.28,4.18 -1.97,3.97 -2.55,3.55 -3.14,3.13 -3.14,3.14 -3.14,3.14 -3.47,2.71 -3.80,2.29 -4.02,1.80 -4.24,1.32 -4.33,0.79 -4.43,0.26 -4.40,-0.26 -4.36,-0.80 -4.20,-1.31 -4.04,-1.82 -3.77,-2.28 -3.49,-2.73 -3.11,-3.11 -2.73,-3.49 -2.28,-3.77 -1.82,-4.05 -1.31,-4.20 -0.80,-4.36 -0.26,-4.40 0.26,-4.43 0.79,-4.33 1.32,-4.24 1.80,-4.02 2.29,-3.80 2.71,-3.47 3.14,-3.14 3.14,-3.14 L 3.14,-3.14 Z"></path></g><g transform="translate(439 731) rotate(0 0.00004999999998744897 0.00004999999998744897)" stroke="none"><path fill="#1e1e1e" d="M 3.14,-3.14 Q 3.14,-3.14 3.55,-2.55 3.97,-1.97 4.18,-1.28 4.40,-0.59 4.38,0.11 4.36,0.83 4.11,1.51 3.86,2.18 3.41,2.74 2.96,3.30 2.36,3.69 1.75,4.07 1.05,4.25 0.36,4.42 -0.35,4.36 -1.07,4.30 -1.73,4.02 -2.39,3.74 -2.92,3.26 -3.46,2.78 -3.81,2.15 -4.16,1.53 -4.30,0.82 -4.43,0.11 -4.34,-0.59 -4.24,-1.30 -3.92,-1.94 -3.60,-2.59 -3.09,-3.09 -2.59,-3.60 -1.94,-3.92 -1.30,-4.24 -0.59,-4.34 0.12,-4.43 0.82,-4.30 1.53,-4.16 2.15,-3.81 2.78,-3.46 3.26,-2.92 3.74,-2.39 4.02,-1.73 4.31,-1.07 4.36,-0.35 4.42,0.36 4.25,1.05 4.07,1.75 3.69,2.36 3.30,2.96 2.74,3.41 2.18,3.86 1.51,4.11 0.83,4.36 0.11,4.38 -0.60,4.40 -1.28,4.18 -1.97,3.97 -2.55,3.55 -3.14,3.13 -3.14,3.14 -3.14,3.14 -3.47,2.71 -3.80,2.29 -4.02,1.80 -4.24,1.32 -4.33,0.79 -4.43,0.26 -4.40,-0.26 -4.36,-0.80 -4.20,-1.31 -4.04,-1.82 -3.77,-2.28 -3.49,-2.73 -3.11,-3.11 -2.73,-3.49 -2.28,-3.77 -1.82,-4.05 -1.31,-4.20 -0.80,-4.36 -0.26,-4.40 0.26,-4.43 0.79,-4.33 1.32,-4.24 1.80,-4.02 2.29,-3.80 2.71,-3.47 3.14,-3.14 3.14,-3.14 L 3.14,-3.14 Z"></path></g><g transform="translate(446 700) rotate(0 28.5 62.5)" stroke="none"><path fill="#1e1e1e" d="M 0.85,-3.00 Q 0.85,-3.00 4.87,-1.80 8.88,-0.60 13.03,1.13 17.17,2.87 21.06,5.14 24.94,7.40 30.25,12.88 35.57,18.36 40.72,26.25 45.88,34.15 49.52,41.59 53.16,49.04 55.04,56.42 56.93,63.81 57.72,69.29 58.50,74.76 57.97,79.66 57.43,84.56 56.33,88.72 55.23,92.88 53.97,96.46 52.70,100.04 51.35,102.90 50.01,105.77 48.79,107.56 47.58,109.36 43.58,112.52 39.58,115.69 35.51,118.23 31.44,120.77 28.14,122.26 24.85,123.74 22.34,125.03 19.82,126.32 16.97,127.65 14.12,128.97 13.35,129.15 12.59,129.34 11.80,129.27 11.01,129.20 10.29,128.89 9.57,128.57 8.98,128.04 8.40,127.52 8.01,126.83 7.63,126.14 7.48,125.36 7.34,124.59 7.45,123.81 7.56,123.02 7.91,122.32 8.27,121.61 8.83,121.06 9.39,120.50 10.10,120.16 10.80,119.81 11.59,119.71 12.37,119.60 13.14,119.76 13.92,119.91 14.60,120.30 15.29,120.69 15.81,121.28 16.33,121.87 16.64,122.60 16.95,123.32 17.01,124.11 17.07,124.90 16.88,125.66 16.68,126.43 16.26,127.09 15.83,127.75 15.21,128.24 14.59,128.73 13.85,129.00 13.11,129.27 12.32,129.29 11.53,129.31 10.78,129.07 10.02,128.84 9.39,128.37 8.75,127.91 8.29,127.27 7.83,126.62 7.61,125.87 7.38,125.11 7.40,124.32 7.43,123.53 7.70,122.80 7.98,122.06 8.48,121.44 8.97,120.83 9.64,120.41 10.31,119.99 10.31,119.99 10.31,119.99 12.98,118.96 15.65,117.94 18.20,116.71 20.76,115.48 25.64,113.13 30.52,110.78 32.87,109.54 35.22,108.29 37.30,107.22 39.37,106.16 41.78,104.35 44.20,102.55 45.70,100.22 47.21,97.89 48.60,94.66 49.99,91.43 51.07,87.68 52.15,83.93 52.68,79.71 53.22,75.48 52.47,70.30 51.73,65.12 50.01,58.26 48.29,51.40 44.79,44.27 41.29,37.13 36.42,29.67 31.55,22.20 26.81,17.24 22.06,12.28 18.51,10.28 14.96,8.27 11.09,6.74 7.21,5.20 3.17,4.10 -0.85,3.00 -1.20,2.86 -1.55,2.71 -1.85,2.49 -2.16,2.26 -2.39,1.97 -2.63,1.68 -2.80,1.34 -2.96,1.00 -3.04,0.63 -3.11,0.26 -3.10,-0.11 -3.09,-0.49 -2.98,-0.85 -2.88,-1.21 -2.69,-1.54 -2.50,-1.87 -2.24,-2.14 -1.98,-2.41 -1.67,-2.62 -1.35,-2.82 -0.99,-2.94 -0.63,-3.06 -0.26,-3.09 0.11,-3.12 0.48,-3.06 0.86,-3.00 0.86,-3.00 L 0.85,-3.00 Z"></path></g></svg>