<svg version="1.1" xmlns="http://www.w3.org/2000/svg" viewBox="0 0 308 386.0711034349166" width="924" height="1158.21331030475">
  <!-- svg-source:excalidraw -->
  
  <defs>
    <style class="style-fonts">
      @font-face {
        font-family: "Virgil";
        src: url("https://unpkg.com/@excalidraw/excalidraw@undefined/dist/excalidraw-assets/Virgil.woff2");
      }
      @font-face {
        font-family: "Cascadia";
        src: url("https://unpkg.com/@excalidraw/excalidraw@undefined/dist/excalidraw-assets/Cascadia.woff2");
      }
      @font-face {
        font-family: "Assistant";
        src: url("https://unpkg.com/@excalidraw/excalidraw@undefined/dist/excalidraw-assets/Assistant-Regular.woff2");
      }
    </style>
    
  </defs>
  <rect x="0" y="0" width="308" height="386.0711034349166" fill="#ffffff"></rect><g transform="translate(53 106.51683998815716) rotate(0 -4 41.5)" stroke="none"><path fill="#1e1e1e" d="M 2.60,0.34 Q 2.60,0.34 2.02,4.65 1.45,8.97 1.21,15.28 0.98,21.59 0.88,29.17 0.77,36.76 1.02,45.41 1.26,54.06 1.65,62.62 2.04,71.18 2.49,79.13 2.95,87.08 3.14,92.80 3.33,98.52 2.66,101.74 1.99,104.96 -0.65,106.76 -3.30,108.57 -6.12,107.67 -8.94,106.78 -11.62,104.43 -14.30,102.08 -16.93,98.37 -19.55,94.66 -22.07,90.52 -24.59,86.38 -27.09,82.03 -29.59,77.69 -32.09,73.26 -34.59,68.82 -36.82,64.61 -39.05,60.40 -40.62,56.48 -42.20,52.57 -43.17,49.09 -44.15,45.61 -44.26,41.44 -44.37,37.27 -41.35,32.47 -38.33,27.66 -33.15,23.32 -27.97,18.99 -21.45,14.59 -14.94,10.20 -7.62,5.21 -0.30,0.21 5.91,-4.45 12.14,-9.13 17.42,-12.88 22.71,-16.63 25.69,-19.27 28.68,-21.92 28.35,-21.13 28.01,-20.34 27.59,-20.30 27.17,-20.26 26.76,-20.36 26.34,-20.45 25.98,-20.68 25.62,-20.90 25.35,-21.23 25.08,-21.55 24.92,-21.95 24.77,-22.35 24.75,-22.77 24.73,-23.20 24.85,-23.61 24.97,-24.01 25.21,-24.36 25.46,-24.71 25.80,-24.96 26.14,-25.22 26.54,-25.35 26.95,-25.48 27.37,-25.47 27.80,-25.47 28.20,-25.33 28.60,-25.19 28.93,-24.93 29.27,-24.67 29.50,-24.31 29.74,-23.96 29.85,-23.55 29.96,-23.14 29.93,-22.71 29.90,-22.29 29.74,-21.90 29.58,-21.50 29.30,-21.18 29.02,-20.86 28.65,-20.65 28.28,-20.43 27.87,-20.35 27.45,-20.26 27.03,-20.31 26.61,-20.36 26.23,-20.54 25.84,-20.73 25.54,-21.02 25.23,-21.32 25.04,-21.70 24.84,-22.07 24.78,-22.49 24.71,-22.91 24.79,-23.33 24.86,-23.75 25.07,-24.12 25.27,-24.50 25.58,-24.79 25.89,-25.07 26.28,-25.25 26.67,-25.42 26.67,-25.42 26.67,-25.42 30.81,-24.92 34.95,-24.42 33.55,-21.20 32.16,-17.99 28.95,-15.16 25.75,-12.34 20.52,-8.64 15.29,-4.93 8.97,-0.18 2.65,4.55 -4.67,9.55 -12.01,14.56 -18.32,18.80 -24.63,23.04 -29.33,26.85 -34.02,30.65 -36.66,34.18 -39.30,37.71 -39.19,40.97 -39.09,44.24 -38.20,47.43 -37.32,50.62 -35.86,54.28 -34.40,57.95 -32.21,62.09 -30.02,66.24 -27.53,70.65 -25.04,75.07 -22.57,79.36 -20.10,83.65 -17.67,87.65 -15.24,91.66 -13.00,94.93 -10.75,98.21 -8.74,100.11 -6.73,102.02 -4.64,102.53 -2.54,103.04 -2.22,100.85 -1.90,98.67 -2.10,93.02 -2.29,87.38 -2.74,79.40 -3.20,71.42 -3.59,62.81 -3.98,54.21 -4.22,45.45 -4.47,36.69 -4.36,29.04 -4.26,21.39 -4.00,14.83 -3.75,8.27 -3.17,3.96 -2.60,-0.34 -2.52,-0.65 -2.44,-0.96 -2.29,-1.23 -2.14,-1.51 -1.93,-1.75 -1.71,-1.98 -1.45,-2.16 -1.19,-2.33 -0.89,-2.44 -0.59,-2.55 -0.28,-2.59 0.03,-2.62 0.34,-2.58 0.65,-2.54 0.95,-2.42 1.24,-2.31 1.50,-2.12 1.76,-1.94 1.97,-1.70 2.17,-1.46 2.32,-1.18 2.46,-0.90 2.53,-0.59 2.61,-0.28 2.60,0.03 2.60,0.34 2.60,0.34 L 2.60,0.34 Z"></path></g><g transform="translate(31 175.51683998815716) rotate(0 29 -35)" stroke="none"><path fill="#1e1e1e" d="M -1.85,-1.85 Q -1.85,-1.85 3.60,-7.31 9.06,-12.78 14.52,-18.52 19.98,-24.27 25.14,-30.40 30.29,-36.53 35.06,-42.58 39.84,-48.63 43.28,-53.47 46.71,-58.30 48.80,-60.99 50.88,-63.68 52.26,-65.86 53.64,-68.04 53.92,-68.36 54.20,-68.67 54.57,-68.88 54.94,-69.09 55.36,-69.17 55.78,-69.26 56.20,-69.20 56.62,-69.14 57.00,-68.95 57.38,-68.77 57.68,-68.47 57.98,-68.17 58.17,-67.79 58.36,-67.41 58.42,-66.99 58.48,-66.56 58.40,-66.15 58.32,-65.73 58.11,-65.36 57.91,-64.99 57.59,-64.70 57.27,-64.42 56.88,-64.25 56.49,-64.08 56.07,-64.05 55.65,-64.01 55.24,-64.11 54.82,-64.21 54.46,-64.44 54.11,-64.67 53.84,-65.00 53.57,-65.33 53.42,-65.73 53.28,-66.13 53.26,-66.55 53.25,-66.98 53.38,-67.38 53.50,-67.79 53.75,-68.14 53.99,-68.48 54.34,-68.73 54.68,-68.98 55.09,-69.11 55.49,-69.23 55.92,-69.22 56.34,-69.21 56.74,-69.06 57.14,-68.92 57.47,-68.65 57.81,-68.39 58.04,-68.03 58.27,-67.67 58.37,-67.26 58.47,-66.85 58.44,-66.42 58.41,-66.00 58.24,-65.61 58.07,-65.22 58.07,-65.22 58.07,-65.22 56.55,-62.84 55.04,-60.47 53.02,-57.86 50.99,-55.25 47.48,-50.31 43.96,-45.38 39.14,-39.27 34.31,-33.15 29.05,-26.90 23.79,-20.65 18.28,-14.86 12.78,-9.06 7.31,-3.60 1.85,1.85 1.60,2.05 1.35,2.24 1.07,2.37 0.78,2.50 0.46,2.56 0.15,2.62 -0.15,2.60 -0.47,2.58 -0.77,2.48 -1.07,2.39 -1.34,2.23 -1.61,2.06 -1.84,1.84 -2.06,1.61 -2.23,1.34 -2.39,1.07 -2.48,0.77 -2.58,0.47 -2.60,0.15 -2.62,-0.15 -2.56,-0.47 -2.50,-0.78 -2.37,-1.07 -2.24,-1.35 -2.05,-1.60 -1.85,-1.85 -1.85,-1.85 L -1.85,-1.85 Z"></path></g><g transform="translate(88 136.51683998815716) rotate(0 2.5 26.5)" stroke="none"><path fill="#1e1e1e" d="M 2.58,0.48 Q 2.58,0.48 1.71,5.08 0.85,9.68 0.51,16.35 0.16,23.02 0.58,30.09 1.00,37.17 2.03,44.15 3.06,51.13 4.35,57.22 5.64,63.32 6.75,67.30 7.85,71.28 6.00,65.87 4.15,60.46 3.64,54.34 3.13,48.22 2.91,41.25 2.69,34.28 2.60,27.01 2.50,19.74 2.46,12.34 2.43,4.94 2.41,-1.94 2.39,-8.82 2.39,-13.47 2.38,-18.12 2.38,-19.81 2.37,-21.50 2.41,-21.81 2.45,-22.12 2.56,-22.42 2.67,-22.72 2.85,-22.98 3.03,-23.24 3.27,-23.45 3.50,-23.66 3.78,-23.81 4.06,-23.95 4.37,-24.03 4.68,-24.11 5.00,-24.11 5.31,-24.11 5.62,-24.03 5.93,-23.96 6.21,-23.81 6.49,-23.66 6.73,-23.45 6.96,-23.24 7.14,-22.98 7.32,-22.72 7.44,-22.43 7.55,-22.13 7.59,-21.82 7.63,-21.50 7.33,-15.70 7.04,-9.91 6.92,-3.33 6.80,3.23 6.75,10.92 6.70,18.62 6.68,25.91 6.65,33.21 6.93,39.41 7.21,45.62 7.61,50.53 8.01,55.44 7.89,59.27 7.77,63.09 7.56,63.46 7.34,63.82 7.02,64.11 6.70,64.39 6.31,64.55 5.92,64.71 5.50,64.74 5.07,64.77 4.66,64.67 4.25,64.56 3.89,64.33 3.54,64.10 3.28,63.76 3.01,63.43 2.87,63.03 2.73,62.63 2.72,62.20 2.71,61.78 2.84,61.37 2.97,60.97 3.22,60.63 3.47,60.28 3.82,60.04 4.17,59.79 4.58,59.67 4.98,59.55 5.41,59.57 5.83,59.58 6.23,59.73 6.63,59.89 6.96,60.15 7.28,60.42 7.51,60.78 7.73,61.14 7.83,61.56 7.93,61.97 7.89,62.39 7.85,62.82 7.68,63.21 7.51,63.60 7.22,63.91 6.94,64.22 6.56,64.43 6.19,64.63 5.77,64.71 5.36,64.78 4.94,64.72 4.52,64.66 4.14,64.47 3.76,64.28 3.46,63.97 3.16,63.67 2.98,63.29 2.79,62.90 2.74,62.48 2.69,62.06 2.77,61.64 2.86,61.23 2.86,61.23 2.86,61.23 2.82,58.55 2.78,55.87 2.37,50.86 1.96,45.85 1.68,39.52 1.40,33.19 1.42,25.89 1.45,18.58 1.50,10.86 1.55,3.13 1.68,-3.57 1.80,-10.27 2.09,-15.88 2.37,-21.50 2.41,-21.81 2.45,-22.12 2.56,-22.42 2.67,-22.72 2.85,-22.98 3.03,-23.24 3.27,-23.45 3.50,-23.66 3.78,-23.81 4.06,-23.95 4.37,-24.03 4.68,-24.11 5.00,-24.11 5.31,-24.11 5.62,-24.03 5.93,-23.96 6.21,-23.81 6.49,-23.66 6.73,-23.45 6.96,-23.24 7.14,-22.98 7.32,-22.72 7.44,-22.43 7.55,-22.13 7.59,-21.82 7.63,-21.50 7.63,-19.82 7.63,-18.13 7.64,-13.48 7.65,-8.83 7.66,-1.96 7.68,4.91 7.72,12.29 7.76,19.67 7.85,26.89 7.94,34.11 8.15,40.95 8.36,47.78 8.87,53.84 9.37,59.90 9.89,64.97 10.41,70.03 9.05,73.93 7.68,77.83 5.24,75.26 2.80,72.70 1.65,68.55 0.50,64.41 -0.81,58.15 -2.13,51.89 -3.18,44.68 -4.24,37.47 -4.66,30.11 -5.08,22.74 -4.69,15.73 -4.30,8.71 -3.44,4.11 -2.58,-0.48 -2.48,-0.78 -2.39,-1.08 -2.22,-1.35 -2.06,-1.62 -1.83,-1.85 -1.61,-2.07 -1.33,-2.23 -1.06,-2.39 -0.76,-2.49 -0.46,-2.58 -0.14,-2.60 0.16,-2.62 0.48,-2.56 0.79,-2.50 1.08,-2.37 1.36,-2.24 1.61,-2.04 1.86,-1.84 2.05,-1.59 2.25,-1.34 2.38,-1.06 2.51,-0.77 2.56,-0.45 2.62,-0.14 2.60,0.16 2.58,0.48 2.58,0.48 L 2.58,0.48 Z"></path></g><g transform="translate(116 117.51683998815716) rotate(0 -2.5 44)" stroke="none"><path fill="#1e1e1e" d="M 2.58,0.45 Q 2.58,0.45 1.72,5.34 0.86,10.22 0.51,16.75 0.16,23.27 0.01,30.09 -0.14,36.91 0.36,43.72 0.86,50.54 1.37,57.23 1.87,63.91 2.65,69.55 3.43,75.18 3.77,78.76 4.10,82.34 4.11,82.66 4.11,82.98 4.04,83.29 3.97,83.59 3.83,83.88 3.68,84.16 3.48,84.40 3.27,84.64 3.02,84.82 2.76,85.01 2.46,85.13 2.17,85.24 1.86,85.29 1.54,85.33 1.23,85.30 0.91,85.26 0.61,85.16 0.32,85.05 0.05,84.87 -0.20,84.70 -0.41,84.46 -0.63,84.23 -0.78,83.95 -0.93,83.67 -1.01,83.37 -1.09,83.06 -3.80,79.56 -6.50,76.07 -6.70,75.69 -6.89,75.31 -6.96,74.89 -7.02,74.47 -6.95,74.05 -6.87,73.63 -6.67,73.26 -6.47,72.89 -6.15,72.60 -5.84,72.31 -5.45,72.14 -5.07,71.96 -4.64,71.92 -4.22,71.88 -3.81,71.98 -3.39,72.07 -3.03,72.30 -2.67,72.52 -2.40,72.85 -2.13,73.18 -1.97,73.57 -1.82,73.97 -1.80,74.39 -1.79,74.82 -1.90,75.23 -2.02,75.63 -2.27,75.98 -2.51,76.33 -2.85,76.58 -3.19,76.84 -3.60,76.97 -4.00,77.10 -4.42,77.09 -4.85,77.09 -5.25,76.95 -5.65,76.81 -5.99,76.55 -6.32,76.29 -6.56,75.93 -6.79,75.58 -6.90,75.17 -7.01,74.76 -6.98,74.33 -6.95,73.91 -6.79,73.51 -6.63,73.12 -6.35,72.80 -6.07,72.48 -5.70,72.27 -5.34,72.05 -4.92,71.96 -4.50,71.88 -4.08,71.93 -3.66,71.98 -3.28,72.16 -2.89,72.35 -2.59,72.64 -2.28,72.94 -2.28,72.94 -2.28,72.94 -0.40,75.50 1.46,78.07 2.78,80.21 4.10,82.34 4.11,82.66 4.11,82.98 4.04,83.29 3.97,83.59 3.83,83.88 3.69,84.16 3.48,84.40 3.27,84.64 3.02,84.82 2.76,85.01 2.46,85.13 2.17,85.24 1.86,85.29 1.54,85.33 1.23,85.30 0.91,85.26 0.61,85.16 0.32,85.05 0.05,84.87 -0.20,84.70 -0.41,84.46 -0.63,84.23 -0.78,83.95 -0.93,83.67 -1.01,83.37 -1.09,83.06 -1.43,79.48 -1.76,75.90 -2.56,70.10 -3.36,64.31 -3.86,57.62 -4.37,50.93 -4.88,43.86 -5.39,36.79 -5.23,29.89 -5.08,22.98 -4.69,16.15 -4.31,9.32 -3.44,4.43 -2.58,-0.45 -2.49,-0.75 -2.40,-1.06 -2.24,-1.33 -2.07,-1.60 -1.85,-1.83 -1.63,-2.05 -1.36,-2.22 -1.09,-2.38 -0.79,-2.48 -0.49,-2.58 -0.17,-2.60 0.14,-2.62 0.45,-2.56 0.76,-2.51 1.05,-2.38 1.34,-2.25 1.59,-2.06 1.84,-1.86 2.04,-1.62 2.23,-1.37 2.37,-1.08 2.50,-0.79 2.56,-0.48 2.62,-0.17 2.60,0.14 2.58,0.45 2.58,0.45 L 2.58,0.45 Z"></path></g><g transform="translate(90 164.51683998815716) rotate(0 34 2)" stroke="none"><path fill="#1e1e1e" d="M -0.70,-2.53 Q -0.70,-2.53 4.47,-3.96 9.65,-5.40 14.32,-6.05 18.99,-6.69 23.30,-6.96 27.61,-7.23 31.28,-6.67 34.95,-6.10 37.03,-2.49 39.11,1.12 39.87,6.01 40.63,10.91 41.20,15.45 41.76,19.99 42.80,23.37 43.83,26.76 45.49,28.56 47.15,30.37 48.57,27.91 49.99,25.45 51.19,20.70 52.39,15.94 52.95,9.09 53.50,2.24 53.46,-4.65 53.42,-11.56 52.05,-16.17 50.67,-20.78 49.10,-22.62 47.53,-24.47 45.81,-21.60 44.09,-18.74 42.84,-12.77 41.60,-6.79 41.04,-0.52 40.48,5.73 40.51,11.15 40.54,16.58 42.06,19.49 43.58,22.40 45.76,23.41 47.94,24.42 52.01,22.95 56.08,21.48 57.95,20.41 59.82,19.34 62.63,18.21 65.43,17.07 65.74,16.98 66.04,16.89 66.36,16.87 66.67,16.85 66.98,16.91 67.29,16.96 67.58,17.09 67.87,17.22 68.12,17.42 68.37,17.62 68.56,17.87 68.76,18.12 68.89,18.40 69.02,18.69 69.07,19.00 69.13,19.32 69.11,19.63 69.09,19.95 69.00,20.25 68.90,20.55 68.74,20.82 68.57,21.09 68.35,21.32 68.13,21.54 67.85,21.70 67.58,21.87 64.81,19.35 62.03,16.84 61.90,16.44 61.77,16.03 61.77,15.61 61.77,15.18 61.91,14.78 62.05,14.38 62.31,14.04 62.57,13.71 62.93,13.47 63.28,13.24 63.69,13.13 64.10,13.02 64.53,13.04 64.95,13.07 65.34,13.23 65.74,13.39 66.06,13.67 66.38,13.95 66.60,14.31 66.81,14.68 66.90,15.10 66.99,15.51 66.94,15.93 66.89,16.36 66.71,16.74 66.52,17.12 66.23,17.43 65.93,17.74 65.56,17.93 65.18,18.13 64.76,18.19 64.34,18.26 63.92,18.18 63.50,18.11 63.13,17.91 62.75,17.71 62.47,17.40 62.18,17.09 62.00,16.70 61.83,16.31 61.78,15.89 61.74,15.46 61.84,15.05 61.93,14.64 62.15,14.27 62.38,13.91 62.70,13.64 63.03,13.37 63.43,13.21 63.82,13.06 64.25,13.04 64.67,13.02 65.08,13.14 65.49,13.26 65.84,13.50 66.19,13.74 66.44,14.08 66.69,14.42 66.69,14.42 66.69,14.42 66.06,15.75 65.43,17.07 65.74,16.98 66.04,16.89 66.36,16.87 66.67,16.85 66.98,16.91 67.29,16.96 67.58,17.09 67.87,17.22 68.12,17.42 68.37,17.62 68.56,17.87 68.76,18.12 68.89,18.40 69.02,18.69 69.07,19.00 69.13,19.32 69.11,19.63 69.09,19.95 69.00,20.25 68.90,20.55 68.74,20.82 68.57,21.09 68.35,21.32 68.13,21.54 67.85,21.70 67.58,21.87 65.00,22.89 62.42,23.91 60.40,25.05 58.39,26.20 55.41,27.56 52.43,28.93 49.17,29.03 45.91,29.13 42.59,27.14 39.27,25.14 37.30,20.99 35.34,16.84 35.29,11.05 35.24,5.26 35.85,-1.32 36.46,-7.90 37.97,-14.57 39.48,-21.24 41.89,-24.91 44.29,-28.57 47.41,-28.48 50.54,-28.39 53.08,-25.40 55.62,-22.42 57.14,-17.03 58.67,-11.64 58.70,-4.47 58.74,2.68 58.10,9.99 57.47,17.30 55.88,22.86 54.29,28.42 51.85,31.29 49.40,34.16 46.13,33.66 42.85,33.15 40.87,30.80 38.90,28.46 37.73,24.55 36.55,20.65 35.99,16.16 35.43,11.66 34.88,7.48 34.34,3.30 33.34,0.44 32.34,-2.41 30.14,-2.20 27.93,-1.99 23.81,-1.74 19.70,-1.49 15.37,-0.91 11.04,-0.34 5.87,1.09 0.70,2.53 0.38,2.57 0.07,2.62 -0.23,2.59 -0.55,2.56 -0.85,2.46 -1.15,2.36 -1.41,2.18 -1.68,2.01 -1.90,1.78 -2.11,1.55 -2.27,1.27 -2.42,1.00 -2.51,0.69 -2.59,0.39 -2.60,0.07 -2.61,-0.24 -2.54,-0.54 -2.48,-0.85 -2.34,-1.14 -2.20,-1.42 -2.00,-1.67 -1.79,-1.91 -1.54,-2.10 -1.28,-2.28 -0.99,-2.41 -0.70,-2.53 -0.70,-2.53 L -0.70,-2.53 Z"></path></g><g transform="translate(127 132.51683998815716) rotate(0 19.5 -16.5)" stroke="none"><path fill="#1e1e1e" d="M -1.93,-1.77 Q -1.93,-1.77 1.22,-5.22 4.39,-8.67 8.46,-11.99 12.53,-15.32 17.12,-18.72 21.71,-22.13 24.79,-24.42 27.87,-26.71 30.54,-29.06 33.20,-31.40 33.56,-31.63 33.92,-31.85 34.33,-31.95 34.75,-32.05 35.17,-32.01 35.59,-31.97 35.98,-31.80 36.37,-31.63 36.69,-31.34 37.00,-31.05 37.20,-30.68 37.41,-30.31 37.48,-29.89 37.56,-29.47 37.50,-29.05 37.44,-28.63 37.24,-28.25 37.05,-27.87 36.75,-27.58 36.44,-27.28 36.06,-27.09 35.68,-26.91 35.26,-26.86 34.83,-26.80 34.42,-26.89 34.00,-26.97 33.63,-27.19 33.27,-27.40 32.99,-27.72 32.71,-28.04 32.54,-28.43 32.38,-28.82 32.35,-29.25 32.32,-29.67 32.43,-30.08 32.53,-30.49 32.76,-30.85 33.00,-31.20 33.33,-31.47 33.67,-31.73 34.07,-31.87 34.47,-32.01 34.89,-32.02 35.32,-32.03 35.72,-31.90 36.13,-31.77 36.47,-31.52 36.81,-31.27 37.06,-30.92 37.30,-30.57 37.42,-30.16 37.54,-29.75 37.52,-29.33 37.51,-28.91 37.36,-28.51 37.21,-28.11 36.94,-27.78 36.67,-27.45 36.67,-27.45 36.67,-27.45 33.84,-24.98 31.01,-22.50 27.92,-20.20 24.84,-17.90 20.34,-14.57 15.84,-11.24 12.05,-8.18 8.25,-5.12 5.09,-1.67 1.93,1.77 1.69,1.98 1.45,2.18 1.17,2.32 0.88,2.47 0.58,2.54 0.27,2.61 -0.04,2.60 -0.36,2.60 -0.66,2.52 -0.97,2.43 -1.25,2.28 -1.52,2.13 -1.76,1.92 -1.99,1.70 -2.17,1.44 -2.34,1.18 -2.45,0.88 -2.56,0.58 -2.59,0.27 -2.62,-0.04 -2.58,-0.35 -2.53,-0.67 -2.42,-0.96 -2.30,-1.26 -2.12,-1.51 -1.93,-1.77 -1.93,-1.77 L -1.93,-1.77 Z"></path></g><g transform="translate(160 132.51683998815716) rotate(0 9 29)" stroke="none"><path fill="#1e1e1e" d="M 2.47,0.88 Q 2.47,0.88 1.03,4.90 -0.39,8.92 -0.94,13.51 -1.49,18.11 -1.16,23.69 -0.84,29.27 -0.14,34.51 0.55,39.75 1.41,43.94 2.27,48.14 2.58,50.45 2.89,52.76 3.12,53.06 3.36,53.36 3.37,53.68 3.38,53.99 3.31,54.30 3.25,54.61 3.11,54.90 2.97,55.18 2.77,55.43 2.57,55.67 2.31,55.86 2.06,56.05 1.77,56.17 1.47,56.29 1.16,56.34 0.85,56.39 0.53,56.36 0.22,56.33 -0.07,56.23 -0.37,56.13 -0.64,55.96 -0.90,55.79 -1.12,55.56 -1.34,55.33 -1.50,55.05 -1.65,54.78 -1.74,54.47 -1.82,54.17 -1.77,51.69 -1.72,49.22 -1.69,45.42 -1.66,41.63 -1.65,36.27 -1.64,30.92 -1.63,25.48 -1.63,20.04 -1.34,14.78 -1.05,9.52 -0.63,5.52 -0.21,1.53 1.36,-1.58 2.94,-4.71 4.67,0.02 6.39,4.76 6.74,9.94 7.09,15.12 7.81,21.29 8.53,27.47 9.41,33.24 10.29,39.01 10.95,43.79 11.62,48.58 12.43,51.27 13.24,53.97 13.90,55.20 14.55,56.43 14.60,56.74 14.66,57.06 14.63,57.37 14.61,57.69 14.51,57.99 14.41,58.29 14.24,58.56 14.08,58.83 13.85,59.05 13.62,59.27 13.35,59.43 13.08,59.59 12.77,59.68 12.47,59.77 12.15,59.78 11.84,59.80 11.53,59.74 11.22,59.68 10.93,59.54 10.64,59.41 10.40,59.21 10.15,59.01 9.96,58.76 9.77,58.51 9.64,58.22 9.51,57.93 10.27,53.28 11.02,48.63 11.41,43.22 11.80,37.81 11.96,32.11 12.12,26.42 12.19,21.41 12.26,16.40 12.29,13.40 12.32,10.39 12.37,10.08 12.41,9.77 12.53,9.47 12.64,9.18 12.83,8.92 13.01,8.66 13.25,8.46 13.49,8.25 13.77,8.11 14.05,7.96 14.36,7.89 14.67,7.82 14.99,7.82 15.30,7.83 15.61,7.91 15.92,7.99 16.19,8.14 16.47,8.29 16.71,8.50 16.94,8.72 17.12,8.98 17.29,9.24 17.40,9.54 17.51,9.84 17.54,10.15 17.58,10.47 17.60,14.42 17.61,18.36 17.90,24.23 18.19,30.10 18.88,35.69 19.57,41.27 20.43,46.21 21.29,51.15 21.94,54.39 22.60,57.63 22.45,57.99 22.30,58.34 22.71,58.43 23.13,58.51 23.50,58.72 23.87,58.93 24.15,59.25 24.43,59.57 24.60,59.96 24.77,60.35 24.80,60.77 24.83,61.20 24.73,61.61 24.62,62.02 24.39,62.38 24.16,62.73 23.83,63.00 23.50,63.26 23.10,63.41 22.70,63.55 22.27,63.56 21.85,63.57 21.44,63.44 21.04,63.32 20.69,63.07 20.35,62.82 20.10,62.47 19.86,62.13 19.73,61.72 19.61,61.31 19.62,60.89 19.64,60.46 19.78,60.06 19.93,59.67 20.20,59.34 20.47,59.01 20.83,58.78 21.19,58.55 21.60,58.45 22.01,58.35 22.44,58.39 22.86,58.42 23.25,58.59 23.64,58.76 23.95,59.05 24.27,59.33 24.48,59.71 24.68,60.08 24.76,60.49 24.84,60.91 24.78,61.33 24.72,61.75 24.53,62.13 24.34,62.51 24.04,62.81 23.74,63.11 23.35,63.30 22.97,63.48 22.55,63.54 22.13,63.60 22.13,63.60 22.13,63.60 19.79,61.14 17.45,58.68 16.78,55.36 16.12,52.05 15.24,46.98 14.36,41.91 13.65,36.14 12.94,30.36 12.65,24.36 12.36,18.37 12.34,14.38 12.32,10.39 12.37,10.08 12.41,9.77 12.53,9.47 12.64,9.18 12.83,8.92 13.01,8.66 13.25,8.46 13.49,8.25 13.77,8.11 14.05,7.96 14.36,7.89 14.67,7.82 14.99,7.82 15.30,7.83 15.61,7.91 15.92,7.99 16.19,8.14 16.47,8.29 16.71,8.50 16.94,8.72 17.12,8.98 17.29,9.24 17.40,9.54 17.51,9.84 17.54,10.15 17.58,10.47 17.55,13.47 17.52,16.47 17.45,21.52 17.38,26.57 17.21,32.38 17.04,38.18 16.65,43.60 16.26,49.01 15.41,52.72 14.55,56.43 14.60,56.74 14.66,57.06 14.63,57.37 14.61,57.69 14.51,57.99 14.41,58.29 14.24,58.56 14.08,58.83 13.85,59.05 13.62,59.27 13.35,59.43 13.08,59.59 12.77,59.68 12.47,59.77 12.15,59.78 11.84,59.80 11.53,59.74 11.22,59.68 10.93,59.54 10.64,59.41 10.40,59.21 10.15,59.01 9.96,58.76 9.77,58.51 9.64,58.22 9.51,57.93 8.86,56.70 8.21,55.48 7.31,52.39 6.41,49.31 5.75,44.55 5.09,39.79 4.20,33.94 3.31,28.08 2.58,21.77 1.85,15.47 1.50,10.23 1.14,4.99 1.14,1.69 1.14,-1.60 3.07,0.23 5.00,2.08 4.59,5.94 4.19,9.81 3.90,14.93 3.61,20.04 3.61,25.49 3.60,30.93 3.59,36.30 3.58,41.67 3.47,47.51 3.36,53.36 3.37,53.68 3.38,53.99 3.31,54.30 3.25,54.61 3.11,54.90 2.97,55.18 2.77,55.43 2.57,55.67 2.31,55.86 2.06,56.05 1.77,56.17 1.47,56.29 1.16,56.34 0.85,56.39 0.53,56.36 0.22,56.33 -0.07,56.23 -0.37,56.13 -0.64,55.96 -0.90,55.79 -1.12,55.56 -1.34,55.33 -1.50,55.05 -1.65,54.78 -1.74,54.47 -1.82,54.17 -1.91,54.16 -1.99,54.15 -2.43,51.67 -2.86,49.19 -3.76,44.82 -4.65,40.44 -5.37,35.00 -6.08,29.55 -6.39,23.51 -6.70,17.47 -6.02,12.32 -5.35,7.17 -3.91,3.14 -2.47,-0.88 -2.33,-1.16 -2.19,-1.44 -1.98,-1.69 -1.77,-1.93 -1.52,-2.11 -1.26,-2.30 -0.97,-2.41 -0.67,-2.53 -0.36,-2.58 -0.05,-2.62 0.26,-2.59 0.57,-2.56 0.87,-2.45 1.17,-2.34 1.43,-2.17 1.70,-1.99 1.91,-1.76 2.13,-1.53 2.28,-1.25 2.43,-0.97 2.51,-0.67 2.60,-0.36 2.60,-0.05 2.61,0.26 2.54,0.57 2.47,0.88 2.47,0.88 L 2.47,0.88 Z"></path></g><g transform="translate(182 140.51683998815716) rotate(0 18 21)" stroke="none"><path fill="#1e1e1e" d="M 2.57,-0.51 Q 2.57,-0.51 3.43,3.79 4.30,8.10 5.52,13.65 6.74,19.19 8.12,24.38 9.49,29.57 10.38,33.88 11.27,38.19 11.92,40.80 12.56,43.41 13.13,44.55 13.71,45.69 13.74,46.00 13.78,46.32 13.74,46.63 13.71,46.95 13.59,47.24 13.48,47.54 13.30,47.80 13.12,48.06 12.89,48.27 12.65,48.48 12.37,48.63 12.09,48.78 11.78,48.85 11.47,48.93 11.16,48.93 10.84,48.93 10.53,48.85 10.23,48.78 9.95,48.63 9.67,48.48 9.43,48.27 9.19,48.06 9.01,47.80 8.83,47.54 8.72,47.25 8.61,46.95 8.91,41.95 9.22,36.95 9.26,31.50 9.30,26.06 9.32,19.72 9.34,13.37 9.35,7.23 9.36,1.08 9.36,-3.25 9.36,-7.58 9.36,-7.99 9.37,-8.40 9.40,-8.71 9.44,-9.03 9.56,-9.32 9.67,-9.62 9.85,-9.88 10.03,-10.14 10.27,-10.35 10.50,-10.56 10.78,-10.70 11.06,-10.85 11.37,-10.93 11.68,-11.00 12.00,-11.00 12.31,-11.00 12.62,-10.93 12.93,-10.85 13.21,-10.70 13.49,-10.55 13.72,-10.34 13.96,-10.13 14.14,-9.87 14.32,-9.61 14.43,-9.32 14.54,-9.02 14.58,-8.71 14.62,-8.39 14.62,-4.54 14.62,-0.69 14.91,5.77 15.19,12.23 16.45,19.14 17.70,26.06 18.81,31.93 19.93,37.80 20.95,41.65 21.98,45.49 22.71,47.17 23.45,48.84 23.49,49.16 23.54,49.47 23.50,49.79 23.47,50.10 23.37,50.40 23.26,50.70 23.08,50.96 22.91,51.23 22.68,51.44 22.44,51.65 22.17,51.81 21.89,51.96 21.58,52.04 21.28,52.12 20.96,52.13 20.64,52.13 20.33,52.06 20.03,51.99 19.74,51.85 19.46,51.71 19.22,51.50 18.98,51.30 18.79,51.04 18.61,50.78 18.49,50.49 18.37,50.20 19.19,46.25 20.00,42.30 20.10,37.06 20.21,31.81 20.25,25.83 20.30,19.85 20.32,14.71 20.34,9.58 20.35,6.82 20.36,4.06 20.40,3.75 20.43,3.43 20.55,3.14 20.66,2.84 20.84,2.58 21.02,2.32 21.26,2.11 21.50,1.91 21.78,1.76 22.06,1.61 22.37,1.54 22.68,1.46 22.99,1.47 23.31,1.47 23.62,1.54 23.92,1.62 24.20,1.77 24.48,1.92 24.72,2.13 24.96,2.34 25.13,2.60 25.31,2.86 25.42,3.16 25.54,3.45 25.57,3.77 25.61,4.08 26.18,8.83 26.74,13.58 27.84,19.58 28.94,25.57 30.26,31.25 31.58,36.92 32.72,41.34 33.85,45.76 34.59,47.83 35.32,49.89 36.12,51.15 36.91,52.42 37.07,52.82 37.22,53.21 37.25,53.64 37.27,54.06 37.16,54.47 37.04,54.88 36.81,55.23 36.57,55.58 36.23,55.84 35.89,56.10 35.49,56.23 35.08,56.37 34.66,56.37 34.23,56.37 33.83,56.23 33.43,56.10 33.09,55.84 32.75,55.58 32.51,55.23 32.28,54.88 32.16,54.47 32.05,54.06 32.07,53.64 32.09,53.21 32.25,52.82 32.41,52.42 32.68,52.10 32.96,51.77 33.32,51.56 33.69,51.34 34.10,51.24 34.52,51.15 34.94,51.20 35.36,51.25 35.75,51.42 36.13,51.60 36.44,51.89 36.75,52.19 36.95,52.56 37.15,52.94 37.22,53.36 37.29,53.78 37.22,54.20 37.15,54.62 36.95,54.99 36.75,55.37 36.44,55.66 36.13,55.95 35.75,56.13 35.36,56.31 34.94,56.35 34.52,56.40 34.10,56.31 33.69,56.22 33.32,56.00 32.96,55.78 32.68,55.45 32.41,55.13 32.41,55.13 32.41,55.13 31.40,53.40 30.38,51.66 29.57,49.37 28.76,47.07 27.61,42.59 26.47,38.11 25.12,32.32 23.77,26.52 22.66,20.41 21.54,14.31 20.95,9.19 20.36,4.06 20.40,3.75 20.43,3.43 20.55,3.14 20.66,2.84 20.84,2.58 21.02,2.32 21.26,2.11 21.50,1.91 21.78,1.76 22.06,1.61 22.37,1.54 22.68,1.46 22.99,1.47 23.31,1.47 23.62,1.54 23.92,1.62 24.20,1.77 24.48,1.92 24.72,2.13 24.96,2.34 25.13,2.60 25.31,2.86 25.42,3.16 25.54,3.45 25.57,3.77 25.61,4.08 25.60,6.84 25.59,9.60 25.57,14.74 25.55,19.89 25.51,25.90 25.46,31.92 25.35,37.33 25.24,42.74 24.34,45.79 23.45,48.84 23.49,49.16 23.54,49.47 23.50,49.79 23.47,50.10 23.37,50.40 23.26,50.70 23.08,50.96 22.91,51.22 22.68,51.44 22.44,51.65 22.17,51.81 21.89,51.96 21.58,52.04 21.28,52.12 20.96,52.13 20.64,52.13 20.33,52.06 20.03,51.99 19.74,51.85 19.46,51.71 19.22,51.50 18.98,51.30 18.79,51.04 18.61,50.78 18.49,50.49 18.37,50.20 17.64,48.52 16.91,46.85 15.84,42.82 14.77,38.78 13.65,32.88 12.53,26.98 11.24,19.73 9.95,12.47 9.66,5.88 9.37,-0.69 9.37,-4.54 9.37,-8.40 9.40,-8.71 9.44,-9.02 9.56,-9.32 9.67,-9.62 9.85,-9.88 10.03,-10.14 10.27,-10.35 10.50,-10.56 10.78,-10.70 11.06,-10.85 11.37,-10.93 11.68,-11.00 11.99,-11.00 12.31,-11.00 12.62,-10.93 12.93,-10.85 13.21,-10.70 13.49,-10.56 13.72,-10.34 13.96,-10.13 14.14,-9.87 14.32,-9.61 14.43,-9.32 14.54,-9.02 14.58,-8.71 14.62,-8.39 14.62,-7.99 14.62,-7.58 14.61,-3.24 14.61,1.09 14.60,7.24 14.59,13.39 14.58,19.75 14.56,26.10 14.51,31.60 14.47,37.11 14.09,41.40 13.71,45.69 13.74,46.00 13.78,46.32 13.74,46.63 13.71,46.95 13.59,47.24 13.48,47.54 13.30,47.80 13.12,48.06 12.89,48.27 12.65,48.48 12.37,48.63 12.09,48.78 11.78,48.85 11.47,48.93 11.16,48.93 10.84,48.93 10.53,48.85 10.23,48.78 9.95,48.63 9.67,48.48 9.43,48.27 9.19,48.06 9.01,47.80 8.83,47.54 8.72,47.25 8.61,46.95 8.04,45.83 7.47,44.70 6.80,41.98 6.13,39.26 5.27,35.09 4.41,30.92 3.01,25.62 1.61,20.33 0.38,14.73 -0.85,9.14 -1.71,4.82 -2.57,0.51 -2.59,0.19 -2.62,-0.11 -2.57,-0.42 -2.51,-0.74 -2.39,-1.03 -2.26,-1.32 -2.07,-1.57 -1.88,-1.82 -1.64,-2.02 -1.39,-2.22 -1.10,-2.36 -0.82,-2.49 -0.51,-2.55 -0.20,-2.61 0.11,-2.60 0.43,-2.59 0.73,-2.50 1.03,-2.41 1.31,-2.25 1.58,-2.09 1.81,-1.87 2.04,-1.65 2.20,-1.38 2.37,-1.11 2.47,-0.81 2.57,-0.51 2.57,-0.51 L 2.57,-0.51 Z"></path></g><g transform="translate(219 158.51683998815716) rotate(0 39.5 2)" stroke="none"><path fill="#1e1e1e" d="M 1.17,-2.34 Q 1.17,-2.34 5.19,-0.33 9.22,1.67 11.59,1.55 13.96,1.42 14.25,-1.66 14.54,-4.75 13.40,-8.09 12.27,-11.42 10.58,-13.51 8.89,-15.59 6.73,-9.43 4.57,-3.28 5.16,3.23 5.75,9.74 7.37,15.23 9.00,20.71 9.60,23.01 10.20,25.31 11.32,20.33 12.45,15.36 12.42,8.43 12.40,1.49 12.10,-4.91 11.81,-11.32 11.68,-16.39 11.55,-21.47 11.93,-24.89 12.31,-28.30 13.71,-29.31 15.10,-30.31 15.17,-30.62 15.23,-30.93 15.36,-31.22 15.50,-31.50 15.70,-31.75 15.90,-31.99 16.15,-32.19 16.40,-32.38 16.69,-32.50 16.98,-32.63 17.30,-32.68 17.61,-32.73 17.93,-32.70 18.24,-32.68 18.54,-32.58 18.84,-32.48 19.11,-32.31 19.38,-32.14 19.60,-31.92 19.82,-31.69 19.98,-31.42 20.14,-31.14 20.23,-30.84 20.31,-30.53 20.33,-30.22 20.34,-29.90 22.22,-27.52 24.11,-25.14 26.27,-19.51 28.44,-13.88 29.65,-8.24 30.86,-2.60 31.65,2.96 32.45,8.53 32.78,13.56 33.12,18.59 32.08,23.08 31.03,27.57 29.64,30.44 28.25,33.32 27.42,34.42 26.58,35.52 26.41,35.79 26.24,36.05 26.01,36.27 25.77,36.48 25.50,36.64 25.22,36.79 24.91,36.87 24.61,36.96 24.29,36.96 23.98,36.97 23.67,36.90 23.36,36.83 23.07,36.69 22.79,36.55 22.55,36.35 22.31,36.14 22.12,35.89 21.93,35.63 21.82,35.34 21.70,35.05 21.65,34.73 21.61,34.42 21.64,34.10 21.67,33.79 21.77,33.49 21.88,33.19 22.73,28.41 23.58,23.62 25.86,16.85 28.15,10.09 30.89,3.95 33.63,-2.18 36.93,-6.71 40.24,-11.25 44.16,-14.20 48.07,-17.15 52.48,-19.02 56.89,-20.89 60.91,-21.69 64.92,-22.50 67.47,-22.82 70.02,-23.14 72.45,-23.55 74.88,-23.97 75.31,-23.97 75.73,-23.97 76.14,-23.84 76.54,-23.70 76.88,-23.45 77.22,-23.19 77.46,-22.84 77.70,-22.49 77.82,-22.08 77.93,-21.67 77.91,-21.25 77.89,-20.82 77.73,-20.43 77.58,-20.03 77.30,-19.71 77.03,-19.38 76.67,-19.16 76.30,-18.94 75.89,-18.85 75.48,-18.75 75.05,-18.80 74.63,-18.84 74.24,-19.02 73.86,-19.19 73.55,-19.49 73.24,-19.78 73.04,-20.15 72.84,-20.53 72.77,-20.94 72.69,-21.36 72.76,-21.78 72.83,-22.20 73.03,-22.58 73.22,-22.96 73.53,-23.25 73.84,-23.54 74.22,-23.72 74.61,-23.90 75.03,-23.95 75.45,-24.00 75.87,-23.91 76.28,-23.82 76.65,-23.60 77.01,-23.38 77.29,-23.06 77.57,-22.74 77.73,-22.35 77.88,-21.95 77.91,-21.53 77.93,-21.10 77.82,-20.69 77.71,-20.28 77.47,-19.93 77.24,-19.58 76.90,-19.32 76.56,-19.06 76.16,-18.92 75.76,-18.79 75.76,-18.79 75.76,-18.79 73.22,-18.36 70.68,-17.93 68.30,-17.63 65.92,-17.34 62.40,-16.68 58.88,-16.03 55.02,-14.47 51.15,-12.91 47.79,-10.49 44.42,-8.08 41.41,-4.05 38.41,-0.01 35.77,5.87 33.12,11.77 30.87,18.45 28.61,25.12 27.60,30.32 26.58,35.52 26.41,35.79 26.24,36.05 26.01,36.27 25.77,36.48 25.50,36.64 25.22,36.79 24.91,36.87 24.61,36.96 24.29,36.96 23.98,36.97 23.67,36.90 23.36,36.83 23.07,36.69 22.79,36.55 22.55,36.35 22.31,36.14 22.12,35.89 21.93,35.63 21.82,35.34 21.70,35.05 21.65,34.73 21.61,34.42 21.64,34.10 21.67,33.79 21.77,33.49 21.88,33.19 22.72,32.08 23.56,30.97 24.75,28.63 25.94,26.29 26.92,22.58 27.89,18.87 27.57,14.07 27.24,9.26 26.48,3.87 25.72,-1.51 24.62,-6.77 23.52,-12.03 21.61,-17.16 19.70,-22.29 17.40,-26.30 15.10,-30.31 15.17,-30.62 15.23,-30.93 15.36,-31.22 15.50,-31.50 15.70,-31.75 15.90,-31.99 16.15,-32.19 16.40,-32.38 16.69,-32.50 16.98,-32.63 17.30,-32.68 17.61,-32.73 17.93,-32.70 18.24,-32.68 18.54,-32.58 18.84,-32.48 19.11,-32.31 19.38,-32.14 19.60,-31.92 19.82,-31.69 19.98,-31.42 20.14,-31.14 20.23,-30.84 20.31,-30.53 20.33,-30.22 20.34,-29.90 18.66,-28.35 16.98,-26.79 16.89,-24.20 16.81,-21.60 16.93,-16.58 17.06,-11.56 17.35,-5.03 17.65,1.48 17.66,8.74 17.67,15.99 16.64,21.75 15.61,27.50 13.52,28.63 11.42,29.75 7.71,26.01 4.00,22.27 2.26,16.24 0.52,10.22 -0.06,3.18 -0.64,-3.84 0.21,-10.18 1.07,-16.52 2.94,-18.81 4.80,-21.10 8.82,-20.03 12.84,-18.97 15.04,-16.02 17.24,-13.07 18.47,-8.62 19.71,-4.18 18.83,0.20 17.94,4.59 15.88,6.24 13.82,7.88 10.35,7.13 6.87,6.37 2.85,4.36 -1.17,2.34 -1.43,2.17 -1.70,1.99 -1.91,1.76 -2.13,1.53 -2.28,1.25 -2.43,0.97 -2.51,0.67 -2.60,0.36 -2.60,0.05 -2.61,-0.26 -2.54,-0.57 -2.47,-0.88 -2.33,-1.16 -2.19,-1.44 -1.98,-1.69 -1.78,-1.93 -1.52,-2.11 -1.26,-2.30 -0.97,-2.41 -0.67,-2.53 -0.36,-2.58 -0.05,-2.62 0.26,-2.59 0.57,-2.56 0.87,-2.45 1.17,-2.34 1.17,-2.34 L 1.17,-2.34 Z"></path></g><g stroke-linecap="round"><g transform="translate(48 10.516839988157159) rotate(0 67.5 7)"><path d="M0.42 -0.52 C22.96 2.16, 112.34 12.53, 134.62 14.91 M-0.82 1.83 C21.59 4.28, 110.58 11.07, 133.47 13.26" stroke="#1e1e1e" stroke-width="2" fill="none"></path></g><g transform="translate(48 10.516839988157159) rotate(0 67.5 7)"><path d="M104.51 21.09 C110.91 18.41, 120.47 15.62, 133.47 13.26 M104.51 21.09 C112.3 18.4, 120.26 17.28, 133.47 13.26" stroke="#1e1e1e" stroke-width="2" fill="none"></path></g><g transform="translate(48 10.516839988157159) rotate(0 67.5 7)"><path d="M106.25 0.65 C112.02 3.04, 121.14 5.32, 133.47 13.26 M106.25 0.65 C113.75 3.69, 121.22 8.32, 133.47 13.26" stroke="#1e1e1e" stroke-width="2" fill="none"></path></g></g><mask></mask><g stroke-linecap="round"><g transform="translate(77 374.51683998815713) rotate(0 47 -59)"><path d="M0.4 -0.7 C15.93 -20.14, 78.51 -98, 94.3 -117.69 M-0.84 1.55 C14.45 -18.18, 77.54 -99.73, 93.51 -119.65" stroke="#1e1e1e" stroke-width="2" fill="none"></path></g><g transform="translate(77 374.51683998815713) rotate(0 47 -59)"><path d="M84.17 -91.15 C86.95 -101.93, 92.31 -111.81, 93.51 -119.65 M84.17 -91.15 C85.9 -98.14, 88.23 -105.19, 93.51 -119.65" stroke="#1e1e1e" stroke-width="2" fill="none"></path></g><g transform="translate(77 374.51683998815713) rotate(0 47 -59)"><path d="M68.03 -103.82 C77.07 -109.66, 88.8 -114.53, 93.51 -119.65 M68.03 -103.82 C73.51 -108, 79.56 -112.14, 93.51 -119.65" stroke="#1e1e1e" stroke-width="2" fill="none"></path></g></g><mask></mask></svg>