<svg version="1.1" xmlns="http://www.w3.org/2000/svg" viewBox="0 0 1568.1155306909768 823" width="3136.2310613819536" height="1646">
  <!-- svg-source:excalidraw -->
  
  <defs>
    <style class="style-fonts">
      @font-face {
        font-family: "Virgil";
        src: url("https://unpkg.com/@excalidraw/excalidraw@undefined/dist/excalidraw-assets/Virgil.woff2");
      }
      @font-face {
        font-family: "Cascadia";
        src: url("https://unpkg.com/@excalidraw/excalidraw@undefined/dist/excalidraw-assets/Cascadia.woff2");
      }
      @font-face {
        font-family: "Assistant";
        src: url("https://unpkg.com/@excalidraw/excalidraw@undefined/dist/excalidraw-assets/Assistant-Regular.woff2");
      }
    </style>
    
  </defs>
  <rect x="0" y="0" width="1568.1155306909768" height="823" fill="#fdf8f6"></rect><g stroke-linecap="round"><g transform="translate(731.5696375917339 276.3687399737537) rotate(0 -0.666656494140625 137.3333282470703)"><path d="M0.74 0.97 C0.49 46.88, -0.98 229.67, -1.31 275.48 M-0.34 0.44 C-0.75 46, -1.97 228.17, -2.25 273.78" stroke="#1e1e1e" stroke-width="2" fill="none"></path></g></g><mask></mask><g stroke-linecap="round"><g transform="translate(802.2363246034527 282.3687399737537) rotate(0 0 131.6666717529297)"><path d="M0.77 -0.67 C0.63 43.47, -0.24 220.42, -0.23 264.37 M-0.28 1.6 C-0.65 45.46, -1.43 219.03, -1.3 262.8" stroke="#1e1e1e" stroke-width="2" fill="none"></path></g></g><mask></mask><g stroke-linecap="round"><g transform="translate(628.9029505800152 364.3687399737537) rotate(0 158 -0.6666717529296875)"><path d="M0.85 0.21 C53.48 -0.16, 262.59 -1.27, 315.27 -1.51 M-0.17 -0.72 C52.89 -0.98, 264.8 -0.21, 317.59 -0.07" stroke="#1e1e1e" stroke-width="2" fill="none"></path></g></g><mask></mask><g stroke-linecap="round"><g transform="translate(641.5696375917339 445.70208347961307) rotate(0 151.66665649414062 1)"><path d="M1.04 -0.25 C51.63 0.19, 253.99 1.88, 304.19 2.38 M0.12 -1.43 C50.58 -1.33, 252.95 0.09, 303.7 0.46" stroke="#1e1e1e" stroke-width="2" fill="none"></path></g></g><mask></mask><g transform="translate(680.2363246034527 199.70208347961307) rotate(0 86.41939544677734 23.5)"><text x="0" y="0" font-family="Virgil, Segoe UI Emoji" font-size="37.60000000000001px" fill="#1e1e1e" text-anchor="start" style="white-space: pre;" direction="ltr" dominant-baseline="text-before-edge">Your turn</text></g><g stroke-linecap="round" transform="translate(658.2362635682964 290.3687704913318) rotate(0 28.666656494140625 29.666656494140625)"><path d="M41.07 2.43 C46.55 4.79, 51.14 11.45, 53.64 17.25 C56.13 23.05, 57.4 31.34, 56.03 37.24 C54.65 43.13, 50.36 49.04, 45.37 52.62 C40.37 56.19, 32.04 59.05, 26.06 58.69 C20.09 58.33, 13.85 54.77, 9.49 50.45 C5.14 46.13, 0.73 38.92, -0.07 32.78 C-0.87 26.65, 1.29 18.94, 4.68 13.63 C8.07 8.31, 13.45 2.03, 20.26 0.9 C27.07 -0.22, 40.35 5.2, 45.52 6.9 C50.69 8.6, 51.35 10.83, 51.29 11.1 M39.56 2.88 C45.12 5.16, 51.26 11.97, 54.22 17.41 C57.17 22.85, 58.68 29.36, 57.29 35.52 C55.9 41.69, 51.14 50.68, 45.88 54.41 C40.63 58.15, 32.18 58.6, 25.76 57.91 C19.34 57.22, 11.64 54.34, 7.37 50.27 C3.1 46.2, 0.71 39.94, 0.14 33.52 C-0.42 27.09, 0.54 16.95, 3.96 11.72 C7.38 6.49, 14.41 3.42, 20.66 2.12 C26.92 0.81, 38.17 3.72, 41.49 3.88 C44.81 4.04, 41.15 2.71, 40.6 3.08" stroke="#1971c2" stroke-width="2" fill="none"></path></g><g stroke-linecap="round"><g transform="translate(738.2919785064025 370.10037359957323) rotate(0 27.053469123928892 34.93728406228661)"><path d="M0.28 -1 C9.06 10.66, 44.45 58.76, 53.34 70.77 M-1.04 1.1 C8.08 12.34, 46.71 57.74, 55.65 69.11" stroke="#e03131" stroke-width="2" fill="none"></path></g></g><mask></mask><g stroke-linecap="round"><g transform="translate(727.6433534681345 430.8106151773595) rotate(0 39.885959565646374 -26.644374560190727)"><path d="M0.78 -0.88 C14.25 -9.62, 67.09 -44.36, 80.34 -52.93 M-0.26 1.28 C13.13 -7.79, 66.35 -45.63, 79.68 -54.87" stroke="#e03131" stroke-width="2" fill="none"></path></g></g><mask></mask><g transform="translate(717.6154696558206 156.15457528308025) rotate(0 53.06996154785156 12.5)"><text x="0" y="0" font-family="Virgil, Segoe UI Emoji" font-size="20px" fill="#1e1e1e" text-anchor="start" style="white-space: pre;" direction="ltr" dominant-baseline="text-before-edge">Not fair :/</text></g><g stroke-linecap="round" transform="translate(819.6155306909768 291.714164690673) rotate(0 39.333343505859375 29.333328247070312)"><path d="M20.51 2.74 C26.88 -0.02, 38.46 -0.36, 46.08 0.48 C53.69 1.32, 60.76 3.86, 66.2 7.77 C71.63 11.68, 77.46 18.06, 78.68 23.93 C79.9 29.81, 76.99 37.61, 73.53 43.03 C70.07 48.44, 64.51 53.83, 57.92 56.41 C51.32 58.99, 41.68 59.43, 33.95 58.49 C26.22 57.54, 17 54.94, 11.55 50.75 C6.11 46.55, 2.45 39.12, 1.28 33.33 C0.1 27.54, 0.39 21.28, 4.51 16.01 C8.62 10.75, 21.96 4.11, 25.97 1.73 C29.98 -0.66, 28.58 1.32, 28.59 1.7 M27.9 2.67 C34.27 0.55, 42.7 -0.92, 50.03 0.75 C57.36 2.43, 66.92 7.99, 71.89 12.72 C76.86 17.46, 79.77 23.6, 79.85 29.15 C79.92 34.69, 76.94 41.07, 72.35 45.98 C67.76 50.9, 59.74 56.72, 52.31 58.63 C44.89 60.53, 35.46 59.23, 27.81 57.42 C20.16 55.61, 11.14 52.65, 6.41 47.77 C1.69 42.9, -0.7 33.94, -0.56 28.19 C-0.42 22.43, 2.85 17.92, 7.25 13.25 C11.66 8.57, 22.54 1.78, 25.87 0.14 C29.2 -1.51, 26.68 2.57, 27.22 3.37" stroke="#1971c2" stroke-width="2" fill="none"></path></g><g stroke-linecap="round" transform="translate(748.9489047144143 295.714164690673) rotate(0 22 26.333328247070312)"><path d="M11.7 3.34 C15.38 0.81, 22.26 0.24, 26.91 1.34 C31.56 2.45, 36.87 5.58, 39.58 9.97 C42.29 14.36, 43.39 22.01, 43.19 27.69 C43 33.36, 41.61 39.92, 38.4 44.03 C35.2 48.15, 28.79 51.65, 23.97 52.4 C19.15 53.15, 13.41 51.73, 9.49 48.54 C5.57 45.34, 1.85 38.6, 0.46 33.21 C-0.92 27.82, -1.16 21.54, 1.19 16.18 C3.55 10.83, 12.01 3.53, 14.58 1.07 C17.15 -1.39, 16.42 0.99, 16.61 1.44 M19.88 0.91 C24.57 -0.16, 31.46 0.27, 35.4 3.5 C39.35 6.73, 42.63 14.86, 43.56 20.29 C44.49 25.72, 43.25 31.24, 40.97 36.09 C38.69 40.94, 33.99 46.68, 29.88 49.41 C25.77 52.13, 20.76 54.01, 16.3 52.45 C11.83 50.89, 5.79 44.61, 3.09 40.03 C0.38 35.46, -0.72 30.16, 0.05 25 C0.81 19.84, 4.23 13.22, 7.66 9.07 C11.09 4.92, 18.71 1.36, 20.63 0.11 C22.55 -1.15, 19.29 1.12, 19.18 1.53" stroke="#1971c2" stroke-width="2" fill="none"></path></g><g stroke-linecap="round"><g transform="translate(634.2822177026956 311.714164690673) rotate(0 143.66665649414062 2.666656494140625)"><path d="M0.88 1.18 C48.76 2.1, 238.47 4.72, 286.34 5.49 M-0.12 0.76 C48.21 1.9, 240.56 6.61, 288.53 7.11" stroke="#e03131" stroke-width="2" fill="none"></path></g></g><mask></mask><g stroke-linecap="round"><g transform="translate(634.9489047144143 329.04747767895424) rotate(0 144.66665649414062 1.6666717529296875)"><path d="M0 0.09 C48.34 0.8, 241.26 3.56, 289.55 3.91 M-1.46 -0.9 C46.79 -0.53, 240.28 1.45, 288.72 2.1" stroke="#e03131" stroke-width="2" fill="none"></path></g></g><mask></mask><g stroke-linecap="round"><g transform="translate(971.1155306909768 78) rotate(0 -1 2)"><path d="M0.26 -0.17 C-0.04 0.52, -1.38 3.25, -1.81 3.9 M-0.04 0.5 C-0.37 1.27, -1.72 3.73, -1.99 4.31" stroke="#1e1e1e" stroke-width="2" fill="none"></path></g></g><mask></mask><g transform="translate(1046.1155306909768 158) rotate(0 17 72)" stroke="none"><path fill="#1e1e1e" d="M 3.35,-0.47 Q 3.35,-0.47 3.87,3.55 4.39,7.58 4.85,16.33 5.30,25.08 5.18,36.03 5.06,46.98 3.54,60.08 2.02,73.18 -0.37,85.68 -2.77,98.18 -4.65,107.21 -6.54,116.24 -7.64,121.50 -8.74,126.76 -8.84,127.07 -8.94,127.38 -9.12,127.66 -9.30,127.94 -9.53,128.16 -9.77,128.39 -10.06,128.55 -10.34,128.72 -10.66,128.81 -10.97,128.90 -11.30,128.91 -11.63,128.92 -11.95,128.86 -12.27,128.79 -12.57,128.65 -12.86,128.51 -13.12,128.30 -13.37,128.09 -13.57,127.83 -13.76,127.57 -13.89,127.26 -14.02,126.96 -14.07,126.64 -14.12,126.31 -14.09,125.99 -14.07,125.66 -13.28,121.95 -12.50,118.23 -10.55,112.17 -8.60,106.11 -6.29,99.75 -3.99,93.38 -1.23,87.69 1.53,82.00 3.53,78.81 5.53,75.63 7.89,73.49 10.24,71.36 13.26,71.79 16.28,72.22 18.83,76.92 21.38,81.63 23.85,88.05 26.31,94.48 29.03,101.81 31.76,109.13 34.05,115.73 36.34,122.32 38.40,127.03 40.46,131.73 41.83,134.25 43.21,136.76 44.28,137.61 45.35,138.46 45.97,138.39 46.59,138.32 47.20,138.45 47.80,138.58 48.34,138.90 48.87,139.22 49.28,139.70 49.68,140.17 49.92,140.75 50.15,141.33 50.18,141.95 50.22,142.57 50.06,143.17 49.89,143.77 49.54,144.29 49.19,144.81 48.70,145.18 48.20,145.56 47.61,145.76 47.02,145.96 46.40,145.97 45.78,145.97 45.19,145.77 44.60,145.57 44.10,145.20 43.60,144.82 43.25,144.31 42.90,143.79 42.73,143.19 42.56,142.59 42.59,141.97 42.63,141.35 42.85,140.77 43.08,140.19 43.49,139.71 43.89,139.24 44.42,138.91 44.95,138.59 45.56,138.46 46.17,138.32 46.79,138.38 47.41,138.45 47.98,138.71 48.54,138.97 49.00,139.40 49.45,139.83 49.74,140.37 50.04,140.92 50.14,141.54 50.24,142.15 50.14,142.77 50.04,143.38 49.75,143.94 49.46,144.49 49.01,144.92 48.56,145.35 48.00,145.61 47.43,145.87 47.43,145.87 47.43,145.87 42.33,142.69 37.24,139.51 36.21,136.80 35.19,134.09 32.96,129.21 30.73,124.33 28.34,117.85 25.95,111.37 23.07,104.16 20.20,96.95 17.60,90.82 15.00,84.69 12.77,81.87 10.54,79.05 8.54,81.74 6.54,84.43 3.95,89.86 1.36,95.29 -0.81,101.57 -3.00,107.85 -4.84,113.94 -6.68,120.04 -7.71,123.40 -8.74,126.76 -8.84,127.07 -8.94,127.38 -9.12,127.66 -9.30,127.94 -9.53,128.16 -9.77,128.39 -10.06,128.55 -10.34,128.72 -10.66,128.81 -10.97,128.90 -11.30,128.91 -11.63,128.92 -11.95,128.86 -12.27,128.79 -12.57,128.65 -12.86,128.51 -13.12,128.30 -13.37,128.09 -13.57,127.83 -13.76,127.57 -13.89,127.26 -14.02,126.96 -14.07,126.64 -14.12,126.31 -14.09,125.99 -14.07,125.66 -13.01,120.39 -11.95,115.12 -10.12,106.13 -8.29,97.14 -5.99,84.83 -3.69,72.53 -2.28,59.74 -0.88,46.94 -0.88,36.20 -0.88,25.46 -1.48,16.98 -2.09,8.51 -2.72,4.49 -3.35,0.47 -3.36,0.07 -3.37,-0.33 -3.28,-0.73 -3.19,-1.13 -3.01,-1.50 -2.83,-1.86 -2.56,-2.17 -2.30,-2.49 -1.97,-2.73 -1.63,-2.97 -1.26,-3.12 -0.88,-3.27 -0.47,-3.33 -0.07,-3.39 0.33,-3.35 0.74,-3.31 1.12,-3.17 1.51,-3.03 1.85,-2.81 2.19,-2.58 2.47,-2.28 2.75,-1.98 2.94,-1.62 3.14,-1.26 3.25,-0.87 3.35,-0.47 3.35,-0.47 L 3.35,-0.47 Z"></path></g><g transform="translate(1100.1155306909768 276) rotate(0 20 -0.5)" stroke="none"><path fill="#1e1e1e" d="M 0,-4.95 Q 0,-4.95 3.15,-4.90 6.30,-4.86 8.47,-5.33 10.63,-5.80 13.49,-9.36 16.35,-12.91 16.48,-16.26 16.61,-19.62 16.21,-16.33 15.80,-13.04 15.11,-9.15 14.42,-5.26 14.04,-1.46 13.66,2.34 13.48,5.98 13.31,9.62 13.23,13.16 13.15,16.71 15.84,17.87 18.52,19.04 20.66,18.15 22.80,17.26 24.55,15.53 26.31,13.80 28.68,11.19 31.04,8.58 33.21,5.56 35.37,2.54 35.90,2.04 36.44,1.54 37.11,1.23 37.78,0.93 38.52,0.85 39.25,0.78 39.97,0.94 40.68,1.10 41.31,1.49 41.94,1.87 42.42,2.44 42.89,3.00 43.16,3.69 43.42,4.37 43.46,5.11 43.49,5.84 43.29,6.55 43.09,7.26 42.67,7.87 42.26,8.47 41.67,8.92 41.08,9.36 40.38,9.59 39.68,9.82 38.94,9.81 38.21,9.81 37.51,9.57 36.81,9.33 36.23,8.88 35.65,8.43 35.24,7.82 34.83,7.21 34.64,6.50 34.44,5.78 34.49,5.05 34.53,4.31 34.81,3.63 35.09,2.95 35.57,2.39 36.05,1.83 36.68,1.46 37.32,1.08 38.04,0.93 38.76,0.78 39.49,0.86 40.22,0.94 40.89,1.26 41.55,1.57 42.08,2.08 42.61,2.59 42.96,3.24 43.30,3.90 43.41,4.63 43.52,5.35 43.40,6.08 43.28,6.80 42.93,7.45 42.58,8.10 42.58,8.10 42.58,8.10 40.10,11.11 37.62,14.11 35.04,17.38 32.45,20.66 29.32,23.30 26.18,25.95 22.22,27.24 18.26,28.52 14.82,28.02 11.37,27.52 8.95,25.40 6.53,23.28 5.73,19.98 4.94,16.69 4.93,13.06 4.91,9.44 4.90,5.68 4.89,1.93 4.88,-2.19 4.87,-6.32 5.06,-10.28 5.24,-14.23 5.69,-18.11 6.14,-22.00 8.04,-25.02 9.94,-28.05 13.06,-28.96 16.18,-29.88 19.37,-28.47 22.56,-27.06 24.32,-24.25 26.09,-21.44 26.27,-18.05 26.45,-14.67 25.31,-11.09 24.16,-7.51 21.93,-4.46 19.69,-1.41 16.41,1.04 13.13,3.50 9.74,4.18 6.34,4.86 3.17,4.90 0,4.95 -0.59,4.88 -1.18,4.81 -1.74,4.60 -2.30,4.39 -2.79,4.05 -3.28,3.71 -3.68,3.26 -4.08,2.81 -4.35,2.28 -4.63,1.75 -4.77,1.17 -4.92,0.59 -4.92,-0.00 -4.92,-0.59 -4.77,-1.17 -4.63,-1.75 -4.35,-2.28 -4.08,-2.81 -3.68,-3.26 -3.28,-3.71 -2.79,-4.05 -2.30,-4.39 -1.74,-4.60 -1.18,-4.81 -0.59,-4.88 0.00,-4.95 0.00,-4.95 L 0,-4.95 Z"></path></g><g transform="translate(1172.1155306909768 196) rotate(0 1 52)" stroke="none"><path fill="#1e1e1e" d="M 3.70,0 Q 3.70,0 3.62,4.02 3.53,8.04 3.41,14.93 3.28,21.82 2.90,30.26 2.53,38.70 1.76,47.79 0.99,56.88 0.07,65.07 -0.84,73.25 -1.53,79.58 -2.23,85.92 -2.50,89.99 -2.78,94.06 -2.12,96.31 -1.46,98.56 1.38,95.90 4.22,93.23 4.84,92.84 5.47,92.44 6.19,92.26 6.90,92.08 7.64,92.14 8.38,92.20 9.06,92.49 9.74,92.78 10.29,93.28 10.84,93.77 11.21,94.42 11.57,95.06 11.71,95.79 11.85,96.52 11.75,97.25 11.65,97.98 11.32,98.65 10.99,99.31 10.47,99.83 9.95,100.36 9.28,100.69 8.62,101.02 7.89,101.12 7.15,101.22 6.43,101.08 5.70,100.94 5.05,100.57 4.41,100.21 3.91,99.66 3.42,99.11 3.13,98.43 2.83,97.75 2.77,97.01 2.71,96.27 2.89,95.55 3.07,94.83 3.47,94.21 3.87,93.58 4.45,93.12 5.02,92.66 5.72,92.40 6.41,92.15 7.15,92.13 7.89,92.10 8.60,92.32 9.31,92.54 9.91,92.97 10.51,93.40 10.94,94.00 11.38,94.61 11.59,95.31 11.81,96.02 11.79,96.76 11.77,97.50 11.52,98.20 11.26,98.89 10.80,99.47 10.33,100.05 10.33,100.05 10.33,100.05 8.61,101.47 6.89,102.90 3.79,104.97 0.69,107.03 -1.92,106.59 -4.54,106.14 -6.21,102.92 -7.88,99.69 -8.14,96.70 -8.39,93.72 -8.10,89.53 -7.82,85.33 -7.20,78.99 -6.57,72.64 -5.75,64.53 -4.93,56.42 -4.30,47.45 -3.68,38.49 -3.48,30.15 -3.28,21.82 -3.41,14.93 -3.53,8.04 -3.62,4.02 -3.70,0 -3.65,-0.44 -3.59,-0.88 -3.44,-1.30 -3.28,-1.72 -3.02,-2.09 -2.77,-2.45 -2.44,-2.75 -2.10,-3.05 -1.71,-3.25 -1.31,-3.46 -0.88,-3.57 -0.44,-3.68 0.00,-3.68 0.44,-3.68 0.88,-3.57 1.31,-3.46 1.71,-3.25 2.10,-3.05 2.44,-2.75 2.77,-2.45 3.02,-2.09 3.28,-1.72 3.44,-1.30 3.60,-0.88 3.65,-0.44 3.70,0.00 3.70,0.00 L 3.70,0 Z"></path></g><g transform="translate(1193.1155306909768 209) rotate(0 4 48)" stroke="none"><path fill="#1e1e1e" d="M 3.36,-1.22 Q 3.36,-1.22 4.57,1.92 5.78,5.07 6.51,11.12 7.23,17.17 7.47,24.33 7.71,31.49 7.77,38.54 7.83,45.58 7.55,52.09 7.26,58.60 6.83,64.53 6.41,70.47 6.21,74.94 6.02,79.42 6.06,83.04 6.10,86.66 6.55,89.17 7.01,91.67 7.88,92.40 8.76,93.13 9.32,93.42 9.88,93.72 10.31,94.18 10.75,94.64 11.02,95.21 11.28,95.79 11.35,96.42 11.42,97.04 11.28,97.66 11.15,98.28 10.82,98.82 10.49,99.36 10.01,99.77 9.53,100.18 8.94,100.42 8.35,100.65 7.72,100.69 7.09,100.72 6.48,100.55 5.87,100.38 5.35,100.03 4.82,99.67 4.44,99.17 4.06,98.66 3.85,98.06 3.65,97.46 3.65,96.83 3.65,96.20 3.85,95.60 4.06,95.00 4.44,94.50 4.82,93.99 5.35,93.64 5.87,93.28 6.48,93.11 7.09,92.94 7.72,92.98 8.35,93.01 8.94,93.25 9.53,93.48 10.01,93.89 10.49,94.30 10.82,94.84 11.15,95.39 11.28,96.00 11.42,96.62 11.35,97.25 11.28,97.88 11.01,98.45 10.75,99.03 10.31,99.49 9.88,99.95 9.32,100.24 8.76,100.54 8.14,100.64 7.51,100.74 6.89,100.64 6.26,100.54 6.26,100.54 6.26,100.54 3.24,96.44 0.22,92.34 0.16,89.45 0.10,86.55 0.27,82.88 0.45,79.22 0.59,74.66 0.72,70.10 1.06,64.24 1.40,58.39 1.57,52.05 1.74,45.71 1.53,38.75 1.31,31.79 0.88,24.94 0.46,18.10 -0.36,12.83 -1.18,7.57 -2.27,4.39 -3.36,1.22 -3.46,0.80 -3.56,0.38 -3.55,-0.04 -3.55,-0.48 -3.44,-0.89 -3.33,-1.31 -3.12,-1.69 -2.92,-2.07 -2.62,-2.39 -2.33,-2.71 -1.98,-2.95 -1.62,-3.19 -1.21,-3.34 -0.80,-3.49 -0.38,-3.53 0.04,-3.58 0.47,-3.52 0.90,-3.46 1.30,-3.30 1.70,-3.14 2.06,-2.89 2.41,-2.64 2.69,-2.32 2.97,-1.99 3.17,-1.60 3.36,-1.22 3.36,-1.22 L 3.36,-1.22 Z"></path></g><g transform="translate(1234.1155306909768 271) rotate(0 -3.5 17)" stroke="none"><path fill="#1e1e1e" d="M -1.30,4.57 Q -1.30,4.57 -2.94,4.05 -4.57,3.54 -5.59,5.63 -6.60,7.71 -7.65,10.54 -8.70,13.37 -9.20,16.43 -9.70,19.48 -9.92,22.50 -10.14,25.52 -9.65,27.76 -9.17,30.00 -7.39,31.58 -5.60,33.15 -3.40,32.87 -1.20,32.60 0.10,29.31 1.41,26.02 2.05,22.65 2.69,19.28 2.58,15.17 2.48,11.06 1.57,8.11 0.66,5.15 -0.50,3.37 -1.68,1.58 -4.16,0.97 -6.64,0.36 -9.90,1.53 -13.16,2.70 -13.97,2.74 -14.78,2.78 -15.55,2.55 -16.33,2.33 -16.99,1.87 -17.65,1.41 -18.13,0.76 -18.61,0.11 -18.86,-0.64 -19.11,-1.41 -19.10,-2.22 -19.10,-3.02 -18.83,-3.78 -18.56,-4.55 -18.07,-5.18 -17.58,-5.82 -16.90,-6.26 -16.23,-6.71 -15.45,-6.92 -14.67,-7.13 -13.87,-7.07 -13.06,-7.02 -12.32,-6.71 -11.57,-6.41 -10.96,-5.88 -10.35,-5.35 -9.94,-4.66 -9.54,-3.96 -9.37,-3.17 -9.21,-2.38 -9.30,-1.58 -9.40,-0.78 -9.74,-0.05 -10.09,0.67 -10.65,1.25 -11.21,1.83 -11.93,2.20 -12.64,2.57 -13.44,2.69 -14.24,2.81 -15.03,2.67 -15.83,2.53 -16.54,2.15 -17.24,1.76 -17.79,1.17 -18.34,0.58 -18.67,-0.15 -19.00,-0.88 -19.08,-1.68 -19.16,-2.49 -18.98,-3.27 -18.80,-4.06 -18.37,-4.75 -17.95,-5.43 -17.33,-5.95 -16.71,-6.46 -15.96,-6.75 -15.20,-7.04 -15.21,-7.04 -15.21,-7.04 -13.49,-7.33 -11.77,-7.62 -8.37,-8.19 -4.96,-8.77 -1.94,-7.78 1.07,-6.79 3.28,-4.79 5.49,-2.79 6.90,0.01 8.31,2.82 9.42,6.62 10.53,10.42 11.11,15.44 11.69,20.47 11.24,25.05 10.79,29.63 9.06,33.82 7.34,38.02 4.48,40.25 1.63,42.47 -1.39,42.86 -4.42,43.26 -7.78,42.33 -11.13,41.41 -13.41,39.38 -15.69,37.36 -16.97,34.53 -18.26,31.71 -18.74,28.34 -19.22,24.98 -19.01,21.58 -18.80,18.18 -18.30,14.25 -17.80,10.32 -16.48,6.18 -15.17,2.04 -12.80,-0.83 -10.44,-3.71 -6.95,-4.77 -3.47,-5.84 -1.08,-5.20 1.30,-4.57 1.83,-4.35 2.36,-4.12 2.82,-3.78 3.28,-3.44 3.64,-2.99 4.01,-2.55 4.25,-2.03 4.50,-1.52 4.62,-0.96 4.73,-0.39 4.71,0.17 4.69,0.74 4.53,1.29 4.38,1.84 4.09,2.34 3.81,2.84 3.41,3.25 3.02,3.67 2.53,3.98 2.05,4.28 1.51,4.47 0.96,4.65 0.39,4.70 -0.17,4.75 -0.74,4.66 -1.30,4.57 -1.30,4.57 L -1.30,4.57 Z"></path></g><g transform="translate(1081.1155306909768 349) rotate(0 2.5 1)" stroke="none"><path fill="#1e1e1e" d="M 4.24,-1.32 Q 4.24,-1.32 4.30,-0.26 4.36,0.80 3.93,1.76 3.49,2.73 2.65,3.39 1.82,4.05 0.77,4.24 -0.26,4.43 -1.28,4.11 -2.29,3.80 -3.04,3.04 -3.80,2.29 -4.11,1.28 -4.43,0.26 -4.24,-0.77 -4.04,-1.82 -3.39,-2.65 -2.73,-3.49 -1.76,-3.93 -0.79,-4.36 0.26,-4.30 1.32,-4.23 2.23,-3.68 3.14,-3.13 3.69,-2.23 L 4.24,-1.32 Z"></path></g><g transform="translate(1115.1155306909768 358) rotate(0 1.5 0.5)" stroke="none"><path fill="#1e1e1e" d="M 4.24,-1.32 Q 4.24,-1.32 4.30,-0.26 4.36,0.80 3.93,1.76 3.49,2.73 2.65,3.39 1.82,4.05 0.77,4.24 -0.26,4.43 -1.28,4.11 -2.29,3.80 -3.04,3.04 -3.80,2.29 -4.11,1.28 -4.43,0.26 -4.24,-0.77 -4.04,-1.82 -3.39,-2.65 -2.73,-3.49 -1.76,-3.93 -0.79,-4.36 0.26,-4.30 1.32,-4.23 2.23,-3.68 3.14,-3.13 3.69,-2.23 L 4.24,-1.32 Z"></path></g><g transform="translate(1084.1155306909768 368) rotate(0 20.5 15.5)" stroke="none"><path fill="#1e1e1e" d="M 4.17,-1.30 Q 4.17,-1.30 5.38,3.36 6.60,8.03 8.12,11.85 9.65,15.67 11.62,18.49 13.60,21.31 15.89,22.73 18.17,24.15 21.11,25.00 24.05,25.84 26.93,26.16 29.81,26.49 32.01,26.02 34.21,25.55 35.55,23.74 36.89,21.94 37.42,21.43 37.94,20.92 38.60,20.60 39.26,20.29 39.99,20.20 40.71,20.11 41.43,20.26 42.15,20.41 42.78,20.78 43.41,21.15 43.89,21.70 44.37,22.25 44.65,22.93 44.93,23.60 44.98,24.33 45.03,25.06 44.84,25.77 44.65,26.48 44.25,27.09 43.85,27.70 43.27,28.15 42.69,28.60 42.00,28.84 41.31,29.08 40.58,29.09 39.85,29.10 39.15,28.88 38.45,28.65 37.87,28.21 37.28,27.78 36.86,27.18 36.44,26.58 36.24,25.88 36.03,25.17 36.07,24.44 36.10,23.71 36.36,23.03 36.62,22.34 37.09,21.78 37.56,21.22 38.18,20.83 38.80,20.45 39.51,20.28 40.23,20.12 40.95,20.19 41.68,20.26 42.35,20.56 43.02,20.86 43.56,21.35 44.09,21.85 44.44,22.49 44.79,23.13 44.92,23.85 45.05,24.58 44.94,25.30 44.83,26.02 44.49,26.67 44.16,27.32 44.16,27.32 44.16,27.32 42.43,29.26 40.70,31.19 38.11,32.37 35.53,33.55 32.15,33.84 28.77,34.12 25.29,33.52 21.81,32.91 17.89,31.56 13.97,30.21 10.95,27.83 7.92,25.45 5.53,22.02 3.14,18.59 1.14,14.48 -0.85,10.36 -2.51,5.83 -4.17,1.30 -4.26,0.78 -4.36,0.26 -4.33,-0.25 -4.30,-0.78 -4.14,-1.28 -3.98,-1.79 -3.71,-2.24 -3.44,-2.69 -3.07,-3.06 -2.69,-3.43 -2.24,-3.71 -1.79,-3.98 -1.29,-4.14 -0.79,-4.29 -0.26,-4.33 0.26,-4.36 0.77,-4.26 1.29,-4.17 1.77,-3.95 2.25,-3.74 2.67,-3.41 3.08,-3.09 3.41,-2.67 3.73,-2.26 3.95,-1.78 4.17,-1.30 4.17,-1.30 L 4.17,-1.30 Z"></path></g><g transform="translate(1075.1155306909768 728) rotate(0 13.5 -0.5)" stroke="none"><path fill="#1e1e1e" d="M 0,-4.57 Q 0,-4.57 3.73,-4.45 7.47,-4.32 10.78,-4.32 14.10,-4.31 17.23,-4.33 20.36,-4.35 22.74,-4.84 25.12,-5.32 25.85,-5.31 26.59,-5.31 27.29,-5.06 27.99,-4.82 28.57,-4.36 29.15,-3.91 29.55,-3.29 29.96,-2.68 30.15,-1.96 30.34,-1.25 30.29,-0.51 30.24,0.21 29.96,0.90 29.67,1.58 29.19,2.13 28.70,2.69 28.07,3.06 27.43,3.43 26.71,3.58 25.99,3.73 25.25,3.64 24.52,3.55 23.85,3.24 23.19,2.92 22.66,2.40 22.13,1.89 21.79,1.23 21.46,0.58 21.35,-0.14 21.24,-0.87 21.37,-1.60 21.49,-2.33 21.85,-2.97 22.20,-3.62 22.74,-4.12 23.29,-4.62 23.96,-4.92 24.63,-5.22 25.37,-5.29 26.10,-5.36 26.82,-5.20 27.54,-5.03 28.17,-4.64 28.79,-4.25 29.27,-3.68 29.74,-3.11 30.00,-2.43 30.26,-1.74 30.29,-1.00 30.32,-0.26 30.12,0.44 29.91,1.14 29.49,1.75 29.07,2.36 28.47,2.79 27.88,3.23 27.18,3.46 26.48,3.69 26.48,3.69 26.48,3.69 23.42,4.02 20.37,4.35 17.23,4.33 14.10,4.31 10.78,4.32 7.47,4.32 3.73,4.45 0,4.57 -0.54,4.50 -1.09,4.44 -1.61,4.24 -2.12,4.05 -2.58,3.73 -3.03,3.42 -3.40,3.01 -3.76,2.59 -4.02,2.11 -4.27,1.62 -4.41,1.08 -4.54,0.55 -4.54,-0.00 -4.54,-0.55 -4.41,-1.08 -4.27,-1.62 -4.02,-2.11 -3.76,-2.59 -3.40,-3.01 -3.03,-3.42 -2.58,-3.73 -2.12,-4.05 -1.61,-4.24 -1.09,-4.44 -0.54,-4.50 0.00,-4.57 0.00,-4.57 L 0,-4.57 Z"></path></g><g transform="translate(1120.1155306909768 700) rotate(0 11 8)" stroke="none"><path fill="#1e1e1e" d="M 4.95,0 Q 4.95,0 4.78,3.73 4.62,7.47 4.85,10.59 5.09,13.70 5.29,16.35 5.49,18.99 5.61,21.58 5.73,24.16 5.96,26.82 6.18,29.49 6.33,31.20 6.48,32.92 6.41,33.58 6.33,34.24 6.10,34.86 5.86,35.48 5.49,36.02 5.12,36.57 4.62,37.01 4.13,37.45 3.54,37.76 2.96,38.07 2.32,38.23 1.68,38.39 1.01,38.40 0.35,38.40 -0.28,38.24 -0.92,38.09 -1.51,37.78 -2.10,37.48 -2.60,37.04 -3.09,36.60 -3.47,36.06 -3.85,35.52 -4.09,34.90 -4.32,34.28 -4.41,33.62 -4.49,32.97 -4.51,30.84 -4.54,28.72 -4.50,25.92 -4.45,23.13 -4.35,19.93 -4.25,16.73 -4.13,13.35 -4.02,9.98 -3.91,6.53 -3.80,3.09 -3.76,-0.10 -3.72,-3.30 -3.12,-6.56 -2.52,-9.83 -2.03,-12.07 -1.54,-14.31 -0.48,-16.26 0.57,-18.22 2.81,-20.27 5.06,-22.33 8.07,-22.43 11.08,-22.53 14.09,-20.50 17.09,-18.47 18.80,-16.90 20.51,-15.33 22.17,-13.10 23.83,-10.87 24.98,-8.05 26.13,-5.23 26.64,-2.99 27.16,-0.75 26.62,3.95 26.08,8.66 23.95,10.85 21.83,13.04 18.59,14.75 15.35,16.47 11.55,16.78 7.74,17.08 5.28,16.11 2.81,15.14 0.82,11.80 -1.16,8.46 -1.95,7.60 -2.74,6.74 -3.29,5.85 -3.83,4.95 -4.07,3.93 -4.30,2.91 -4.19,1.86 -4.09,0.82 -3.65,-0.12 -3.22,-1.08 -2.50,-1.85 -1.78,-2.61 -0.86,-3.11 0.05,-3.61 1.09,-3.78 2.12,-3.96 3.16,-3.80 4.19,-3.63 5.12,-3.15 6.05,-2.66 6.78,-1.91 7.51,-1.15 7.95,-0.20 8.40,0.74 8.52,1.78 8.64,2.82 8.42,3.85 8.20,4.87 7.67,5.78 7.13,6.68 6.34,7.36 5.54,8.05 4.57,8.44 3.60,8.84 2.55,8.90 1.50,8.96 0.49,8.69 -0.51,8.41 -1.38,7.83 -2.26,7.25 -2.90,6.42 -3.54,5.59 -3.88,4.60 -4.22,3.60 -4.22,2.55 -4.23,1.51 -3.90,0.51 -3.57,-0.48 -2.94,-1.32 -2.32,-2.15 -1.45,-2.75 -0.59,-3.34 0.41,-3.63 1.42,-3.92 2.47,-3.87 3.52,-3.82 4.49,-3.43 5.47,-3.05 6.27,-2.38 7.08,-1.71 7.08,-1.71 7.08,-1.71 8.68,1.41 10.29,4.54 13.13,4.18 15.96,3.82 15.70,1.28 15.44,-1.26 14.09,-4.18 12.74,-7.10 10.90,-9.72 9.05,-12.35 7.94,-10.13 6.82,-7.90 6.27,-5.58 5.72,-3.26 5.76,-0.08 5.80,3.09 5.91,6.53 6.02,9.98 6.13,13.35 6.25,16.73 6.35,19.93 6.45,23.13 6.47,28.02 6.48,32.92 6.41,33.58 6.33,34.24 6.10,34.86 5.86,35.48 5.49,36.02 5.12,36.57 4.62,37.01 4.13,37.45 3.55,37.76 2.96,38.07 2.32,38.23 1.68,38.39 1.01,38.40 0.35,38.40 -0.28,38.24 -0.92,38.09 -1.51,37.78 -2.10,37.48 -2.60,37.04 -3.09,36.60 -3.47,36.06 -3.85,35.52 -4.09,34.90 -4.32,34.28 -4.41,33.62 -4.49,32.97 -4.35,31.28 -4.21,29.58 -4.05,26.97 -3.89,24.36 -3.87,21.90 -3.85,19.44 -3.90,16.96 -3.94,14.49 -4.28,10.98 -4.62,7.47 -4.78,3.73 -4.95,0 -4.87,-0.59 -4.80,-1.18 -4.59,-1.74 -4.38,-2.30 -4.04,-2.79 -3.70,-3.28 -3.25,-3.67 -2.81,-4.07 -2.28,-4.35 -1.75,-4.62 -1.17,-4.77 -0.59,-4.91 0.00,-4.91 0.59,-4.91 1.17,-4.77 1.75,-4.62 2.28,-4.35 2.81,-4.07 3.25,-3.67 3.70,-3.28 4.04,-2.79 4.38,-2.30 4.59,-1.74 4.80,-1.18 4.87,-0.59 4.95,0.00 4.95,0.00 L 4.95,0 Z"></path></g><g transform="translate(1154.1155306909768 680) rotate(0 3 26.5)" stroke="none"><path fill="#1e1e1e" d="M 4.55,0 Q 4.55,0 4.29,5.17 4.04,10.35 3.86,14.56 3.68,18.77 3.65,22.57 3.62,26.37 3.91,29.86 4.20,33.34 4.73,35.88 5.26,38.43 5.85,40.60 6.44,42.77 7.24,45.76 8.03,48.74 9.19,49.77 10.35,50.81 10.44,51.38 10.52,51.96 10.47,52.53 10.41,53.11 10.22,53.66 10.03,54.20 9.71,54.69 9.40,55.17 8.97,55.57 8.55,55.96 8.04,56.24 7.54,56.53 6.98,56.68 6.42,56.83 5.84,56.85 5.26,56.86 4.70,56.74 4.13,56.61 3.61,56.36 3.09,56.10 2.65,55.73 2.20,55.35 1.86,54.89 1.52,54.42 1.30,53.88 1.09,53.34 3.48,50.31 5.88,47.28 6.64,47.43 7.41,47.58 8.08,47.97 8.75,48.35 9.27,48.93 9.78,49.52 10.09,50.23 10.39,50.95 10.45,51.72 10.51,52.50 10.31,53.25 10.12,54.00 9.70,54.66 9.28,55.31 8.67,55.79 8.06,56.28 7.33,56.54 6.59,56.80 5.82,56.82 5.04,56.83 4.30,56.60 3.56,56.37 2.93,55.91 2.30,55.45 1.85,54.82 1.40,54.18 1.18,53.44 0.95,52.70 0.98,51.92 1.01,51.14 1.28,50.41 1.55,49.69 2.04,49.08 2.53,48.48 3.19,48.07 3.85,47.65 4.61,47.47 5.36,47.29 6.14,47.35 6.91,47.42 7.62,47.73 8.33,48.05 8.91,48.57 9.48,49.09 9.86,49.77 10.24,50.45 10.38,51.22 10.52,51.98 10.41,52.75 10.30,53.52 9.95,54.21 9.60,54.91 9.05,55.45 8.50,56.00 7.80,56.34 7.10,56.68 8.73,53.74 10.35,50.81 10.44,51.38 10.52,51.96 10.47,52.53 10.41,53.11 10.22,53.66 10.03,54.20 9.71,54.69 9.40,55.17 8.97,55.57 8.55,55.96 8.04,56.24 7.54,56.53 6.98,56.68 6.42,56.83 5.84,56.85 5.26,56.86 4.70,56.74 4.13,56.61 3.61,56.36 3.09,56.10 2.65,55.73 2.21,55.35 1.86,54.89 1.52,54.42 1.30,53.88 1.09,53.35 -0.01,52.29 -1.13,51.24 -1.47,47.84 -1.81,44.43 -2.14,42.02 -2.48,39.61 -2.76,36.76 -3.05,33.92 -3.33,30.15 -3.62,26.37 -3.65,22.57 -3.68,18.77 -3.86,14.56 -4.04,10.35 -4.29,5.17 -4.55,0 -4.48,-0.54 -4.41,-1.08 -4.22,-1.60 -4.02,-2.11 -3.71,-2.56 -3.40,-3.01 -2.99,-3.38 -2.58,-3.74 -2.09,-3.99 -1.61,-4.25 -1.08,-4.38 -0.54,-4.51 0.00,-4.51 0.54,-4.51 1.08,-4.38 1.61,-4.25 2.09,-3.99 2.58,-3.74 2.99,-3.38 3.40,-3.01 3.71,-2.56 4.02,-2.11 4.22,-1.60 4.41,-1.08 4.48,-0.54 4.55,0.00 4.55,0.00 L 4.55,0 Z"></path></g><g transform="translate(1187.1155306909768 703) rotate(0 -8 13.5)" stroke="none"><path fill="#1e1e1e" d="M 0.75,5.27 Q 0.75,5.27 -1.21,5.60 -3.17,5.93 -5.09,7.95 -7.01,9.97 -8.25,12.87 -9.50,15.77 -8.75,17.81 -8.01,19.86 -7.06,15.86 -6.11,11.86 -5.52,11.00 -4.92,10.15 -4.08,9.53 -3.25,8.91 -2.25,8.59 -1.26,8.27 -0.22,8.28 0.81,8.30 1.79,8.64 2.78,8.99 3.60,9.63 4.42,10.27 4.99,11.14 5.57,12.01 5.83,13.02 6.10,14.02 6.03,15.06 5.96,16.10 5.56,17.07 5.16,18.03 4.48,18.81 3.79,19.60 2.89,20.12 1.99,20.65 0.97,20.86 -0.04,21.07 -1.07,20.95 -2.10,20.82 -3.04,20.37 -3.98,19.92 -4.73,19.19 -5.48,18.47 -5.95,17.54 -6.43,16.61 -6.59,15.58 -6.74,14.55 -6.56,13.53 -6.38,12.50 -5.88,11.59 -5.38,10.67 -4.61,9.97 -3.85,9.26 -2.90,8.84 -1.94,8.41 -0.91,8.31 0.12,8.21 1.13,8.45 2.15,8.69 3.03,9.24 3.92,9.78 4.58,10.59 5.25,11.39 5.62,12.36 5.99,13.34 6.04,14.38 6.08,15.42 5.79,16.42 5.50,17.42 5.50,17.42 5.50,17.42 4.46,20.19 3.42,22.97 2.37,25.35 1.33,27.73 -1.28,29.76 -3.90,31.78 -6.84,31.94 -9.77,32.11 -11.80,31.18 -13.82,30.25 -16.03,28.30 -18.24,26.35 -19.34,24.25 -20.43,22.16 -20.91,19.32 -21.39,16.48 -20.01,11.93 -18.62,7.38 -17.21,4.88 -15.80,2.38 -12.57,-0.32 -9.34,-3.03 -7.10,-3.90 -4.87,-4.78 -2.81,-5.02 -0.75,-5.27 -0.11,-5.28 0.53,-5.29 1.15,-5.15 1.78,-5.01 2.35,-4.73 2.93,-4.44 3.42,-4.02 3.91,-3.61 4.28,-3.09 4.66,-2.57 4.90,-1.97 5.14,-1.38 5.23,-0.74 5.32,-0.11 5.25,0.52 5.19,1.16 4.98,1.77 4.76,2.37 4.41,2.91 4.05,3.44 3.58,3.88 3.11,4.31 2.55,4.62 1.99,4.93 1.37,5.10 0.75,5.27 0.75,5.27 L 0.75,5.27 Z"></path></g><g transform="translate(1192.1155306909768 701) rotate(0 -1 15)" stroke="none"><path fill="#1e1e1e" d="M 4.85,0.48 Q 4.85,0.48 4.56,3.36 4.28,6.23 4.20,8.76 4.12,11.29 3.72,14.58 3.32,17.87 3.21,20.51 3.10,23.15 3.05,26.31 3.01,29.47 2.86,30.27 2.71,31.06 2.31,31.77 1.92,32.47 1.31,33.01 0.71,33.56 -0.02,33.88 -0.76,34.20 -1.57,34.27 -2.38,34.33 -3.16,34.14 -3.95,33.94 -4.63,33.51 -5.31,33.08 -5.82,32.45 -6.33,31.82 -6.61,31.06 -6.89,30.30 -6.91,29.49 -6.94,28.68 -6.70,27.91 -6.46,27.13 -5.99,26.47 -5.52,25.82 -4.87,25.34 -4.21,24.87 -3.44,24.63 -2.66,24.39 -1.85,24.41 -1.04,24.43 -0.28,24.71 0.47,24.99 1.10,25.49 1.73,26.00 2.17,26.68 2.60,27.36 2.80,28.15 3.00,28.93 2.93,29.74 2.87,30.55 2.55,31.29 2.23,32.03 1.69,32.64 1.15,33.24 0.45,33.64 -0.25,34.04 -1.04,34.19 -1.84,34.35 -2.64,34.24 -3.44,34.13 -4.16,33.77 -4.89,33.41 -5.46,32.84 -6.04,32.27 -6.40,31.55 -6.76,30.82 -6.87,30.02 -6.98,29.22 -6.98,29.22 -6.98,29.22 -6.82,25.93 -6.67,22.64 -6.49,19.73 -6.32,16.83 -6.04,13.83 -5.76,10.84 -5.59,8.05 -5.43,5.26 -5.14,2.38 -4.85,-0.48 -4.72,-1.05 -4.59,-1.63 -4.33,-2.15 -4.06,-2.68 -3.68,-3.13 -3.30,-3.57 -2.83,-3.92 -2.35,-4.26 -1.81,-4.48 -1.26,-4.70 -0.68,-4.79 -0.10,-4.87 0.48,-4.81 1.06,-4.75 1.62,-4.55 2.17,-4.36 2.66,-4.03 3.15,-3.71 3.55,-3.28 3.95,-2.85 4.23,-2.33 4.52,-1.82 4.67,-1.25 4.82,-0.68 4.83,-0.10 4.85,0.48 4.85,0.48 L 4.85,0.48 Z"></path></g><g transform="translate(1201.1155306909768 699) rotate(0 14 16.5)" stroke="none"><path fill="#1e1e1e" d="M 5.04,0 Q 5.04,0 5.03,2.87 5.02,5.74 5.31,8.13 5.60,10.52 6.89,14.03 8.18,17.55 9.56,19.57 10.94,21.60 12.47,23.08 14.00,24.56 15.55,26.02 17.10,27.48 18.31,23.79 19.52,20.10 20.68,17.60 21.83,15.10 21.80,12.50 21.76,9.90 21.35,8.69 20.93,7.48 20.92,6.47 20.91,5.46 21.22,4.50 21.54,3.55 22.14,2.74 22.74,1.93 23.57,1.36 24.39,0.78 25.36,0.50 26.33,0.22 27.34,0.27 28.34,0.31 29.28,0.68 30.22,1.04 31.00,1.68 31.77,2.33 32.30,3.18 32.83,4.04 33.05,5.02 33.28,6.01 33.18,7.01 33.08,8.01 32.67,8.93 32.26,9.85 31.57,10.59 30.88,11.32 30.00,11.80 29.11,12.29 28.12,12.46 27.13,12.63 26.13,12.48 25.14,12.33 24.24,11.86 23.35,11.40 22.65,10.68 21.95,9.95 21.52,9.04 21.08,8.13 20.97,7.13 20.85,6.13 21.05,5.15 21.26,4.16 21.77,3.29 22.28,2.42 23.04,1.76 23.80,1.10 24.74,0.72 25.67,0.34 26.67,0.27 27.68,0.21 28.65,0.47 29.62,0.73 30.46,1.29 31.30,1.84 31.92,2.64 32.54,3.43 32.87,4.39 33.20,5.34 33.20,5.34 33.20,5.34 33.65,7.71 34.10,10.08 33.82,13.08 33.54,16.08 32.98,18.19 32.43,20.31 31.01,22.84 29.60,25.37 28.57,27.28 27.53,29.19 25.91,31.58 24.30,33.97 21.35,35.38 18.41,36.80 15.20,36.13 11.98,35.46 9.29,33.70 6.60,31.94 4.47,29.71 2.35,27.48 0.55,24.83 -1.24,22.18 -2.46,19.38 -3.67,16.59 -4.06,14.10 -4.45,11.61 -4.74,8.68 -5.02,5.75 -5.03,2.87 -5.04,0 -4.97,-0.60 -4.90,-1.20 -4.68,-1.77 -4.47,-2.34 -4.12,-2.84 -3.77,-3.34 -3.32,-3.75 -2.86,-4.15 -2.32,-4.43 -1.79,-4.72 -1.19,-4.86 -0.60,-5.01 0.00,-5.01 0.60,-5.01 1.19,-4.86 1.79,-4.72 2.32,-4.43 2.86,-4.15 3.32,-3.75 3.77,-3.34 4.12,-2.84 4.47,-2.34 4.68,-1.77 4.90,-1.20 4.97,-0.60 5.04,0.00 5.04,0.00 L 5.04,0 Z"></path></g><g transform="translate(1226.1155306909768 703) rotate(0 -14 32.5)" stroke="none"><path fill="#1e1e1e" d="M 4.26,0 Q 4.26,0 4.36,2.58 4.45,5.17 4.51,7.99 4.56,10.82 4.54,14.03 4.52,17.24 4.76,20.43 4.99,23.63 4.94,27.77 4.90,31.92 5.16,35.53 5.43,39.13 5.55,42.85 5.68,46.57 4.86,50.35 4.03,54.14 3.12,56.97 2.22,59.80 -0.05,62.54 -2.33,65.27 -5.61,66.68 -8.89,68.10 -11.77,68.61 -14.65,69.13 -17.15,69.36 -19.66,69.60 -22.65,68.60 -25.63,67.61 -27.90,65.16 -30.16,62.72 -31.59,59.77 -33.01,56.82 -33.93,53.66 -34.85,50.51 -34.93,49.65 -35.00,48.79 -34.80,47.95 -34.59,47.12 -34.13,46.39 -33.67,45.66 -33.00,45.12 -32.33,44.57 -31.53,44.27 -30.72,43.97 -29.86,43.94 -29.00,43.92 -28.17,44.16 -27.34,44.41 -26.64,44.91 -25.94,45.41 -25.43,46.11 -24.93,46.81 -24.67,47.63 -24.41,48.45 -24.43,49.32 -24.45,50.18 -24.74,50.99 -25.04,51.80 -25.57,52.47 -26.11,53.15 -26.84,53.62 -27.56,54.08 -28.40,54.30 -29.23,54.51 -30.09,54.44 -30.95,54.38 -31.74,54.04 -32.54,53.70 -33.18,53.13 -33.83,52.56 -34.25,51.81 -34.68,51.06 -34.85,50.21 -35.02,49.37 -34.90,48.51 -34.79,47.66 -34.41,46.88 -34.03,46.11 -33.43,45.50 -32.82,44.89 -32.05,44.50 -31.28,44.11 -30.42,43.99 -29.57,43.87 -28.72,44.03 -27.87,44.19 -27.12,44.61 -26.37,45.03 -25.79,45.67 -25.21,46.31 -24.87,47.10 -24.52,47.89 -24.52,47.89 -24.52,47.89 -24.06,50.20 -23.60,52.51 -22.31,55.63 -21.03,58.75 -18.49,59.29 -15.95,59.82 -13.83,59.64 -11.71,59.46 -8.61,58.08 -5.51,56.71 -4.59,54.47 -3.66,52.24 -2.88,49.52 -2.11,46.80 -2.27,43.32 -2.43,39.85 -2.84,36.01 -3.26,32.17 -3.55,28.27 -3.84,24.38 -4.18,20.81 -4.52,17.25 -4.54,14.03 -4.56,10.82 -4.51,7.99 -4.45,5.17 -4.36,2.58 -4.26,0 -4.20,-0.51 -4.14,-1.02 -3.96,-1.50 -3.77,-1.98 -3.48,-2.40 -3.19,-2.82 -2.80,-3.17 -2.42,-3.51 -1.96,-3.75 -1.51,-3.98 -1.01,-4.11 -0.51,-4.23 0.00,-4.23 0.51,-4.23 1.01,-4.11 1.51,-3.98 1.96,-3.75 2.42,-3.51 2.80,-3.17 3.19,-2.82 3.48,-2.40 3.77,-1.98 3.96,-1.50 4.14,-1.02 4.20,-0.51 4.26,0.00 4.26,0.00 L 4.26,0 Z"></path></g><g transform="translate(1240.1155306909768 711) rotate(0 12 6)" stroke="none"><path fill="#1e1e1e" d="M 2.14,-4.83 Q 2.14,-4.83 4.71,-3.66 7.28,-2.49 9.43,-4.07 11.59,-5.66 8.29,-3.91 4.99,-2.16 3.33,-0.32 1.68,1.51 1.67,4.77 1.66,8.03 3.49,11.25 5.33,14.47 8.00,15.54 10.67,16.61 14.07,15.83 17.47,15.06 20.85,12.38 24.23,9.70 24.99,9.20 25.76,8.70 26.65,8.47 27.53,8.24 28.44,8.30 29.35,8.37 30.20,8.72 31.04,9.08 31.73,9.68 32.41,10.28 32.87,11.07 33.33,11.87 33.51,12.76 33.69,13.66 33.58,14.57 33.46,15.47 33.06,16.30 32.66,17.12 32.02,17.77 31.38,18.42 30.57,18.84 29.75,19.25 28.85,19.38 27.94,19.52 27.04,19.35 26.15,19.19 25.35,18.75 24.55,18.30 23.93,17.63 23.31,16.95 22.94,16.12 22.57,15.28 22.49,14.37 22.41,13.46 22.62,12.57 22.83,11.68 23.32,10.91 23.80,10.13 24.51,9.55 25.22,8.97 26.07,8.65 26.93,8.33 27.84,8.29 28.75,8.26 29.63,8.52 30.51,8.78 31.25,9.31 32.00,9.83 32.54,10.57 33.08,11.31 33.36,12.18 33.63,13.05 33.62,13.96 33.60,14.88 33.30,15.74 32.99,16.60 32.42,17.32 31.86,18.04 31.86,18.04 31.86,18.03 29.15,20.33 26.44,22.62 23.79,24.06 21.13,25.50 17.78,26.55 14.43,27.59 11.20,27.53 7.96,27.48 4.44,26.34 0.91,25.19 -1.47,23.09 -3.86,20.98 -5.78,18.14 -7.69,15.30 -8.81,11.97 -9.93,8.63 -10.01,5.47 -10.09,2.31 -9.27,-1.12 -8.46,-4.57 -6.59,-7.12 -4.72,-9.66 -2.29,-11.33 0.13,-13.00 3.10,-14.32 6.07,-15.65 9.26,-16.22 12.45,-16.80 15.77,-16.14 19.09,-15.48 20.77,-13.53 22.46,-11.58 22.96,-9.05 23.47,-6.51 23.02,-4.02 22.57,-1.53 21.58,0.70 20.59,2.94 18.84,4.83 17.10,6.72 14.76,7.64 12.42,8.57 10.14,8.53 7.87,8.48 5.46,7.79 3.06,7.09 0.45,5.96 -2.14,4.83 -2.69,4.50 -3.24,4.18 -3.69,3.73 -4.14,3.28 -4.48,2.73 -4.81,2.19 -5.00,1.58 -5.19,0.97 -5.24,0.34 -5.28,-0.29 -5.17,-0.92 -5.05,-1.55 -4.79,-2.13 -4.54,-2.71 -4.14,-3.22 -3.75,-3.72 -3.25,-4.11 -2.75,-4.51 -2.17,-4.77 -1.59,-5.04 -0.97,-5.16 -0.34,-5.27 0.29,-5.24 0.92,-5.20 1.53,-5.02 2.14,-4.83 2.14,-4.83 L 2.14,-4.83 Z"></path></g><g transform="translate(1289.1155306909768 722) rotate(0 10 -20)" stroke="none"><path fill="#1e1e1e" d="M -4.31,0.92 Q -4.31,0.92 -4.98,-3.14 -5.65,-7.22 -5.58,-12.19 -5.52,-17.17 -4.52,-21.77 -3.53,-26.36 -2.25,-30.15 -0.98,-33.94 0.88,-36.66 2.74,-39.38 5.56,-40.91 8.39,-42.43 11.76,-41.84 15.14,-41.25 18.17,-39.64 21.19,-38.04 23.17,-36.58 25.16,-35.13 25.65,-34.58 26.14,-34.03 26.44,-33.35 26.73,-32.67 26.79,-31.93 26.84,-31.19 26.66,-30.47 26.48,-29.75 26.08,-29.13 25.68,-28.51 25.11,-28.04 24.53,-27.58 23.83,-27.33 23.14,-27.07 22.40,-27.05 21.65,-27.04 20.95,-27.25 20.24,-27.47 19.64,-27.91 19.04,-28.34 18.61,-28.94 18.18,-29.54 17.96,-30.25 17.74,-30.96 17.77,-31.70 17.79,-32.44 18.04,-33.14 18.30,-33.83 18.77,-34.41 19.23,-34.98 19.86,-35.38 20.48,-35.78 21.20,-35.96 21.92,-36.13 22.66,-36.07 23.40,-36.01 24.08,-35.72 24.76,-35.42 25.31,-34.93 25.86,-34.43 26.22,-33.79 26.58,-33.14 26.72,-32.41 26.86,-31.68 26.76,-30.95 26.66,-30.22 26.32,-29.55 25.99,-28.89 25.47,-28.37 24.94,-27.85 24.28,-27.52 23.62,-27.19 22.88,-27.09 22.15,-26.99 21.42,-27.14 20.69,-27.28 20.05,-27.64 19.41,-28.01 19.41,-28.01 19.41,-28.01 18.15,-29.17 16.90,-30.33 13.50,-32.64 10.11,-34.95 7.75,-33.28 5.39,-31.61 4.23,-28.34 3.07,-25.06 2.41,-21.16 1.75,-17.26 1.97,-13.07 2.20,-8.87 3.25,-4.90 4.31,-0.92 4.35,-0.39 4.40,0.13 4.32,0.66 4.24,1.18 4.04,1.67 3.84,2.16 3.52,2.59 3.20,3.02 2.80,3.36 2.39,3.70 1.91,3.93 1.43,4.16 0.91,4.28 0.39,4.39 -0.13,4.37 -0.66,4.35 -1.17,4.21 -1.68,4.07 -2.15,3.81 -2.61,3.55 -3.00,3.18 -3.38,2.82 -3.67,2.37 -3.96,1.92 -4.13,1.42 -4.31,0.92 -4.31,0.92 L -4.31,0.92 Z"></path></g><g transform="translate(1119.1155306909768 789) rotate(0 219.5 -12)" stroke="none"><path fill="#1e1e1e" d="M -0.41,-3.31 Q -0.41,-3.31 4.19,-3.79 8.80,-4.27 21.23,-7.29 33.66,-10.30 55.67,-16.17 77.68,-22.04 103.72,-29.12 129.76,-36.20 149.83,-40.37 169.90,-44.54 179.25,-46.29 188.61,-48.05 188.94,-48.07 189.27,-48.10 189.59,-48.05 189.92,-48.00 190.22,-47.87 190.52,-47.74 190.79,-47.55 191.05,-47.35 191.26,-47.10 191.47,-46.84 191.61,-46.55 191.76,-46.25 191.82,-45.93 191.89,-45.60 191.88,-45.28 191.87,-44.95 191.78,-44.63 191.69,-44.31 191.52,-44.03 191.36,-43.74 191.13,-43.50 190.91,-43.26 190.63,-43.09 190.35,-42.91 190.04,-42.80 189.73,-42.70 178.51,-33.80 167.30,-24.90 140.93,-15.76 114.55,-6.63 85.85,2.09 57.16,10.81 41.82,15.36 26.48,19.90 26.14,19.96 25.81,20.02 25.47,20.00 25.14,19.98 24.82,19.88 24.49,19.77 24.21,19.60 23.92,19.42 23.68,19.18 23.44,18.94 23.27,18.65 23.10,18.36 23.00,18.04 22.90,17.71 22.88,17.38 22.86,17.04 22.92,16.71 22.99,16.38 23.13,16.07 23.27,15.76 23.48,15.50 23.69,15.23 23.95,15.03 24.22,14.82 24.53,14.68 24.84,14.55 29.64,14.42 34.43,14.29 70.37,9.70 106.30,5.11 167.45,2.00 228.61,-1.10 282.48,-2.42 336.35,-3.73 365.84,-4.57 395.32,-5.41 407.25,-6.05 419.17,-6.69 424.26,-6.96 429.34,-7.24 429.76,-7.19 430.19,-7.14 430.58,-6.96 430.97,-6.78 431.28,-6.49 431.59,-6.19 431.79,-5.81 431.99,-5.43 432.06,-5.01 432.13,-4.59 432.06,-4.16 431.99,-3.74 431.79,-3.36 431.59,-2.98 431.28,-2.69 430.97,-2.39 430.58,-2.21 430.19,-2.03 429.76,-1.99 429.34,-1.94 428.92,-2.03 428.50,-2.12 428.13,-2.34 427.76,-2.57 427.49,-2.89 427.21,-3.22 427.05,-3.62 426.89,-4.02 426.87,-4.45 426.85,-4.87 426.96,-5.29 427.07,-5.70 427.32,-6.06 427.56,-6.41 427.90,-6.67 428.24,-6.93 428.65,-7.07 429.05,-7.20 429.48,-7.20 429.91,-7.20 430.32,-7.07 430.72,-6.93 431.07,-6.67 431.41,-6.41 431.65,-6.06 431.89,-5.70 432.00,-5.29 432.12,-4.87 432.09,-4.45 432.07,-4.02 431.91,-3.62 431.75,-3.22 431.48,-2.89 431.20,-2.57 430.83,-2.34 430.46,-2.12 430.04,-2.03 429.62,-1.94 429.62,-1.94 429.63,-1.94 424.54,-1.66 419.46,-1.38 407.47,-0.72 395.48,-0.06 365.98,0.79 336.48,1.65 282.68,2.98 228.89,4.32 167.94,7.44 107.00,10.57 70.76,15.23 34.52,19.89 30.50,19.90 26.48,19.90 26.14,19.96 25.81,20.02 25.47,20.00 25.14,19.98 24.82,19.88 24.49,19.77 24.21,19.60 23.92,19.42 23.68,19.18 23.44,18.94 23.27,18.65 23.10,18.36 23.00,18.04 22.90,17.71 22.88,17.38 22.86,17.04 22.92,16.71 22.99,16.38 23.13,16.07 23.27,15.76 23.48,15.50 23.69,15.23 23.95,15.03 24.22,14.82 24.53,14.68 24.84,14.55 40.16,9.93 55.48,5.32 84.04,-3.44 112.61,-12.21 138.43,-21.24 164.26,-30.26 175.08,-36.10 185.90,-41.93 187.25,-44.99 188.61,-48.05 188.94,-48.07 189.27,-48.10 189.59,-48.05 189.92,-48.00 190.22,-47.87 190.52,-47.74 190.79,-47.55 191.05,-47.35 191.26,-47.10 191.47,-46.84 191.61,-46.55 191.76,-46.25 191.82,-45.93 191.89,-45.60 191.88,-45.28 191.87,-44.95 191.78,-44.63 191.69,-44.31 191.52,-44.03 191.36,-43.74 191.13,-43.50 190.91,-43.26 190.63,-43.09 190.35,-42.91 190.04,-42.80 189.73,-42.70 180.38,-40.90 171.03,-39.11 151.14,-34.93 131.25,-30.75 105.22,-23.59 79.19,-16.43 57.15,-10.45 35.10,-4.47 22.35,-1.24 9.59,1.97 5.00,2.64 0.41,3.31 0.01,3.31 -0.39,3.32 -0.78,3.22 -1.17,3.13 -1.53,2.94 -1.88,2.75 -2.19,2.49 -2.49,2.22 -2.72,1.89 -2.95,1.56 -3.09,1.18 -3.24,0.81 -3.29,0.41 -3.34,0.01 -3.29,-0.38 -3.24,-0.78 -3.10,-1.16 -2.96,-1.54 -2.73,-1.87 -2.51,-2.20 -2.20,-2.47 -1.90,-2.74 -1.55,-2.93 -1.19,-3.12 -0.80,-3.21 -0.41,-3.31 -0.41,-3.31 L -0.41,-3.31 Z"></path></g><g transform="translate(355.1155306909768 10) rotate(0 7 16.5)" stroke="none"><path fill="#1e1e1e" d="M 4.19,-0.78 Q 4.19,-0.78 4.84,3.85 5.49,8.49 6.27,13.33 7.05,18.18 8.17,21.71 9.30,25.24 12.29,27.18 15.28,29.12 15.76,29.54 16.25,29.97 16.57,30.52 16.89,31.08 17.02,31.71 17.15,32.34 17.07,32.97 16.99,33.61 16.71,34.19 16.43,34.77 15.98,35.23 15.54,35.69 14.96,35.98 14.39,36.27 13.76,36.36 13.12,36.46 12.49,36.34 11.86,36.23 11.30,35.92 10.73,35.61 10.30,35.14 9.86,34.67 9.60,34.08 9.34,33.49 9.28,32.85 9.22,32.21 9.37,31.59 9.52,30.96 9.86,30.42 10.20,29.87 10.69,29.47 11.19,29.06 11.79,28.83 12.39,28.60 13.03,28.58 13.67,28.55 14.29,28.73 14.91,28.91 15.43,29.28 15.96,29.65 16.34,30.17 16.72,30.69 16.91,31.30 17.11,31.91 17.10,32.55 17.09,33.19 16.87,33.80 16.66,34.40 16.26,34.91 15.87,35.41 15.33,35.77 14.79,36.12 14.17,36.28 13.55,36.44 12.91,36.40 12.27,36.35 11.68,36.10 11.08,35.86 11.08,35.86 11.09,35.86 8.91,34.29 6.73,32.73 4.84,30.16 2.96,27.59 1.56,23.56 0.16,19.53 -0.93,14.72 -2.04,9.90 -3.11,5.34 -4.19,0.78 -4.22,0.27 -4.26,-0.24 -4.17,-0.74 -4.08,-1.25 -3.87,-1.72 -3.66,-2.19 -3.34,-2.59 -3.03,-3.00 -2.62,-3.32 -2.22,-3.64 -1.75,-3.85 -1.28,-4.06 -0.78,-4.16 -0.27,-4.25 0.23,-4.23 0.75,-4.20 1.24,-4.05 1.73,-3.89 2.17,-3.63 2.61,-3.37 2.98,-3.00 3.34,-2.64 3.61,-2.20 3.88,-1.76 4.04,-1.27 4.19,-0.78 4.19,-0.78 L 4.19,-0.78 Z"></path></g><g transform="translate(400.1155306909768 24) rotate(0 -4.5 8)" stroke="none"><path fill="#1e1e1e" d="M 4.52,1.23 Q 4.52,1.23 3.60,4.40 2.69,7.58 0.95,10.66 -0.79,13.74 -2.72,16.06 -4.65,18.39 -5.26,18.88 -5.87,19.37 -6.60,19.63 -7.34,19.90 -8.12,19.92 -8.90,19.93 -9.65,19.70 -10.39,19.47 -11.03,19.01 -11.66,18.55 -12.11,17.91 -12.57,17.28 -12.79,16.53 -13.02,15.78 -13.00,15.00 -12.97,14.22 -12.70,13.48 -12.42,12.75 -11.93,12.14 -11.44,11.54 -10.78,11.12 -10.12,10.70 -9.36,10.52 -8.60,10.33 -7.82,10.40 -7.04,10.46 -6.32,10.78 -5.61,11.09 -5.03,11.61 -4.45,12.14 -4.07,12.82 -3.69,13.50 -3.54,14.27 -3.40,15.04 -3.51,15.81 -3.62,16.59 -3.97,17.29 -4.32,17.99 -4.87,18.54 -5.43,19.09 -6.13,19.43 -6.83,19.77 -7.61,19.88 -8.38,19.98 -9.15,19.83 -9.92,19.68 -10.59,19.29 -11.27,18.90 -11.79,18.32 -12.31,17.73 -12.62,17.01 -12.92,16.29 -12.98,15.51 -13.04,14.73 -12.85,13.98 -12.66,13.22 -12.23,12.56 -11.81,11.90 -11.81,11.91 -11.81,11.91 -10.27,10.39 -8.72,8.88 -7.43,6.97 -6.14,5.06 -5.33,1.91 -4.52,-1.23 -4.30,-1.75 -4.09,-2.27 -3.76,-2.73 -3.43,-3.19 -2.99,-3.55 -2.56,-3.92 -2.05,-4.17 -1.55,-4.42 -1.00,-4.54 -0.45,-4.66 0.11,-4.65 0.67,-4.63 1.22,-4.48 1.76,-4.33 2.26,-4.06 2.75,-3.79 3.16,-3.40 3.58,-3.02 3.89,-2.54 4.20,-2.07 4.38,-1.54 4.57,-1.00 4.63,-0.44 4.68,0.11 4.60,0.67 4.52,1.23 4.52,1.23 L 4.52,1.23 Z"></path></g><g transform="translate(337.1155306909768 42) rotate(0 59 21.5)" stroke="none"><path fill="#1e1e1e" d="M 3.26,-0.97 Q 3.26,-0.97 4.87,4.78 6.49,10.54 10.38,16.32 14.28,22.10 20.82,26.70 27.36,31.30 36.47,33.80 45.59,36.31 57.62,36.27 69.65,36.23 81.05,34.54 92.44,32.85 99.44,30.46 106.44,28.07 109.45,26.85 112.47,25.64 112.95,25.56 113.44,25.47 113.93,25.55 114.42,25.63 114.86,25.86 115.30,26.09 115.64,26.45 115.99,26.81 116.20,27.26 116.41,27.71 116.46,28.20 116.52,28.70 116.41,29.18 116.31,29.67 116.05,30.09 115.80,30.52 115.42,30.84 115.04,31.16 114.58,31.35 114.12,31.53 113.63,31.56 113.13,31.59 112.65,31.46 112.17,31.33 111.76,31.05 111.35,30.77 111.05,30.38 110.75,29.99 110.59,29.52 110.43,29.05 110.43,28.55 110.43,28.05 110.58,27.58 110.74,27.11 111.04,26.72 111.34,26.32 111.75,26.04 112.16,25.76 112.64,25.63 113.11,25.49 113.61,25.52 114.10,25.54 114.57,25.73 115.03,25.91 115.41,26.23 115.79,26.55 116.04,26.97 116.30,27.40 116.41,27.88 116.52,28.37 116.46,28.86 116.41,29.35 116.20,29.80 116.00,30.25 115.66,30.62 115.32,30.98 114.88,31.21 114.44,31.44 114.44,31.44 114.44,31.44 111.31,32.32 108.18,33.20 100.72,35.73 93.26,38.26 81.47,40.03 69.67,41.80 56.89,41.80 44.12,41.79 34.10,38.96 24.08,36.13 16.71,30.87 9.34,25.61 4.87,19.03 0.40,12.45 -1.42,6.71 -3.26,0.97 -3.33,0.57 -3.40,0.16 -3.37,-0.24 -3.34,-0.64 -3.21,-1.04 -3.09,-1.43 -2.87,-1.78 -2.65,-2.12 -2.36,-2.41 -2.07,-2.70 -1.71,-2.91 -1.36,-3.12 -0.97,-3.23 -0.57,-3.35 -0.16,-3.37 0.24,-3.39 0.64,-3.32 1.04,-3.24 1.42,-3.06 1.79,-2.89 2.11,-2.63 2.43,-2.38 2.68,-2.05 2.93,-1.73 3.09,-1.35 3.26,-0.97 3.26,-0.97 L 3.26,-0.97 Z"></path></g><g stroke-linecap="round" transform="translate(570.1155306909768 116) rotate(0 211 242)"><path d="M32 0 C132.62 -2.73, 235.55 -1.86, 390 0 M32 0 C146.35 1.58, 261.84 1.45, 390 0 M390 0 C409.93 -1.33, 420.85 11.98, 422 32 M390 0 C412.88 1.4, 421.94 10.49, 422 32 M422 32 C424.36 145.12, 423.61 259.36, 422 452 M422 32 C422.28 157.51, 422.47 284.15, 422 452 M422 452 C420.69 472.55, 412.85 482.23, 390 484 M422 452 C423.96 474.57, 410.86 484.67, 390 484 M390 484 C286.63 482.37, 183.9 484.1, 32 484 M390 484 C273.41 484.72, 156.76 484.47, 32 484 M32 484 C12.47 485.32, -0.48 474.03, 0 452 M32 484 C11.1 486.03, -1.99 472.86, 0 452 M0 452 C-1.88 309.73, -0.89 170.17, 0 32 M0 452 C1.04 322.91, 1.74 192.57, 0 32 M0 32 C0.91 10.69, 9.55 -1.97, 32 0 M0 32 C-1.39 8.94, 9.8 1.83, 32 0" stroke="#1e1e1e" stroke-width="2" fill="none"></path></g><g stroke-linecap="round"><g transform="translate(10.115530690976811 641) rotate(0 3.5 16)"><path d="M0.36 -0.15 C1.54 5.05, 5.47 26.28, 6.54 31.57 M-0.12 -0.7 C1.27 4.52, 6.46 26.6, 7.53 32.05" stroke="#1e1e1e" stroke-width="2" fill="none"></path></g></g><mask></mask><g transform="translate(16.11553069097681 670) rotate(0 1 -13.5)" stroke="none"><path fill="#1e1e1e" d="M -5.09,-1.27 Q -5.09,-1.27 -4.55,-3.57 -4.01,-5.88 -3.85,-9.29 -3.68,-12.71 -3.71,-16.43 -3.74,-20.16 -3.82,-23.35 -3.89,-26.55 -3.74,-27.49 -3.58,-28.43 -3.13,-29.27 -2.68,-30.11 -1.99,-30.77 -1.29,-31.42 -0.43,-31.82 0.43,-32.22 1.38,-32.32 2.33,-32.42 3.26,-32.21 4.19,-32.01 5.00,-31.51 5.82,-31.02 6.44,-30.29 7.05,-29.56 7.40,-28.68 7.75,-27.79 7.80,-26.84 7.85,-25.88 7.60,-24.97 7.34,-24.05 6.80,-23.26 6.27,-22.47 5.51,-21.90 4.74,-21.32 3.84,-21.02 2.94,-20.71 1.98,-20.72 1.03,-20.72 0.12,-21.02 -0.77,-21.33 -1.53,-21.91 -2.28,-22.49 -2.82,-23.28 -3.35,-24.07 -3.60,-24.99 -3.86,-25.91 -3.80,-26.86 -3.75,-27.81 -3.40,-28.70 -3.04,-29.58 -2.42,-30.31 -1.80,-31.04 -0.98,-31.53 -0.17,-32.02 0.76,-32.22 1.69,-32.42 2.64,-32.32 3.58,-32.21 4.45,-31.81 5.31,-31.41 6.00,-30.75 6.70,-30.09 7.14,-29.25 7.59,-28.40 7.74,-27.46 7.89,-26.52 7.89,-26.52 7.89,-26.52 7.86,-24.41 7.83,-22.30 7.70,-19.18 7.57,-16.05 7.29,-12.14 7.01,-8.23 6.66,-5.77 6.31,-3.31 5.70,-1.02 5.09,1.27 4.87,1.86 4.64,2.45 4.28,2.97 3.92,3.49 3.44,3.91 2.96,4.33 2.40,4.62 1.84,4.91 1.23,5.06 0.61,5.21 -0.01,5.21 -0.65,5.21 -1.26,5.05 -1.87,4.90 -2.43,4.60 -2.99,4.31 -3.47,3.89 -3.94,3.47 -4.30,2.94 -4.65,2.42 -4.88,1.83 -5.10,1.23 -5.17,0.61 -5.25,-0.01 -5.17,-0.64 -5.09,-1.27 -5.09,-1.27 L -5.09,-1.27 Z"></path></g><g transform="translate(97.11553069097681 640) rotate(0 4 7.5)" stroke="none"><path fill="#1e1e1e" d="M 4.81,1.92 Q 4.81,1.92 4.31,3.39 3.82,4.85 5.65,6.90 7.49,8.94 8.72,8.75 9.96,8.55 10.98,8.77 11.99,8.98 12.89,9.51 13.79,10.04 14.47,10.83 15.15,11.62 15.54,12.58 15.93,13.54 16.00,14.58 16.06,15.62 15.79,16.63 15.52,17.63 14.95,18.50 14.37,19.37 13.55,20.00 12.72,20.64 11.74,20.98 10.76,21.32 9.72,21.33 8.68,21.34 7.69,21.01 6.70,20.69 5.86,20.07 5.03,19.44 4.44,18.59 3.85,17.73 3.56,16.73 3.27,15.73 3.32,14.69 3.37,13.65 3.75,12.68 4.12,11.71 4.79,10.91 5.46,10.11 6.35,9.57 7.23,9.02 8.25,8.79 9.26,8.56 10.30,8.66 11.33,8.77 12.28,9.20 13.23,9.63 13.99,10.34 14.75,11.04 15.25,11.96 15.74,12.88 15.92,13.90 16.10,14.93 15.94,15.96 15.78,16.98 15.30,17.91 14.82,18.83 14.07,19.55 13.32,20.28 12.38,20.72 11.43,21.16 10.40,21.29 9.37,21.41 9.37,21.41 9.37,21.41 6.05,20.23 2.73,19.06 0.91,17.84 -0.90,16.62 -2.73,14.99 -4.55,13.35 -5.62,10.42 -6.68,7.48 -6.40,4.19 -6.12,0.89 -5.46,-0.51 -4.81,-1.92 -4.51,-2.47 -4.21,-3.02 -3.78,-3.48 -3.36,-3.94 -2.84,-4.28 -2.32,-4.63 -1.73,-4.84 -1.14,-5.05 -0.52,-5.11 0.09,-5.18 0.71,-5.09 1.33,-5.00 1.91,-4.77 2.49,-4.54 2.99,-4.18 3.50,-3.81 3.91,-3.34 4.31,-2.86 4.59,-2.30 4.87,-1.74 5.01,-1.14 5.15,-0.53 5.14,0.09 5.13,0.71 4.97,1.32 4.81,1.92 4.81,1.92 L 4.81,1.92 Z"></path></g></svg>